
<svg xmlns="http://www.w3.org/2000/svg" version="1.1" xmlns:xlink="http://www.w3.org/1999/xlink" preserveAspectRatio="none" x="0px" y="0px" width="1588px" height="828px" viewBox="0 0 1588 828">
<defs>
<g id="Layer4_0_FILL">
<path fill="#FDAE2A" fill-opacity="0.2980392156862745" stroke="none" d="
M 1298.4 268.85
Q 1298.35 268.75 1298.35 268.65 1289.2 269.3 1280.15 270.45 1252.15 273.7 1224.25 277.4 1211.3 279.15 1198.25 280 1154.1 282.85 1120.95 278.25 1066.8 270.75 1042.05 243.45 1018.8 217.9 1021.3 175.05 1020.75 164.95 1016.95 155.8 1012.95 146.2 1005.35 137.6 980.75 111.8 939 101.95 936.35 101.35 933.85 100.55 873.75 84.25 807.3 89.05 715.5 95.55 626.85 115.5 541.7 134.55 459 159.4 450.85 161.8 442.75 164.3 406.25 175.55 371.2 189 367.05 207 359.55 222.85 358.25 225.55 356.8 227.95 351.4 236.85 347.55 244.85 346.95 246.05 346.3 247.25 343.8 251.7 340.7 255.85 334.7 264.05 328.95 271.05 325.4 275.4 322.75 279.95 316.35 291.1 307.2 300.3 305.95 301.55 305.05 303.1 301.2 309.55 295.2 315.3 294.45 316.05 293.7 316.8 287.8 323 281.25 328.4 280.45 329.05 279.7 329.75 271.55 337 263.15 343.35 259.3 346.25 254.7 349.75 252.95 351.05 251.1 352.25 235.85 362.15 220.05 369.3 213.85 372.15 208.1 375.3 205.95 376.5 203.8 377.75 198.5 380.8 193.25 383.8 202.95 391.3 211.75 398.25 213.8 399.85 215.3 401.7 227.5 416.65 235.7 431.15 236.45 432.5 237.35 433.7 239.95 437.2 242.15 440.9 246.9 449 248.3 458.95 248.45 460 248.9 461 250.5 464.55 250.45 469 250.45 470.5 250.55 472.05 250.95 477 251.1 482 251.2 485.55 251.5 489.05 251.95 493.5 251.55 497.95 250.85 505.25 248.85 513 247.6 517.95 246 522.75 298.25 530.45 283.2 568 278.2 580.45 265.8 596.15 264.8 597.45 263.75 598.65 249.6 619.65 251.6 643.6 253.4 665.2 277.2 676.5 304.05 689.25 334.4 695.6 359.4 700.85 385.45 700.6 397.05 700.5 408.65 700.75 434.8 701.4 460.55 698.5 490.7 695.4 520.65 691.2 544.25 687.85 567.65 683.6 572.15 682.8 576.65 682 599.85 677.8 622.9 673.3 627.95 672.35 633 671.35 647.75 668.45 662.35 665.35 667.05 664.35 671.7 663.35 701.7 656.9 731.95 651.65 759.4 646.75 787.05 643.65 819.7 639.35 852.5 641 856.15 641.2 859.6 641.8 909.65 650.75 897.75 676.4 888.95 695.3 886.35 701.6 885.4 703.85 885.3 704.55 882.65 709.95 879.95 716.6 873.6 759.8 1036.1 750 1079.85 747.05 1120.95 737.55 1172.85 725.6 1220.45 703.2 1302.75 664.5 1371.3 611.9 1371.4 610.9 1371.45 609.95 1371.85 604 1371.85 598 1371.9 578.1 1376.95 560 1377.35 558.5 1377.55 556.95 1378 553.45 1379.15 550.1 1380.05 547.6 1380.55 544.95 1384.25 526.15 1390.9 509 1394.1 500.85 1398.05 492.1 1398.35 491.5 1398.5 490.9 1399.5 486.35 1401.1 482.1 1401.35 481.5 1401.4 480.95 1402.1 475.9 1403.15 471.05 1403.35 470 1403.5 468.95 1403.85 466 1404.2 463.05 1404.35 461.5 1404.6 459.95 1405.6 454.05 1406.15 448.05 1406.35 446 1406.4 444 1406.6 435.1 1407.8 426.6 1406.4 424.75 1405.15 422.8 1404.35 421.5 1403.65 420.1 1402.15 417.1 1400.65 414.1 1399.35 411.5 1397.65 409.15 1395.05 405.65 1393.25 400.85 1392.45 398.75 1391.2 396.8 1388.65 392.75 1386.1 389.8 1385.1 388.6 1383.1 386.7 1382.35 386 1381.6 385.25 1377.2 381 1372.85 376 1366.65 368.95 1358.75 363.2 1357.85 362.55 1357.1 361.8 1356.35 361.05 1355.55 360.55 1352.6 358.75 1350.05 355.85 1349.35 355.05 1348.6 354.3 1347.85 353.55 1347.1 352.8 1345.35 351.05 1343.6 349.3 1342.85 348.55 1342.1 347.8 1339.5 345.25 1336.6 342.3 1335.85 341.55 1335.2 340.75 1332.1 336.95 1329.15 332.85 1327.85 331.05 1326.5 329.35 1324.25 326.55 1322.9 324.05 1322.35 323.05 1321.75 322.1 1316.6 314.3 1312.3 306.8 1311.85 306.05 1311.4 305.35 1309.05 301.65 1307.05 296.95 1302.65 286.9 1300.9 276.05 1300.5 273.5 1299.4 271.25 1298.85 270.05 1298.4 268.85 Z"/>
</g>

<g id="Layer4_1_MEMBER_0_FILL">
<path fill="#000000" stroke="none" d="
M 77.7 414.5
Q 78 414.7 78.1 414.6 87.7 408.05 92.5 404.8 101.05 399.1 107.4 395.7 103.6 396.8 91.2 404.7 79 412.5 77.7 414.5 Z"/>
</g>

<g id="Layer4_1_MEMBER_1_FILL">
<path fill="#000000" stroke="none" d="
M 92.1 398.75
L 90.8 399 69 410.6 69 411.1
Q 69.7 411.35 70.4 411.2 71.75 410.6 73.1 409.7
L 92.1 398.75 Z"/>
</g>

<g id="Layer4_1_MEMBER_2_FILL">
<path fill="#000000" stroke="none" d="
M 107.75 403.3
Q 108.4443359375 402.7908203125 108.95 401.95 104.4890625 404.0439453125 97.9 408.8 91 413.7 89.85 415.8
L 91.75 414.5
Q 97.25 410.15 99.5 408.55 103.95 405.35 107.75 403.3 Z"/>
</g>

<g id="Layer4_1_MEMBER_3_FILL">
<path fill="#000000" stroke="none" d="
M 189.6 395.2
L 189.3 394.8
Q 182.25 398.3 176.1 403.3 177.3 403.1 178.65 402.3 180.15 401.3 180.9 400.8
L 189.6 395.2 Z"/>
</g>

<g id="Layer4_1_MEMBER_4_FILL">
<path fill="#000000" stroke="none" d="
M 111.65 410.1
Q 112.129296875 409.7166015625 112.45 409.25 110.10859375 410.4755859375 107.65 412 106.95 412.55 105.45 413.6 104.2 414.55 103.65 415.6
L 105.65 414.5 111.65 410.1 Z"/>
</g>

<g id="Layer4_1_MEMBER_5_FILL">
<path fill="#000000" stroke="none" d="
M 111.65 410.1
Q 112.129296875 409.7166015625 112.45 409.25 110.10859375 410.4755859375 107.65 412 106.95 412.55 105.45 413.6 104.2 414.55 103.65 415.6
L 105.65 414.5 111.65 410.1 Z"/>
</g>

<g id="Layer3_0_FILL">
<path fill="#FD7B23" stroke="none" d="
M 627.9 676.95
Q 629.15 676.8 629.4 674.95 630.2 669.65 628.6 665.1 627.95 663.2 626.9 661 624.85 667.65 624.2 674.05 623.85 677.4 627.9 676.95
M 623.25 687.3
Q 623 686.7 622.4 686.3 618.35 693.05 621.45 696.5 621.9 697 622.85 696.75 625.9 696.05 624.9 692 624.3 689.55 623.25 687.3
M 596 665.95
Q 596.4 666.5 596.4 667 596.3 669.15 597.85 668.8 600.65 668.25 603.65 668.05 603.75 668 603.9 668 603.9 669 603.9 670.05 606.35 669.1 608.15 667.25 608.9 666.5 609.95 666.15 613.8 665 617.25 662.5 617.9 662 618.75 661.65 621.55 660.4 622.65 658.85 623 658.35 623.15 657.8 623.4 657 622.95 656 621.15 652.05 619.35 648.2 618.15 648 616.9 648 616.9 649 616.9 650 616.9 651.5 616.9 653 616.9 653.5 616.9 654 613.35 654.35 610.95 651.95 609.4 650.35 608.9 649 608.9 650 609.4 650.5 611.1 652.25 610.55 655.95 610.4 657 609.95 656.95 605.5 656.7 602.85 651 602.4 650 601.8 649.9 597.95 649.45 593.85 650.9 590.1 652.25 586.9 653 590.9 658.45 596 665.95
M 651.9 738.45
Q 657.25 738.35 661.85 736.9 664.65 736.05 666.4 733.65 666.9 733 666.9 732 666.95 728.65 662.9 728.55 661.9 728.5 660.85 728.3 653.05 726.65 644.9 726 647.1 724.5 646.1 721.25 645.9 720.5 644.9 720 641.85 718.5 638.05 718.55
L 637.9 720
Q 631.15 721.75 625.1 723.65 624.55 723.8 624.05 724.1 623.4 724.4 622.8 724.85 621.9 725.5 621.35 726.3 620.9 727 620.9 728 622 729.85 625.95 729.4 629.6 729 632.9 730 630.95 732.7 629.35 735.3 628.9 736 629.4 736.5 629.9 737 630.85 737.25 639.65 739.75 649.85 738.6 650.9 738.5 651.9 738.45 Z"/>

<path fill="#D93135" stroke="none" d="
M 564 558
Q 563.2 563.5 564.7 568.05 566.9 574.8 572.15 579.7 573 580 573.8 580.3 574.4 580.5 575 580.7 575.7 580.9 576.45 581.1 576.1 581.85 575.85 582.65 573.4 589.15 572.95 596 572.8 597.9 572.3 599.15 570.65 603.2 570.45 608 570.4 609.5 570.1 611.05 566.45 629.2 567.4 649 570.4 650 572.9 649.95 574.55 649.9 574.25 652.05 573.9 654.5 574.25 656.95 574.4 658 574.5 659.05 574.9 664 575.3 668.95 575.4 670.5 575.55 672.05 576.4 682.4 575.3 692.05 574.9 695.5 574.9 699 574.9 704.5 574.45 709.95 574.4 710.5 574.3 711.05 573.9 713.5 574.3 715.95 574.4 716.5 575 716.8 578.6 718.5 581.8 721.1 583.2 722.25 585.85 722.45 586.4 722.5 586.95 722.9 589.35 724.55 593.9 724.2 602.85 723.55 610.9 721.1 614.4 720 617.7 718.6 620.35 717.45 621.9 715 617.05 711.8 609.95 710.6 609.4 710.5 608.8 710.25 604.65 708.45 604.45 702 604.4 700.5 604.35 699 603.95 684.5 603.9 670.05
L 603.65 668.05
Q 600.65 668.25 597.85 668.8 596.3 669.15 596.4 667 596.4 666.5 596 665.95 590.9 658.45 586.9 653 590.1 652.25 593.85 650.9 597.95 649.45 601.8 649.9 602.4 650 602.85 651 605.5 656.7 609.95 656.95 610.4 657 610.55 655.95 611.1 652.25 609.4 650.5 608.9 650 608.9 649 609.4 650.35 610.95 651.95 613.35 654.35 616.9 654 616.9 653.5 616.9 653 616.9 651.5 616.9 650 616.9 649 616.9 648 618.15 648 619.35 648.2 619.6 648.25 619.85 648.3 620.9 648.5 621.95 648.7 623.9 649 625.9 649 625.4 647 625.4 646 628.6 649.05 631.4 646.45 631.9 646 631.5 645.2 630.75 643.6 628.6 641.25 627.9 640.5 626.95 639.95 625.4 639 623.95 637.95 621.9 636.4 618.9 636.45 617.9 636.5 616.9 636.5 616.4 636.5 615.85 636.6 614.7 636.8 613.95 635 611.8 629.7 608.85 625.05 607.1 622.35 606.5 619.05 606.4 618.5 606.15 617.9 604.1 613.1 602.2 608.85 599.15 602.1 595 593.95 591.4 586.95 589.35 581.8 589.3 581.75 589.3 581.7 589.45 581.6 589.55 581.5 590.95 580.55 592.9 579.95 597.65 578.45 600.75 575.85 603.55 573.5 604.2 568.05 604.4 566 605.15 564.1 605.4 563.5 605.5 562.95 605.95 560.7 607.7 558.8 608.9 557.5 609.85 555.95 610.4 555 611.2 554.45 612.15 553.8 612.7 551.95 614 547.9 610.9 548.2 599.7 549.35 594.85 544 594.4 543.5 593.8 543.3 588.35 541.4 581.9 541.6 576.85 541.8 573.1 544.3 565.35 549.35 564 558 Z"/>

<path fill="#FDAE2A" stroke="none" d="
M 346.2 71.1
Q 341.4 63.05 334.9 56.05
L 67.05 56.05 67.05 736.65
Q 83.3 746.5 92.3 752.65 93.55 753.5 95.1 753.9 104.05 756.15 112.85 751.6 115.05 750.5 117.25 749.4 122.3 746.95 127.15 744.15 131.5 741.65 137.05 741.75 148.3 742.05 157.1 748.9 165.45 755.45 172.2 761.75 173 762.5 174.05 762.95 182.35 766.55 191.1 768.55 193 769 194.95 769.3 204.25 770.75 213.05 767.2 224.65 762.45 236.1 758.2 238 757.5 239.8 756.6 242 755.5 244.2 754.35 247.35 752.7 250.5 751 249.4 743.8 247.3 736.9 247 736 246.6 735.2 246 734 245.4 732.8 244.5 731 243.8 729.1 240.75 721 237.75 713.1 235.95 708.45 232.75 704.2 227.3 696.9 223.05 689 221.3 685.75 218.8 683.15 216.75 681 215.7 678.1 215 676 213.65 674.25 209.6 669 207.3 662.9 205.75 658.8 205.8 654 206 643.35 207.3 633.05 207.5 631.5 207.75 629.95 208.65 624.3 210.55 618.85 211 617.5 211.45 616.15 212.7 612.55 213.7 608.9 216.55 598.6 218.55 587.9 219 585.5 219.7 583.2 224.55 567 230.05 551 233 542.45 235.7 533.9 236.5 531.5 237.45 529.2 240.45 521.7 242 514 244 503.9 246.3 494.05 248.4 485.25 248.55 476 248.7 467.85 247 460 245.65 453.8 243.4 447.85 242.5 445.5 241.8 443.05 240 437 237.95 431 234.9 422.15 228.25 415.75 227 414.5 225.85 413.1 213.85 398.2 200 385
L 198.8 382.4
Q 239.8 363.2 272.65 332.05 308 298.5 334.95 257.45 362.75 215.05 367.25 165.2 371.9 114.1 346.2 71.1
M 1317.25 56.05
Q 1300.65 75.1 1297.6 80.85 1292.4 90.55 1290.5 100.95 1289.25 108.15 1286.95 115.05 1286.45 116.55 1286.1 118.1 1282.05 136.85 1279.6 156 1278.45 165.45 1278.7 175.05 1278.95 186.55 1279.35 198.05 1279.45 200.55 1280.1 203 1284.85 220.75 1289.7 238.15 1291.15 243.4 1292.6 248.15 1293.45 251.05 1294.35 253.9 1295.95 259.05 1297.85 264.1 1301.25 273.25 1305.35 281.8 1308.05 287.4 1310.75 293.1 1311.45 294.5 1312.1 295.95 1319.95 314.05 1330.95 328 1333.35 331.05 1335.6 334.25 1336.45 335.5 1337.3 336.75 1338.5 338.5 1339.65 340.2 1342.35 344.25 1345.25 347.75 1350.9 354.5 1355.1 361.9 1357.05 365.25 1359.7 368.25 1364.2 373.35 1368.2 378.8 1379.5 394.35 1391.3 408.7 1391.95 409.5 1392.75 410.25 1399.9 416.95 1404.75 426.05
L 1404.75 426.1
Q 1405.65 434.95 1405.35 444 1404.95 454.5 1404.5 465 1404.45 466.5 1404.35 468.05 1403.85 476.1 1402.5 483.95 1402 487 1401.4 490.1 1400.95 492.5 1400.5 494.9 1396.9 514.05 1390.55 531.85 1389.95 533.5 1389.35 535.15 1387.85 539.05 1386.6 542.9 1385.95 545 1385.15 547.05 1377.9 565.65 1375.65 584.95 1375.45 586.5 1375.15 588.05 1371.95 603.75 1369.35 620.05 1368.95 622.5 1368.65 624.95 1368 630.5 1367.3 636.05 1366.9 639.5 1366.95 643 1366.95 651 1366.6 659 1366.45 662 1366.15 665 1365.85 668.6 1366.65 672.05 1366.95 673.5 1367 675 1367.25 684.6 1368.55 694.05 1369.2 698.65 1370.25 702.95 1372.5 712.35 1375.55 722.15 1375.95 723.5 1376.4 724.85 1376.95 726.5 1377.5 728.15 1379.1 733.15 1381.65 738.15 1384.75 744.25 1386.15 750.95 1386.45 752.5 1387.2 753.85 1389.8 758.5 1391.5 763.5 1391.55 763.6 1391.6 763.7 1391.6 763.75 1391.65 763.8 1396.3 765 1400.9 766.2 1401.95 766.5 1403 766.9 1406.45 768.3 1410 769.85 1414 771.6 1418.95 771.05 1426.3 770.2 1433 767.15 1434.45 766.5 1435.95 766 1453.95 759.9 1470.85 753.75 1473.65 752.75 1476.9 752.55 1477.45 752.5 1478 752.4 1480.15 752.05 1481.45 753.45 1481.95 754 1482.25 754.9 1482.45 755.5 1482.8 756.1 1485.5 760.5 1487.9 765 1490.1 769.1 1494.9 770.2 1503.85 772.25 1512.85 769.7 1519.2 767.9 1524.95 765
L 1524.95 56.05 1317.25 56.05 Z"/>
</g>

<g id="Layer3_1_MEMBER_0_FILL">
<path fill="#FFFFFF" stroke="none" d="
M 660.85 432.9
Q 661.65 423.15 657.35 414.2 653.8 406.9 646.35 398.95 619 370.35 577.8 374.9 544.9 379.1 525.2 398.5 517.05 406.2 515 417.5 511.15 433.8 516.3 450.25 518.7 457.15 526.05 463.5 529.7 466.55 537.25 471.55 540.95 473.9 546.25 475.2 548.9 475.8 556.15 476.95 576.35 480.8 595.35 478.8 615.55 476.55 632.6 467.9
L 635.25 466.85 636.85 467.35
Q 637.7 468.7 638.9 471.95
L 663.9 483.85 664.6 482.9 645 467.1 649.25 461.4
Q 655.3 455.9 657.85 449.5 660.05 443.75 660.85 432.9 Z"/>
</g>

<g id="Layer3_1_MEMBER_1_FILL">
<path fill="#000000" stroke="none" d="
M 665.7 439.15
Q 669.35 428.45 667.4 417.2 665.5 405.85 658.4 396.85 642.05 375.05 609.75 367.7 584.2 361.4 559.3 369.95 546.95 374.35 539.4 378.5 529.2 384 522.1 391.75 514.6 399.8 510.35 410 506.05 420.15 505.95 431.15 505.05 446.35 511.5 460.8 513.85 467.1 519.15 470.7 535.8 482.15 555.3 485.2 578.3 488.25 600.9 485.55 611.95 483.6 622.6 479.05 631.4 475.75 639.5 479.7 657.9 488.1 676.45 499.35 679.8 500.75 682.55 500.7 683.65 497.2 682.65 493.45 681.55 489.7 678.6 487.2 671.6 480.05 662.1 471.8 657.2 467.6 653.55 465.05 661.5 453.5 665.7 439.15
M 657.35 414.25
Q 661.65 423.2 660.85 432.95 660.05 443.8 657.85 449.55 655.3 455.95 649.25 461.45
L 645 467.15 664.6 482.95 663.9 483.9 638.9 472
Q 637.7 468.75 636.85 467.4
L 635.25 466.9 632.6 467.95
Q 615.55 476.6 595.35 478.85 576.35 480.85 556.15 477 548.9 475.85 546.25 475.25 540.95 473.95 537.25 471.6 529.7 466.6 526.05 463.55 518.7 457.2 516.3 450.3 511.15 433.85 515 417.55 517.05 406.25 525.2 398.55 544.9 379.15 577.8 374.95 619 370.4 646.35 399 653.8 406.95 657.35 414.25 Z"/>
</g>

<g id="Layer3_2_MEMBER_0_FILL">
<path fill="#FFFFFF" stroke="none" d="
M 660.85 432.9
Q 661.65 423.15 657.35 414.2 653.8 406.9 646.35 398.95 619 370.35 577.8 374.9 544.9 379.1 525.2 398.5 517.05 406.2 515 417.5 511.15 433.8 516.3 450.25 518.7 457.15 526.05 463.5 529.7 466.55 537.25 471.55 540.95 473.9 546.25 475.2 548.9 475.8 556.15 476.95 576.35 480.8 595.35 478.8 615.55 476.55 632.6 467.9
L 635.25 466.85 636.85 467.35
Q 637.7 468.7 638.9 471.95
L 663.9 483.85 664.6 482.9 645 467.1 649.25 461.4
Q 655.3 455.9 657.85 449.5 660.05 443.75 660.85 432.9 Z"/>
</g>

<g id="Layer3_2_MEMBER_1_FILL">
<path fill="#000000" stroke="none" d="
M 665.7 439.1
Q 669.35 428.4 667.4 417.15 665.5 405.8 658.4 396.8 642.05 375 609.75 367.65 584.2 361.35 559.3 369.9 546.95 374.3 539.4 378.45 529.2 383.95 522.1 391.7 514.6 399.75 510.35 409.95 506.05 420.1 505.95 431.1 505.05 446.3 511.5 460.75 513.85 467.05 519.15 470.65 535.8 482.1 555.3 485.15 578.3 488.2 600.9 485.5 611.95 483.55 622.6 479 631.4 475.7 639.5 479.65 657.9 488.05 676.45 499.3 679.8 500.7 682.55 500.65 683.65 497.15 682.65 493.4 681.55 489.65 678.6 487.15 671.6 480 662.1 471.75 657.2 467.55 653.55 465 661.5 453.45 665.7 439.1
M 657.35 414.2
Q 661.65 423.15 660.85 432.9 660.05 443.75 657.85 449.5 655.3 455.9 649.25 461.4
L 645 467.1 664.6 482.9 663.9 483.85 638.9 471.95
Q 637.7 468.7 636.85 467.35
L 635.25 466.85 632.6 467.9
Q 615.55 476.55 595.35 478.8 576.35 480.8 556.15 476.95 548.9 475.8 546.25 475.2 540.95 473.9 537.25 471.55 529.7 466.55 526.05 463.5 518.7 457.15 516.3 450.25 511.15 433.8 515 417.5 517.05 406.2 525.2 398.5 544.9 379.1 577.8 374.9 619 370.35 646.35 398.95 653.8 406.9 657.35 414.2 Z"/>
</g>

<g id="Layer3_3_MEMBER_0_FILL">
<path fill="#FFFFFF" stroke="none" d="
M 660.85 432.95
Q 661.65 423.2 657.35 414.25 653.8 406.95 646.35 399 619 370.4 577.8 374.95 544.9 379.15 525.2 398.55 517.05 406.25 515 417.55 511.15 433.85 516.3 450.3 518.7 457.2 526.05 463.55 529.7 466.6 537.25 471.6 540.95 473.95 546.25 475.25 548.9 475.85 556.15 477 576.35 480.85 595.35 478.85 615.55 476.6 632.6 467.95
L 635.25 466.9 636.85 467.4
Q 637.7 468.75 638.9 472
L 663.9 483.9 664.6 482.95 645 467.15 649.25 461.45
Q 655.3 455.95 657.85 449.55 660.05 443.8 660.85 432.95 Z"/>
</g>

<g id="Layer3_3_MEMBER_1_FILL">
<path fill="#000000" stroke="none" d="
M 665.7 439.05
Q 669.35 428.35 667.4 417.1 665.5 405.75 658.4 396.75 642.05 374.95 609.75 367.6 584.2 361.3 559.3 369.85 546.95 374.25 539.4 378.4 529.2 383.9 522.1 391.65 514.6 399.7 510.35 409.9 506.05 420.05 505.95 431.05 505.05 446.25 511.5 460.7 513.85 467 519.15 470.6 535.8 482.05 555.3 485.1 578.3 488.15 600.9 485.45 611.95 483.5 622.6 478.95 631.4 475.65 639.5 479.6 657.9 488 676.45 499.25 679.8 500.65 682.55 500.6 683.65 497.1 682.65 493.35 681.55 489.6 678.6 487.1 671.6 479.95 662.1 471.7 657.2 467.5 653.55 464.95 661.5 453.4 665.7 439.05
M 657.35 414.15
Q 661.65 423.1 660.85 432.85 660.05 443.7 657.85 449.45 655.3 455.85 649.25 461.35
L 645 467.05 664.6 482.85 663.9 483.8 638.9 471.9
Q 637.7 468.65 636.85 467.3
L 635.25 466.8 632.6 467.85
Q 615.55 476.5 595.35 478.75 576.35 480.75 556.15 476.9 548.9 475.75 546.25 475.15 540.95 473.85 537.25 471.5 529.7 466.5 526.05 463.45 518.7 457.1 516.3 450.2 511.15 433.75 515 417.45 517.05 406.15 525.2 398.45 544.9 379.05 577.8 374.85 619 370.3 646.35 398.9 653.8 406.85 657.35 414.15 Z"/>
</g>

<g id="Layer3_4_MEMBER_0_FILL">
<path fill="#FFFFFF" stroke="none" d="
M 660.85 432.95
Q 661.65 423.2 657.35 414.25 653.8 406.95 646.35 399 619 370.4 577.8 374.95 544.9 379.15 525.2 398.55 517.05 406.25 515 417.55 511.15 433.85 516.3 450.3 518.7 457.2 526.05 463.55 529.7 466.6 537.25 471.6 540.95 473.95 546.25 475.25 548.9 475.85 556.15 477 576.35 480.85 595.35 478.85 615.55 476.6 632.6 467.95
L 635.25 466.9 636.85 467.4
Q 637.7 468.75 638.9 472
L 663.9 483.9 664.6 482.95 645 467.15 649.25 461.45
Q 655.3 455.95 657.85 449.55 660.05 443.8 660.85 432.95 Z"/>
</g>

<g id="Layer3_4_MEMBER_1_FILL">
<path fill="#000000" stroke="none" d="
M 665.7 439.05
Q 669.35 428.35 667.4 417.1 665.5 405.75 658.4 396.75 642.05 374.95 609.75 367.6 584.2 361.3 559.3 369.85 546.95 374.25 539.4 378.4 529.2 383.9 522.1 391.65 514.6 399.7 510.35 409.9 506.05 420.05 505.95 431.05 505.05 446.25 511.5 460.7 513.85 467 519.15 470.6 535.8 482.05 555.3 485.1 578.3 488.15 600.9 485.45 611.95 483.5 622.6 478.95 631.4 475.65 639.5 479.6 657.9 488 676.45 499.25 679.8 500.65 682.55 500.6 683.65 497.1 682.65 493.35 681.55 489.6 678.6 487.1 671.6 479.95 662.1 471.7 657.2 467.5 653.55 464.95 661.5 453.4 665.7 439.05
M 657.35 414.15
Q 661.65 423.1 660.85 432.85 660.05 443.7 657.85 449.45 655.3 455.85 649.25 461.35
L 645 467.05 664.6 482.85 663.9 483.8 638.9 471.9
Q 637.7 468.65 636.85 467.3
L 635.25 466.8 632.6 467.85
Q 615.55 476.5 595.35 478.75 576.35 480.75 556.15 476.9 548.9 475.75 546.25 475.15 540.95 473.85 537.25 471.5 529.7 466.5 526.05 463.45 518.7 457.1 516.3 450.2 511.15 433.75 515 417.45 517.05 406.15 525.2 398.45 544.9 379.05 577.8 374.85 619 370.3 646.35 398.9 653.8 406.85 657.35 414.15 Z"/>
</g>

<g id="Layer3_5_FILL">
<path fill="#5B5858" stroke="none" d="
M 796.6 617.25
Q 791.9 626.5 782.2 632.5 781.4 633 780.6 633.65 769.8 642.6 757.3 648.2 752.65 650.25 747.85 651.85 745.9 652.5 744.1 653.4 742.3 654.3 740.45 654.9
L 740 666.95 917.9 666.2 919 657.5 919 657.4
Q 911.55 655.05 905 651.8 904.4 651.5 903.8 651.2 897.2 648.15 892.1 643.8 886.8 639.3 881.95 635.9 880.3 634.7 878.15 632.7 877.4 632 876.65 631.25 872.8 627.6 869.85 621 869.4 620 869.2 618.95
L 863.3 618.05 872.4 560.4 799.85 559.3 796.6 617.25 Z"/>

<path fill="#AAA7A7" stroke="none" d="
M 1034.9 321.05
L 1034.9 320 669.9 310.05 666.9 313.05 655 525.4
Q 655.05 526.2 655.1 527 655.3 530.05 655.65 533.05 655.9 535.5 656.25 537.95 656.4 539 656.9 540 662.55 550.7 672.35 557.4
L 799.85 559.3 872.4 560.4 991.55 562.2
Q 998.45 560.5 1003.2 556.35 1004.25 555.5 1006.05 554.2 1010.85 550.7 1016.3 545.15
L 1034.9 321.05
M 681.15 488.1
L 686.8 331.15 1007.85 333.05 999.5 492.95 681.15 488.1 Z"/>

<path fill="#FFFFFF" fill-opacity="0.4980392156862745" stroke="none" d="
M 686.8 331.15
L 681.15 488.1 999.5 492.95 1007.85 333.05 686.8 331.15 Z"/>
</g>

<g id="Layer2_0_MEMBER_0_FILL">
<path fill="#000000" stroke="none" d="
M 1304.75 100.65
Q 1308.55 88.15 1312.6 75.75 1278.45 94.8 1275.6 147.7 1273.7 183.35 1282.25 218.05 1288.936328125 252.946484375 1304.5 285.1 1317.1 309.5 1332.55 331.7 1341 344.5 1354.2 359.55 1355.7828125 361.384765625 1370.9 374.8 1391.1431640625 394.482421875 1393.95 398.25 1393.9716796875 398.3115234375 1394 398.35 1394.35625 398.8974609375 1394.7 399.4 1396.1443359375 400.594921875 1397.7 401.85 1396.2224609375 400.7443359375 1394.9 399.7 1399.9482421875 407.2609375 1405.95 413.95 1410.3 420.2 1413.05 426.75 1413.6 427.45 1414.45 429.2 1415.5 430.75 1416.35 430.9
L 1449.25 440.95
Q 1449.45 443.4 1447.7 446.85 1446.65 448.9 1444.25 453.45 1437.15 451.15 1433.5 448.9 1428.5 445.65 1426.05 440.25 1423.8 436.8 1422.75 436.8 1422.05 436.8 1409.6 432.3 1407.5 431.8 1405.25 432.65 1400.4 436.1 1390.55 442.15 1382.25 447.9 1378.45 454.45 1376.5 457.95 1375.5 461.4 1374.1 465.35 1376 467.65 1377.9 470.05 1382.05 469.7 1386.55 469.55 1391.4 467.3
L 1400.1 462.45
Q 1400.1 474.4 1400.95 480.1 1402.35 489.45 1407 496.2 1403.9 503.65 1400.95 508.5 1396.45 515.75 1393.15 526.7 1391.25 533.1 1388.15 545.9 1387.2591796875 549.275 1386.15 554 1372 602.2 1370.2 652 1369.6 668 1370.45 684 1370.91640625 687.8869140625 1371.7 690.85
L 1376.85 711.8
Q 1377.9 716.15 1380.35 723.75 1385.35 741.25 1395.9 758.4
L 1403.2 770.7
Q 1406.15 769.65 1409.95 771.4 1415.15 774 1416.35 774.15 1426.9 776.25 1438.2 776.25 1456.9 775.2 1473.7 765.85 1473.7 765.5 1474.55 765.5 1484.4 761.15 1485.45 761.15 1487.55 761.5 1493.6 768.8 1500.5 776.6 1510.9 778.3 1521.3 780.05 1530.3 774.65 1538.6 769.15 1554.55 757.35 1555.4 756.5 1556.1 754.75 1557 752 1557.15 751.8 1557.85 750.6 1554.9 750.1 1552.45 749.4 1550.75 749.75 1542.95 750.6 1536.55 755.3 1526.15 762.7 1515.4 768.1 1513 769.5 1510.05 769.15 1507.25 768.95 1505.35 767.05 1499.3 763.25 1495.65 756.3 1493.05 751.45 1490.8 742.8 1484.25 717.35 1481.8 703.3 1476.45 674.05 1473.85 653.45 1468.3 611.35 1473.85 569.65
L 1474.55 562.85
Q 1474.7 561.5 1474.55 560.45 1474.2 559.25 1474.2 558.55 1471.1 560.45 1470.55 564.1 1470.2 566.15 1470.05 570.3 1468.15 580 1467.95 590.05 1464.35 617.1 1467.95 644.45 1469 654.5 1474.9 697.8 1477.85 718.2 1479.4 726.2 1480.45 731.4 1481.65 735.7 1483.2 740.2 1483.55 742.1 1484.25 745.6 1483.55 746.45 1483.4 746.8 1480.1 748 1474.9 750.1 1465 754.95 1455.15 759.8 1449.95 761.85 1431.95 769.5 1413.6 764.95 1407.2 763.05 1404.95 757 1388.61015625 722.1318359375 1387.95 684 1385.2 636.4 1394.05 589.75 1396.2 578.3 1398.85 566.85 1403.1341796875 549.07890625 1410.1 524.95 1412.35 516.8 1417.4 509.35 1418.95 505.9 1422.6 504.15 1426.9 502.25 1429.15 498.1 1431.6 493.95 1431.25 489.25
L 1429.5 453.95 1441.65 459.85
Q 1442.35 460 1442.85 461.4 1443.2 462.8 1443.05 464 1440.95 473.5 1441.1 485.3 1441.45 493.25 1443.05 506.95 1443.9 512.5 1445.8 517.35
L 1447.55 517.35 1447.55 503.15
Q 1447.85 479.9 1448.9 470.9 1449.8 461.75 1450.8 460 1452.55 457.05 1460 456 1455.85 453.45 1454.8 451.15 1453.95 448.75 1455.5 445.65 1457.75 439.55 1464.15 439.05
L 1475.95 437.65
Q 1470.55 453.95 1469.2 459.3 1466.05 471.1 1465.9 480.95 1465.55 494.3 1466.4 502.8 1467.45 514.4 1471.1 523.55
L 1473.15 523.55 1473.5 518.35
Q 1474.9 486.85 1475.95 471.95 1477.85 453.1 1488.4 438 1492.05 432.1 1492.55 431.45 1495.35 427.95 1499.15 426.6 1502.6 425.35 1502.45 424.15 1502.1 422.1 1502.25 421.75 1495.35 419.85 1489.8 424.15 1469.2 435.05 1438.85 432.1 1430.75 431.45 1422.95 428.65 1417.2 427.3 1419.8 421.4 1432.8 426.6 1449.45 425.9 1456.7 425.55 1479.05 422.1 1482.35 421.4 1485.95 419.65 1493.05 416.55 1494.8 413.05 1496.7 409.45 1494.65 402 1488.05 379.8 1474.2 335.5 1473.35 333.75 1472.1 333.05 1471.1 336.7 1472.8 342.05 1475.05 349.35 1475.25 350.75 1476.6 360.95 1479.05 368.9
L 1483.2 387.25
Q 1484.6 397.15 1486.65 407.35 1478.35 402.35 1470.55 393.5 1462.25 382.95 1457.9 377.9 1444.75 363.35 1438.2 345 1434 334.45 1425.7 306.55 1423.65 310.9 1425.9 323.35 1427.95 334.95 1432.3 347.25 1439.2 366.65 1452.7 383.3 1457.05 388.5 1465.55 399.2 1473.35 408.05 1481.45 412.75 1479.2 415.35 1475.25 415.65 1469.85 416 1469.35 416.2 1447.7 421.05 1427.45 417.25 1422.95 416.55 1419.8 413.6 1416.55 410.65 1415.3 406.5 1413.25 399.4 1407.5 392.1 1404.95 388.85 1396.25 379.8 1374.8 357.15 1363.2 343.65 1345.55 323.2 1333.05 305 1317.3 280.05 1307.75 252.7 1302.3931640625 235.5267578125 1299 218.05 1287.25 158.65 1304.75 100.65
M 1396.6 455.7
Q 1390.4 461.75 1384.15 462.25 1388.3 443.4 1405.95 440.8 1403.2 449.45 1396.6 455.7
M 1409.45 486.15
Q 1403.9 472.8 1406.65 458.45 1407.85 450.3 1417.4 440.8 1426.4 466.25 1424.3 492.9
L 1424.3 493.1
Q 1417.05 495.85 1415.15 495.15 1412.55 494.3 1409.45 486.15
M 1387.9 389.8
Q 1387.99375 390.1693359375 1380.15 383.05 1382.97421875 385.46875 1386 388.15 1386.2244140625 388.3251953125 1386.4 388.5 1387.6640625 388.2490234375 1387.8 389.2 1387.8609375 389.464453125 1387.9 389.8 Z"/>
</g>

<g id="Layer2_0_MEMBER_1_FILL">
<path fill="#000000" stroke="none" d="
M 56.95 601.45
L 51.25 615.25
Q 47.25 625.6 43.95 629.95 37.95 637.8 34.45 640.55 31.65 642.75 30.2 643.75 27.7 645.4 25.45 646.25 24.2 646.75 24.2 647.35 24.2 647.85 25.35 648.85
L 25.35 648.8 26.45 648
Q 26.6 647.95 28.25 647.55 29.35 647.3 30.95 646.3 34.7 643.95 38.85 640.8 41.2 639 43.7 635.95 46.4 632.3 47.75 630.5 51.3 626.05 53.65 620.45 54.15 620 54.35 619.75 54.7 619.3 53.95 618.7 53.15 618.05 53.25 617.2 53.25 617 53.65 615.65 55.55 609.45 56.45 606.2 56.75 605.35 57.05 603.95 57.4 602.15 57.55 601.65
L 56.95 601.45 Z"/>
</g>

<g id="Layer2_0_MEMBER_2_FILL">
<path fill="#000000" stroke="none" d="
M 44.05 586.85
Q 45 584.55 45.85 581 47.05 575.8 47.45 574.45 48.4 571.15 48.35 567.1 48.35 564.65 47.85 559.7 47.95 557.95 46.35 557.15 45.85 557.95 46.05 559 46.2 559.55 46.45 560.65 47.15 572.7 43.35 584.2 40.75 592.4 36.25 600.45 35.75390625 601.4421875 31 610.5 31.6822265625 610.1123046875 32.25 609.45
L 37.25 601.05
Q 41.05 594.1 44.05 586.85 Z"/>
</g>

<g id="Layer2_0_MEMBER_3_FILL">
<path fill="#000000" stroke="none" d="
M 32.95 694.85
L 33.85 703.55
Q 34.2 707.5 34.2 710.15 34.05 719.7 31.8 729.75 31.4 731.5 31 734.1
L 30.3 738.45 30.8 738.45 31.1 737.45
Q 31.75 734.45 32.35 730.65 33.85 723.75 34.35 720.25 35.85 709.9 34.85 699.35 34.65 697.6 34.45 696.95 34 695.65 32.95 694.85 Z"/>
</g>

<g id="Layer2_0_MEMBER_4_FILL">
<path fill="#000000" stroke="none" d="
M 54.65 567.7
L 54.65 568.7
Q 54.7 573.25 53.45 578.1 52.6 582 50.85 588.5
L 51.3 588.6
Q 51.8 587.7 52 587.1 55.05 576.3 55.8 573.1 56.4 570.65 56.3 567.9 56.3 566.5 55.45 566.4 54.85 566.35 54.7 566.8 54.65 567 54.65 567.7 Z"/>
</g>

<g id="Layer2_0_MEMBER_5_FILL">
<path fill="#000000" stroke="none" d="
M 37.8 732.5
Q 39.3 724.25 38.35 716.5 37.7 719.8 37.7 724.5 37.7 727.2 37.8 732.5 Z"/>
</g>

<g id="Layer2_1_MEMBER_0_FILL">
<path fill="#000000" stroke="none" d="
M 333 155.05
Q 329 159.75 326.55 166.3 325 170.3 322.95 178.6 308.05 235.25 274.8 283.55 267.7 294.3 256.95 307.95 254 311.6 238.1 331.35 227.5 344.35 217.8 352.5 206.05 362.35 192.7 367.7 186.3 370.3 185.6 370.65 181.95 373.25 182.15 378.3
L 168.45 372.2 166.75 369.45 166.75 370.15 146.65 360.1
Q 150.95 354.55 155.3 348
L 166.05 331.35
Q 175.9 316.1 180.75 308.3 189.25 294.45 193.05 283.55 195.8 275.25 197.9 271.1 203.6 258.25 208.3 239.9 213.15 218.6 215.55 208.05 219.9 188.15 217.3 167.5 216.8 159.2 214.55 152.3 214.2 150.05 213.65 149 212.8 147.1 210.35 147.1 207.95 147.1 207.95 149.35 207.75 150.55 207.95 153 208.1 156.6 207.6 161.3 200 200.95 197.9 209.8 196.15 217.05 193.05 231.6 190.1 244.75 187.15 253.4 175.2 291 156 324.4 152.55 329.95 139 354.55 136.1 349.2 132.1 345.2 127.4 339.3 123.45 344.15 129.85 356.8 141.8 364.25
L 156.7 373.1
Q 171.25 382.25 188.55 386.25
L 196.15 388.65 194.1 390.4 191.65 390.4
Q 181.45 392.15 170.7 388.85 162.55 386.4 151.5 380.35 133.15 369.95 118.25 354.4 115.3 351.95 111.65 349.9 111.65 354.75 113.75 358.2 114.8 359.75 118.25 363.75 132.95 378.8 148.55 387.1 165.85 396.45 186.45 398.35
L 174.7 407.4
Q 157.05 422.25 152.55 436.45 150.3 444.1 153.55 448.05 156.85 452.05 164.3 450.65 168.1 449.45 172.6 446.85
L 177.45 442.7
Q 178.15 449.1 177.1 462.25 176.1 474.4 177.1 481.15 181.6 478.4 181.3 472.85 182.15 453.95 183 448.95 184.05 443.2 184.2 442.9 185.25 439.4 187.85 437.15
L 189.6 443.05
Q 193.9 457.1 195.15 460.35 197.55 466.95 204.5 467.3 207.95 467.3 210.35 465.2 212.95 462.95 213.5 459.7 214.55 456.2 214.85 454.15 216.45 435.45 210.7 415.7 210.05 411.35 208.3 406
L 204.85 396.65
Q 209.85 399.05 213.15 402.85 222.15 414.65 226.3 420.9 243.95 446.15 246.05 476.65 247.1 490.65 244.3 503.65 241.2 524.95 234.95 544.9 231.5 555.25 224.55 572.25 215.9 593.2 213.5 599.6 208.1 614 204.5 630.45 199.65 653.3 211.75 682.4 216.8 696.05 229.05 703.5 231.85 705.4 232.9 707 244.3 725.35 250.2 746.8 251.05 749.05 250.2 751.3 249.35 753.55 247.1 754.45
L 240.85 749.9 239.8 750.6 241.2 758.6 224.55 761
Q 222.15 753.4 221.1 749.6 220.4 744.9 218.7 738.5 218 736.6 216.95 735.4 215.75 733.45 215.2 734.7 213.65 738.65 213.85 739.55
L 219.05 762.75
Q 214.35 762.75 207.95 761.85 205.7 760.5 204.85 758.05 202.4 747.35 198.25 726.55 198.1 724.1 197.75 722.9 197.05 720.85 195.15 721 193.25 721.2 193.05 723.95 193.05 725.5 193.4 727.25 193.4 727.95 194.1 729.65 196.5 740.75 199.65 759.1 189.6 757.9 184.75 753.9 180.05 749.9 177.45 740.75
L 174.7 732.45
Q 172.1 735.55 172.95 740.25 174.2 745.95 173.65 747.35 164.65 743.15 163.25 741.1 161.9 738.85 162.55 730 163.45 726.2 163.45 724.3 163.45 720.85 160.85 722.4 158.4 723.75 158.25 725.35 157.55 731.55 157.4 732.1 156 737.8 154.45 738.85 152.9 739.9 145.6 739 147.7 731.4 147.7 727.95 148.9 724.3 149.25 722.4 150.1 718.75 147 716
L 143.2 723.75
Q 141.6 728.8 140.4 735.9 139.9 739.2 138 740.55 136.1 741.95 131.75 742.5
L 136.25 730.35
Q 141.8 718.25 144.2 712.35 144.55 709.75 143.5 707.85 141.1 708.35 139 709.9 137.45 711.65 136.25 715.1 130.35 729.85 126.55 741.25 121.2 757.35 106.1 749.9 100.25 747.85 95.4 743.7 88.45 737.45 79.45 736.6 75.8 735.7 75.65 735.7 73.55 735.55 72.15 737.65 69.9 740.75 74.6 744.75 83.95 752.5 92.95 757.55 104.4 763.95 112.85 762.9 121 761.85 131.05 753.2 135.05 749.05 140.6 748.55 146.3 747.85 150.8 751.15 153.05 752.35 167.75 761.55 180.6 769.15 195.5 771.55 210.05 773.8 224.55 770.55 235.65 767.75 257.8 760.85 258.35 760.85 258.85 761 259.2 760.85 260.6 759.1
L 261.25 758.2
Q 261.8228515625 744.4228515625 261.1 743.7 260.25 742.5 259.2 737.8 258.35 733.45 254.35 719.45 252.45 712.5 246.4 705.05 238.95 697.1 235.3 692.75 228.75 685.5 227.7 675.3 227.5 666.6 225.25 657.1 219.05 632 229.05 608.6 231 604.45 233.9 596.5 235.576953125 592.0548828125 236.65 589.35 237.8208984375 585.8880859375 239.15 581.9 256.4515625 531.3515625 258.85 520.45 263.35 503.15 264.4 486.15 264.9 477.85 263 469.2 258.5 453.6 251.6 439.75 244.15 424.35 237.55 414.5 228.75 401.5 218 393 216.25 391.25 213.5 387.45 213.85 387.3 225.6 380 232.7 375.7 238.1 374.65 238.75 374.65 239.45 374.15 240.35 373.25 240.85 372.9
L 255.05 362.7
Q 269.75 353.35 282.4 342.95 288.65 337.75 300.95 326 313.05 314.55 319.8 309 336.25 294.3 348.55 276.1 360 260.5 368.3 245.8 374.172265625 235.4791015625 378.65 224.05 386.468359375 197.866796875 389.85 153.6 393.231640625 109.333203125 359.3 76.1 374.4 115.7 372.05 158.05
L 371.7 153.45
Q 371.6 155.7 371.55 157.95 370.5 192.15 357.75 224.05 349.7287109375 244.3533203125 336.8 262.75 326.9 276.8 313.25 293.95 295.6 316.8 271.35 335.15 251.95 350.55 224.9 369.8 214 377.05 204.15 381.9 201.9 382.8 199.3 382.25
L 184.05 378.8 197.9 372.9
Q 213.5 366 220.4 360.8 238.45 346.4 251.95 328.25 263.7 311.6 281.35 303.3
L 285.9 299.85 285.2 298.1 274.8 301.2
Q 280.35 291.35 284.85 286 290.75 278.55 298.35 274.2
L 293.5 271.8
Q 300.75 254.8 314.3 248.55 321.4 245.95 322.95 239.2
L 310.1 245.1 308.75 243.7
Q 312.35 237.65 313.95 233 316.55 222.75 328.85 216.35 331.6 214.65 334.7 211.85
L 334 210.1 320.5 215.3
Q 322.4 206.15 323.8 202 326.05 195.05 331.6 191.75 334.2 189.7 335.4 187.6 336.8 185.2 336.8 182.75
L 327.1 188.65 333 155.05
M 197.05 411.2
Q 199.65 406.35 201.2 400.8 204.15 408.4 205.7 414.5 206.2 417.4 209.5 448.05 209.7 452.9 208.1 457.75 207.6 459.15 206.4 460.2 205.2 461.4 204.3 461.4 202.6 461.4 200.15 458.3 198.75 457.25 198.4 455.5 194.6 437.15 193.25 427.8 191.65 418.8 197.05 411.2
M 181.45 426.45
Q 177.45 437.85 168.8 443.2 165.5 445.15 164.3 445.3 162.75 445.65 158.05 444.95 155.65 435.8 164.65 423.85 173.5 411.7 187.35 405.8 184.9 412.75 181.45 426.45 Z"/>
</g>

<g id="Layer2_1_MEMBER_1_FILL">
<path fill="#000000" stroke="none" d="
M 82.85 685.3
Q 82.8 684.35 82.15 683.3 81.85 682.8 81.15 682.9 80.7 683.05 80.45 683.8 80.35 684.15 80.55 684.7 82.6 694.8 79.55 704.65 78.8 707.15 77.55 710.55 76.85 712.5 75.35 716.35
L 74.55 717.15
Q 73.1 715.3 73.95 713.15 75.1 708.3 75.8 702.85 76.2 700.15 76.35 698.15 76.2 694.5 75.8 689.7 75.15 684.55 72.45 679.8 69.8 675.15 69.15 670 68.95 667.75 69.15 666.4 69.4 664.45 70.55 662.95 71.55 661.4 71.95 659.95 71.7 660 70.95 659.7 70.55 659.5 69.6 660.5 68 662.2 67.35 663.2 66.3 664.8 66.2 666.45 65.5 672.65 68.35 678.25 70.25 682.15 71 683.9 72.3 687.15 72.85 689.85 74.35 697.25 72.05 707.35 70.1 716.85 70.45 726.45 70.6 730.95 72.6 735.85 73.85 739.05 76.95 744.45 77.6 745.5 79.05 744.7
L 76.15 738.8
Q 74.75 735.8 74.35 734.55 73.55 732.1 73.75 730 74.35 723.25 77.05 716.6 77.5 715.4 78.8 712.8 79.95 710.4 80.45 709 85.1 697.6 82.85 685.3 Z"/>
</g>

<g id="Layer2_1_MEMBER_2_FILL">
<path fill="#000000" stroke="none" d="
M 107.45 563.2
Q 106.7 564.05 106.45 565.2 106.4 565.85 106.15 569.5 105.95 572.1 105.95 573.8 105.75 585.85 102.3 597.6 101.15 601.45 99.15 607.1 98 610.2 95.8 616.4 91.85 627.15 82.35 639.4 81.2 640.95 79.35 643 78.35 644.15 76.2 646.4 75.4 647.25 75.35 647.4 75 647.95 75.35 648.6 76.6 648.25 77.85 647.5 80.7 645.25 83.5 642.05 85.4 639.9 88.35 635.95 90.4 633.25 92.85 631
L 98.2 626.95 97.85 626.5 93.85 628.6
Q 94.15 627.25 95 625.85 96 624.3 96.45 623.5 97.5 619.85 98.85 617.65 100.6 614.8 103.45 613.3
L 104.95 612.2
Q 105.5 611.9 105.85 611.45 104.4 611.6 102.7 612.65 101.75 613.2 99.85 614.45 100.95 608.8 105.35 606.65 107.25 605.55 108.65 604.35 108.85 604.25 109 603.9 109.2 603.4 109.25 603.35
L 109.05 603.15 102.85 606.95
Q 102.9 606.2 103.25 605.15 103.65 604.05 103.75 602.45 103.9 600.35 105.05 598.95 106 597.7 107.95 596.7 109.6 596.2 109.85 594.5
L 105.65 596.5
Q 105.1 594.55 106.05 593 106.65 591.95 108.35 590.5
L 110.75 588.45 110.35 587.95 106.25 590.35
Q 106.8 587.95 107.05 585.05 107.1 583.95 108.05 582.7 109.4 580.95 109.55 580.65
L 107.85 580.65
Q 108.1 574.75 108.2 571.85 108.3 566.75 107.45 563.2 Z"/>
</g>

<g id="Layer2_1_MEMBER_3_FILL">
<path fill="#000000" stroke="none" d="
M 63.05 656.4
Q 62.15 657.45 61.65 658.3 55.9 667.25 55.15 677.8 54.5 682.6 56.25 686.8
L 59.55 693.7
Q 62 698.55 62.85 702.8 63.8 707.65 62.85 712.45 62.55 715.25 62.55 718
L 63.35 718.2
Q 63.9 717.5 64.05 716.6 64.95 712.4 65.65 710.4 66.65 707.5 66.05 704.5 65.5 700.7 63.65 696.45 62.55 693.9 59.85 688.9 57.25 684.4 57.45 680.6 57.95 673.85 58.15 672.5 59.35 664.85 63.95 658.4 64.65 657.45 64.65 657.2 64.6 656.55 64.05 656 63.95 655.9 63.6 656.05 63.2 656.2 63.05 656.4 Z"/>
</g>

<g id="Layer2_1_MEMBER_4_FILL">
<path fill="#000000" stroke="none" d="
M 96.45 623.65
L 96.45 623.5
Q 96.25 624.75 97.05 624.2 98.55 623.25 99.85 622
L 103.45 619.2
Q 101.6 619.7 99.65 621.05 99.55 621.15 96.45 623.65 Z"/>
</g>

<g id="Layer2_2_MEMBER_0_FILL">
<path fill="#000000" stroke="none" d="
M 710.65 19.55
Q 710.25 19.3 709.05 19.25 698.05 18.25 689.05 17.75 685.65 17.55 668 17.05
L 648.1 16.65 583.05 16.85 581.55 33.15
Q 581.55 33.35 580.95 42.95 580.95 43.15 580.45 50.7 580.15 55.35 580.05 59.05 579.9 65.25 579.8 77.85 579.65 82.55 579.4 91.85 579.15 95.25 579.7 96.9 580.55 99.35 583.4 100.35
L 583.9 100.75
Q 585.3 102 586.25 102.45 587.65 103.15 589.15 102.95
L 590.55 102.75 627.85 103.35 627.85 113.95
Q 628.1 117.45 626.35 120.75 625.25 122.55 624.6 123.25 623.4 124.4 621.75 124.75 608.45 127.15 595.45 131.35 594.65 131.6 594.05 132.05
L 594.05 132.45
Q 595.45 132.1 607.1 129.05 615 126.95 620.15 126.05 617.7 127.75 614.15 129.75 612.95 130.45 611.4 130.95
L 605.4 132.55
Q 603.8 133.25 602.9 133.55
L 603.1 134.05 608.3 132.65 608.3 135.45 605.1 135.95 605.1 136.35 608.1 136.65
Q 608.7 138.25 609.35 138.65 609.9 139.05 611.6 138.95
L 634.7 138.45 652.2 138.65
Q 660.5 138.65 668.9 138.35 669.1 138.35 669.5 138.6 669.85 138.7 670.1 137.75 670.65 136.3 670.85 135.55 671.25 134.25 670.8 133.05 675.4 131.75 683.85 130.5 693 129.1 696.9 128.15
L 696 127.95
Q 693.4 127.95 690.6 128.35
L 674.1 131.45
Q 671.6 131.9 670.95 131.95 669.15 132.05 667.7 131.35 664.1 129.65 661.2 128.75 660.45 128.4 659.5 127.65
L 681.5 123.8 681.35 123.55
Q 676.25 123.8 669.8 124.9 667.8 125.2 658.15 127.05
L 656.45 125.55 674.35 122.45 674.35 122.05 654.95 124.15
Q 653.7 119.95 653.8 114.05 654.1 107.35 654.05 104.05
L 654.85 103.85 685.45 104.35
Q 689.05 103.9 692.55 104.05 700.7 104.35 704.35 98.05 705 94.85 705.25 93.15 706.5 81.5 706.65 79.45 707.45 66.55 707.65 60.35 707.75 58.05 707.8 53.45 707.85 48.85 707.95 46.65 708.05 44 708.6 40.1 709.45 33.75 709.45 33.55
L 710.85 22.55
Q 711.15 21.8 711.3 21.4 711.55 20.7 711.3 20.25 710.9 19.65 710.65 19.55
M 709 21.25
L 709 22.8 707.8 21.9 708.1 21.4 709 21.25
M 704.1 30.4
L 704.4 30.4 703.9 32.8 703.5 32.8 704.1 30.4
M 700.5 32.3
L 700.2 32.3 700 31 697.15 64
Q 696.8 68.75 696.05 78.3 660.4 77.5 642.6 77.2 611.5 76.75 589.15 77.75 590.9 42.15 591.65 24.25
L 700.3 25.6
Q 700.1 27.35 699.9 31
L 700.5 30.1 700.5 32.3
M 703.5 45.95
Q 704.15 46.8 704 48.05 703.9 48.75 703.5 50.15
L 703.5 45.95
M 699.3 47.3
L 699.3 44.4 699.55 44.4 699.55 47.3 699.3 47.3
M 661.9 23.4
L 668.65 23.3 668.65 23.7 661.9 23.4
M 670.3 19.9
L 668.5 19.8 668.5 19.6 670.3 19.6 670.3 19.9
M 658.5 85.1
Q 659.85 84.5 661.45 84.8 664.05 85.1 666.35 84.9 666.1 86.75 664.6 88.6 662.7 90.55 661.85 91.6 662.35 91.1 664.2 89.45 665.65 88.1 666.45 87.2 668.85 84.7 672.15 85.1 675.55 85.3 682.45 85.2
L 691.75 85.5
Q 690.2 88.1 689.15 89.6
L 693.45 85.8 697.75 86.2 686.45 98.1 686.65 98.3 700.55 86.2 703 86.5
Q 700.35 89.4 699.05 90.7
L 693 97
Q 692.15 98.15 691.5 99.5
L 700.8 91.4
Q 701.8 90.35 703.35 89.3
L 702.8 93.3 702.9 93.25
Q 702.6 94.6 702 95.95 698.75 100.95 696.05 101.05 693.25 101.2 689.15 101.75
L 690.35 100.25
Q 689.15 101.65 687 101.75 684.5 101.7 683.3 101.9 683.45 101.5 683.5 101.25 683.65 100.75 682.65 101.4 681.7 102.05 680.05 102.1 678.2 102 677.3 102.1 675.5 102.35 673.65 102.1 649.6 101.5 649.4 101.5 647 101.45 643.05 101.5 638.1 101.6 636.65 101.6
L 612.65 101.4 594.95 100.8 590.65 100.3 589.8 100
Q 587.85 100.75 585.85 99.6 583.65 97.9 582.5 97.2
L 582.3 95.3 590.65 85.8
Q 591.45 85 592.45 84.8 593.25 84.65 594.55 84.8 593.85 85.7 590.05 90.2 587.3 93.4 585.8 95.7
L 586.05 95.9
Q 587.9 94.1 591.3 90.4
L 595.4 86
Q 596.1 85.15 597.1 84.8 598.1 84.4 599.15 84.6 600.55 84.75 601.9 84.6 600.6 86.4 598.05 89.3 595.45 92.3 594.4 93.7
L 594.8 94.1 602.9 84.9 609.65 84.9 603.05 92.3 603.3 92.7
Q 603.8 92.5 604.4 92 604.65 91.75 606.75 89.8 608.2 88.45 609.15 87.2 611.25 84.6 615.45 84.6
L 632.55 84.8 625.85 93.3 626.05 93.5
Q 628.95 90.6 634.65 84.6
L 646.05 84.6 641.65 89.8 641.95 90.1 644.15 88.4 646.55 85.9
Q 648.25 84.05 650.65 84.2 651.8 84.3 653.5 84.4 654.45 84.45 656.45 84.5
L 653.85 88.1 654.3 88.55 656.15 86.8
Q 657.4 85.55 658.5 85.1
M 656.6 82.9
L 655.3 82.95 655.3 82.65 656.6 82.3 656.6 82.9
M 678 81.8
L 674.9 81.8 674.9 81.65 678 81.65 678 81.8
M 701.85 63.6
L 701.85 61.4 702.15 61.4 702.15 63.6 701.85 63.6
M 699.7 77.65
L 700.5 79.95
Q 699.55 79.65 699.45 79.25 699.3 78.9 699.7 77.65
M 697.05 77.3
L 697.3 79.15 696.85 79.15 696.65 77.3 697.05 77.3
M 652.05 104.1
L 652.05 109.5 637.55 112.5 637.55 113.1
Q 638.75 113.2 639.65 112.9
L 651.9 110.5
Q 651.65 113.25 651.65 113.3
L 646.8 114.8 647 115.3
Q 647.85 115.7 649.25 115.25 651.05 114.7 651.6 114.7 651.65 115.4 651.9 119
L 649.15 118.8
Q 649.5 119.9 650.35 120.2 650.7 120.3 651.9 120.3 652.4 122.4 653.4 124.45 656.15 129.3 661.5 131.3
L 666.8 133.5 666.8 133.8 612.75 133.1 616.25 131.1
Q 619.55 129.05 623.35 127.2 625.9 126.15 627.75 123.35 629.15 121.15 629.65 119 630.15 116.9 630.15 112.7 630.15 111.7 630.35 109.1
L 652.05 104.1
M 649.4 134.65
Q 650.7 134.65 653.5 134.95
L 667.3 135.3 668.3 135.15 668.05 134 668.3 134
Q 669.1 134.9 669.55 135.65
L 669.3 136.15 666 136.65 649.4 136.95 630.65 136.65 609.9 136.95 610.05 134.8 636 135
Q 640.4 135 649.4 134.65
M 587.8 56.75
Q 588 57.5 587.85 57.9 587.65 58.55 586.65 58.9
L 587.4 56.75 587.8 56.75
M 587.3 61.15
L 588 61.3 587.3 63.8 586.65 63.65 587.3 61.15
M 585.4 59.3
Q 585.75 60.3 585.1 61.15 584.05 62.35 584 62.55
L 583.5 62.25 585.4 59.3
M 584.6 65.25
L 584.3 65.05 585.3 63.75
Q 585.75 64.9 585.25 65.8 584.75 66.7 582.4 68.8
L 584.6 65.25
M 586.45 69
L 586.05 69 586.95 66.7 587.35 66.7 586.45 69
M 586.8 71.7
Q 586.95 72.65 586.25 73.35 585.35 74.05 585 74.4 584.8 73.5 585.5 72.85 585.9 72.45 586.8 71.7
M 582.55 72.65
L 584.65 69.75 585.05 70.15 582.95 72.8 582.55 72.65
M 582 85.3
L 584.9 85.25 582.2 88.75 581.8 88.75
Q 582 86.55 582 85.3
M 584.55 78.9
Q 585.1 77.3 586 76.55 586.85 75.8 587.7 76.15 584.7 78.85 584.6 78.95
L 584.55 78.9
M 582.15 94.05
L 581.9 94.05 581.9 90.65
Q 582.35 90.35 585.05 87.25 587 85 589.4 84.8
L 582.15 94.05
M 602.9 83.6
L 603.9 82.6 605.15 83.6 602.9 83.6
M 592.4 79.3
L 593.4 78.4 593.65 78.75 590.65 81.3
Q 590.6 80.3 591.2 79.8 591.55 79.5 592.4 79.3
M 626.5 79.65
L 626.7 79.95 625 79.95 625 79.75 628.3 77.95 628.5 78.15 626.5 79.65
M 620 82.2
L 620.9 83.7 618 83.5 618 83.2 620 82.2
M 626.5 82.5
L 624.6 82.9 624.6 82.6 626.5 81.9 626.5 82.5
M 607.8 82.45
L 608.4 83.65 606.3 83.65 607.8 82.45
M 609.85 83.5
L 611.05 82.9 611.25 83.4 609.85 83.8 609.85 83.5
M 644.3 78.3
L 642.05 78.8 642.05 78.5 644.3 77.9 644.3 78.3
M 642 80.75
Q 641.55 81.6 640.2 82.2 638.85 82.75 637.6 82.65
L 637.6 82.25 642 80.75
M 633.95 78.15
L 630.8 79.8 630.55 79.4 633.65 77.75 633.95 78.15
M 643.7 104.05
L 643.7 104.45 630.1 107.65 630.1 106.15 643.7 104.05
M 629.8 104.8
L 629.3 103.3 635.5 103.6 635.5 103.9 629.8 104.8
M 650.35 92.5
L 653.1 89.8 650.15 92.2 650.35 92.5 Z"/>
</g>

<g id="Layer2_2_MEMBER_1_FILL">
<path fill="#000000" stroke="none" d="
M 617.65 123.3
Q 618.4 123.15 619.8 122.65
L 619.55 122 588.05 129.15 588.05 129.95 589.45 130.05 617.65 123.3 Z"/>
</g>

<g id="Layer2_2_MEMBER_2_FILL">
<path fill="#000000" stroke="none" d="
M 667.5 129.3
L 667.5 129.75 693.8 125.65
Q 680.4 125.6 667.5 129.3 Z"/>
</g>

<g id="Layer2_2_MEMBER_3_FILL">
<path fill="#000000" stroke="none" d="
M 686.75 132.8
Q 677.1 134.45 675.5 135.9
L 699.8 131.7
Q 696.35 131.15 686.75 132.8 Z"/>
</g>

<g id="Layer2_2_MEMBER_4_FILL">
<path fill="#000000" stroke="none" d="
M 609.3 122.3
L 609.3 121.95
Q 597.3 123.5 584.55 127.3
L 584.55 127.8 609.3 122.3 Z"/>
</g>

<g id="Layer2_2_MEMBER_5_FILL">
<path fill="#000000" stroke="none" d="
M 582 124.95
Q 582.35 125.75 582.95 125.9 583.25 125.95 584 125.8
L 601 122.3 601.7 122 601.7 121.65 582 124.95 Z"/>
</g>

<g id="Layer2_2_MEMBER_6_FILL">
<path fill="#000000" stroke="none" d="
M 681.4 136.65
Q 673.6 137.85 672.55 138.8 680.65 137.75 690.85 135.8 689.05 135.4 681.4 136.65 Z"/>
</g>

<g id="Layer2_2_MEMBER_7_FILL">
<path fill="#000000" stroke="none" d="
M 719.95 22.4
Q 720.35 23.05 720.85 23.1 721.15 23.1 721.85 22.8
L 734.7 17.8
Q 727.05 18.75 719.95 22.4 Z"/>
</g>

<g id="Layer2_2_MEMBER_8_FILL">
<path fill="#000000" stroke="none" d="
M 726.25 28.4
Q 724.5 28.6 721.55 29.45
L 722.3 30 730.8 28.8
Q 728.7 28.1 726.25 28.4 Z"/>
</g>

<g id="Layer2_2_MEMBER_9_FILL">
<path fill="#000000" stroke="none" d="
M 578.5 10.8
L 578.8 10.5
Q 576.4 6.5 573.8 6.5
L 578.5 10.8 Z"/>
</g>

<g id="Layer2_2_MEMBER_10_FILL">
<path fill="#000000" stroke="none" d="
M 573.8 19.8
L 573.8 19.3 565.5 16.6 565.3 17.25 573.8 19.8 Z"/>
</g>

<g id="Layer2_2_MEMBER_11_FILL">
<path fill="#000000" stroke="none" d="
M 571.9 28.9
Q 570.1 28.15 568.1 28.15 566.1 28.15 565.15 28.9
L 571.9 28.9 Z"/>
</g>

<g id="Layer2_2_MEMBER_12_FILL">
<path fill="#000000" stroke="none" d="
M 722.55 37.4
L 722.55 38.1 727.05 38.8 727.05 38.3 722.55 37.4 Z"/>
</g>

<g id="Layer2_2_MEMBER_13_FILL">
<path fill="#000000" stroke="none" d="
M 569.4 39.75
L 569.5 39.25 566.4 38.75
Q 566.9 39.65 567.75 39.8 567.9 39.8 569.4 39.75 Z"/>
</g>

<g id="Layer2_2_MEMBER_14_FILL">
<path fill="#000000" stroke="none" d="
M 723.2 48.15
L 723.5 47.65 721.5 46.75 721.3 47.3 723.2 48.15 Z"/>
</g>

<g id="Layer2_2_MEMBER_15_FILL">
<path fill="#000000" stroke="none" d="
M 634.9 90.65
Q 634.4 90.7 634 91.05 633.05 91.85 632.5 92.75
L 629.5 95.9 629.8 96.25 634.9 90.65 Z"/>
</g>

<g id="Layer2_2_MEMBER_16_FILL">
<path fill="#000000" stroke="none" d="
M 590.3 99
L 590.6 99.3 592.4 97.3 590.3 99 Z"/>
</g>

<g id="Layer2_2_MEMBER_17_FILL">
<path fill="#000000" stroke="none" d="
M 627.55 98.25
L 627.35 98.25 625.75 100.05 625.95 100.05 627.55 98.25 Z"/>
</g>

<g id="Layer2_2_MEMBER_18_FILL">
<path fill="#000000" stroke="none" d="
M 592.4 97.3
L 593.9 95.1 593.5 94.9 592.4 97.3 Z"/>
</g>

<g id="Layer2_2_MEMBER_19_FILL">
<path fill="#000000" stroke="none" d="
M 601.55 94.65
L 601.75 94.7 602.85 93 602.55 92.8 601.55 94.65 Z"/>
</g>

<g id="Layer2_2_MEMBER_20_FILL">
<path fill="#000000" stroke="none" d="
M 636.3 88.75
L 635 90.5 636.55 89.05 636.3 88.75 Z"/>
</g>

<g id="Layer2_2_MEMBER_21_FILL">
<path fill="#000000" stroke="none" d="
M 641.1 107.8
Q 634.7 109.55 631.5 110.4 635.9 110.05 641.3 108.95 644.4 108.35 651 106.7 646.6 106.55 641.1 107.8 Z"/>
</g>

<g id="Layer2_2_MEMBER_22_FILL">
<path fill="#000000" stroke="none" d="
M 651.9 123.95
L 651.3 121.3
Q 650.45 122.4 650.55 122.95 650.7 123.4 651.9 123.95 Z"/>
</g>

<g id="Layer2_2_MEMBER_23_FILL">
<path fill="#000000" stroke="none" d="
M 696.15 98.8
L 702.8 93.3
Q 702.5 92.65 702.05 92.8 701.6 93.15 701.35 93.3
L 696.85 97.2 695.85 98.5 696.15 98.8 Z"/>
</g>

<g id="Layer2_3_MEMBER_0_FILL">
<path fill="#FD7B23" stroke="none" d="
M 686.4 174.3
Q 677.65 171.1 668.85 171.55 660.05 172.1 652.65 176.35 641.7 182.45 638.35 195.55 635 208.5 640.85 222.05 644.4 229.45 651.3 234.1 658.4 238.8 666.2 238.65 683 237.75 693.1 227 704.1 215.5 702.35 197
L 702.2 197
Q 699.7 179.55 686.4 174.3
M 674.25 193.05
Q 674.85 191.95 675.7 191.05 676.7892578125 189.9203125 678.05 189.1 678.75 188.95 679.3 188.6 680.0232421875 188.1287109375 680.75 187.8 681.513671875 187.464453125 682.25 187.25 684.257421875 186.7333984375 686.4 187.1 690.35 187.8 692.55 191.3 693.3 192.5 693.7 193.9 694.35 195.95 694 198 693.95 198.65 693.7 199.2 692.35 203 689.25 205.65 686.45 208 682.85 208.5 679.55 208.9 676.8 207.25 675.75 206.6 675 205.65 674.85 205.4 674.65 205.1 672.9 202.8 672.95 199.95 673 198.35 673.1 196.75 673.3 194.75 674.25 193.05
M 661.5 182.45
Q 664 183.05 664.95 185.4 665.45 186.55 665.6 187.7 666.1 190.95 665.1 194.1 664.9 194.9 664.6 195.65 663.85 197.8 661.95 199.1 661.3 199.6 660.6 200.05 658.35 201.55 655.65 202.1 653.05 202.65 650.75 201.45 649.4 200.8 648.4 199.8 647.2 198.6 646.85 196.95 646.05 193.1 648 189.65 648.3 189.2 648.45 188.7 648.95 187.2 650 186.1 651.781640625 184.226953125 653.95 183.25 654.16796875 183.153515625 654.35 183.05 654.721875 182.8529296875 655.1 182.7 655.95 182.35 656.75 182.3 657.6 182.2 658.5 182.15 660.05 182.1 661.5 182.45 Z"/>
</g>

<g id="Layer2_3_MEMBER_0_MEMBER_0_FILL">
<path fill="#000000" stroke="none" d="
M 681.25 168.2
Q 668.85 163 658.35 164.85 647.7 166.75 640.1 175.8
L 638.45 178.1
Q 625.55 194.85 630.9 214.2 633.6 225.7 643.4 233.45 653.25 241.15 664.85 240.7 679.35 240.3 689.15 232.85 699.05 225.3 701.85 212.45 703.5 204.6 702.7 195.9 702.15 186.85 696.2 179.15 690.2 171.4 681.25 168.2
M 664.85 169.55
Q 673.65 169.1 682.4 172.3 695.7 177.55 698.2 195
L 698.35 195
Q 700.1 213.5 689.1 225 679 235.75 662.2 236.65 654.4 236.8 647.3 232.1 640.4 227.45 636.85 220.05 631 206.5 634.35 193.55 637.7 180.45 648.65 174.35 656.05 170.1 664.85 169.55 Z"/>
</g>

<g id="Layer2_3_MEMBER_0_MEMBER_1_FILL">
<path fill="#000000" stroke="none" d="
M 224.8 878.1
L 224.8 877.5
Q 222.9 877.4 221.95 877.4 220.3 877.4 219.15 878.1
L 224.8 878.1 Z"/>
</g>

<g id="Layer2_3_MEMBER_0_MEMBER_2_FILL">
<path fill="#000000" stroke="none" d="
M 184.6 872.1
Q 186.25 873.35 187.4 873.7 188.5 874 190.1 873.6
L 184.6 872.1 Z"/>
</g>

<g id="Layer2_3_MEMBER_0_MEMBER_3_FILL">
<path fill="#000000" stroke="none" d="
M 218.6 881
L 218.6 881.5 222.5 882.3 222.5 881.8
Q 221.2 881.15 220.65 881 219.6 880.65 218.6 881 Z"/>
</g>

<g id="Layer2_3_MEMBER_0_MEMBER_4_FILL">
<path fill="#000000" stroke="none" d="
M 218.1 884.6
Q 218.9 885.9 219.65 886.4 220.4 886.95 221.5 887 220.2 885.15 218.1 884.6 Z"/>
</g>

<g id="Layer2_3_MEMBER_0_MEMBER_5_FILL">
<path fill="#000000" stroke="none" d="
M 184.8 876.7
Q 186.4 877.3 187.2 877.35 188.05 877.35 189.1 876.7
L 184.8 876.7 Z"/>
</g>

<g id="Layer2_3_MEMBER_0_MEMBER_6_FILL">
<path fill="#000000" stroke="none" d="
M 188 869.3
L 188.2 869.15 187.7 868.9 187.6 868.9 188 869.3 Z"/>
</g>

<g id="Layer2_3_MEMBER_0_MEMBER_7_FILL">
<path fill="#000000" stroke="none" d="
M 198.6 870
Q 197.7 870.9 197.6 872.25 197.55 873.7 198.55 874.75 199.55 875.85 201 875.9 204.55 876.45 206.85 873.1 207.75 875.85 209.6 877.05 211.3 878.15 213.2 877.6 214.95 877.1 215.85 874.85 216.7 872.65 216.1 870.7 215.5 868.8 214 868.25 212.45 867.65 210.6 868.6
L 207.4 871.2
Q 207 867.35 203.8 866.4 200.6 867.3 198.6 870
M 200.1 874.5
Q 199.5 873.4 199 872.7 199.1 871.3 200.2 870.15 201.6 868.95 202.3 868.3
L 204.65 868.1
Q 205.6 869.3 205.55 870.45 205.45 871.35 204.65 872.8 204.05 874 202.75 874.35 201.7646484375 874.6455078125 200.1 874.5
M 213.75 869.6
L 213.8 869.6
Q 214.9 871.05 214.65 872.85 214.4 874.65 212.95 875.8 212.25 876.2 211.35 876.2 210.5 876.2 209.75 875.8 209 875.25 208.75 874.3 208.5 873.35 208.85 872.5 209.55 871.3 210.75 870
L 213.75 869.6 Z"/>
</g>

<g id="Layer2_3_MEMBER_0_MEMBER_8_FILL">
<path fill="#000000" stroke="none" d="
M 199 882
Q 199 883.7 199.55 884.4 200.05 885.05 201.5 885.3 203.7 885.7 205.7 884.6
L 206.6 883.4
Q 204.95 880.85 202.1 880.3
L 199 882
M 201.65 883.2
L 201.9 882.8
Q 202.25 882.45 202.7 882.45 203.15 882.45 203.5 882.8
L 203.5 883.3 201.65 883.2 Z"/>
</g>

<g id="Layer2_3_MEMBER_0_MEMBER_9_FILL">
<path fill="#000000" stroke="none" d="
M 678.6 193.5
Q 677.5 194.45 677.5 195.8 677.5 197.15 678.6 198.1 679.65 199.05 681.15 199.05 682.7 199.05 683.8 198.1 684.8 197.15 684.8 195.8 684.8 194.45 683.8 193.5 682.7 192.55 681.15 192.55 679.65 192.55 678.6 193.5 Z"/>
</g>

<g id="Layer2_3_MEMBER_0_MEMBER_10_FILL">
<path fill="#000000" stroke="none" d="
M 684.8 195.8
Q 684.8 194.45 683.8 193.5 682.7 192.55 681.15 192.55 679.65 192.55 678.6 193.5 677.5 194.45 677.5 195.8 677.5 197.15 678.6 198.1 679.65 199.05 681.15 199.05 682.7 199.05 683.8 198.1 684.8 197.15 684.8 195.8 Z"/>
</g>

<g id="Layer2_4_FILL">
<path fill="#FD7B23" stroke="none" d="
M 1057.9 228.45
Q 1062.6 227.2 1071.7 224.15 1074.7 223.1 1077.55 221.7 1076 215.3 1074.25 207.15
L 1036.85 221.2
Q 1034.6 222.3 1034.4 219.55
L 1033.95 206.35
Q 1028.1 211.1 1023.75 217.4
L 1015.3 229.5
Q 1020.2 232.85 1027.5 237 1031.6 239.3 1040.05 243.95
L 1037.6 232.8
Q 1038.65 231.55 1040.55 231.2 1041.25 231.1 1044 231 1047.05 231 1051.05 230.15 1051.45 230.05 1057.9 228.45
M 1030.25 180.2
Q 1019.15 184.8 1013.6 186.5 1014.05 188.2 1013.9 193.5 1013.85 197.8 1015.1 200.35
L 1017.95 199.95 1048.3 189.15 1049.95 188.9
Q 1050.3 192.25 1051.6 196.05 1052.1 197.8 1054.05 202.6 1056.95 200.7 1063.65 187.9 1070.35 175.15 1070.55 171.55 1068.5 169.95 1057.5 166.85 1046.55 163.7 1044.2 164.2
L 1047 174
Q 1041.15 175.75 1030.25 180.2 Z"/>
</g>

<g id="Layer2_4_MEMBER_0_FILL">
<path fill="#000000" stroke="none" d="
M 1076.45 214.45
Q 1075.65 211.3 1073.9 205.05
L 1072.7 202.15 1034.15 216.65
Q 1034.35 213.45 1034.1 209.95 1033.2 205.35 1034.65 200.85 1035.05 199.75 1034.75 199.25 1034.45 198.8 1033.05 198.25
L 1031.2 200.35
Q 1023.75 208.25 1021.05 211.35 1019.2 213.55 1016.8 216.95 1015.35 218.8 1012.65 222.6 1011.9 223.75 1010.7 226.5
L 1010.95 226.75 1009.7 227.6
Q 1010.85 229 1012.15 229.9 1016 232.45 1023 236.7 1025.65 238.2 1030.95 241 1031.5 241.35 1033.85 242.7 1035.55 243.7 1036.75 244.2 1038.3 245.1 1040.3 245.55 1040.75 244.65 1040.65 244.4 1040 241.45 1038.8 238.2 1037.4 235.4 1037.4 231.9 1038.75 231.3 1040.1 231.1 1043.95 231.3 1048.7 230.2 1050.4 229.85 1057.1 227.95
L 1066.45 225.05
Q 1074.05 222.5 1074.15 222.45 1076.7 221.45 1076.75 220.4 1077.05 217.3 1076.45 214.45
M 1071.25 205.15
Q 1073 213.3 1074.55 219.7 1071.7 221.1 1068.7 222.15 1059.6 225.2 1054.9 226.45 1048.45 228.05 1048.05 228.15 1044.05 229 1041 229 1038.25 229.1 1037.55 229.2 1035.65 229.55 1034.6 230.8
L 1037.05 241.95
Q 1028.6 237.3 1024.5 235 1017.2 230.85 1012.3 227.5
L 1020.75 215.4
Q 1025.1 209.1 1030.95 204.35
L 1031.4 217.55
Q 1031.6 220.3 1033.85 219.2
L 1071.25 205.15
M 1008.15 182.95
L 1007.9 184.7
Q 1008.25 189.5 1009.3 198.85 1009.5 199.6 1010.3 200.15 1012.55 201.7 1016.25 200.15 1021.5 198.25 1031.85 194
L 1044.3 189.05
Q 1044.7 189.7 1044.8 190.35 1047.3 198 1048.6 201.85 1049.15 203.15 1050.35 203.85 1052.2 204.35 1053 202.75 1057.05 197.1 1058.4 195.05 1059.65 192.95 1061.75 189.15 1063.85 185.35 1064.3 184.5 1065.3 182.95 1065.8 182.1 1066.65 180.65 1067.2 179.05 1068.95 173.75 1070 171.2 1070.4 170.15 1070.15 169.1 1069.95 168.1 1069.2 167.35
L 1040.55 158.45 1040.4 158.8 1037.8 160.15 1041.5 170.95 1008.15 182.95
M 1010.9 191.5
Q 1011.05 186.2 1010.6 184.5 1016.15 182.8 1027.25 178.2 1038.15 173.75 1044 172
L 1041.2 162.2
Q 1043.55 161.7 1054.5 164.85 1065.5 167.95 1067.55 169.55 1067.35 173.15 1060.65 185.9 1053.95 198.7 1051.05 200.6 1049.1 195.8 1048.6 194.05 1047.3 190.25 1046.95 186.9
L 1045.3 187.15 1014.95 197.95 1012.1 198.35
Q 1010.85 195.8 1010.9 191.5 Z"/>
</g>

<g id="Layer2_4_MEMBER_0_MEMBER_0_MEMBER_0_MEMBER_0_FILL">
<path fill="#000000" stroke="none" d="
M 289.1 260.3
L 288.55 260.25
Q 286.9 260.35 285.8 261.6 284.7 262.85 284.8 264.5
L 289.1 260.3 Z"/>
</g>

<g id="Layer2_4_MEMBER_0_MEMBER_0_MEMBER_0_MEMBER_1_FILL">
<path fill="#000000" stroke="none" d="
M 317.7 224.9
Q 318.75 225 320.05 224.2 321.35 223.35 322.1 222 320.6 221.85 319.4 222.65 318.15 223.45 317.7 224.9 Z"/>
</g>

<g id="Layer2_4_MEMBER_0_MEMBER_0_MEMBER_0_MEMBER_2_FILL">
<path fill="#000000" stroke="none" d="
M 303.6 269.3
Q 301.2 272.55 304.7 274.55
L 303.6 269.3 Z"/>
</g>

<g id="Layer2_4_MEMBER_0_MEMBER_0_MEMBER_0_MEMBER_3_FILL">
<path fill="#000000" stroke="none" d="
M 316.75 253.3
Q 317.5 253.95 318.95 255.15 320.3 256.15 321.75 256.35 320.35 254.05 317.75 253.05 317.65 252.95 317.35 253.1 316.8 253.3 316.75 253.3 Z"/>
</g>

<g id="Layer2_4_MEMBER_0_MEMBER_0_MEMBER_0_MEMBER_4_FILL">
<path fill="#000000" stroke="none" d="
M 326.25 237.7
Q 323.1 235.4 322 238.7
L 326.25 237.7 Z"/>
</g>

<g id="Layer2_4_MEMBER_0_MEMBER_0_MEMBER_0_MEMBER_5_FILL">
<path fill="#000000" stroke="none" d="
M 303.35 223.55
Q 305.25 220.2 303.15 219.25 302.65 220.9 302.7 221.7 302.7 222.55 303.35 223.55 Z"/>
</g>

<g id="Layer2_4_MEMBER_0_MEMBER_0_MEMBER_0_MEMBER_6_FILL">
<path fill="#000000" stroke="none" d="
M 283.75 229
Q 285.3 232.05 287.75 230.8 287.1 230.7 285.85 229.6 284.85 228.7 283.75 229 Z"/>
</g>

<g id="Layer2_5_MEMBER_0_MEMBER_0_FILL">
<path fill="#000000" stroke="none" d="
M 224.8 878.1
L 224.8 877.5
Q 222.9 877.4 221.95 877.4 220.3 877.4 219.15 878.1
L 224.8 878.1 Z"/>
</g>

<g id="Layer2_5_MEMBER_0_MEMBER_1_FILL">
<path fill="#000000" stroke="none" d="
M 184.6 872.1
Q 186.25 873.35 187.4 873.7 188.5 874 190.1 873.6
L 184.6 872.1 Z"/>
</g>

<g id="Layer2_5_MEMBER_0_MEMBER_2_FILL">
<path fill="#000000" stroke="none" d="
M 218.6 881
L 218.6 881.5 222.5 882.3 222.5 881.8
Q 221.2 881.15 220.65 881 219.6 880.65 218.6 881 Z"/>
</g>

<g id="Layer2_5_MEMBER_0_MEMBER_3_FILL">
<path fill="#000000" stroke="none" d="
M 218.1 884.6
Q 218.9 885.9 219.65 886.4 220.4 886.95 221.5 887 220.2 885.15 218.1 884.6 Z"/>
</g>

<g id="Layer2_5_MEMBER_0_MEMBER_4_FILL">
<path fill="#000000" stroke="none" d="
M 184.8 876.7
Q 186.4 877.3 187.2 877.35 188.05 877.35 189.1 876.7
L 184.8 876.7 Z"/>
</g>

<g id="Layer2_5_MEMBER_0_MEMBER_5_FILL">
<path fill="#000000" stroke="none" d="
M 780.9 322.85
Q 773.450390625 321.70390625 769.75 323.85 773.11796875 325.5171875 780.9 322.85 Z"/>
</g>

<g id="Layer2_6_FILL">
<path fill="#FD7B23" stroke="none" d="
M 528.85 439
Q 528.8 439 528.7 438.95 527.4 438.35 526.1 437.7 525.05 437.2 523.95 436.95 521.9 436.45 520.1 435.45 519.9 435.3 519.9 435.15 519.5 431.75 519.6 428.3
L 510.85 428.25 510.65 435
Q 510.6 435.05 510.55 435.05 509.9 435.55 509.45 435.4 507.4 435.65 505.45 436.55 504.5 437 503.55 437.65
L 503.5 437.65
Q 502.6 438.2 501.75 438.85
L 496.4 434.5 490.6 439.75 494.25 445.3 494.3 445.35
Q 494.4 445.7 493.55 447.35 493.55 447.4 493.55 447.5 492.2 450.1 491.95 451.45 491.75 452.75 491.05 454.05 491 454.2 490.85 454.3 487.6 454.75 484.2 454.55
L 484.3 463.4
Q 487.3 463.4 490.3 463.5 490.6 463.5 490.85 463.75 490.85 463.8 490.9 463.9 492.3 468.45 494.35 472.6 494.45 472.8 494.35 472.9 492.5 475.5 490.05 477.75
L 496.2 483.9 500.95 479.5
Q 502.7 480.05 504.25 481 504.85 481.35 505.55 481.55 507.75 482.3 509.9 483.1 510.1 483.15 510.15 483.35 510.7 486.6 510.45 489.95
L 519.25 489.95
Q 519.3 486.8 519.4 484.15 519.4 483.1 519.4 482.5 523.55 481.9 525.4 481.05 527.25 480.15 527.9 479.9 528.5 479.6 529.8 480.6 531.1 481.55 533.5 484.15
L 539.75 477.95 535.2 472.8
Q 535.2 472.3 535.6 471.8 535.85 471.55 536.05 471.2 536.9 469.6 537.55 467.9 538.15 466.05 538.75 464.2 538.8 464.05 538.9 464.05 542.45 463.7 545.9 463.7
L 544.8 454.9 538.95 454.6
Q 538.9 454.5 538.5 453.4 538.15 452.35 537.1 450.35 536.05 448.35 534.4 445.95
L 540.15 440.55 533.85 434.35 529.05 439
Q 528.95 439 528.85 439
M 508.95 444.4
Q 515.1 442 521.15 444.6 527.2 447.15 529.65 453.3 532.1 459.45 529.45 465.5 526.8 471.55 520.7 473.95 514.6 476.4 508.55 473.85 502.55 471.2 500.1 465.1 497.65 458.95 500.25 452.9 502.85 446.85 508.95 444.4 Z"/>
</g>

<g id="Layer2_6_MEMBER_0_FILL">
<path fill="#000000" stroke="none" d="
M 532.2 431.1
Q 532.05 431 531.9 430.95
L 526.6 435.7
Q 523.35 433.8 519.55 432.95 519.65 429.5 519.5 426 519.5 425.65 519.15 425.5 519 425.4 518.85 425.4 514.65 425.25 510.4 425.3 508.95 425.35 507.45 425.5 507.3 425.5 507.15 425.65 507.05 425.85 507 426.05 506.805859375 429.73828125 506.5 432.85 506.4623046875 432.655078125 504.05 433.35 501.68828125 434.0333984375 499.7 435.45
L 492.7 430.7 485.55 439.65 490.05 444.45
Q 490.1884765625 446.508203125 489.7 447.2 487.6 450.3 487.65 451.35 487.65 451.5 487.65 451.55 484.25 451.5 480.8 451.8 480.65 451.8 480.5 451.95 480.4 452.1 480.35 452.3 480.2 458.05 480.6 463.9 480.6 464 480.7 464.2 480.85 464.4 481.1 464.35 484.2 464.45 488 463.9
L 490.2 471.65
Q 487.85 474 485.8 476.55 485.6 476.75 485.8 477.1 485.8 477.25 486 477.35 489.8 481.35 493.1 486.15 494.25 485.5 494.6 485.15 497.1 482.85 499.25 479.85 499.95 481.35 500.65 481.65 503.5 482.9 506.5 483.6 506.5 487 506.75 490.4 506.75 490.6 506.95 490.75 507.1 490.9 507.25 490.9 513.1 491.1 519.35 492 519.15 490.55 519.15 490.15 519.25 486.8 519.25 483.55 522.95 482.65 526.25 480.7 530.2 484.15 531.45 486.7 531.45 487.4 533.55 485.45 535.65 483.6 541 477.45 540.2 476.75 539.9 476.5 537.65 474.1 535.35 471.75 537.4 468.45 538.3 464.7
L 545.5 464.55
Q 545.95 464.2 545.95 463.65 546.1 458.05 545.8 452.35 545.6 452.05 545.25 452.05 541.85 451.9 538.45 451.8 537.85 448 535.55 444.9 538.25 442.35 540.5 439.6 540.6 439.5 540.6 439.3 540.55 439 540.35 438.8 536.3 434.85 532.2 431.1
M 500.5 436.05
L 500.25 435.95 499.85 435.65 500.45 436.05 500.5 436.05
M 527.05 438
L 531.85 433.35 538.15 439.55 532.4 444.95
Q 534.05 447.35 535.1 449.35 536.15 451.35 536.5 452.4 536.9 453.5 536.95 453.6
L 542.8 453.9 543.9 462.7
Q 540.45 462.7 536.9 463.05 536.8 463.05 536.75 463.2 536.15 465.05 535.55 466.9 534.9 468.6 534.05 470.2 533.85 470.55 533.6 470.8 533.2 471.3 533.2 471.8
L 537.75 476.95 531.5 483.15
Q 529.1046875 480.5546875 527.8 479.55 526.4859375 478.5859375 525.85 478.85 525.2640625 479.1640625 523.4 480 521.5453125 480.8953125 517.4 481.5 517.4 482.1 517.4 483.15 517.3 485.8 517.25 488.95
L 508.45 488.95
Q 508.7 485.6 508.15 482.35 508.1 482.15 507.9 482.1 505.75 481.3 503.55 480.55 502.85 480.35 502.25 480 500.7 479.05 498.95 478.5
L 494.2 482.9 488.05 476.75
Q 490.5 474.5 492.35 471.9 492.45 471.8 492.35 471.6 490.3 467.45 488.9 462.9 488.85 462.8 488.85 462.75 488.6 462.5 488.3 462.5 485.3 462.4 482.3 462.4
L 482.2 453.55
Q 485.6 453.75 488.85 453.3 489 453.2 489.05 453.05 489.75 451.75 489.95 450.45 490.2 449.1 491.55 446.5 491.55 446.4 491.55 446.35 492.4 444.7 492.3 444.35
L 492.25 444.3 488.6 438.75 494.4 433.5 499.75 437.85
Q 500.6150390625 437.1955078125 501.45 436.65 501.5421875 436.6494140625 501.6 436.65
L 501.5 436.6
Q 502.4837890625 436.0201171875 503.45 435.55 505.4 434.65 507.45 434.4 507.9 434.55 508.55 434.05 508.6 434.05 508.65 434
L 508.85 427.25 517.6 427.3
Q 517.5 430.75 517.9 434.15 517.9 434.3 518.1 434.45 519.9 435.45 521.95 435.95 523.05 436.2 524.1 436.7 525.4 437.35 526.7 437.95 526.8 438 526.85 438 526.95 438 527.05 438
M 519.15 443.6
Q 513.1 441 506.95 443.4 500.85 445.85 498.25 451.9 495.65 457.95 498.1 464.1 500.55 470.2 506.55 472.85 512.6 475.4 518.7 472.95 524.8 470.55 527.45 464.5 530.1 458.45 527.65 452.3 525.2 446.15 519.15 443.6
M 523.9 453.8
Q 523.95 453.85 523.95 453.95 525.6 456.9 525.75 459.85 525.9 461.75 525.4 463.6 524.15 468.45 519.55 470.25 517.3 471.15 514.95 471 512.45 470.95 509.8 469.8 504.55 467.6 501.8 462.6 501.8 462.55 501.75 462.5 500.1 459.5 499.95 456.55 499.8 454.65 500.3 452.8 501.55 448 506.1 446.15 508.3 445.3 510.65 445.35 513.2 445.4 515.9 446.6 521.1 448.85 523.9 453.8 Z"/>

<path fill="#FFFFFF" stroke="none" d="
M 500.25 435.95
L 500.5 436.05 500.45 436.05 499.85 435.65 500.25 435.95
M 516.15 416.85
Q 516.15 417 516.2 417.1 516.3 417.3 516.4 417.3 516.4 417.35 516.6 417.3
L 516.75 417.25 516.8 417.2
Q 516.85 417.2 516.85 417.15 516.95 417.05 516.9 416.9 516.9 416.8 516.8 416.65
L 516.7 416.65 516.65 416.6 516.4 416.65 516.4 416.75
Q 516.25 416.8 516.15 416.85 Z"/>
</g>

<g id="Layer2_7_MEMBER_0_FILL">
<path fill="#000000" stroke="none" d="
M 373.2 624.45
Q 373.3 623.85 372.7 623.35 372.15 622.75 371.8 622.5 371.25 622.05 370.6 622.35 369.95 622.65 370.1 623.45 370.2 623.85 370.5 624.45
L 370.85 625.55
Q 372 628.6 375.5 638.65 375.8 639.75 375.85 640.45 374.65 640.75 372.75 641.55 371.75 641.85 371.25 642.05 370.3 642.4 369.85 643.35 371.35 643.6 373.4 642.7 375.9 641.65 376.85 641.55 376.85 641.6 376.7 642.4 376.6 642.8 376.5 642.85
L 374.85 643.45
Q 373.45 644 372.75 644.35 371.55 644.95 371 645.85
L 371.15 646.45 372.85 645.95 376.15 644.35
Q 376.9 644.05 377.35 644.3 377.75 644.5 378.15 645.25 381.35 651.65 382.85 654.15 383.55 655.3 383.5 655.75 383.45 656.2 382.35 656.85 378.65 658.9 375.35 660.35 374.15 660.95 373.6 660.75 373.05 660.6 372.45 659.45 369.7 654.15 367.65 648.75 363.65 636.35 362.25 624.05 362 622.5 361.35 621.35 361.2 620.85 360.15 620.85 359.85 621.1 359.55 621.75 359.4 622.3 359.55 622.95 362.25 637.7 362.65 639.65 363.3 642.25 365.85 651.35 364.95 651.95 363.65 651.95 363.05 651.95 361.25 651.75 360.35 651.6 359.35 651.75 358.7 652.1 358.6 652.85 358.45 653.8 359.7 653.65 360.7 653.5 361.8 653.65 363.45 653.7 365.6 653.55
L 365.8 653.45
Q 366.4 653.35 366.95 653.7 367.45 654 367.6 654.65 368.8 657.55 370.2 660.05 371.55 662.1 371.8 662.4 372.9 663.65 374.4 663.95 373.95 664.45 373.2 665.05
L 363.7 669.55
Q 362.7 670.2 361.8 670.75 361.55 671.2 362.8 673.35 363.95 675.3 368.7 682.65 369.25 683.45 370.2 684.25 371.2 685.25 372.6 684.65
L 380.5 680.95
Q 387.65 676.95 390.75 675.35 392.85 674.25 393 673.15 393.1 672.55 392.35 670.75 391.85 669.45 392.45 668.65 393 667.95 394 667.85 395.35 667.75 395.8 667.6 396.75 667.35 396.7 666.75 396.7 666.55 396.05 665.55 395.6 664.85 396 664.15 396.9 665.05 398 665.85 398.95 666.25 400 665.95 400.75 665.75 400.6 664.35 400.1 662.35 400 661.35 399.9 659.05 398.5 657.15 397.15 655.3 395 654.55 392.8 653.75 390.75 653.55 388.6 653.65 386.5 654.15
L 385.85 653.35
Q 381.15 645.65 378.1 637.35 376.85 634.3 373.2 624.45
M 391.35 660.45
Q 390.05 660.2 389.85 661.75
L 389.85 664.85
Q 388.45 663.95 388.15 663.45 387.85 662.8 387.15 662.6 386.5 662.4 385.85 662.7 385.55 662.9 385.5 663.25 385.45 663.5 385.45 664.5 385.45 664.75 386.1 666.85 386.5 668.25 385.75 668.2 384.95 668.15 384.25 667.45 384.15 667.35 383.45 666.45
L 382.65 665
Q 382.5 664.75 382.1 664.6 381.65 664.45 381.45 664.6 380.95 665.15 381.05 665.8 381.1 666.3 381.35 667.25 381.6 668.2 381.65 668.7 381.65 669.65 381.35 670.45 378.15 667.2 376.45 662.75
L 384.45 658.85
Q 385.55 658.15 386.1 658 387.05 657.7 388.05 658.15
L 388.25 656.15
Q 391.45 654.25 394.95 656.75 396.4 657.6 397.05 659.1 397.75 660.6 397.45 662.25
L 391.35 660.45
M 387.7 667.05
Q 387.7 666.8 388 666.15
L 390.6 672.25 390.3 672.85 374 681.25 373.9 681.25
Q 372.7 681.95 371.3 681.55 370 681.15 369.3 679.95
L 365.1 672.75
Q 364.7 672.05 364.7 671.35 365.85 670.6 367.1 670.15
L 373.6 667.25
Q 374.95 666.75 375.4 666.9 375.8 667.05 376.7 668.25 378.75 670.85 380.8 672.85 381.85 673.55 383.2 673.75
L 383.7 669.95
Q 384.85 670.55 385.8 670.95 386.8 671.35 387.35 670.9 387.9 670.5 387.8 669.45 387.65 668.1 387.7 667.05
M 394 665.2
Q 393.2 665.95 393 665.95 392 665.95 392.25 665.55 392.65 664.75 392.85 664.65 393 664.55 393.3 664.8 393.7 665.1 394 665.2 Z"/>
</g>

<g id="Layer2_7_MEMBER_1_FILL">
<path fill="#000000" stroke="none" d="
M 355.55 677.3
Q 355.25 672.4 355.25 672.3
L 355.25 672
Q 355.15 671.3 354.55 670.9 353.95 670.5 353.25 670.6 352.6 670.85 352.4 671.4 352.25 671.7 352.25 672.5
L 352.25 673.2
Q 352.45 687.8 353.05 716.8
L 352.95 718.7
Q 352.9 719.8 353.6 720.65 354.3 721.45 355.35 721.65
L 358.85 722.45
Q 359.7 722.55 361.4 722.75 362.8 723.05 363.45 724.35 363.55 724.55 364.45 724.85 368.1 726.5 372.15 725.95 379.7 725.05 386.75 723.85 390 723.1 392.45 722.15 393.8 721.65 393.95 721.25 394.05 720.85 393.45 719.55 392.4 716.5 389.25 715.85 388.85 715.8 385.6 714.7 383.4 713.95 381.75 714.35 381.55 714.35 381 713.85 380.5 713.35 380.35 712.95 379.45 709.2 378.85 705.45 377.65 696.3 378.15 687.35 378.2 686.4 377.6 685.25
L 376.25 683.15 375.75 685.35
Q 375.75 694.5 375.9 698.15 376.2 705.3 377.25 710.85 377.6 712.25 377.65 713.55
L 368.35 713.95
Q 366 714.05 365.35 713.4 364.6 712.7 364.75 710.25 365.2 702.7 365.25 699.95 365.35 694.95 365.15 684.95 365 682.3 364.15 679.75 363.6 678.1 362.45 678.35 361.45 678.55 361.95 680.35 363.1 689.8 362.65 699.05 362.45 707.85 362.25 712.15 362.1 713.05 362.65 713.85 363.15 714.65 364.05 714.85 366.5 715.6 369.15 715.75 370.15 715.75 373 715.55 375.35 715.35 376.75 715.45 380.1 715.85 383.05 715.85
L 387.35 717.25
Q 388.75 717.7 389.45 718.3 390.35 719.05 390.55 720.35 389.75 720.75 389.65 720.75
L 382.95 722.55
Q 381.75 722.75 381.25 722.45 380.8 722.15 380.25 720.95 378.85 717.8 375.75 716.25 375.3 718.15 376.45 719.95 377.05 721 378.45 722.85 376.95 723.65 376.65 723.75 376.2 723.9 376.15 722.55 376.1 721.35 374.95 720 373.5 718.25 373.25 717.75 373.15 717.6 372.25 717.35 371.7 718.85 372.8 720.65 374.1 722.7 374.05 723.65 370.9 724.45 367.65 723.75 365.65 723.25 365.25 722.7 364.9 722.15 365.05 720.05 365.25 719.15 365.05 718.35 365.05 716.9 363.35 716.65
L 362.35 721.05
Q 359.05 720.55 357.55 720.15 356.55 720 355.85 719.2 355.2 718.4 355.25 717.35
L 355.65 712.95 357.35 712.9
Q 358.35 713.2 359.45 713.1 359.7 713.1 360 712.8 360.3 712.45 360.45 712.3 360.15 711.85 359.65 711.5
L 357.85 711.2
Q 356.05 710.95 355.7 710.65 355.4 710.35 355.45 707.9
L 355.75 697.1
Q 355.75 690.5 355.55 677.3 Z"/>
</g>

<g id="Layer2_7_MEMBER_2_FILL">
<path fill="#000000" stroke="none" d="
M 360.55 579.9
Q 355.4 580.15 351.6 583.3 344.3 589.3 345 598 344.75 601.2 345.75 604.2 346.75 607.25 348.9 609.65 351.25 612.4 354.5 614.05 357.85 615.8 360.65 616.5 364 617.35 367.2 616.85 369.3 616.7 371 615.65 372.4 614.55 373.9 613.85 375.25 613.25 375.8 612.85 376.7 612.1 376.3 610.75 376.25 610.65 376.4 610.45
L 376.6 610.15
Q 377.25 608.75 378 606.65 378.55 604 379.1 599.05 379.2 597.2 380.7 596.15 383.6 593.65 385.1 590.25 385.85 588.35 385.05 586.95 384.25 585.5 382.3 585.35 379.05 584.85 375.7 585.45 374.1 585.85 372.8 585.25 371.85 584.85 370.6 583.7 366.45 579.6 360.55 579.9
M 348.7 592.3
Q 350.65 586.9 355.6 583.7 359.75 581.2 364.5 581.95 365.7 582.05 366.7 582.8 367.7 583.55 368.1 584.7 366.95 584.7 366.7 585.15 366.5 585.55 366.8 586.75 367.05 587.75 368 588.5 368.8 589.15 369.1 589.05 369.35 588.95 369.6 588.7 369.9 588.35 369.9 588.15 369.7 586.45 369.5 585.65
L 372.4 587.35
Q 374.35 588.6 376.7 587.85 379.1 587.4 381.6 587.55
L 383.05 587.45
Q 383.45 587.65 382.7 589.15 380.65 593.5 378.1 595.15 377.15 595.55 376.65 596.5 376.15 597.4 376.3 598.45
L 376.1 600.45
Q 375.9 602.05 375.3 602.55 374.65 603.1 373 603
L 371.2 602.7
Q 371.35 604 371.85 604.35 372.4 604.65 375.3 605.2 374.85 606.6 374.15 608.8 373.25 610.55 370.8 611.95 364.45 615.55 358.6 613.5 356.65 612.95 355.3 611.8 349.35 607.35 348.3 602.8 346.9 596.65 348.7 592.3 Z"/>
</g>

<g id="Layer2_7_MEMBER_3_FILL">
<path fill="#000000" stroke="none" d="
M 354.85 621.35
Q 355.05 620.6 354.65 619.8 354.25 618.95 353.5 618.95 352.8 618.95 352.45 619.75 352.2 620.25 352.2 620.65
L 352.1 621.15
Q 349.65 629.45 348.35 638.15 348.1 641 347.35 646.7 346.85 651.75 347.1 655.35 347.5 663.6 347.55 664.15 347.8 665.95 348.45 666.45 350.4 667.9 352.95 668.45 356.1 668.8 359.55 668.65 360.2 668.7 360.95 668.55 361.65 668.1 361.65 667.65 361.45 667.05 360.85 666.85
L 352.15 666.45
Q 351.3 666.4 350.8 665.8 350.25 665.15 350.3 664.35 349.8 660.15 349.9 658.15 349.9 651.45 350.3 646.45 350.4 645.25 350.8 642.7 351.2 640.2 351.3 638.85 351.85 632.6 353.6 626.95 354.45 623.8 354.85 621.35 Z"/>
</g>

<g id="Layer2_7_MEMBER_4_FILL">
<path fill="#000000" stroke="none" d="
M 403.85 721.85
Q 402.75 721.5 401.7 721.85 400.6 722.2 399.85 723.05 399.7 723.3 398.65 723.55
L 388.95 726.15
Q 387.55 726.55 385.95 727.45 386.95 729.5 389.15 729.65 390.8 729.95 397.85 730.85 396.6 732.1 396.55 732.15 396 733 396.4 733.95 396.85 734.95 397.8 735.5 398.8 736.1 399.9 736.05
L 407 735.65
Q 409.9 735.3 413 735.75 416.8 736.5 420.6 735.45 424.35 734.4 427.3 731.75 427.35 731.45 427.6 731.05 425.3 729.25 420.95 728.7 415.05 727.95 413.8 727.55
L 417.1 725.85
Q 415.75 724.75 414.6 724.25 407.2 722.4 403.85 721.85
M 401.85 728.8
Q 398.3 729.25 395 729.2 391.55 729.2 388.2 727.95 388.95 727.4 390 727
L 399.5 724.45
Q 400.05 724.45 400.35 724.2 401.3 723.1 402.8 722.9 403.6 722.8 405.5 723 410.25 723.55 414.35 725.45 413.55 725.85 410.9 726.75 408.85 727.4 407.75 728.3 410.75 728.65 416.7 729.05 421.9 729.55 425.35 730.8 425.45 731 425.45 731.3 421.8 733.5 419.65 734.2 416.3 735.25 413.15 734.3 411.3 733.95 409.15 734.1
L 400.85 734.8
Q 400.8 734.8 400.75 734.95 400.7 735.05 400.15 734.8 399.15 734.65 398.7 734.6 397.85 734.45 397.65 733.7 397.45 732.95 398.05 732.55 398.8 732.1 399.15 731.8 400.65 730.8 401.25 730.2 401.7 729.6 401.85 728.8 Z"/>
</g>

<g id="Layer2_7_MEMBER_5_FILL">
<path fill="#000000" stroke="none" d="
M 396.45 679.35
Q 396.2 677.1 397.2 675.3 397.3 675.2 397.1 674.8
L 395.1 674
Q 394.6 674.7 394.6 674.8 394.6 676.8 393.7 679 393.1 680.45 391.7 682.8 391.05 684 390.8 685.2 390.55 686.15 390.9 687 391.25 687.85 392.1 688.3 393.7 689.4 395.5 688.5 397.1 687.65 397.6 686.45 398.1 685.2 397.5 683.3 396.6 680.7 396.45 679.35
M 394.85 687.1
Q 394 687.4 393.1 687
L 393 686.95
Q 392.45 686.55 392.4 685.9 392.3 685.25 392.7 684.7 393.55 682.8 394.5 681.2
L 395.1 681.2
Q 395.35 682.6 396.1 685
L 396.1 685.05
Q 396.25 685.75 395.9 686.35 395.55 686.95 394.85 687.1 Z"/>
</g>

<g id="Layer2_7_MEMBER_6_FILL">
<path fill="#000000" stroke="none" d="
M 392.5 694.65
L 392 694.45
Q 391.75 694.75 391.25 695.25 390.8 695.7 390.7 696.05 389.65 698.9 388.9 701.75 388.65 702.85 389.1 703.85 389.35 704.3 389.9 704.55
L 390.05 704.6
Q 391.05 704.9 392 704.4 392.95 703.85 393.3 702.85 393.75 701.25 393.2 699.65 391.8 697.25 392.5 694.65
M 390.65 701.6
Q 390.75 701.05 391.35 700.05
L 391.35 700
Q 391.65 701.25 391.6 701.7 391.6 702.4 391 702.95 390.55 702.25 390.65 701.6 Z"/>
</g>

<g id="Layer2_7_MEMBER_7_FILL">
<path fill="#000000" stroke="none" d="
M 391.5 714.65
Q 392.2 713.45 392.25 713.35 392.35 713.25 391.55 712.75 390.8 713 390.25 713.55
L 391.5 714.65 Z"/>
</g>

<g id="Layer2_7_MEMBER_8_FILL">
<path fill="#000000" stroke="none" d="
M 363.6 593.2
Q 361.4 592.35 358.4 591.5 357 591.25 356.45 591.7 355.85 592.15 355.7 593.6 355.6 594.6 355.6 599.8 355.75 602.75 358.2 604.5 360.4 606.25 363.1 606.6 364.5 606.85 365.7 605.8 366.3 605.35 366.3 604.75 366.25 604.1 365.6 603.9 364.45 603.5 363.35 603.8 360.25 604.5 359.35 602.5 357.25 598 359.1 593.5
L 363.1 594.85
Q 363.45 594.85 363.95 594.6 364.5 594.35 364.3 594.15 363.9 593.3 363.6 593.2 Z"/>
</g>

<g id="Layer2_8_FILL">
<path fill="#FD7B23" stroke="none" d="
M 861.05 528.55
Q 860.95 527.9 861 527.3 858.4 532.25 856.95 534.65 856.7 535.15 856.65 535.65 856.5 537.5 856.75 539.3 856.85 540.05 857.25 540.7 858.35 542.55 860.6 542.85 861.1 542.9 861.55 542.7 863.2 541.95 863.45 540.3 863.6 539.35 863.5 538.35 863.3 536.8 862.75 535.25 861.55 531.95 861.05 528.55
M 781.6 364.5
Q 785.45 360.1 789.3 357.45 793.65 354.4 801.05 351.55 813.25 346.8 813.4 346.75 814.6 346.2 814.65 345.45 814.65 344.95 814.1 344.5 813.6 344.25 812.9 344.15 810.1 343.75 806.1 344.45 792.35 346.85 780.7 356.75 769.75 366.2 763.45 379.75 759.5 388.25 757.8 397.2 756.05 406.4 756.8 415.45 757.5 424.7 760.85 433.3 764.3 442.05 770.1 449.1 779.4 460.4 794.45 466.85 808.2 472.75 824.4 473.6 829.93671875 473.9044921875 834.8 473.55 835.75 475.45 837.6 475.55 839.3 475.85 840.6 474.65 842.35 473 844.75 473.4 845.8 473.65 846.35 474.4 846.75 474.95 847.2 475.55 850.7 476.15 852.95 473.4 853.75 472.45 854.85 471.65 856.65 470.5 858.2 471.7 858.65 472.05 858.85 472.75 859.85 476.15 858.6 479.1 858.05 480.35 857.5 481.55 855.6 485.7 855.9 490 856 491.2 856.4 492.35 857.3 495.15 860.25 495.75 861.6 496.1 862.7 495.75 864.7 494.9 865.95 493.35 867.4 491.6 867 489.5 866.2 485.4 864.65 481.3 864.25 480.25 864.2 479.1 864.2 478.1 863.9 477 862.8 473.3 863.55 469.3 864.1 466.25 865.65 463.55 879.693359375 454.925 888.35 439.75 890.2 436.9 891.65 434.3 897.45 423.7 898.95 410.5 900.3 398.35 898 385.35 896.5 376.85 893.8 371.2 890.6 364.55 884.05 358 874.15 348.15 861 342.65 847.8 337.25 833.85 337.15 830.7 337.15 828.5 337.5 825.6 338.05 823.55 339.3 822.35 340.15 822.45 341 822.6 342 824.4 342.3 829.6 343.25 840.05 345.05 848.95 346.75 855.3 349.15 866.65 353.45 875.55 361.4 882.6 367.5 885.8 374.25 887.4 377.65 888.4 382.2 889.15 385.3 889.85 390.6 890.95 398.7 890.95 404.2 890.85 413.85 887.55 423.15 884.75 431 882.05 434.7 879.3 438.4 872.55 446.5 865.85 454.6 853.05 461.05 851.05 461.85 849.75 462.35 845.7 463.9 842.25 464.7 835.6 466.15 826.15 465.65 812.9 465 801.9 461.2 789.5 457 780.95 449.05 772.4 441.2 767.85 429.9 763.45 418.8 763.85 406.85 764.15 395.35 768.9 384.15 773.55 373.3 781.6 364.5
M 848.4 385.95
Q 846.05 388.5 845.05 392.1 844.05 395.5 844.3 399.15 844.6 401.7 845.6 403.65 846.75 405.9 848.8 406.65 850.35 407.25 852.35 406.85 854 406.45 855.6 405.3 857.85 403.8 859.3 401.35 860.8 398.9 861.1 396.15 861.4 393.05 860.3 388.95 859.1 384.65 856.65 383.4 854.7 382.4 852.3 383.3 850.1 384.05 848.4 385.95
M 809.35 381.95
Q 808.8 383 808.65 383.65 808.25 384.6 808.4 385.4 808.55 386.65 809.6 387.6 810.65 388.5 812.05 388.6 814.5 388.85 816.95 386.95 818.95 385.5 820.35 383.25 821.7 381.15 822.4 378.6 822.95 376.6 822.8 375.25 822.65 374.15 822.1 373.2 821.5 372.15 820.6 371.7 819.45 371.1 818.05 371.3 816.75 371.5 815.6 372.35 813.95 373.45 812.3 376.35 811.35 378.05 809.35 381.95
M 791.15 394.5
Q 790.4 394.25 789.55 394.85 788.85 395.25 788.3 396.1 785.5 400.35 785.5 406.55 785.6 411 787.35 417.3 788.9 422.95 790.85 426.85 793.2 431.9 796.65 435.1 801.55 439.8 810.45 442.4 822.05 445.75 833.85 444.15 846.15 442.4 855.5 435.65 859.2 432.95 861.3 430.25 863.15 427.85 863.4 425.85 863.55 424.6 863.05 423.5 862.65 422.25 861.55 421.6 860.6 421 859.25 421.1 858.05 421.2 856.9 421.85 856.05 422.35 855 423.3 853.8 424.4 853.2 425 849.15 428.8 843.9 431.35 838.75 433.8 833.05 434.65 822.05 436.3 810.7 432.3 804.95 430.3 801.75 427.4 799.6 425.35 797.65 422 794.55 416.7 793.25 410.55 791.9 404.45 792.45 398.25 792.75 395 791.15 394.5 Z"/>
</g>

<g id="Layer2_9_FILL">
<path fill="#FD7B23" stroke="none" d="
M 1150.3 482.6
Q 1148.3 480.05 1145.25 479.65 1142.9 479.1 1140.3 479 1132.6 479.35 1128.3 484.7 1125.65 488.05 1125.9 492.4 1126.5 498.7 1129.85 502.1 1130.1 502.25 1130.2 502.65 1130.25 502.95 1130.4 503.55
L 1123.1 504.85
Q 1123.35 505.8 1123.35 507.6 1123.5 509.1 1124.3 510.1
L 1128.95 508.85
Q 1129.85 509.8 1130 510.1 1130.1 510.45 1129.55 511.3 1129.3 511.9 1128.8 512.35 1124.2 516.75 1118.65 519.9
L 1116.05 521.55
Q 1116.35 522.5 1116.85 524.3 1117.35 525.7 1118.1 526.5 1123.05 524.7 1123.55 524.6 1131.45 522 1137.25 527.1 1143.4 532.5 1151.8 529.95 1154.25 529 1156.05 528.1
L 1162.2 524.9 1160.1 522.35 1155.9 524.75
Q 1148.8 528.3 1142.85 525.9 1139.8 524.6 1137 522.65 1133.9 520.35 1130.3 521.35
L 1127.65 522.05 1126.45 520.15
Q 1129.7 516.65 1131.25 514.8 1134 511.6 1134.95 508.6 1141.5 508.3 1148.05 506.9
L 1148.05 501.85 1135.45 503.65
Q 1133.05 501.4 1131.85 498.75 1130.75 496.85 1130.4 495.7 1129.85 493.9 1130.3 492.3 1132 485.05 1138.85 483.55 1140.85 483.1 1142.65 483.6 1144.7 484.3 1145.45 486.2 1146 487.05 1146.65 487.55 1148.9 486.95 1149.55 486.1 1150.15 485.2 1150.3 482.6 Z"/>
</g>

<g id="Layer2_9_MEMBER_0_FILL">
<path fill="#000000" stroke="none" d="
M 1152.45 482.2
Q 1152.4 481.65 1152.2 481.4 1149.65 476.55 1144.5 475.1 1138.9 473.75 1133.3 475.3 1128 476.5 1125 481 1120.7 487.4 1123.7 495.2
L 1125.8 499.7 1119.7 500.6
Q 1119.8 502.35 1120.15 504.2
L 1121.1 509.4
Q 1121.2 509.95 1121.65 510.85
L 1122.1 510.6 1123.75 510.4
Q 1121.4 512.7 1118.3 514.55 1116.3 515.75 1112.3 517.6 1112.2 517.85 1112.25 518.45
L 1115.2 526.55
Q 1115.45 527.2 1116.3 527.6
L 1117.8 526.95
Q 1121.75 524.65 1125.95 524.05 1129.2 523.15 1132.4 524.65 1134.65 525.85 1136.8 527.65 1139.5 529.65 1142.65 530.45 1149.35 531.7 1155.6 528.5 1157.4 527.5 1164.35 524.25 1163.9 522.75 1162.3 520.8 1160.4 518.65 1160.05 517.8 1158.4 517.15 1157.25 518.35 1153.25 521.05 1148.7 522.15 1146.55 522.8 1144.3 522.4 1142.05 522.05 1140.25 520.75 1136.15 518.3 1135.55 518.1 1132.75 516.75 1130.3 516.7
L 1136.5 508.4 1149.5 506.65
Q 1149.35 499.65 1149.25 498.15 1147.5 497.15 1145.65 497.55
L 1139.95 498.55 1134.95 498.9
Q 1133.5 497.9 1132.7 496.1 1132 493.95 1131.6 492.9 1132.3 487.7 1135.6 485.05 1138.95 482.45 1142.6 484.3 1142.8 484.75 1142.7 486.1 1142.75 487.15 1143.6 487.55 1144.2 487.8 1144.75 488 1145.05 488.05 1146.6 487.6 1148.55 487.1 1149.55 486.3 1150.85 485.25 1151.1 483.5
L 1152.55 483.2
Q 1152.5 482.55 1152.45 482.2
M 1144.25 477.65
Q 1147.3 478.05 1149.3 480.6 1149.15 483.2 1148.55 484.1 1147.9 484.95 1145.65 485.55 1145 485.05 1144.45 484.2 1143.7 482.3 1141.65 481.6 1139.85 481.1 1137.85 481.55 1131 483.05 1129.3 490.3 1128.85 491.9 1129.4 493.7 1129.75 494.85 1130.85 496.75 1132.05 499.4 1134.45 501.65
L 1147.05 499.85 1147.05 504.9
Q 1140.5 506.3 1133.95 506.6 1133 509.6 1130.25 512.8 1128.7 514.65 1125.45 518.15
L 1126.65 520.05 1129.3 519.35
Q 1132.9 518.35 1136 520.65 1138.8 522.6 1141.85 523.9 1147.8 526.3 1154.9 522.75
L 1159.1 520.35 1161.2 522.9 1155.05 526.1
Q 1153.25 527 1150.8 527.95 1142.4 530.5 1136.25 525.1 1130.45 520 1122.55 522.6 1122.05 522.7 1117.1 524.5 1116.35 523.7 1115.85 522.3 1115.35 520.5 1115.05 519.55
L 1117.65 517.9
Q 1123.2 514.75 1127.8 510.35 1128.3 509.9 1128.55 509.3 1129.1 508.45 1129 508.1 1128.85 507.8 1127.95 506.85
L 1123.3 508.1
Q 1122.5 507.1 1122.35 505.6 1122.35 503.8 1122.1 502.85
L 1129.4 501.55
Q 1129.25 500.95 1129.2 500.65 1129.1 500.25 1128.85 500.1 1125.5 496.7 1124.9 490.4 1124.65 486.05 1127.3 482.7 1131.6 477.35 1139.3 477 1141.9 477.1 1144.25 477.65 Z"/>
</g>

<path id="Layer2_6_MEMBER_0_MEMBER_0_1_STROKES" stroke="#000000" stroke-width="2" stroke-linejoin="round" stroke-linecap="round" fill="none" d="
M 492.7 430.7
L 485.55 439.65 490.05 444.45
Q 490.1884765625 446.508203125 489.7 447.2 487.6 450.3 487.65 451.35 487.65 451.5 487.65 451.55 484.25 451.5 480.8 451.8 480.65 451.8 480.5 451.95 480.4 452.1 480.35 452.3 480.2 458.05 480.6 463.9 480.6 464 480.7 464.2 480.85 464.4 481.1 464.35 484.2 464.45 488 463.9
L 490.2 471.65
Q 487.85 474 485.8 476.55 485.6 476.75 485.8 477.1 485.8 477.25 486 477.35 489.8 481.35 493.1 486.15 494.25 485.5 494.6 485.15 497.1 482.85 499.25 479.85 499.95 481.35 500.65 481.65 503.5 482.9 506.5 483.6 506.5 487 506.75 490.4 506.75 490.6 506.95 490.75 507.1 490.9 507.25 490.9 513.1 491.1 519.35 492 519.15 490.55 519.15 490.15 519.25 486.8 519.25 483.55 522.95 482.65 526.25 480.7 530.2 484.15 531.45 486.7 531.45 487.4 533.55 485.45 535.65 483.6 541 477.45 540.2 476.75 539.9 476.5 537.65 474.1 535.35 471.75 537.4 468.45 538.3 464.7
L 545.5 464.55
Q 545.95 464.2 545.95 463.65 546.1 458.05 545.8 452.35 545.6 452.05 545.25 452.05 541.85 451.9 538.45 451.8 537.85 448 535.55 444.9 538.25 442.35 540.5 439.6 540.6 439.5 540.6 439.3 540.55 439 540.35 438.8 536.3 434.85 532.2 431.1 532.05 431 531.9 430.95
L 526.6 435.7
Q 523.35 433.8 519.55 432.95 519.65 429.5 519.5 426 519.5 425.65 519.15 425.5 519 425.4 518.85 425.4 514.65 425.25 510.4 425.3 508.95 425.35 507.45 425.5 507.3 425.5 507.15 425.65 507.05 425.85 507 426.05 506.805859375 429.73828125 506.525 432.85 506.4623046875 432.655078125 504.075 433.35 501.68828125 434.0333984375 499.725 435.475
L 492.7 430.7 Z"/>
</defs>

<g transform="matrix( 1, 0, 0, 1, 0,0) ">
<use xlink:href="#Layer4_0_FILL"/>
</g>

<g transform="matrix( 1.241119384765625, 0, 0, 0.9505767822265625, 469.95,335.45) ">
<use xlink:href="#Layer4_1_MEMBER_0_FILL"/>
</g>

<g transform="matrix( 1.241119384765625, 0, 0, 0.9505767822265625, 469.95,335.45) ">
<use xlink:href="#Layer4_1_MEMBER_1_FILL"/>
</g>

<g transform="matrix( 1.241119384765625, 0, 0, 0.9505767822265625, 469.95,335.45) ">
<use xlink:href="#Layer4_1_MEMBER_2_FILL"/>
</g>

<g transform="matrix( 1.241119384765625, 0, 0, 0.9505767822265625, 397.05,343.75) ">
<use xlink:href="#Layer4_1_MEMBER_3_FILL"/>
</g>

<g transform="matrix( 1.241119384765625, 0, 0, 0.9505767822265625, 475.6,331.55) ">
<use xlink:href="#Layer4_1_MEMBER_4_FILL"/>
</g>

<g transform="matrix( 1.241119384765625, 0, 0, 0.9505767822265625, 428,325) ">
<use xlink:href="#Layer4_1_MEMBER_5_FILL"/>
</g>

<g transform="matrix( 1, 0, 0, 1, 0,0) ">
<use xlink:href="#Layer3_0_FILL"/>
</g>

<g transform="matrix( 1.0718994140625, 0.119873046875, 0.030975341796875, 1.05474853515625, 22.45,-312.75) ">
<use xlink:href="#Layer3_1_MEMBER_0_FILL"/>
</g>

<g transform="matrix( 1.0718994140625, 0.119873046875, 0.030975341796875, 1.05474853515625, 14.25,-318.8) ">
<use xlink:href="#Layer3_1_MEMBER_1_FILL"/>
</g>

<g transform="matrix( -0.8269195556640625, 0.222991943359375, 0.102508544921875, 0.8315582275390625, 1466.1,-277.95) ">
<use xlink:href="#Layer3_2_MEMBER_0_FILL"/>
</g>

<g transform="matrix( -0.8269195556640625, 0.222991943359375, 0.102508544921875, 0.8315582275390625, 1471.9,-283.8) ">
<use xlink:href="#Layer3_2_MEMBER_1_FILL"/>
</g>

<g transform="matrix( 0.775238037109375, 0.346893310546875, 0.4423980712890625, -0.70330810546875, -131.65,555.9) ">
<use xlink:href="#Layer3_3_MEMBER_0_FILL"/>
</g>

<g transform="matrix( 0.775238037109375, 0.346893310546875, 0.4423980712890625, -0.70330810546875, -139.65,556.7) ">
<use xlink:href="#Layer3_3_MEMBER_1_FILL"/>
</g>

<g transform="matrix( -0.89642333984375, 0.204803466796875, -0.321380615234375, -0.840179443359375, 1795.6,746.75) ">
<use xlink:href="#Layer3_4_MEMBER_0_FILL"/>
</g>

<g transform="matrix( -0.89642333984375, 0.204803466796875, -0.321380615234375, -0.840179443359375, 1789.85,743.45) ">
<use xlink:href="#Layer3_4_MEMBER_1_FILL"/>
</g>

<g transform="matrix( 1, 0, 0, 1, -10,0) ">
<use xlink:href="#Layer3_5_FILL"/>
</g>

<g transform="matrix( 1, 0, 0, 1, -10,0) ">
<use xlink:href="#Layer2_0_MEMBER_0_FILL"/>
</g>

<g transform="matrix( -3.4635772705078125, 0, 0, 3.4635772705078125, 1547.15,-1831.15) ">
<use xlink:href="#Layer2_0_MEMBER_1_FILL"/>
</g>

<g transform="matrix( -3.4635772705078125, 0, 0, 3.4635772705078125, 1547.15,-1831.15) ">
<use xlink:href="#Layer2_0_MEMBER_2_FILL"/>
</g>

<g transform="matrix( -3.4635772705078125, 0, 0, 3.4635772705078125, 1547.15,-1831.15) ">
<use xlink:href="#Layer2_0_MEMBER_3_FILL"/>
</g>

<g transform="matrix( -3.4635772705078125, 0, 0, 3.4635772705078125, 1547.15,-1831.15) ">
<use xlink:href="#Layer2_0_MEMBER_4_FILL"/>
</g>

<g transform="matrix( -3.4635772705078125, 0, 0, 3.4635772705078125, 1547.15,-1831.15) ">
<use xlink:href="#Layer2_0_MEMBER_5_FILL"/>
</g>

<g transform="matrix( 1, 0, 0, 1, -10,0) ">
<use xlink:href="#Layer2_1_MEMBER_0_FILL"/>
</g>

<g transform="matrix( 3.4635772705078125, 0, 0, 3.4635772705078125, -104.25,-1877.2) ">
<use xlink:href="#Layer2_1_MEMBER_1_FILL"/>
</g>

<g transform="matrix( 3.4635772705078125, 0, 0, 3.4635772705078125, -104.25,-1877.2) ">
<use xlink:href="#Layer2_1_MEMBER_2_FILL"/>
</g>

<g transform="matrix( 3.4635772705078125, 0, 0, 3.4635772705078125, -104.25,-1877.2) ">
<use xlink:href="#Layer2_1_MEMBER_3_FILL"/>
</g>

<g transform="matrix( 3.4635772705078125, 0, 0, 3.4635772705078125, -104.25,-1877.2) ">
<use xlink:href="#Layer2_1_MEMBER_4_FILL"/>
</g>

<g transform="matrix( 2.9445343017578125, 0, 0, 2.9445343017578125, -1069.1,254.1) ">
<use xlink:href="#Layer2_2_MEMBER_0_FILL"/>
</g>

<g transform="matrix( 2.9445343017578125, 0, 0, 2.9445343017578125, -1069.1,254.1) ">
<use xlink:href="#Layer2_2_MEMBER_1_FILL"/>
</g>

<g transform="matrix( 2.9445343017578125, 0, 0, 2.9445343017578125, -1069.1,254.1) ">
<use xlink:href="#Layer2_2_MEMBER_2_FILL"/>
</g>

<g transform="matrix( 2.9445343017578125, 0, 0, 2.9445343017578125, -1069.1,254.1) ">
<use xlink:href="#Layer2_2_MEMBER_3_FILL"/>
</g>

<g transform="matrix( 2.9445343017578125, 0, 0, 2.9445343017578125, -1069.1,254.1) ">
<use xlink:href="#Layer2_2_MEMBER_4_FILL"/>
</g>

<g transform="matrix( 2.9445343017578125, 0, 0, 2.9445343017578125, -1069.1,254.1) ">
<use xlink:href="#Layer2_2_MEMBER_5_FILL"/>
</g>

<g transform="matrix( 2.9445343017578125, 0, 0, 2.9445343017578125, -1069.1,254.1) ">
<use xlink:href="#Layer2_2_MEMBER_6_FILL"/>
</g>

<g transform="matrix( 2.9445343017578125, 0, 0, 2.9445343017578125, -1069.1,254.1) ">
<use xlink:href="#Layer2_2_MEMBER_7_FILL"/>
</g>

<g transform="matrix( 2.9445343017578125, 0, 0, 2.9445343017578125, -1069.1,254.1) ">
<use xlink:href="#Layer2_2_MEMBER_8_FILL"/>
</g>

<g transform="matrix( 2.9445343017578125, 0, 0, 2.9445343017578125, -1086.75,267.85) ">
<use xlink:href="#Layer2_2_MEMBER_9_FILL"/>
</g>

<g transform="matrix( 2.9445343017578125, 0, 0, 2.9445343017578125, -1086.75,267.85) ">
<use xlink:href="#Layer2_2_MEMBER_10_FILL"/>
</g>

<g transform="matrix( 2.9445343017578125, 0, 0, 2.9445343017578125, -1086.75,267.85) ">
<use xlink:href="#Layer2_2_MEMBER_11_FILL"/>
</g>

<g transform="matrix( 2.9445343017578125, 0, 0, 2.9445343017578125, -1069.1,254.1) ">
<use xlink:href="#Layer2_2_MEMBER_12_FILL"/>
</g>

<g transform="matrix( 2.9445343017578125, 0, 0, 2.9445343017578125, -1086.75,267.85) ">
<use xlink:href="#Layer2_2_MEMBER_13_FILL"/>
</g>

<g transform="matrix( 2.9445343017578125, 0, 0, 2.9445343017578125, -1069.1,254.1) ">
<use xlink:href="#Layer2_2_MEMBER_14_FILL"/>
</g>

<g transform="matrix( 2.9445343017578125, 0, 0, 2.9445343017578125, -1069.1,254.1) ">
<use xlink:href="#Layer2_2_MEMBER_15_FILL"/>
</g>

<g transform="matrix( 2.9445343017578125, 0, 0, 2.9445343017578125, -1069.1,254.1) ">
<use xlink:href="#Layer2_2_MEMBER_16_FILL"/>
</g>

<g transform="matrix( 2.9445343017578125, 0, 0, 2.9445343017578125, -1069.1,254.1) ">
<use xlink:href="#Layer2_2_MEMBER_17_FILL"/>
</g>

<g transform="matrix( 2.9445343017578125, 0, 0, 2.9445343017578125, -1069.1,254.1) ">
<use xlink:href="#Layer2_2_MEMBER_18_FILL"/>
</g>

<g transform="matrix( 2.9445343017578125, 0, 0, 2.9445343017578125, -1069.1,254.1) ">
<use xlink:href="#Layer2_2_MEMBER_19_FILL"/>
</g>

<g transform="matrix( 2.9445343017578125, 0, 0, 2.9445343017578125, -1069.1,254.1) ">
<use xlink:href="#Layer2_2_MEMBER_20_FILL"/>
</g>

<g transform="matrix( 2.9445343017578125, 0, 0, 2.9445343017578125, -1069.1,254.1) ">
<use xlink:href="#Layer2_2_MEMBER_21_FILL"/>
</g>

<g transform="matrix( 2.9445343017578125, 0, 0, 2.9445343017578125, -1069.1,254.1) ">
<use xlink:href="#Layer2_2_MEMBER_22_FILL"/>
</g>

<g transform="matrix( 2.9445343017578125, 0, 0, 2.9445343017578125, -1069.1,254.1) ">
<use xlink:href="#Layer2_2_MEMBER_23_FILL"/>
</g>

<g transform="matrix( 1, 0, 0, 1, -10,0) ">
<use xlink:href="#Layer2_3_MEMBER_0_FILL"/>
</g>

<g transform="matrix( 1, 0, 0, 1, -10,0) ">
<use xlink:href="#Layer2_3_MEMBER_0_MEMBER_0_FILL"/>
</g>

<g transform="matrix( 2.91143798828125, 0, 0.4167633056640625, 2.91143798828125, -308.95,-2346.1) ">
<use xlink:href="#Layer2_3_MEMBER_0_MEMBER_1_FILL"/>
</g>

<g transform="matrix( 2.91143798828125, 0, 0.4167633056640625, 2.91143798828125, -308.95,-2346.1) ">
<use xlink:href="#Layer2_3_MEMBER_0_MEMBER_2_FILL"/>
</g>

<g transform="matrix( 2.91143798828125, 0, 0.4167633056640625, 2.91143798828125, -308.95,-2346.1) ">
<use xlink:href="#Layer2_3_MEMBER_0_MEMBER_3_FILL"/>
</g>

<g transform="matrix( 2.91143798828125, 0, 0.4167633056640625, 2.91143798828125, -308.95,-2346.1) ">
<use xlink:href="#Layer2_3_MEMBER_0_MEMBER_4_FILL"/>
</g>

<g transform="matrix( 2.91143798828125, 0, 0.4167633056640625, 2.91143798828125, -308.95,-2346.1) ">
<use xlink:href="#Layer2_3_MEMBER_0_MEMBER_5_FILL"/>
</g>

<g transform="matrix( 2.91143798828125, 0, 0.4167633056640625, 2.91143798828125, -308.95,-2346.1) ">
<use xlink:href="#Layer2_3_MEMBER_0_MEMBER_6_FILL"/>
</g>

<g transform="matrix( 2.91143798828125, 0, 0.4167633056640625, 2.91143798828125, -308.95,-2346.1) ">
<use xlink:href="#Layer2_3_MEMBER_0_MEMBER_7_FILL"/>
</g>

<g transform="matrix( 2.91143798828125, 0, 0.4167633056640625, 2.91143798828125, -308.95,-2346.1) ">
<use xlink:href="#Layer2_3_MEMBER_0_MEMBER_8_FILL"/>
</g>

<g transform="matrix( 1, 0, 0, 1, -10,0) ">
<use xlink:href="#Layer2_3_MEMBER_0_MEMBER_9_FILL"/>
</g>

<g transform="matrix( 1, 0, 0, 1, -35.9,-5.3) ">
<use xlink:href="#Layer2_3_MEMBER_0_MEMBER_10_FILL"/>
</g>

<g transform="matrix( 1, 0, 0, 1, -10,0) ">
<use xlink:href="#Layer2_4_FILL"/>
</g>

<g transform="matrix( 1, 0, 0, 1, -10,0) ">
<use xlink:href="#Layer2_4_MEMBER_0_FILL"/>
</g>

<g transform="matrix( 1.8686370849609375, -0.92071533203125, 0.82012939453125, 1.6644439697265625, 267.35,93.1) ">
<use xlink:href="#Layer2_4_MEMBER_0_MEMBER_0_MEMBER_0_MEMBER_0_FILL"/>
</g>

<g transform="matrix( 1.8686370849609375, -0.92071533203125, 0.82012939453125, 1.6644439697265625, 278.35,60.15) ">
<use xlink:href="#Layer2_4_MEMBER_0_MEMBER_0_MEMBER_0_MEMBER_1_FILL"/>
</g>

<g transform="matrix( 1.8686370849609375, -0.92071533203125, 0.82012939453125, 1.6644439697265625, 278.35,82.1) ">
<use xlink:href="#Layer2_4_MEMBER_0_MEMBER_0_MEMBER_0_MEMBER_2_FILL"/>
</g>

<g transform="matrix( 1.8686370849609375, -0.92071533203125, 0.82012939453125, 1.6644439697265625, 309.1,82.1) ">
<use xlink:href="#Layer2_4_MEMBER_0_MEMBER_0_MEMBER_0_MEMBER_3_FILL"/>
</g>

<g transform="matrix( 1.8686370849609375, -0.92071533203125, 0.82012939453125, 1.6644439697265625, 300.3,68.95) ">
<use xlink:href="#Layer2_4_MEMBER_0_MEMBER_0_MEMBER_0_MEMBER_4_FILL"/>
</g>

<g transform="matrix( 1.8686370849609375, -0.92071533203125, 0.82012939453125, 1.6644439697265625, 261.85,54.65) ">
<use xlink:href="#Layer2_4_MEMBER_0_MEMBER_0_MEMBER_0_MEMBER_5_FILL"/>
</g>

<g transform="matrix( 1.8686370849609375, -0.92071533203125, 0.82012939453125, 1.6644439697265625, 240.95,60.15) ">
<use xlink:href="#Layer2_4_MEMBER_0_MEMBER_0_MEMBER_0_MEMBER_6_FILL"/>
</g>

<g transform="matrix( -2.34332275390625, -0.818389892578125, -1.153778076171875, 2.22607421875, 2619.85,-1276.5) ">
<use xlink:href="#Layer2_5_MEMBER_0_MEMBER_0_FILL"/>
</g>

<g transform="matrix( -2.34332275390625, -0.818389892578125, -1.153778076171875, 2.22607421875, 2619.85,-1276.5) ">
<use xlink:href="#Layer2_5_MEMBER_0_MEMBER_1_FILL"/>
</g>

<g transform="matrix( -2.34332275390625, -0.818389892578125, -1.153778076171875, 2.22607421875, 2619.85,-1276.5) ">
<use xlink:href="#Layer2_5_MEMBER_0_MEMBER_2_FILL"/>
</g>

<g transform="matrix( -2.34332275390625, -0.818389892578125, -1.153778076171875, 2.22607421875, 2619.85,-1276.5) ">
<use xlink:href="#Layer2_5_MEMBER_0_MEMBER_3_FILL"/>
</g>

<g transform="matrix( -2.34332275390625, -0.818389892578125, -1.153778076171875, 2.22607421875, 2619.85,-1276.5) ">
<use xlink:href="#Layer2_5_MEMBER_0_MEMBER_4_FILL"/>
</g>

<g transform="matrix( 1.1799468994140625, 0, 0, 1.1799468994140625, 261.25,122.95) ">
<use xlink:href="#Layer2_5_MEMBER_0_MEMBER_5_FILL"/>
</g>

<g transform="matrix( 1, 0, 0, 1, -10,0) ">
<use xlink:href="#Layer2_6_FILL"/>
</g>

<g transform="matrix( 1, 0, 0, 1, -10,0) ">
<use xlink:href="#Layer2_6_MEMBER_0_FILL"/>
</g>

<g transform="matrix( 1, 0, 0, 1, -10,0) ">
<use xlink:href="#Layer2_6_MEMBER_0_MEMBER_0_1_STROKES"/>
</g>

<g transform="matrix( 1.2649993896484375, 0, 0, 1.2649993896484375, 127.75,-194.25) ">
<use xlink:href="#Layer2_7_MEMBER_0_FILL"/>
</g>

<g transform="matrix( 1.2649993896484375, 0, 0, 1.2649993896484375, 127.75,-194.25) ">
<use xlink:href="#Layer2_7_MEMBER_1_FILL"/>
</g>

<g transform="matrix( 1.2649993896484375, 0, 0, 1.2649993896484375, 127.75,-194.25) ">
<use xlink:href="#Layer2_7_MEMBER_2_FILL"/>
</g>

<g transform="matrix( 1.2649993896484375, 0, 0, 1.2649993896484375, 127.75,-194.25) ">
<use xlink:href="#Layer2_7_MEMBER_3_FILL"/>
</g>

<g transform="matrix( 1.2649993896484375, 0, 0, 1.2649993896484375, 127.75,-194.25) ">
<use xlink:href="#Layer2_7_MEMBER_4_FILL"/>
</g>

<g transform="matrix( 1.2649993896484375, 0, 0, 1.2649993896484375, 127.75,-194.25) ">
<use xlink:href="#Layer2_7_MEMBER_5_FILL"/>
</g>

<g transform="matrix( 1.2649993896484375, 0, 0, 1.2649993896484375, 127.75,-194.25) ">
<use xlink:href="#Layer2_7_MEMBER_6_FILL"/>
</g>

<g transform="matrix( 1.2649993896484375, 0, 0, 1.2649993896484375, 127.75,-194.25) ">
<use xlink:href="#Layer2_7_MEMBER_7_FILL"/>
</g>

<g transform="matrix( 1.2649993896484375, 0, 0, 1.2649993896484375, 127.75,-194.25) ">
<use xlink:href="#Layer2_7_MEMBER_8_FILL"/>
</g>

<g transform="matrix( 1, 0, 0, 1, 0,0) ">
<use xlink:href="#Layer2_8_FILL"/>
</g>

<g transform="matrix( 1, 0, 0, 1, -10,0) ">
<use xlink:href="#Layer2_9_FILL"/>
</g>

<g transform="matrix( 1, 0, 0, 1, -10,0) ">
<use xlink:href="#Layer2_9_MEMBER_0_FILL"/>
</g>
</svg>
