
<svg xmlns="http://www.w3.org/2000/svg" version="1.1" xmlns:xlink="http://www.w3.org/1999/xlink" preserveAspectRatio="none" x="0px" y="0px" width="1588px" height="828px" viewBox="0 0 1588 828">
<defs>
<g id="Layer4_0_FILL">
<path fill="#FDAE2A" fill-opacity="0.2980392156862745" stroke="none" d="
M 1407.3 274.3
Q 1392.65 272.05 1377.8 270.35 1348.6 267 1318.95 268 1304.45 268.65 1290.15 270.45 1262.15 273.7 1234.25 277.4 1221.3 279.15 1208.25 280 1164.0994140625 282.8359375 1130.95 278.25 1026.172265625 263.740234375 1031.3 175.05 1030.2 154.35 1015.35 137.6 990.75 111.8 949 101.95 946.35 101.35 943.85 100.55 883.75 84.25 817.3 89.05 725.5 95.55 636.85 115.5 551.68203125 134.5728515625 469 159.35 460.86328125 161.8046875 452.75 164.3 374.0060546875 188.5357421875 302 223.1 292.8962890625 227.509765625 283.9 232.05 202.2 273.3 143.05 333.6 103.45 374.1 79.6 421.7 75.8 431.1 73.4 440.9 69.55 456.7 76.3 471.6 78.9 477.3 83.9 481.95 104.35 500.75 133.8 509.6 162.5 518.3 193.5 519.8 206.65 520.3 219.85 520.8 312.641015625 519.5267578125 293.15 568 288.184375 580.4373046875 275.8 596.15 274.8 597.45 273.75 598.65 259.6 619.65 261.6 643.6 263.4 665.2 287.2 676.5 314.05 689.25 344.4 695.6 369.4 700.85 395.45 700.6 407.05 700.5 418.65 700.75 444.8 701.4 470.55 698.5 500.7 695.4 530.65 691.2 554.25 687.85 577.65 683.6 582.1517578125 682.7955078125 586.65 681.95 609.8275390625 677.78046875 632.9 673.3 637.9564453125 672.33203125 643 671.35 657.729296875 668.4451171875 672.35 665.35 677.0306640625 664.3609375 681.7 663.35 711.7 656.9 741.95 651.65 769.4 646.75 797.05 643.65 829.7 639.35 862.5 641 866.15 641.2 869.6 641.8 919.65 650.75 907.75 676.4 898.95 695.3 896.35 701.6 895.4 703.85 895.3 704.55 892.65 709.95 889.95 716.6 883.6 759.8 1046.1 750 1089.8681640625 747.039453125 1130.95 737.55 1182.8423828125 725.5806640625 1230.45 703.2 1314.05 663.9 1383.45 610.2 1437.9 568.05 1472.6 514.75 1476.45 509.35 1480.2 503.95 1495.35 481.95 1506.3 458.45 1517.05 435.2 1522.55 410.95 1528.25 385.5 1523.75 359.95 1519.25 334 1499 313.4 1484.6 298.75 1463.5 289.95 1436.95 278.85 1407.3 274.3 Z"/>
</g>

<g id="Layer3_0_FILL">
<path fill="#565656" stroke="none" d="
M 1066.5 436.55
Q 1061.4 437.05 1056.25 437.4 1048.9 437.85 1041.45 437.5 1035.5775390625 437.249609375 1029.7 436.8 1022.7005859375 436.994921875 1015.65 436.95 1014 436.95 1012.4 436.6 1010.95 436.25 1009.4 436.25 1007.79765625 436.25 1006.2 436.2 1005.719921875 450.80625 1007.05 465.2 1008.4 480.7 1008.25 496.45 1008.25 499.6 1008.95 502.65 1010.45 509 1008.95 515.35 1008.6 516.8 1008.6 518.35 1008.6 534 1008.6 549.65 1008.6 556.3 1009 562.95 1009 563.35 1009.4 563.7 1011.4 565.6 1014.75 567.8 1015.65 568.4 1016.55 569.05 1020.5 572 1025.8 573.95 1028.95 575.15 1032.85 574.6 1035.1 574.25 1034.85 571.5 1034.8 570.75 1034.85 569.95 1035.2 563.3 1034.95 556.7 1034.65 548.65 1035.7 541 1036 538.7 1036.05 536.35 1036.3 520.6 1035.6 505.05 1035.2 496.45 1035.2 487.85 1035.2 477.7 1035.55 467.55 1035.6 466.8 1036.05 466 1037.9 462.9 1041.3 461 1042.2 460.5 1043.15 460.05 1043.8 459.75 1044.5 459.5 1045 459.35 1045.4 459.25 1048.4 458.6 1050.65 460.05 1052 460.9 1053.35 461.8 1054.35 462.5 1055.3 463.15 1055.95 463.65 1056.45 464.3 1060.3 469.05 1060.7 475.35 1061 479.65 1061 483.95 1061 499.2 1061.1 514.45 1061.2 522.75 1061.8 530.9 1061.95 533.35 1061.4 535.65 1061 537.15 1061 538.7 1061 546.5 1061.35 554.35 1061.4 555.55 1061.5 556.7 1061.8 561 1061.8 565.3 1061.85 570.8 1066.45 571.1 1067.65 571.15 1068.85 571.3 1070.55 571.5 1072.05 571.1 1073.5 570.75 1075.05 570.75 1079.35 570.75 1083.6 570.4 1084.75 562.35 1083.45 555.15 1082.2 548.35 1082 541.05 1081.9 537.5 1081.4 534 1080.75 529.3 1081.75 525.3 1082.1 523.85 1082.15 522.25 1082.85 506.3 1080.35 491.05 1080.15 489.85 1080.15 488.65 1080 480.65 1079.3 472.95 1079 469.5 1078.8 466 1078.6 462.45 1078.3 458.95 1077.95 455.4 1077.7 451.9 1077.45 448.4 1077.2 444.85 1076.8197265625 439.6849609375 1075.85 434.75 1071.3734375 436.0890625 1066.5 436.55 Z"/>

<path fill="#FD7B23" stroke="none" d="
M 1064.9 290.05
Q 1061.9 287.05 1060.3 284.55 1059.85 283.8 1059.2 283.25 1055.1 279.7 1050.75 274.45 1045.7505859375 268.3822265625 1039.65 263.5 1039.3521484375 265.0408203125 1038.8 266.5 1035.8 274.25 1029.8 279.2 1026.85 281.65 1024.15 282.7 1017.6 285.25 1012.55 281.4 1012.15 281.1 1011.7 281 1008.3 280.35 1005.6 278.2 1002.85 276.05 998.4 272.95 997.25 272.1 996.3 271.15 995.7 270.55 995.1 270.05 992.05 267.65 989.65 264.4 987.05 260.85 986.7 257.2 986.1 259.05 983.5 260.15 982.1 260.75 980.45 260.85 977.55 260.95 976.4 258.9 976.15 258.4 975.7 258.25 974.9984375 258.0681640625 974.45 257.55 961.899609375 264.5009765625 950.85 272.25 950 272.9 949.5 273.8 948.7 275.4 946.8 277.55 946.45 277.95 946.25 278.45 945.65 279.9 945.05 281.35 944.5 282.6 943.95 283.9 943.7 284.6 943.3 285 941.5 287.1 942.35 290 943.65 294.05 943.95 298.65 944.3 304.1 944.45 309.6 944.5 310.8 944.75 311.9 946.45 319.7 948.5 327.6 948.8 328.8 949.55 329.65 953.55 334.6 955.55 340.85 956.8 344.65 957.25 348.7 957.4 350.3 958.15 351.65 962.35 359.3 966.75 366.5 967.6 367.9 968.4 369.25 971.3 374.1 973.35 379.25 973.85 380.4 974.3 381.5 977.55 388.95 979.35 396.5 979.7 397.95 980.05 399.4 980.5 401.1 980.75 402.75 981.7 407.8 983.95 412.65 988.694921875 422.605078125 991.5 432.45 994.2193359375 432.798046875 996.9 433.15 1008.65 434.7 1020.4 435.95 1025.05546875 436.4376953125 1029.7 436.8 1038.333203125 436.5560546875 1046.9 435.95 1047.7 435.9 1048.5 435.85 1053.7 435.65 1058.6 434.5 1059.45 434.3 1060.2 434.3 1065.3 434.45 1069.6 433.05 1071.9 432.35 1074.2 431.35 1074.629296875 431.1611328125 1075.05 431 1079.462890625 429.244921875 1084.4 429.15 1084.3810546875 428.822265625 1084.35 428.45 1084.05 425.7 1083.45 423.05 1083.3 422.2 1083.2 421.4 1082.95 417.3 1082 413.6 1081.7 412.4 1081.65 411.25 1081.35 407.35 1081.05 403.45 1081 402.65 1080.8 401.8 1080 398 1079.5 394.1 1079.4 393.3 1079.4 392.5 1079.4 389.05 1078.05 386.35 1076.15 382.65 1075.95 378.4 1075.85 376.45 1075.45 374.6 1075.05 372.6 1074.4 370.55 1073.2 366.95 1073.45 362.75 1073.5 362 1073.2 361.35 1072.55 360.2 1072.35 358.15 1072.05 355.15 1071.5 352.5 1070.75 349.1 1070.1 345.6 1070 345.2 1069.9 344.75 1069.6 343.65 1069.25 342.6 1068.75 341.3 1068.25 340 1067.65 338.55 1067.35 336.95 1067.25 336.2 1067.55 335.55 1068.75 333.1 1072.65 332 1074.65 331.45 1076.7 330.95 1082.9 329.3 1087.7 325.4 1088.4 324.85 1088.7 324.2 1090.65 320.5 1088.15 316.75 1087.6 315.9 1087.05 314.95 1083.45 308.9 1078.8 303.5 1076.1 300.4 1073 297.65 1068.8 293.95 1064.9 290.05 Z"/>

<path fill="#FFFFFF" stroke="none" d="
M 985.35 191.75
Q 984.4 192.75 983.75 193.95 981.15 198.7 979.45 203.95 979.3 204.45 979.1 204.95 978.5 206.4 978.05 207.95 977.15 211.25 977.4 215 977.8 222 978.3 229.1 978.5 231.8 978.95 234.55 979.312890625 236.848828125 978.75 238.15 975.22265625 236.7224609375 971.2 237.5 970.3 237.7 969.8 238.6 969.5 239.25 969.45 240 969.2 244.85 970.55 249.3 970.7 249.8 970.9 250.3 972.05 253.25 973.6 256.4 973.96015625 257.1205078125 974.45 257.55 974.9984375 258.0681640625 975.7 258.25 976.15 258.4 976.4 258.9 977.55 260.95 980.45 260.85 982.1 260.75 983.5 260.15 986.1 259.05 986.7 257.2 987.05 260.85 989.65 264.4 992.05 267.65 995.1 270.05 995.7 270.55 996.3 271.15 997.25 272.1 998.4 272.95 1002.85 276.05 1005.6 278.2 1008.3 280.35 1011.7 281 1012.15 281.1 1012.55 281.4 1017.6 285.25 1024.15 282.7 1026.85 281.65 1029.8 279.2 1035.8 274.25 1038.8 266.5 1039.3521484375 265.0408203125 1039.65 263.5 1039.7365234375 263.112109375 1039.8 262.7 1041.1 254.8 1040.55 246.3 1040.25 241.95 1038.6 238.3 1038.3 237.7 1038.15 236.9 1036.9 229.45 1033.95 222.7 1033.65 222.05 1033.5 221.3 1032.7 217.45 1031.35 214.15 1028.9 208.15 1026.85 203.15 1026.6 202.5 1026.35 201.8 1026.2 201.35 1025.9 200.9 1023.85 198.2 1021.65 195.65 1018.75 192.35 1015.6 190.1 1013.6 188.65 1010.8 187.15 1010.2 186.85 1009.45 186.65 1006.2 185.6 1002.35 185.9 999.65 186.05 996.9 186.3 995.7 186.4 994.5 186.7 988.85 187.9 985.35 191.75 Z"/>
</g>

<g id="Layer3_1_FILL">
<path fill="#FD7B23" stroke="none" d="
M 298.35 192.8
Q 296.6 195.3 294.7 197.9 286.4 209.65 279.65 223.15 274 234.55 270.3 247.15
L 288 247.7
Q 287.95 248.95 287.9 250.15 287.85 251.2 287.8 252.25 287.15 264.1 286.8 276.05
L 279.5 419.2 320.35 421.15 307 277
Q 305.4 265.45 303.1 254.15 301.9 248.35 305.75 246.1 307.25 245.25 308.95 244.85
L 322.05 246.1 302 187.8
Q 300.2 190.25 298.35 192.8 Z"/>
</g>

<g id="Layer2_0_MEMBER_0_FILL">
<path fill="#000000" stroke="none" d="
M 1062.35 481.05
Q 1062.5 470.65 1060.2 465.1 1055.15 453.4 1043.45 455.75
L 1030.15 457.1
Q 1031.85 476.3 1031.85 478.8 1031.2 507.95 1029.15 566.15 1029.15 568.85 1028.5 570.9 1024.5 571.35 1020.15 568.2 1016.15 565.35 1016.15 563.85
L 1016.5 559.85 1013.15 529.35
Q 1012.8 525.35 1012.8 517.3
L 1006.65 438.85 1000.55 436.55
Q 999.6 465.65 1003.15 504.3 1004.45 522.2 1006.1 556.15 1006.65 562 1008.15 567.55
L 1015.3 571.25 1000.15 583.3 999.8 588.95
Q 1007.95 598 1018.3 599.65 1028.5 601.5 1038.45 595.65
L 1040.15 586.3 1036.5 584.6 1040.5 579.25 1036.15 573.55
Q 1035.5 551.3 1037.35 518.7 1039.65 482.2 1040.3 463.8
L 1048.85 461.75
Q 1049.15 463.8 1050.15 469 1051 472.95 1051.15 475.5
L 1058.7 560.2
Q 1059.8 566.35 1060.35 574.25 1059 583.3 1057.85 587.95 1061.65 589.6 1067.65 592.3 1095.35 599.65 1123.65 593.3 1129.85 591.95 1133.7 586.65 1114 575.6 1092 573.55 1088.8 565.35 1087.05 556.5 1085.85 538.05 1085 510.6 1084 476.2 1083.05 458.75 1081.8 451.75 1080.35 445.55
L 1076.95 438.9
Q 1076.35 463.15 1076.55 505.6 1076.65 544.1 1079.5 565.9 1075.7 568.2 1074.3 568.4 1072.85 568.55 1068.5 567.2 1063.65 533.25 1063.5 530.75 1063 524.55 1062.5 515 1061.95 501.8 1061.85 498.55 1061.85 497.45 1062.35 481.05
M 1069.85 343.35
Q 1067.75 341.55 1065.1 341.65 1068.45 356.25 1075.45 384.6 1079.9 407 1079.05 429.2
L 1070.1 431.4
Q 1038.95 436.05 1007.65 430.3 1004.45 429.9 1001.1 430.3 1001.3537109375 431.6609375 1002.05 432.7 1021.0494140625 437.7515625 1023.45 438
L 1067.35 438
Q 1069.728125 437.7576171875 1079.4 436
L 1087.7 432.55
Q 1085.35 425.8 1084.65 419.9 1082.7 382.9 1072.35 347.85 1071.95 345.05 1069.85 343.35 Z"/>
</g>

<g id="Layer2_0_MEMBER_1_FILL">
<path fill="#000000" stroke="none" d="
M 1065.9 283.55
Q 1060.85 278.9 1058.75 276.7 1054.3 271.9 1052.35 270.35 1048.75 267.4 1044.8 266.35
L 1044.8 271.5
Q 1071.35 295.75 1087 323.15
L 1085.35 324.35
Q 1077.6 328.55 1068.25 331.65 1059.35 334.6 1037 340.6
L 1015.75 347.35 1015.4 348.6
Q 1010.75 331.65 1012.4 327.7
L 1065.5 316.5
Q 1061.2 307.65 1055.7 303 1050.25 298.25 1045.05 299.1
L 1057.4 311.75 1010.55 322.45
Q 1010.1478515625 322.351171875 1005.45 323.7
L 1009.75 342.45
Q 1010.710546875 346.584375 1011.8 351.8
L 1013.65 353.5 1018.15 351 1064.5 338.65
Q 1068.85 337.55 1077.35 335.55 1084.75 333.75 1089.8 331.1 1090 331.05 1090.25 331 1100.6 325.35 1089.2 310.7
L 1073.3 290.7
Q 1071.05 288.3 1065.9 283.55 Z"/>
</g>

<g id="Layer2_0_MEMBER_2_FILL">
<path fill="#000000" stroke="none" d="
M 508 24.8
Q 508.85 18.8 509.35 15.9 507.85 18.25 507.2 19.95 506.35 22.25 506.5 24.5
L 508 24.8 Z"/>
</g>

<g id="Layer2_0_MEMBER_3_FILL">
<path fill="#000000" stroke="none" d="
M 517.25 28.8
L 518.25 29.1
Q 520.05 26.7 523.35 22.6 521.6 23.05 520 24.65 518.35 26.3 517.25 28.8 Z"/>
</g>

<g id="Layer2_0_MEMBER_4_FILL">
<path fill="#000000" stroke="none" d="
M 523.25 38.3
L 523.55 38.9 532.35 34.3
Q 527.25 35 523.25 38.3 Z"/>
</g>

<g id="Layer2_0_MEMBER_5_MEMBER_0_FILL">
<path fill="#000000" stroke="none" d="
M 1008.1 164.5
Q 1004.95 165.2 1002.5 167.85 1000.3 171 994.4 173.55
L 992.4 174.7 994.45 166
Q 979.7 181.95 977.2 185.95 975 189.25 974.2 192.95 971.95 203.6 971.45 215.65 971.25 220 972.35 226.5
L 974 237.45 967 237.8
Q 964.551953125 240.1984375 966.75 249.7 968.0982421875 255.5419921875 968.15 258.1
L 969.05 259.55
Q 971 263.75 973.85 264.95 976.65 266.15 981.55 265.35
L 984.4 264.5
Q 991 272.05 991.9 272.9 995.7 276.85 1000.25 279.85 1005.4 283.8 1011.15 286.15 1019.75 289.2 1029.25 284.85 1038.2 280.6 1042.25 272.35
L 1046.55 261.05
Q 1048.05 254.7 1047.7 251.45 1047.15 245.5 1046.55 242 1046.1 238.6 1042.65 224.55 1036.1 199.85 1015.6 187.45 1016.7 186 1018.85 183.5 1020.45 181.25 1020.55 179
L 1017.2 176.9
Q 1018.2 174.3 1019.7 169.9 1016.85 168.55 1014.8 170.5 1011.85 172.85 1011.25 173.05 1010 170.45 1009.3 170.15 1008.45 169.95 1002.95 173.95
L 1008.1 164.5
M 995.7 191.2
Q 998.8 189.35 1002.55 189.15 1006.2 189.05 1009.3 190.75 1018.15 194.6 1023.55 202.3 1026.05 206.5 1031.05 215.3 1027.5 209.8 1017.9 216 1017.8 212.35 1017.6 210.55 1017.15 207.15 1013.9 205.6 1013.65 207.9 1013.7 212.3 1013.45 215.9 1011.7 218 1009.3 218.1 1008 214.95 1006.6 211.95 1004.3 212.45 1003.5 216.2 1004.75 218.2 1006.1 220.1 1010.9 222.25 1010.3 224.7 1010.45 226.65 1014 227.35 1017.85 223.65 1021.9 219.6 1024.75 219.6 1026.75 220.55 1026.9 221.25 1027.15 222.1 1025.3 224.85 1023.8 227.2 1021 230.85 1017.15 235.9 1016.25 237.15
L 1021.8 238.1
Q 1025.65 235.7 1028.7 231.2 1030.4 228.55 1033.9 222.6 1035.35 225.65 1036.05 228.05 1039.35 239.75 1040.35 251.05 1041.05 259.1 1037.65 266.5 1034.25 274 1027.6 279.25
L 1023.25 282.3
Q 1016.45 283.05 1010.1 280.7 1003.85 278.4 999.4 273.55 995.9 270.35 992 265.55 991.05 264 990.2 261.5 989.4 258.8 989.75 258.3 990.1 257.65 989.35 256.55 988.75 255.5 987.7 255.1 986 254.5 984.05 255.65 981.1 258.15 979.65 260 976.5 259.5 974.85 257.05 974.070703125 255.973828125 973.2 253.55
L 973.1 253.8
Q 971.15 245.55 971.15 244.7 971.15 243.9 972.25 241.45
L 979.9 246.05
Q 981.75 244.45 981.05 243.05 979.8 241.4 979.55 240.55
L 985.9 242.25
Q 978.1 224 977.25 216.95 976.1 211.65 980 207.3
L 989.35 195.85
Q 992.1 193.15 995.7 191.2 Z"/>
</g>

<g id="Layer2_0_MEMBER_5_MEMBER_1_FILL">
<path fill="#000000" stroke="none" d="
M 545.45 46.25
Q 546.05 47.6 548.05 48.8 550.45 47.4 550.95 45.4 551.45 43.4 549.75 42.1 549.55 42.9 549.45 44.6 549.2 46.05 547.95 46.6 547.35 46.2 547.2 44.15 547.05 42.4 545.35 42.3 544.9 44.85 545.45 46.25 Z"/>
</g>

<g id="Layer2_0_MEMBER_5_MEMBER_2_FILL">
<path fill="#000000" stroke="none" d="
M 559.5 57
Q 559.1 57.75 558.9 58.1 557.6 60.75 554.7 61.3 553.75 61.7 552.75 61.35 551.8 61.05 551.25 60.2
L 549 57
Q 548.75 58.05 548.8 58.8 549.25 60.9 551.05 62.05 552.8 63.25 554.9 62.9 557.15 62.6 559.1 61.5 561.9 60 560.6 56.4 559.9 56.4 559.5 57 Z"/>
</g>

<g id="Layer2_0_MEMBER_6_FILL">
<path fill="#000000" stroke="none" d="
M 985.1 214.55
Q 988.45 211.75 989.85 208 990.9 204.95 990.9 200.2 985.4 200.85 983.7 205.05 981.95 209.25 985.1 214.55
M 999.45 191.4
Q 999.75 194.55 1003.95 196.8 1007.65 198.75 1015.2 199.45
L 1015.05 193.4 999.45 191.4 Z"/>
</g>

<g id="Layer2_1_FILL">
<path fill="#FFFFFF" stroke="none" d="
M 758.65 293.3
L 753.85 290.6
Q 752.45 294.15 752.65 298.35 752.65 299.85 753.75 307 754.85 313.8 758.65 342.55 761.7 364.2 763.9 377.6 766.75 399.5 773.65 420.85 777.4 433 794.35 480.2 796.15 484.9 799.65 495.6 810.25 521.05 821.75 542.5 829.85 557.3 856.55 599.4 929.85 577.45 982.55 555.75 1048.65 528.45 1102.4 493.9
L 1101.5 491.45 1095.35 489.05
Q 1071.3 479.55 1052.1 460.05 1030.05 433.9 1015.25 399.5 1000.25 360.95 992.5 341.95 979.05 310.2 970.7 274.95 969.1 267.8 961.85 242.85 857.7 252.35 758.65 293.3 Z"/>
</g>

<g id="Layer2_2_FILL">
<path fill="#FD7B23" stroke="none" d="
M 1317.65 351.2
Q 1324.1 341.85 1339.4 324.25 1295.85 308.4 1288.6 262.65 1286.05 246.6 1286.55 230.35 1270.45 248.65 1246.1 243.5 1231.75 240.4 1220.65 231.2 1209.9 222.2 1213.45 208.1 1214.2 205.15 1213.35 202.5
L 1211.8 202.55
Q 1200.3 239.2 1234.3 248.05 1256.85 253.95 1278.8 247.4 1282.05 300.9 1327.5 328.8 1287.75 373.85 1314.45 425.15 1326.2 447.65 1347.55 462.45
L 1346.95 465
Q 1304.5 482.1 1299.05 523.8 1297.4 536.65 1303.5 548.25 1306.05 553.05 1309.2 557.6 1296.3 558.8 1285.35 565.55 1280.2 568.75 1279.8 574.6 1301 559.85 1328.9 566.35 1299.9 549.45 1303.7 515.6 1305.55 499.2 1318.9 489.25 1337.2 475.55 1358.75 468.6 1361.3 467.7 1360.85 464.55 1319.95 441.25 1309 397.7 1302.75 372.65 1317.65 351.2 Z"/>
</g>

<g id="Layer2_2_MEMBER_0_FILL">
<path fill="#000000" stroke="none" d="
M 17.25 92.9
Q 16.95 94.1 17 95.3 17.45 99.5 18 102.5 19.15 109.95 22.05 116.7 23.55 120.3 27 127.3 29.6 133.05 33.75 138.3 38.1 143.65 39.75 145.3 39.9 145.45 42.7 147.8
L 64.9 141.8
Q 67.2 141.2 71.9 140
L 78.7 137.7
Q 81.2 137.1 83.7 136.05 87.5 134.05 95.4 130.55 97.5 129.7 101.6 128.2 102.05 128 103.05 127.65 103.9 127.25 104.1 126.3
L 103.05 126
Q 101.6 126.05 99.75 125.9 97.05 125.3 94.35 124.3 91.2 123.05 88.15 121.3 86.4 120.25 84.85 118.35 83.85 117.2 82.25 114.8 80.75 112.35 75.25 102.6 73.4 99.55 72.05 96.1 71.55 94.5 70.65 92.25 69.55 89.75 69.05 88.5 68.5 86.5 68.15 84.8
L 67.45 84 65.05 84
Q 51.85 85.65 45.85 86.6 35.8 88 25.55 90.9 23.6 91.45 19.25 92.3
L 17.25 92.9
M 19.2 93.6
L 20.2 94.2
Q 42.65 87.3 66.25 85.7 67.9 89.9 68.25 91.1 70.15 97.05 73.2 102.4 74.95 105.6 78.35 112.1 81.7 117.9 86.7 122.3 91.05 125.6 96.5 127.2
L 97.9 127.6 98.3 127.9
Q 86.05 133.8 70.95 138.45 59 142.1 42.4 145.8 36.35 138.7 34.5 136.2 31.9 132.6 29.5 128.3 28.7 126.5 28.3 125.7 24.45 117.75 23.6 115.7 22.05 112.1 21.4 108.4 20.9 106.15 20.2 102.5 19.35 97.65 19.1 96.5 18.85 95.3 18.85 95.05 18.8 94.25 19.2 93.6 Z"/>
</g>

<g id="Layer2_2_MEMBER_1_FILL">
<path fill="#000000" fill-opacity="0.4980392156862745" stroke="none" d="
M 950.15 499.95
Q 950.55 500.85 953.65 501.75 968.9 491.95 992.7 481.55 1030.45 464.95 1032.65 463.75 1027.35 460.2 997.8 471.2 969.35 481.85 950.15 493.4 949.45 498.45 950.15 499.95 Z"/>
</g>

<g id="Layer2_2_MEMBER_2_FILL">
<path fill="#000000" fill-opacity="0.4980392156862745" stroke="none" d="
M 926.2 425.45
Q 936.6 421.85 951.6 418.35 960.2 416.4 977.4 412.45 979.85 411.45 983.15 409.35
L 983.15 406.35
Q 979.4 405.2 976.55 405.25 949.15 409.85 924 418.2 903.9 425.45 818.1 459.3
L 822.95 472.15 832.65 465.85
Q 851.4 455.85 862.65 451.7 918.7 428.1 926.2 425.45
M 954 390.95
Q 958.45 389.55 967.7 389.1 970.35 388.1 971 386.7 971.9 384.4 969.9 379.8 901.5 397.95 811.9 432.1
L 812.8 438.75
Q 816.55 442 817.85 441.8 818.1 441.8 826.05 438 828.9 436.8 840.35 430.6 849.2 425.95 855.15 423.8
L 954 390.95 Z"/>
</g>

<g id="Layer2_2_MEMBER_3_FILL">
<path fill="#FD7B23" stroke="none" d="
M 783.3 317.5
Q 784.95 321.6 786.75 325.65 795 344.35 796.1 364.55 796.25 372.05 794.6 378.8 791.5 392.35 785.8 402.85 782.55 409.5 777.7 415.05 774.05 419.25 769.75 422.55 768.85 423.25 762.55 426.35 797.6 438 811.4 455.7 832.45 482.75 821.7 516.1 813.75 540.8 790.9 564.85 824.7 563.75 852.5 580.25 881.7 597.6 875.1 619.8 871.2 633 864.9 652.35 877.25 639.55 894.35 636 903.45 634.25 912.8 636.6 912.1 633.65 909.45 632.35 899.9 627.3 889 629.45 884.1 630.3 879.25 631.2 883.2 618.1 880.8 604.5 877.4 585.55 861.15 575.8 837.8 561.8 810.85 558.25
L 809.4 556.05
Q 815.1 547.7 819.95 538.6 839.75 501.3 820.25 464.05 806.8 438.35 780.25 424.05
L 792.4 402.85
Q 794.9 397.95 796.15 395.05 804.1 378.15 802.35 364.55
L 796.65 330.65
Q 820.95 330.2 839.9 314.5 866.4 292.6 843.15 264.8
L 841.65 265.35
Q 856.5 286.2 840.8 302.9 815.1 330.15 783.3 317.5 Z"/>
</g>

<g id="Layer2_2_MEMBER_4_FILL">
<path fill="#FD7B23" stroke="none" d="
M 976.5 410.1
Q 974.4 410.55 974.8 414.4 975 416.25 976.3 421.1 978.15 429.8 980 436.85 980.95 441.7 982.8 442.05 983 442.1 985.15 441.55 992.8 439.15 996.15 437.8 997.4 437.25 997.45 435.85 997.5 434.4 996.05 433.7 995.05 433.15 993.5 433.65 992.6 433.85 990.25 434.9 987.3 436.05 985.55 436.1 985.15 435.9 984.35 433.1
L 983.25 428.9
Q 982.5 426.1 981.2 420.05
L 980.3 414.95
Q 979.45 411.15 978.55 410.15 977.8 409.7 976.5 410.1
M 1015.7 426.55
Q 1014.85 426.5 1012.95 427.45
L 1010.25 428.7
Q 1006.65 430 1004.45 430.45
L 1003.2 427.2
Q 1002.35 424.85 1002.75 424.05 1003.3 423.3 1006.85 421.9
L 1008.75 421.1
Q 1010.85 419.75 1009.65 417.55 1008.8 416.3 1007.3 416.7 1006.65 416.9 1005.15 417.6 1003.65 418.35 1003 418.5 1002.15 418.75 1001.5 418.45 1000.75 418.05 1000.2 416.1
L 999.65 413.35
Q 999.15 411.45 999.6 410.9 1000.3 410.05 1005.3 408.65
L 1007.25 408.1
Q 1008.45 407.75 1008.55 406.85 1008.7 406.15 1008.1 404.8 1007.55 403.65 1005.25 403.8 1003.75 403.85 1000.3 404.7 994.3 406.25 993.5 408 992.85 409.3 994.6 414.5
L 997.9 426.5
Q 999.2 431.3 999.75 432.7 1000.7 435.4 1001.45 435.95 1002.45 436.75 1004.7 435.95 1009.95 434.2 1012.85 433.45 1015.3 432.75 1016.3 432.2 1017.9 431.25 1017.85 429.6 1017.85 428.4 1017.1 427.45 1016.4 426.6 1015.7 426.55
M 1038.2 415.8
Q 1038.1 412 1036.2 408.55 1034.6 405.45 1032 403.25 1030.45 402 1028.95 401.2 1025.7 399.6 1018.55 399.65
L 1016 399.9
Q 1013.1 400.75 1013.85 404.45 1014.1 405.7 1014.95 408.05
L 1016.2 411.85
Q 1018.35 418.95 1020.9 429.7 1021.3 430.6 1021.95 430.85 1022.6 431.1 1024.05 430.85 1027.6 430.25 1030 429.05 1031.95 428.05 1034.2 426 1036.65 423.75 1037.45 421.6 1038.3 419.4 1038.2 415.8
M 1023.45 404.9
Q 1025.35 405.2 1026.8 405.9 1031.15 408.2 1032.45 412.65 1033.85 417.4 1031.8 420.95 1029.85 424.6 1025.5 425 1024.9 424.7 1023.7 420.45
L 1019.95 407.2
Q 1019.5 405.6 1020 405.3 1021.1 404.55 1023.45 404.9
M 968.85 419.1
Q 967.3 417.85 966.05 417.3 961.9 415.3 954.4 415.75 950.65 416 950.3 416.1 948.55 416.7 948.4 418.45 948.3 419.6 949.05 422.3
L 954.9 442.2
Q 956.85 448.55 957.8 449.05 958.9 449.65 960.25 448.75 961.4 448 961.7 447.1 961.75 446.95 961.45 444.7 961.3 443.7 960.65 441.5 960 439.3 959.9 438.35 961.35 437.4 964.55 435.85 967.3 434.5 968.6 433.45 971.55 430.8 972.25 428.05 973.1 424.6 971.15 421.5 970.45 420.4 968.85 419.1
M 966.95 425.5
Q 967.65 428.1 964.6 430.45 962.1 432.4 958.25 433.45 957.5 432.25 956.95 430.05 956.25 427.4 955.95 426.6 955.4 424.85 954.75 421.1 958.2 420.5 961.8 421.5 966.05 422.6 966.95 425.5
M 1058.45 392.85
Q 1057.8 391.55 1054.35 391.3 1051.65 391.15 1049.8 391.6 1044.85 392.8 1043.05 396.5 1040.55 401.65 1040.55 404.8 1039.8 411.6 1042.7 417.75 1046.45 425.95 1055.7 423.6 1061.2 422.3 1063.4 417.85 1064.8 414.55 1064.1 409.3 1063.65 406.75 1063.55 406.5 1063.05 404.75 1062.1 404.5 1060.1 403.9 1055.95 405.65 1053.25 406.85 1052.3 407.55 1050.2 409 1051.2 410.5 1052.25 412.1 1055.05 411.35
L 1057.1 410.75
Q 1058.2 410.45 1058.75 410.6 1060.25 415.3 1057.45 417.5 1055.95 418.65 1053.4 418.65 1051.25 418.65 1050.05 418.05 1048.45 417.15 1047.3 414.55 1046.4 412.5 1046.15 410.4 1045.5 405.6 1046.4 401.85 1046.9 399.55 1048.85 398.05 1051.05 396.4 1054.1 396.45 1056.9 397.1 1058 394.9
L 1058.45 394.15
Q 1058.75 393.55 1058.45 392.85
M 1069.2 395.4
Q 1068.7 393.5 1069.15 392.95 1069.85 392.1 1074.85 390.7
L 1076.8 390.15
Q 1078 389.8 1078.1 388.9 1078.25 388.2 1077.65 386.85 1077.1 385.7 1074.8 385.85 1073.3 385.9 1069.85 386.75 1063.85 388.3 1063.05 390.05 1062.4 391.35 1064.15 396.55
L 1067.45 408.55
Q 1068.75 413.35 1069.3 414.75 1070.25 417.45 1071 418 1072 418.8 1074.25 418 1079.5 416.25 1082.4 415.5 1084.85 414.8 1085.85 414.25 1087.45 413.3 1087.4 411.65 1087.4 410.45 1086.65 409.5 1085.95 408.65 1085.25 408.6 1084.4 408.55 1082.5 409.5
L 1079.8 410.75
Q 1076.2 412.05 1074 412.5
L 1072.75 409.25
Q 1071.9 406.9 1072.3 406.1 1072.85 405.35 1076.4 403.95
L 1078.3 403.15
Q 1080.4 401.8 1079.2 399.6 1078.35 398.35 1076.85 398.75 1076.2 398.95 1074.7 399.65 1073.2 400.4 1072.55 400.55 1071.7 400.8 1071.05 400.5 1070.3 400.1 1069.75 398.15
L 1069.2 395.4
M 974.35 356.3
Q 974.35 352.5 973.3 351.25 971.95 349.85 969.85 351.1 967.85 352.25 967.45 353.8 967.3 354.45 967.2 359.85 967.35 366.85 967.2 370.6 967 375.65 966.8 378.2 965.65 376.6 963.35 372.05
L 958.6 361.95
Q 957.75 360.05 956.8 359.45 955.65 358.85 954.05 359.35 952.6 359.9 951.9 360.85 951.25 361.75 951.2 365.5
L 950.6 375.45
Q 949.75 382.9 949.75 383.65 945.25 372.8 940.85 365.1
L 939.45 362.2
Q 938.6 360.3 937.9 359.85 936.75 358.95 934.25 359.95 931.75 360.9 931.7 362.3 931.7 363.15 934.4 367.95
L 943.75 386.6
Q 946.45 391.75 948.9 395.1 951.4 397.1 954.2 394.9 954.85 394.4 955 393.15
L 955.3 390.85
Q 956.1 388.6 956.6 383.85 957 379.35 957.85 377.2 959.3 378.35 960.85 380.75 962.95 383.95 963.5 384.65 967.45 390.9 969.9 390.7 971.6 390.6 972.8 388.75 975 385.55 974.3 372.75 974.2 371.15 974.35 356.3
M 993.4 344.8
Q 992.3 343.5 990.4 344.25 988 345 987.7 348.7 987.75 353.25 987.65 355.25 986.9 370.65 986.9 380.05
L 986.9 383
Q 986.9 384.7 987.25 385.4 987.85 386.6 989.8 386.55 991.9 386.6 992.65 384.95 993.75 380.55 993.3 374.45 994.15 373.8 1000.8 371.05 1001.85 371.85 1004.85 377.6 1007.3 382.3 1009.25 382.05 1010.45 381.8 1011.45 380.75 1012.55 379.55 1012.2 378.4 1010.9 375.95 1007.35 370 1005.95 367.45 1001.4 359.65 997.55 353.2 995.4 348.6 993.9 345.35 993.4 344.8
M 993 357.8
L 993.45 357.7
Q 994.35 358.45 995.95 361.35 997.45 364.2 998.05 365.95 997.6 366.6 996 367.25 994.4 368 993.35 368 992.95 366.05 992.85 362.65 992.75 359.35 993 357.8
M 1050.55 331.15
Q 1048.8 331.3 1044.6 332.3 1037.45 334.15 1036.45 336.3 1035.7 337.8 1037.75 344
L 1041.75 358.45
Q 1043.3 364.25 1043.95 365.95 1045.1 369.1 1046 369.8 1047.2 370.75 1049.9 369.8 1056.2 367.7 1059.65 366.85 1062.65 366 1063.75 365.3 1065.7 364.15 1065.7 362.15 1065.65 360.7 1064.8 359.6 1063.95 358.6 1063.15 358.6 1062.1 358.45 1059.75 359.55
L 1056.6 361.05
Q 1052.25 362.65 1049.65 363.2
L 1049.6 363.15 1049.35 362.65 1048.1 359.3
Q 1047.1 356.45 1047.55 355.55 1048.2 354.6 1052.5 352.95
L 1054.75 352
Q 1057.3 350.4 1055.85 347.75 1054.8 346.25 1053 346.7 1052.2 346.9 1050.45 347.8 1048.65 348.7 1047.85 348.9 1046.85 349.15 1046.1 348.8 1045.15 348.3 1044.5 345.95
L 1043.8 342.65
Q 1043.25 340.4 1043.8 339.8 1044.65 338.75 1050.65 337.05
L 1052.9 336.4
Q 1054.4 335.95 1054.55 334.9 1054.65 334.1 1054.05 332.4 1053.3 331 1050.55 331.15
M 1019.4 345.75
Q 1022.05 343.8 1025.75 343.9 1029.1 344.65 1030.45 342.05
L 1031 341.15
Q 1031.25 340.4 1030.9 339.6 1030.15 338 1026 337.75 1022.8 337.55 1020.5 338.05 1014.55 339.55 1012.45 343.9 1009.45 350.2 1009.45 353.95 1008.5 362.1 1012.05 369.5 1016.5 379.3 1027.65 376.55 1034.2 374.9 1036.9 369.55 1038.5 365.6 1037.65 359.35 1037.15 356.25 1037.1 355.95 1036.45 353.9 1035.25 353.55 1032.85 352.85 1027.9 354.95 1024.65 356.35 1023.5 357.2 1021.05 359 1022.25 360.75 1023.5 362.65 1026.8 361.8
L 1029.3 361.05
Q 1030.65 360.65 1031.25 360.9 1033.15 366.45 1029.7 369.15 1027.95 370.5 1024.85 370.55 1022.3 370.55 1020.85 369.8 1018.9 368.7 1017.55 365.6 1016.5 363.15 1016.15 360.6 1015.35 354.9 1016.45 350.35 1017.05 347.6 1019.4 345.75 Z"/>
</g>

<g id="Layer2_3_FILL">
<path fill="#E95754" stroke="none" d="
M 939.2 505.05
Q 937.05 507.65 933.55 508.8
L 924.6 510.35 918.45 523.45
Q 918.5 528 921.4 533.25 923.05 536.4 927.65 542.55 934.65 552.65 942.45 561.35 947.95 567 955 572.3
L 956.05 571.8 947.65 554.4
Q 945.75 550.65 948.6 550.3 950.7 550 954.1 551.6
L 969 556.95
Q 974.05 558.1 979.1 558.2 978.45 556.5 977.2 555.35 967.25 547.5 962.8 543.2 956.65 537.3 943 520.65 941.15 518.1 940.15 514.9
L 941.55 513.6
Q 940.2 509.45 939.2 505.05
M 916.95 460.8
Q 914.2 461.85 914.3 464.9 914.5 468.75 913.85 469.7
L 908.8 470.05
Q 905.2 465.7 903.15 464.05 899.7 461.15 896.15 460.8 890.4 465.35 892.65 473.45 894.25 479.6 889.85 484.35
L 886.8 485.05
Q 886.15 486.1 885.9 487.3 885.8 491.55 885.3 500 885.65 507.1 889.6 511.85 890.4 512.9 892.75 514.7 893.55 514.25 898.6 509.8 901.75 506.95 904.8 507.5
L 912.35 519.3
Q 915.7 517.05 917.2 512.15 918.15 509.45 919.9 503.75 920.05 503.7 923.35 503.45 925.6 503.25 926.75 503.75 928.9 504.7 931.15 504.25 934.2 503.55 935.25 500.4 937.6 493.75 938.2 486.95 938.8 481.55 937.15 478.85 935.6 476.5 931.3 475.4 927.35 464.65 916.95 460.8
M 903.05 476.25
Q 904.75 476.05 906.65 477.45 900 483.1 899.4 491.55 903.65 498.35 908.95 496.5 913.8 494.9 916.1 493.45 919.9 490.9 920.75 486.7 920 484.55 918.6 482.1 916.15 480 914.35 478.8
L 915.3 475.1
Q 921.05 476.75 925.75 481.45 927.35 483.15 926.75 486.4 926.25 489.2 924.45 492.1 921.7 496.45 910 500.5 905.7 501.5 901.8 501.3 898.2 500.75 895.6 496.9 892.9 492.85 894.55 489.1 896.8 483.3 900.8 477.85 901.6 476.4 903.05 476.25 Z"/>
</g>

<g id="Layer2_4_FILL">
<path fill="#000000" stroke="none" d="
M 919.45 456
Q 917.3 455.75 915.35 456.8
L 908.45 460.05 906.35 458.95
Q 902.75 457 898.75 456.25 891.8 456.4 887.8 462.15 884.15 467.2 884.95 472.6
L 885.5 480.35
Q 880.65 483.75 879.15 489.95 876.05 506.05 884.05 517.3 886.6 520.7 889.3 519.9
L 900.55 517.1
Q 902.1 518.7 905.05 522.7 907.95 525.95 912.1 525.7 914.05 530.95 916.3 536.35 924.15 549.55 933.85 560.35 945.35 573.9 961.25 582.7 963.4 584.05 965.55 583.2 967.45 582.45 967.75 580.45 958.3 565.5 954.75 559.5
L 955.5 558.7 960.1 559.9
Q 973.25 564.2 986.85 562.5 991.7 562.1 990.8 558.75 982.05 553.45 976.25 549.45 974.65 548.15 961.95 536.7 953.75 528.85 947.9 519.55 946.3 517.25 946.05 516.65 945.4 515 945.9 513.5
L 945.6 512.75 943.15 512.1 940.15 514.9
Q 941.15 518.1 943 520.65 956.65 537.3 962.8 543.2 967.25 547.5 977.2 555.35 978.45 556.5 979.1 558.2 974.05 558.1 969 556.95
L 954.1 551.6
Q 950.7 550 948.6 550.3 945.75 550.65 947.65 554.4
L 956.55 572.8 955 572.3
Q 947.95 567 942.45 561.35 934.65 552.65 927.65 542.55 923.05 536.4 921.4 533.25 918.5 528 918.45 523.45
L 924.6 510.35 933.55 508.8
Q 937.05 507.65 939.2 505.05 940.55 503.3 941.4 501 943.25 497.4 943.9 492.35 944.15 489.95 944.35 483.45 944.25 478.4 940.75 475 937.15 471.5 934.4 467.9 931.45 463.85 929.4 462.2 925.2 459.5 923.15 457.85 921.55 456.25 919.45 456
M 914.3 464.9
Q 914.2 461.85 916.95 460.8 927.35 464.65 931.3 475.4 935.6 476.5 937.15 478.85 938.8 481.55 938.2 486.95 937.6 493.75 935.25 500.4 934.2 503.55 931.15 504.25 928.9 504.7 926.75 503.75 925.6 503.25 923.35 503.45 920.05 503.7 919.9 503.75 918.15 509.45 917.2 512.15 915.7 517.05 912.35 519.3
L 904.8 507.5
Q 901.75 506.95 898.6 509.8 893.55 514.25 892.75 514.7 890.4 512.9 889.6 511.85 885.65 507.1 885.3 500 885.8 491.55 885.9 487.3 886.15 486.1 886.8 485.05
L 889.85 484.35
Q 894.25 479.6 892.65 473.45 890.4 465.35 896.15 460.8 899.7 461.15 903.15 464.05 905.2 465.7 908.8 470.05
L 913.85 469.7
Q 914.5 468.75 914.3 464.9
M 906.65 477.45
Q 904.75 476.05 903.05 476.25 901.6 476.4 900.8 477.85 896.8 483.3 894.55 489.1 892.9 492.85 895.6 496.9 898.2 500.75 901.8 501.3 905.7 501.5 910 500.5 921.7 496.45 924.45 492.1 926.25 489.2 926.75 486.4 927.35 483.15 925.75 481.45 921.05 476.75 915.3 475.1
L 914.35 478.8
Q 916.15 480 918.6 482.1 920 484.55 920.75 486.7 919.9 490.9 916.1 493.45 913.8 494.9 908.95 496.5 903.65 498.35 899.4 491.55 900 483.1 906.65 477.45 Z"/>
</g>

<g id="Layer2_5_FILL">
<path fill="#000000" stroke="none" d="
M 854.35 224.85
Q 853.15 226.1 851.85 227.3 847.75 231.25 843.7 235.3 842.25 236.8 842.15 238.9 842.1 240.6 842.4 242.35 843.85 251.05 849.65 257.7 850.85 259.1 852.4 259.75 855.35 260.9 857.6 258.45 859.0236328125 256.883984375 860.05 255 860.4712890625 255.3103515625 862.3 257.65 864.1712890625 260.00078125 865.6 260.7 867.087890625 261.3935546875 868.35 261.8 869.653515625 262.2025390625 870.6 261.25 872.65 259.25 873.1 256.35 873.45 253.9 872.8 251.65 871.55 247.3 870.25 243.05 874.85 246.55 879.55 249.95 880.2 250.45 880.95 250.85 881.9 251.2 882.75 251.45 883.75 251.3 884.45 250.6 885.6 249.35 885.75 247.65 885.8 246.7 885.55 245.8 885.25 244.6 884.85 243.45 884.65 242.9 884.45 242.4 882.7 237.75 880.85 233.15 880.1 231.35 878.85 229.9 876.15 226.85 872.35 224.9 869.9 223.65 867.35 223 864.15 222 860.75 221.95 858.85 222.3 857.1 223.05 855.5 223.65 854.35 224.85
M 856.65 240.65
Q 855.1470703125 242.9744140625 854.6 245.35 853.9490234375 248.19453125 854.75 250.8 855.1 251.9 854.95 252.95 854.8 254.3 853.65 254.9 852.65 254.95 851.95 254.1 851.65 253.7 851.4 253.35 851 252.85 850.7 252.3 849.65 250.55 848.6 248.8 847.65 247.2 847.45 245.3 847.15 241.95 846.3 238.8 848.45 237.05 850.15 234.9 853.9 230.15 859.05 228 860.9 227.3 863.1 227.8 863.95 227.9 864.85 228 866.35 228.4 867.8 229 870.45 230.15 872.5 232.2 876.35 236.2 879.8 240.55 880.8 241.85 881.4 243.55 881.95 245.1 881.45 246.65 880.65 246.85 880.05 246.15 879.5 245.65 878.9 245.2 872.8 240.35 866.65 235.6 866.45 236.85 866.65 238.05 867 240.5 867.75 242.95 869.45 248.45 869.95 254.25 870 255.05 869.8 255.85 869.6 256.75 869.1 256.95
L 868.1 256.7
Q 860.016015625 249.7287109375 856.65 240.65
M 992.05 342.05
Q 985.4 344.3 974.65 343.05 973.4873046875 340.5427734375 977.2 336.75 985.85 336.7 996.2 333.35
L 996.3 332.05
Q 982.0625 333.4970703125 976.55 332.75 971.076953125 331.993359375 973.9 328.05 980.6720703125 325.0271484375 984.8 323.85 988.9279296875 322.7228515625 1004.95 325.55 1005.2 326.05 1007.7 334.4 1008.4615234375 337.0765625 1010.1 341.05 1010.4734375 342 1010.9 343
L 1009.75 339.65 1009.75 322.25
Q 990.42265625 317.60546875 981.8 320.3 972.95 323.05 966.3 329.15 967.15 332.5 970.6 333.75 972.1400390625 334.2302734375 973.05 334.15
L 969.65 342.05
Q 969.65 345.15 973.7 346.5 977.75 348.1 977.75 350.45 977.75 354.25 978.35 355.2 978.75 356.35 981.7 358.55 988.1 359.85 995.35 358.4 1000.1 357.45 1010 351.7
L 1007.6 351.6 1006.6 351.6
Q 1006.434765625 351.659375 1006.25 351.7 999.3794921875 354.11875 988 354.95 981.411328125 354.1935546875 979.8 347.75 993.784375 345.7181640625 997.25 343.95 1000.766796875 342.22421875 999.6 342.55 995.17734375 340.920703125 992.05 342.05 Z"/>

<path fill="#FFFFFF" stroke="none" d="
M 854.6 245.35
Q 855.1470703125 242.9744140625 856.65 240.65 860.016015625 249.7287109375 868.1 256.7
L 869.1 256.95
Q 869.6 256.75 869.8 255.85 870 255.05 869.95 254.25 869.45 248.45 867.75 242.95 867 240.5 866.65 238.05 866.45 236.85 866.65 235.6 872.8 240.35 878.9 245.2 879.5 245.65 880.05 246.15 880.65 246.85 881.45 246.65 881.95 245.1 881.4 243.55 880.8 241.85 879.8 240.55 876.35 236.2 872.5 232.2 870.45 230.15 867.8 229 866.35 228.4 864.85 228 863.95 227.9 863.1 227.8 860.9 227.3 859.05 228 853.9 230.15 850.15 234.9 848.45 237.05 846.3 238.8 847.15 241.95 847.45 245.3 847.65 247.2 848.6 248.8 849.65 250.55 850.7 252.3 851 252.85 851.4 253.35 851.65 253.7 851.95 254.1 852.65 254.95 853.65 254.9 854.8 254.3 854.95 252.95 855.1 251.9 854.75 250.8 853.9490234375 248.19453125 854.6 245.35
M 974.65 343.05
Q 985.4 344.3 992.05 342.05 995.17734375 340.920703125 999.6 342.55 1000.766796875 342.22421875 997.25 343.95 993.784375 345.7181640625 979.8 347.75 981.411328125 354.1935546875 988 354.95 999.3794921875 354.11875 1006.25 351.7 1006.434765625 351.659375 1006.6 351.6
L 1007.6 351.6
Q 1009.17578125 351.035546875 1010.7 350.6
L 1010.7 350.6
Q 1010.77421875 343.1650390625 1010.45 342.3 1010.2109375 341.6041015625 1010.1 341.05 1008.4615234375 337.0765625 1007.7 334.4 1005.2 326.05 1004.95 325.55 988.9279296875 322.7228515625 984.8 323.85 980.6720703125 325.0271484375 973.9 328.05 971.076953125 331.993359375 976.55 332.75 982.0625 333.4970703125 996.3 332.05
L 996.2 333.35
Q 985.85 336.7 977.2 336.75 973.4873046875 340.5427734375 974.65 343.05 Z"/>
</g>

<g id="Layer2_6_MEMBER_0_MEMBER_0_FILL">
<path fill="#000000" stroke="none" d="
M 284.5 433.6
Q 296.1 428 314.7 420.5 317.344921875 419.4609375 320.35 417.85
L 318.7 418.2
Q 310.15 421.3 307.3 422.5 295.3 427.5 289.4 430.2 279.55 434.75 272.1 439.2
L 267.5 441.8 267.7 442.2 284.5 433.6 Z"/>
</g>

<g id="Layer2_6_MEMBER_0_MEMBER_1_FILL">
<path fill="#000000" stroke="none" d="
M 284.5 424.3
L 286.7 423.1 286.65 423.1
Q 284.3 423.65 282.35 424.5 265.7 432.1 260.6 434.7 257.2 436.45 252.55 439.2 249.9 440.75 244.6 443.9 242.55 444.95 241.5 447.1 242.35 446.65 243.9 445.6 245.5 444.55 246.3 444.1 259.25 436.55 265.5 433.3 269.3 431.35 274.95 428.75 278.1 427.25 284.5 424.3 Z"/>
</g>

<g id="Layer2_6_MEMBER_0_MEMBER_2_FILL">
<path fill="#000000" stroke="none" d="
M 291.85 434.6
Q 289.85 435.6 286.25 438
L 286.3 438.05
Q 287.1 437.7 288.85 437.05 290.45 436.45 291.3 436.05 302.05 430.55 303.7 429.8
L 331.6 417.1
Q 330.75 416.9 329.85 417.2
L 322.65 420.3
Q 310.95 425.35 308.85 426.3 298.1 431.4 291.85 434.6 Z"/>
</g>

<g id="Layer2_6_MEMBER_0_MEMBER_3_FILL">
<path fill="#000000" stroke="none" d="
M 364.75 419.9
L 365.35 418.9
Q 364 418.45 363.85 418.5 362.05 418.8 360.5 419.4
L 345.5 425.9
Q 336 430.1 325.75 436.1 325.55 436.2 325.05 436.45 324.7064453125 436.6953125 325 437.15
L 328.15 435.7
Q 336.7 431.05 338.05 430.4 341.75 428.65 358.25 421.3 360.4 420.35 361.3 420.1 363.1 419.55 364.75 419.9 Z"/>
</g>

<g id="Layer2_6_MEMBER_0_MEMBER_4_FILL">
<path fill="#000000" stroke="none" d="
M 311.05 438
Q 312 437.85 312.75 437.4 319.45 433.45 327.35 429.7
L 344.35 421.7
Q 345.95 421 348.15 419.8
L 351.85 417.8 350.95 417.9 328.75 427.9 312.85 436.1 310.75 437.6 311.05 438 Z"/>
</g>

<g id="Layer2_6_MEMBER_0_MEMBER_5_FILL">
<path fill="#000000" stroke="none" d="
M 297.55 422.15
L 292.5 424.2 264 437.8
Q 261.7 438.9 257.2 441.55 258.5 441.65 259.5 441.05
L 291.7 425.3
Q 293.0302734375 424.6595703125 297.55 422.15 Z"/>
</g>

<g id="Layer2_6_MEMBER_0_MEMBER_6_FILL">
<path fill="#000000" stroke="none" d="
M 342.55 433.6
Q 342.85 433.65 343 433.6
L 372.6 420.2
Q 368.25 421 355.95 426.4 343.7 431.75 342.1 433.5 342.15 433.5 342.55 433.6 Z"/>
</g>

<g id="Layer2_6_MEMBER_0_MEMBER_7_FILL">
<path fill="#000000" stroke="none" d="
M 304.2 435.3
Q 308.9 432.45 315.35 429.3 317.85 428.1 326.9 424 328.55 423.2720703125 333.4 420.75
L 332.6 420.9
Q 320.8 425.75 319.85 426.15 312.65 429.25 307.5 432.1 306.45 432.65 301.6 435.7 302.35 436.1 303.1 435.8
L 304.2 435.3 Z"/>
</g>

<g id="Layer2_6_MEMBER_0_MEMBER_8_FILL">
<path fill="#000000" stroke="none" d="
M 234 443.9
Q 235.05 444.55 235.1 444.5
L 257.5 431.3
Q 245.75 436.75 234 443.9 Z"/>
</g>

<g id="Layer2_6_MEMBER_0_MEMBER_9_FILL">
<path fill="#000000" stroke="none" d="
M 375.05 428.3
Q 380.8 425.85 383 423.6
L 372.4 428.2
Q 370.65 428.75 369.75 429 368.1 429.5 367.2 430.4 369.35 430.7 375.05 428.3 Z"/>
</g>

<g id="Layer2_6_MEMBER_0_MEMBER_10_FILL">
<path fill="#000000" stroke="none" d="
M 352.1 431.2
Q 353.6 431.5 360.5 428.85 367.35 426.25 371.2 423.9
L 352.1 431.2 Z"/>
</g>

<g id="Layer2_6_MEMBER_0_MEMBER_11_FILL">
<path fill="#000000" stroke="none" d="
M 300.5 421.2
L 300.25 420.7 297.8 422.05 300.5 421.2 Z"/>
</g>

<g id="Layer2_6_MEMBER_0_MEMBER_12_FILL">
<path fill="#000000" stroke="none" d="
M 335.45 420.3
Q 336.35 419.95 336.75 419
L 336.75 418.9 333.65 420.6
Q 334.9 420.5 335.45 420.3 Z"/>
</g>

<g id="Layer2_6_MEMBER_0_MEMBER_13_FILL">
<path fill="#000000" stroke="none" d="
M 290.1 422.3
Q 289.25 421.9 288.9 421.95 288.3796875 421.95 288.35 422.8
L 290.1 422.3 Z"/>
</g>

<g id="Layer2_6_MEMBER_0_MEMBER_14_FILL">
<path fill="#000000" stroke="none" d="
M 339.25 418.2
L 336.75 419
Q 337.7 419.1 338 419 338.3 418.9 339.25 418.2 Z"/>
</g>

<g id="Layer2_6_MEMBER_0_MEMBER_15_FILL">
<path fill="#000000" stroke="none" d="
M 284.55 438.5
L 284.55 438.9 286.15 438.05 284.55 438.5 Z"/>
</g>

<g id="Layer2_6_MEMBER_0_MEMBER_16_FILL">
<path fill="#000000" stroke="none" d="
M 260.25 430.3
L 261.5 429.7 261.35 429.4 260.25 430 260.25 430.3 Z"/>
</g>

<g id="Layer2_6_MEMBER_0_MEMBER_17_FILL">
<path fill="#000000" stroke="none" d="
M 303.4 419.6
L 304.2 419.6 304.2 419.4 303.4 419.4 303.4 419.6 Z"/>
</g>

<g id="Layer2_6_MEMBER_0_MEMBER_18_FILL">
<path fill="#000000" stroke="none" d="
M 287.5 422.6
Q 287.05 422.55 286.7 423.1
L 286.7 423.2 288.4 422.9
Q 287.8 422.6 287.5 422.6 Z"/>
</g>

<g id="Layer2_6_MEMBER_0_MEMBER_19_FILL">
<path fill="#000000" stroke="none" d="
M 373.5 423.3
L 372.85 423.3 373 423.5 373.5 423.5 373.5 423.3 Z"/>
</g>

<g id="Layer2_6_MEMBER_0_MEMBER_20_MEMBER_0_FILL">
<path fill="#000000" stroke="none" d="
M 284.5 424.3
L 286.7 423.1 286.65 423.1
Q 284.3 423.65 282.35 424.5 265.7 432.1 260.6 434.7 257.2 436.45 252.55 439.2 249.9 440.75 244.6 443.9 242.55 444.95 241.5 447.1 242.35 446.65 243.9 445.6 245.5 444.55 246.3 444.1 259.25 436.55 265.5 433.3 269.3 431.35 274.95 428.75 278.1 427.25 284.5 424.3 Z"/>
</g>

<g id="Layer2_6_MEMBER_0_MEMBER_20_MEMBER_1_FILL">
<path fill="#000000" stroke="none" d="
M 297.55 422.15
L 292.5 424.2 264 437.8
Q 261.7 438.9 257.2 441.55 258.5 441.65 259.5 441.05
L 291.7 425.3
Q 293.0302734375 424.6595703125 297.55 422.15 Z"/>
</g>

<g id="Layer2_6_MEMBER_0_MEMBER_20_MEMBER_2_FILL">
<path fill="#000000" stroke="none" d="
M 234 443.9
Q 235.05 444.55 235.1 444.5
L 257.5 431.3
Q 245.75 436.75 234 443.9 Z"/>
</g>

<g id="Layer2_6_MEMBER_0_MEMBER_20_MEMBER_3_FILL">
<path fill="#000000" stroke="none" d="
M 260.25 430.3
L 261.5 429.7 261.35 429.4 260.25 430 260.25 430.3 Z"/>
</g>

<g id="cash_notes_1_1_Layer5_0_FILL">
<path fill="#033465" stroke="none" d="
M -48 337.7
L -49.7 380.1 -35.8 384.15 -34.2 341.15 -48 337.7 Z"/>

<path fill="#348556" stroke="none" d="
M -108.3 323.6
L -107.35 331.95 -108.3 334.4 -104.55 344.7 -107.3 344.25 -106.3 348.85 -104 349.75 -103.9 353.05 -103.75 351.75 -101 365.9 -52.15 379.25 -51.6 337.3
Q -57.65 335.1 -63.65 333.55 -82.05 328.6 -100.85 324.9 -104.55 324.25 -108.3 323.6
M 13.2 361.4
L 14.85 353.1
Q -5.9 346.05 -30.75 343
L -33.7 384.6 13.75 400.35 15.25 390.7 14 381.45 12.2 380.95 11.75 373.85 15.35 374.25 15.6 365.2 13.2 361.4 Z"/>

<path fill="#FF0000" stroke="none" d="
M -112.35 321.25
Q -112.3 321.1 -112.25 320.9 -112.3 321 -112.35 321.05 -112.4 321.15 -112.4 321.25 -112.45 321.3 -112.45 321.35
L -112.35 321.25 Z"/>

<path fill="#ADECC6" stroke="none" d="
M 81.9 348.4
L 82.4 345.45 35.35 363 81.9 348.4
M 66.2 356.85
L 52.75 362.35 79.65 354.45 81.35 351.8 66.2 356.85
M 46.4 348.2
L 56.8 347.7 83.15 340.7 82.1 337.7 46.4 348.2
M -3.55 315.1
L -25.85 309.15
Q -26.45 309.6 -27.05 309.95 -31.55 312.2 -35.95 308.85
L -79 318.15 -76.9 319.55 -76.85 320.7 -77.55 321.4
Q -68.1 323.35 -60.75 325.85
L -53.95 324.25 -40.1 328 -52.85 330.95
Q -50.45 331.7 -45.5 333.6
L 0.25 317.8 -3.55 315.1
M 66.25 334.25
Q 65.85 334.1 65.65 333.85 63.25 330.45 68.2 329.6 53.9 328.2 41.2 325.2 34.95 323.6 25.6 324.25
L -22.65 338.65
Q -17.15 339.1 -12.5 340 -0.35 343.8 18.95 347.85 43.45 342.6 66.25 334.25 Z"/>

<path fill="#4AB476" stroke="none" d="
M 77 364.2
L 77.6 361.65 50 370.55
Q 51.25 370.2 36.55 376.5
L 77 364.2 Z"/>

<path fill="#60C78B" stroke="none" d="
M 15.4 361.05
L 17.3 364.65 18.5 375.15 14.55 376.6 14.45 379.65 17.1 380.05 17.4 390.1 15.5 401.05
Q 42.65 384.8 73.9 374.5
L 75.2 368.65 77 364.2 36.55 376.5
Q 51.25 370.2 50 370.55
L 77.6 361.65 76.9 356.25 79.65 354.45 52.75 362.35 66.2 356.85 81.35 351.8 81.9 348.4 35.35 363 82.4 345.45 83.15 340.7 56.8 347.7 46.4 348.2 82.1 337.7 86.2 331.2
Q 54.4 345.35 17.95 353.25
L 15.4 361.05
M 0.25 317.8
L 4.3 316.4 0 314.3 -30.4 305.9 -104.45 321.5
Q -92.3 324.25 -83.4 326.45 -77.25 327.95 -72.7 329.2 -71.85 329.45 -65.65 331.3 -59.5 333.1 -56.9 333.5 -54.3 333.85 -52.35 334.55 -50.45 335.25 -50.4 335.25
L -50.35 335.25 -45.5 333.6
Q -50.45 331.7 -52.85 330.95 -54.5 330.4 -54.95 330.35 -57.3 330.15 -64.7 328.15 -65.65 327.9 -66.65 327.6 -66.75 327.55 -66.85 327.55 -72.85 325.9 -82.9 323.8 -80.75 323.3 -78.85 322.15 -78.2 321.75 -77.55 321.4
L -76.85 320.7 -76.9 319.55 -79 318.15 -35.95 308.85
Q -31.55 312.2 -27.05 309.95 -26.45 309.6 -25.85 309.15
L -3.55 315.1 0.25 317.8
M 65.65 333.85
Q 65.85 334.1 66.25 334.25 43.45 342.6 18.95 347.85 -0.35 343.8 -12.5 340 -17.15 339.1 -22.65 338.65
L -29.4 340.65
Q -8.9 342.85 16.75 351.1 52.2 343.7 84.8 329.9
L 40.2 323.35
Q 35.9 322.3 30.4 322.8
L 25.6 324.25
Q 34.95 323.6 41.2 325.2 53.9 328.2 68.2 329.6 63.25 330.45 65.65 333.85 Z"/>

<path fill="#308052" stroke="none" d="
M -77.55 321.4
Q -78.2 321.75 -78.85 322.15 -80.75 323.3 -82.9 323.8 -72.85 325.9 -66.85 327.55
L -60.75 325.85
Q -68.1 323.35 -77.55 321.4 Z"/>

<path fill="#4CAA74" stroke="none" d="
M -66.85 327.55
Q -66.75 327.55 -66.65 327.6 -65.65 327.9 -64.7 328.15 -57.3 330.15 -54.95 330.35 -54.5 330.4 -52.85 330.95
L -40.1 328 -53.95 324.25 -60.75 325.85 -66.85 327.55 Z"/>

<path fill="#1271CF" stroke="none" d="
M 25.35 322.25
L 6.65 317.3 -44.2 335.4 -29.7 338.9 25.35 322.25 Z"/>
</g>

<g id="cash_notes_1_1_Layer4_0_FILL">
<path fill="#0B3621" fill-opacity="0.4" stroke="none" d="
M -57.2 358.55
Q -79.95 350.2 -109.35 345.55 -82.55 352 -57.2 358.55
M -107.8 350.2
L -104.85 356.75 -53.1 370.95 -53.1 365.35 -107.75 350.2 -107.8 350.2
M -111.05 332.9
L -108.5 338.3 -52.65 351.25 -52.65 345.4 -111.05 332.9
M 13.1 356.7
L 13.5 354.65
Q -8.980078125 348.5125 -25.65 346.05 -4.9521484375 350.7212890625 13.1 356.7
M 15.05 367.6
L 14.7 365.25 -24.25 355.55 15.05 367.6 Z"/>

<path fill="#000000" fill-opacity="0.5019607843137255" stroke="none" d="
M -104.3 346.35
L -104.25 346.35 -103.9 346.3 -104.3 346.35
M -110.85 325.65
L -110.85 328.1 -111.25 328.15
Q -82.7544921875 333.528515625 -55.9 339.1 -81.97890625 332.8673828125 -110.85 325.65
M 76.75 360.2
L 76.15 357.55 44.85 368.4 50.55 368.9 76.75 360.2
M 14.7 375.65
L 40.05 366.6 52.5 362.2 13.5 373.15 -29.9 364.55 -19.7 367.1 14.7 375.65
M -104 361.4
L -104 361.7 -104.45 361.3 -103.7 363.85 -103.4 363.85
Q -76.9669921875 369.2095703125 -52.4 376.85
L -12.45 388.45 -29.25 382.55 -104 361.4
M -107.75 348.05
L -107.75 350.2 -53.1 365.35 -19.55 374.45 -19.15 373.9 -107.75 348.05
M -104.85 356.75
L -105.7 356.85 -105.35 359 -104.3 359.35 -53.95 372.8 -12.45 383.15 -11.2 383.35 -2.7 384.8 -53.1 370.95 -104.85 356.75
M 14.1 392.65
L 14.75 393.75 45.65 381.65
Q 41.8 381.95 27.9 387.25
L 14.1 392.65
M 13.3 387
L 13.25 389.25 13.8 388.3 59 373.7 67 371.1 68.8 370.3
Q 64.4732421875 371.0984375 50.95 375.05 37.471875 379.0541015625 26.25 382.75 15.083203125 386.490625 13.3 387
M -108.5 338.3
L -109.3 338.15 -108.15 340.95 -107.75 340.5 -107.75 342 -19.7 360.6 -34.45 356.05 -52.65 351.25 -108.5 338.3
M 5.05 357.35
L 4.55 356.7 -110.65 330.4 -110.65 332.85 -111.05 332.9 -52.65 345.4 5.05 357.35
M 13.55 361.45
L 15.3 363.45 15.4 363.45 55.25 350.7 54.9 350.95 55.25 350.75 68.7 345.9 13.55 361.45 Z"/>

<path fill="#0B3621" fill-opacity="0.30196078431372547" stroke="none" d="
M 12.1 379.1
L 13.8 379.7 44.85 368.4 76.15 357.55 77.4 356.6 77.15 354.85 40.05 366.6 14.7 375.65 -19.7 367.1 11.45 379.45 12.1 379.1
M 13.8 388.3
L 13.75 391.15 13.65 401.35
Q 13.6017578125 401.332421875 13.55 401.3
L 13.55 401.5 47 385.4 50.8 379.45 59.5 376 59 373.7 13.8 388.3
M 14.75 393.75
L 14.1 392.65 27.9 387.25
Q 41.8 381.95 45.65 381.65
L 14.75 393.75
M 15.4 363.45
L 15.6 366.4 52.9 354.3 55.25 350.75 54.9 350.95 55.25 350.7 15.4 363.45
M 13.25 356.55
L 13.45 358.6 58.55 346.05
Q 53.1 346.25 33.1 351.35
L 13.25 356.55 Z"/>

<path fill="#05170E" fill-opacity="0.4" stroke="none" d="
M 13.55 401.3
Q 13.6017578125 401.332421875 13.65 401.35
L 13.75 391.15
Q 1.7015625 387.0455078125 -11.2 383.35
L -12.45 383.15 -53.95 372.8 -104.3 359.35 -104 361 -104 361.4 -29.25 382.55 -12.45 388.45 -52.4 376.85
Q -76.9669921875 369.2095703125 -103.4 363.85
L -102.75 367.1
Q -39.962890625 381.769921875 13.55 401.3 Z"/>
</g>

<g id="cash_notes_1_1_Layer3_0_FILL">
<path fill="#000000" stroke="none" d="
M 5.9 315.15
L 0.6 312.55 -31.3 303.15 -114.2 320.2 -114.25 320.35
Q -114.2296875 320.2888671875 -114.2 320.2
L -114.3 320.25 -110.95 331 -112.05 333.3 -109.4 338.7 -109.1 341.7 -111.5 341.3 -109.9 349.1 -107.5 350.35 -104.45 366.85
Q -78.2498046875 373.9498046875 -52.7 380.35
L -34.75 385.5
Q -33.73046875 386.18203125 -33.65 386.2
L -33.7 386.2
Q -7.516015625 393.58359375 13.4 401.9 44.65 386.45 74.6 375.3
L 75.05 367.9 77.9 360.2 77.5 356.75 80.4 353.8 83.55 339.1 82.7 336.35 87.75 327.95 38.85 320.4 32.55 319.8 29.8 320.2 5.9 315.15
M 4.85 316.3
L 23.55 321.25 -31.5 337.9 -46 334.4 4.85 316.3
M 28.6 321.8
Q 34.0974609375 321.278515625 38.4 322.35
L 83 328.9
Q 50.3892578125 342.7025390625 14.95 350.1 -10.6751953125 341.852734375 -31.2 339.65
L 28.6 321.8
M 15.5 363.65
L 13.6 360.05 16.15 352.25
Q 52.60625 344.3673828125 84.4 330.2
L 80.3 336.7 81.35 339.7 79.55 350.8 77.85 353.45 75.1 355.25 75.8 360.65 75.2 363.2 73.4 367.65 72.1 373.5
Q 40.85 383.8 13.7 400.05
L 15.6 389.1 15.3 379.05 12.65 378.65 12.75 375.6 16.7 374.15 15.5 363.65
M 13.05 352.1
L 11.4 360.4 13.8 364.2 13.55 373.25 9.95 372.85 10.4 379.95 12.2 380.45 13.45 389.7 11.95 399.35 -35.5 383.6 -32.55 342
Q -7.6880859375 345.0703125 13.05 352.1
M -110.1 333.4
L -109.15 330.95 -110.1 322.6
Q -106.35 323.25 -102.65 323.9 -83.85 327.6 -65.45 332.55 -59.45 334.1 -53.4 336.3
L -53.95 378.25 -102.8 364.9 -105.55 350.75 -105.7 352.05 -105.8 348.75 -108.1 347.85 -109.1 343.25 -106.35 343.7 -110.1 333.4
M -85.25 325.4
Q -94.0822265625 323.2314453125 -106.25 320.5
L -32.2 304.9 -1.8 313.3 2.5 315.4 -52.15 334.2
Q -52.1005859375 334.26484375 -52.05 334.3 -52.1154296875 334.269921875 -52.2 334.25
L -52.2 334.25
Q -52.22578125 334.234375 -54.2 333.55 -56.117578125 332.862109375 -58.7 332.45 -61.2830078125 332.1 -67.5 330.25 -73.6685546875 328.434765625 -74.5 328.2 -79.061328125 326.9412109375 -85.25 325.4
M -51.5 379.1
L -49.8 336.7 -36 340.15 -37.6 383.15 -51.5 379.1 Z"/>
</g>

<g id="cash_notes_1_1_Layer3_1_MEMBER_0_FILL">
<path fill="#4CAA74" fill-opacity="0.45098039215686275" stroke="none" d="
M 5.1 338.25
Q 4.1 338.7 3.1 339.05 4.05 339.7 4.8 339.75 5.4 339.9 7.35 339.75 9.4 339.8 11.4 339 11.95 338.8 12.65 338.55 10.2 339.2 8.25 338.95 6.3 338.75 5.1 338.25
M 24.7 333.45
L 21.55 333.45
Q 22.15 333.6 22.75 333.75
L 22.9 333.8
Q 22.8 333.95 22.8 334.15 23.45 334.5 24.05 334.55 24.75 334.55 26.05 334.3 25.7 334 25.4 333.85 25.05 333.65 24.7 333.45
M 8.35 335.4
Q 8.3 336.05 9.2 336.35 9.75 336.6 10.95 336.95
L 14.9 337
Q 13.8 336.55 11.95 336.1 9.75 335.55 8.4 335.15 8.4 335.3 8.35 335.4
M 42.15 331.3
Q 42.85 330.1 42.95 329.45 43.05 328.55 40 328.35 36 328.05 35.9 328 34.15 327.45 32.55 327.2 32.35 327.15 32.15 327.1 31.85 327.1 31.6 327.05 30.45 326.9 29.4 326.9
L 29.3 326.9
Q 28.35 326.85 26.85 327.05 22.75 327.6 18.85 328.85 15.05 330 14.2 330.8
L 14.1 331.55
Q 14.22109375 331.55 14.95 331.6 15.530078125 331.7576171875 16.1 331.9
L 16.25 331.95
Q 16.15 332.1 16.15 332.3 16.8 332.65 17.4 332.7 17.96640625 332.7 18.9 332.5 18.13828125 333.0234375 15.9 333.55 12.35 334.45 12.05 334.95 13.05 335.55 14 335.75 14.65 335.95 14.9 335.85 14.803125 335.753125 14.7 335.75
L 14.9 335.75
Q 14.64375 335.7171875 14.1 335.4 13.45 335.1 13.4 335 13.7 334.85 17.3 334.15 20.7 333.3 20.8 332.3 20.85 331.75 20.45 331.45 20.1 331.25 19 330.95 19.8 330.7 20.8 330.35 24.9 329.1 27.95 329.1 30.35 329.15 31.9 329.45 33.95 329.8 33.85 330.5 33.8 330.9 33 331.65 32.1 332.45 32.05 332.9 32 333.3 32.15 333.45 32.25 333.6 32.65 334.1
L 32.6 334.4
Q 31.65 334.4 29.35 335.3 27.05 336.2 27 336.6 27 336.8 27.3 337.05 27.7 337.5 27.9 337.85 27.45 338.05 26.6 338.05 25.65 338.1 25.2 338.15 25.1 338.15 23.95 338.55 22.75 338.95 22.45 338.95 22 338.95 21.5 338.65 20.9 338.3 20.55 338.3 20.6 338.95 20.9 339.35 21.45 339.95 22.9 339.95 24.3 340 28.05 338.75 32 337.4 32.5 337.35 34.45 337.15 37.2 336.45 38.65 336.1 39.3 335.75 40.1 335.25 39.55 334.85 39.7 334.7 40.5 334.55 41.25 334.4 41.45 334.4 41.25 333.45 41.3 333.1 41.35 332.55 42.15 331.3
M 17.95 331.3
Q 19.4 331.6 19.35 332.05 19.341015625 332.176171875 19.2 332.3 18.97265625 332.111328125 18.75 332 18.4 331.8 18.05 331.6
L 16.1 331.6
Q 16.8423828125 331.5177734375 17.9 331.3
L 17.95 331.3 Z"/>

<path fill="#FFFFFF" fill-opacity="0.45098039215686275" stroke="none" d="
M 14.95 331.6
Q 14.22109375 331.55 14.1 331.55 13.15546875 331.0337890625 9.2 333.1 5.2908203125 335.2115234375 4.7 336.35 4.1619140625 337.5466796875 5.1 338.25 6.3 338.75 8.25 338.95 10.2 339.2 12.65 338.55 11.95 338.8 11.4 339 9.4 339.8 7.35 339.75 5.4 339.9 4.8 339.75 4.05 339.7 3.1 339.05 2 339.45 1 339.7 -0.73671875 340.1341796875 -6.05 341.4 -2.364453125 341.8939453125 4.9 343.8 12.1529296875 345.7125 15.1 346.25 13.6921875 343.5 14.75 341.65 15.8078125 339.8 20.9 339.35 20.6 338.95 20.55 338.3 20.9 338.3 21.5 338.65 22 338.95 22.45 338.95 22.75 338.95 23.95 338.55 25.1 338.15 25.2 338.15 25.65 338.1 26.6 338.05 27.45 338.05 27.9 337.85 27.7 337.5 27.3 337.05 27 336.8 27 336.6 27.05 336.2 29.35 335.3 31.65 334.4 32.6 334.4
L 32.65 334.1
Q 32.25 333.6 32.15 333.45 32 333.3 32.05 332.9 32.1 332.45 33 331.65 33.8 330.9 33.85 330.5 33.95 329.8 31.9 329.45 30.35 329.15 27.95 329.1 24.9 329.1 20.8 330.35 19.8 330.7 19 330.95 20.1 331.25 20.45 331.45 20.85 331.75 20.8 332.3 20.7 333.3 17.3 334.15 13.7 334.85 13.4 335 13.45 335.1 14.1 335.4 14.64375 335.7171875 14.9 335.75 14.9 335.8 14.9 335.85 14.65 335.95 14 335.75 13.05 335.55 12.05 334.95 12.35 334.45 15.9 333.55 18.13828125 333.0234375 18.9 332.5 17.96640625 332.7 17.4 332.7 16.8 332.65 16.15 332.3 16.15 332.1 16.25 331.95
L 16.1 331.9
Q 15.530078125 331.7576171875 14.95 331.6
M 9.2 336.35
Q 8.3 336.05 8.35 335.4 8.4 335.3 8.4 335.15 9.75 335.55 11.95 336.1 13.8 336.55 14.9 337
L 10.95 336.95
Q 9.75 336.6 9.2 336.35
M 21.55 333.45
L 24.7 333.45
Q 25.05 333.65 25.4 333.85 25.7 334 26.05 334.3 24.75 334.55 24.05 334.55 23.45 334.5 22.8 334.15 22.8 333.95 22.9 333.8
L 22.75 333.75
Q 22.15 333.6 21.55 333.45 Z"/>

<path fill="#999999" fill-opacity="0.45098039215686275" stroke="none" d="
M 19.35 332.05
Q 19.4 331.6 17.95 331.3
L 17.9 331.3
Q 16.8423828125 331.5177734375 16.1 331.6
L 18.05 331.6
Q 18.4 331.8 18.75 332 18.97265625 332.111328125 19.2 332.3 19.341015625 332.176171875 19.35 332.05 Z"/>

<path fill="#4CAA74" fill-opacity="0.7176470588235294" stroke="none" d="
M 50.05 327.45
Q 49.25 327.55 47.05 327.8 45.25 328 44.25 328 43.6 328 43.3 327.85
L 43.35 327.5
Q 43.85 327.35 45 326.7 46.25 326.05 46.5 325.8 45.45 325.7 43.9 326.3 41.8 326.95 41 327.05
L 41 326.95
Q 41.55 326.55 41.85 326.5
L 40.9 326.5 39.9 326.95 38.65 326.9 38.7 326.8
Q 39.9 325.9 40.2 325.6 37.6 325.95 32.55 327.2 34.15 327.45 35.9 328 36 328.05 40 328.35 43.05 328.55 42.95 329.45 42.85 330.1 42.15 331.3 41.35 332.55 41.3 333.1 41.25 333.45 41.45 334.4 41.25 334.4 40.5 334.55 39.7 334.7 39.55 334.85 40.1 335.25 39.3 335.75 40.5 335.65 41.7 335.15 42.75 334.75 43.2 334.25 43.6 333.7 45.7 333.45 47.65 333.2 47.95 332.65 47.15 332.45 45.1 332.4
L 45.15 332.05
Q 49.45 330.7 49.75 330.55
L 45.45 330.6
Q 45.7 330.5 45.7 330.35 46.1 330.1 48.6 329.25
L 45.8 329.2 45.85 329.1
Q 49.7 327.75 50.05 327.45 Z"/>
</g>

<g id="cash_notes_1_1_Layer2_0_FILL">
<path fill="#FD7B23" stroke="none" d="
M -36 340.15
L -49.8 336.7 -51.5 379.1 -37.6 383.15 -36 340.15 Z"/>

<path fill="#FDAE2A" stroke="none" d="
M 23.55 321.25
L 4.85 316.3 -48.95 334.75 -33.6 338.6 23.55 321.25 Z"/>
</g>

<g id="Layer2_7_MEMBER_0_FILL">
<path fill="#000000" stroke="none" d="
M 77.7 414.5
Q 78 414.7 78.1 414.6 87.7 408.05 92.5 404.8 101.05 399.1 107.4 395.7 103.6 396.8 91.2 404.7 79 412.5 77.7 414.5 Z"/>
</g>

<g id="Layer2_7_MEMBER_1_FILL">
<path fill="#000000" stroke="none" d="
M 92.1 398.75
L 90.8 399 69 410.6 69 411.1
Q 69.7 411.35 70.4 411.2 71.75 410.6 73.1 409.7
L 92.1 398.75 Z"/>
</g>

<g id="Layer2_7_MEMBER_2_FILL">
<path fill="#000000" stroke="none" d="
M 99.5 408.55
Q 103.95 405.35 107.75 403.3 108.4443359375 402.7908203125 108.95 401.95 104.4890625 404.0439453125 97.9 408.8 91 413.7 89.85 415.8
L 91.75 414.5
Q 97.25 410.15 99.5 408.55 Z"/>
</g>

<g id="Layer2_7_MEMBER_3_FILL">
<path fill="#000000" stroke="none" d="
M 189.6 395.2
L 189.3 394.8
Q 182.25 398.3 176.1 403.3 177.3 403.1 178.65 402.3 180.15 401.3 180.9 400.8
L 189.6 395.2 Z"/>
</g>

<g id="Layer2_7_MEMBER_4_FILL">
<path fill="#000000" stroke="none" d="
M 105.65 414.5
L 111.65 410.1
Q 112.129296875 409.7166015625 112.45 409.25 110.10859375 410.4755859375 107.65 412 106.95 412.55 105.45 413.6 104.2 414.55 103.65 415.6
L 105.65 414.5 Z"/>
</g>

<g id="Layer2_7_MEMBER_5_FILL">
<path fill="#000000" stroke="none" d="
M 105.65 414.5
L 111.65 410.1
Q 112.129296875 409.7166015625 112.45 409.25 110.10859375 410.4755859375 107.65 412 106.95 412.55 105.45 413.6 104.2 414.55 103.65 415.6
L 105.65 414.5 Z"/>
</g>

<g id="Layer2_8_FILL">
<path fill="#000000" stroke="none" d="
M 283.15 201.85
Q 282.4 202.9 281.7 203.95 281.1 205 280.5 206 268.15 227.05 259.15 250.95
L 281.05 254.45
Q 280.85 265.1 280.55 275.75
L 273.25 425.85 327.6 434.6 316.3 303.35 310.85 254.3 332.6 254.45 302 171.95
Q 292.8 187.2 283.15 201.85
M 294.7 197.9
Q 296.6 195.3 298.35 192.8 300.2 190.25 302 187.8
L 322.05 246.1 308.95 244.85
Q 307.25 245.25 305.75 246.1 301.9 248.35 303.1 254.15 305.4 265.45 307 277
L 320.35 421.15 279.5 419.2 286.8 276.05
Q 287.15 264.1 287.8 252.25 287.85 251.2 287.9 250.15 287.95 248.95 288 247.7
L 270.3 247.15
Q 274 234.55 279.65 223.15 286.4 209.65 294.7 197.9 Z"/>
</g>

<g id="Layer2_9_MEMBER_0_MEMBER_0_FILL">
<path fill="#000000" stroke="none" d="
M 1024.25 86.85
Q 1020.1 83.3 1014.55 83.05 1004.65 82.35 993.9 83 974.85 84.45 955.3 84.5 950.25 84.4 945.25 84.35 923.45 85 912.5 85.2 905.9 85.4 883.25 86.85
L 852.9 88.9
Q 839.5 90.15 831.25 90.8 822.45 91.55 819.75 91.8 798.25 93.8 784.15 95.6 776 96.6 772.75 100.2 770.15 103.25 769.5 110.4 769.2 115 768.1 120.45 767 125.85 766.85 128.55 766.15 140 765.65 162.4
L 762.85 252.1
Q 762.75 260.75 763.55 269.25 764.5 275.05 770.05 277.4 774 279.35 779 279.9 782.15 280.15 788.25 280 813.7 278.1 826.55 277.05
L 867.25 273.35
Q 867.9 273.25 868.65 273.3
L 868.85 273.35
Q 869.15 273.4 869.5 273.4 869.85 273.3 870.25 273.4 872.2 273.5 873.2 273.35 874 273.3 874.85 273.15 878.95 272.9 884.1 272.7 886.85 272.4 892.75 272.05 912.7 271.15 956.95 270.1
L 958.2 270.35 964.75 269.65
Q 971.75 269.25 986.15 268.55 999 267.9 1007.65 267.05 1013.75 266.35 1018.4 262.15 1022.9 258 1024.2 251.9 1026.55 234 1026.85 230.8 1028 218.8 1027.45 209.5
L 1028.45 98.7 1028.4 99.5
Q 1028.45 90.5 1024.25 86.85
M 981.85 89.65
Q 977.05 93.75 974.9 94.8 972.85 95.7 970.5 94.85
L 981.85 89.65
M 985.75 94.7
Q 984.2 94.75 982.2 94.5
L 982.45 94 985 92.75 985.75 94.7
M 974.55 88.15
L 975 89 965.1 95.65 965.45 95.8 961.45 96.35 961.1 95.35 974.55 88.15
M 1023.1 142
L 1015.15 146.25
Q 1017.45 143.15 1018.4 142.3 1020.5 140.25 1023 139.9
L 1023.1 142
M 1009.2 107.6
Q 1009.6 106.55 1010.15 106.4
L 1011.3 106.05 1009.2 107.6
M 1004.2 144.1
Q 1004.7 131.3 1005.3 126.75
L 1002.95 246.85 1002.15 246.95
Q 977.35 246.05 972.5 246 950.7 246.6 939.75 246.75 933.2 247.05 910.5 248.4
L 880.15 250.5
Q 875.4 250.95 871.4 251.3
L 880.45 250.2
Q 855.6 251.7 826.35 254.9 796.05 258.35 781.9 259.45
L 783.25 198.05
Q 783.5 195.7 784.25 191 785.1 186.2 785.2 183.85 785.35 182.1 785.95 160.1
L 787.5 124.6
Q 787.5 122.8 787.95 120.05 788.45 116.15 788.7 114.9 792.3 114.85 799.65 114.2
L 837.85 111.95
Q 839.5 111.9 841.65 111.8 847.35 111.45 856.8 111.05 861.35 110.65 874.95 109.4 886.1 108.55 892.85 108.05 899.05 107.6 908.3 107.35 917.4 107.15 922.05 106.85 933.4 106.2 953.65 104.8 958.95 104.45 964.85 103.95 975.1 103.3 995.55 102.6
L 1004.8 102.15 1004.2 144.1
M 1009.45 191.75
Q 1009.8 191.55 1012.05 189.5 1013.75 187.8 1016 188
L 1009.5 195.65 1009.45 191.75
M 1009.65 173.55
L 1009.45 172.65 1022.4 161.15 1022.55 164.8 1009.65 173.55
M 1010.3 180.05
L 1010.55 182.5 1012.55 183.3 1009.15 187.15 1009.7 179.85 1010.3 180.05
M 1016.6 160.7
L 1022.45 155.4 1023.1 158.2 1016.85 161.25 1016.6 160.7
M 1022.45 152.45
L 1021.85 152.25 1010.45 160.9
Q 1014 156.85 1016 154.75 1019.35 151.3 1022.65 149.25
L 1022.45 152.45
M 1022.7 169.2
Q 1021.65 171 1019.25 172.75 1017.8 173.55 1015.1 175.5
L 1014.35 174.8 1022.05 168.6 1022.7 169.2
M 1021.8 184.4
L 1018.8 185 1018.3 184.8 1021.65 181.9 1022.3 182.2 1021.8 184.4
M 1015 180.2
L 1021.85 174.05 1022.85 174.4
Q 1022.05 176.45 1019.55 178 1018 178.75 1015 180.2
M 1019.05 193
L 1015.25 195.1 1014.85 194.95 1022.1 187.85 1022.1 194.15 1019.05 193
M 1022.35 203.75
L 1019.35 201.95 1022.2 199.6 1022.35 203.75
M 1019.15 222.5
L 1022.1 220.1 1021.7 224.85 1019.15 222.5
M 1019.9 237.15
L 1014.6 242.25 1014.25 242.2 1019.1 236.9 1019.9 237.15
M 1008.75 212.05
L 1011.95 210.4
Q 1010.2 213.05 1009.9 214.9 1009.55 217.2 1010.9 219.3
L 1009.5 222.65 1009.9 222.75 1009.6 226.3 1008.8 226.1 1008.75 212.05
M 986.4 253.35
L 986.55 253.4 986.35 253.8 986.1 254 986.4 253.35
M 989.75 255.25
L 988.75 252.8 992.3 252.8 989.75 255.25
M 910.1 93.35
Q 908.75 94.3 905.6 96.4 903.2 98.4 903.15 101.35 899.45 101.8 896.55 101.95 898.4 98.45 906 93.85 913.85 89.05 917.2 89.45 914.2 90.85 910.1 93.35
M 893.3 97.9
L 893.65 97.95 891.55 102.45 887.6 102.4 887.55 101.7 893.3 97.9
M 897.9 89.6
L 898.45 90.65 889.8 94.9 882.1 102.7 879.4 102.65 879 101.65 889.8 94.9 897.9 89.6
M 915.6 93.65
Q 922.65 89.15 924.65 89.1
L 923.95 89.85 910.05 100.35
Q 908.5 100.75 906.15 101.3 908.65 98.2 915.6 93.65
M 924.05 98.8
L 929.35 95.3 929.75 96.15 924.9 99.6 924.05 98.8
M 934 91.8
L 939.75 88.3 940.2 89.55 934.3 92.5 934 91.8
M 937.65 97.45
L 937.85 98.35 933.05 98.45
Q 940.35 91.85 950.05 89.05
L 937.65 97.45
M 944.5 97.9
L 944.1 97 952.8 91.85 948.6 97.45 944.5 97.9
M 956.65 96.75
L 953.55 96.85 953.4 96.1 958.1 93.45 956.65 96.75
M 889.2 90.65
Q 886.7 92.6 881.1 95.8 876.25 98.95 875 103.5
L 870.15 103.9
Q 880.65 93.95 889.2 90.65
M 870.05 97.95
L 870.05 98 866.2 103.7 862.3 104.5 861.8 103.55 870.05 97.95
M 873.15 92.1
Q 870.35 94.1 864.05 97.25 858.8 100.35 857.1 104.85 854.95 104.65 853.05 105.1
L 852.65 103.75 872.6 90.95 873.15 92.1
M 852.65 92.95
L 854.95 92.55 854.7 93.05 844.35 99.55
Q 841.7 101.1 840.7 102.25 838.9 104 838.75 106.35
L 833.1 106.5 832.75 105.7 852.65 92.95
M 843.9 105.8
L 843.2 104.95 853.05 98.05 849.1 105.15 843.9 105.8
M 829.7 106.9
L 823.75 107.5 823.9 107.15 831.25 102.6 829.7 106.9
M 815 102.65
L 813.05 109 798.9 109.75 798.7 108.6 804.5 104.9 805.35 108.65 815 102.65
M 819.95 107.6
L 816.15 108.35 815.9 107.8 819.35 105.2 819.95 107.6
M 795.85 107.45
L 792.35 110.15 791.75 108.9 795.5 106.75 795.85 107.45
M 782.95 117.35
L 783.35 118 778.65 121.5 778.25 120.9 782.95 117.35
M 781.5 134.55
L 782.5 135.3 774.5 142.75 773.8 141.9 781.5 134.55
M 770.7 134.4
L 771.6 129.45 771.25 124.35 773.6 126.65 771.6 129.45
Q 771.55 130.2 772.35 131.85 772.7 133.2 770.7 134.4
M 781.95 150.8
L 777.65 149.7 781.85 146 781.95 150.8
M 772.85 149.75
L 772.45 155.45 770.4 156.9 770.8 150.05 772.85 149.75
M 770.6 183.5
L 769.85 183.25 770.4 177.8 771.3 178.15 770.6 183.5
M 772.1 196.9
L 772.75 197.2 770.15 201.25 769.25 200.95 772.1 196.9
M 773.1 232.3
L 777.45 228.1 777.75 228.85 773.5 232.45 773.1 232.3
M 767.55 245.5
L 769.2 242.85 770.25 243.65 768.25 245.7 767.55 245.5
M 798.8 262
L 795.45 264.9 794.7 262.35
Q 797.2 262.45 798.8 262
M 808.8 263.55
L 809.5 264.4 805.7 267.55 805.15 266.75 808.8 263.55
M 805.75 261.6
L 805.35 262.45 802.95 262.55 803.05 261.4 805.75 261.6
M 779.8 266.75
L 780.65 267 775.2 273.85 774.2 273.45 779.8 266.75
M 787.35 265.85
L 788 266.1 781.1 272.85 780.65 272.65 787.35 265.85
M 777.25 254.55
L 774.75 255 774.45 254.4 777.55 251.1 777.25 254.55
M 925.2 251.15
L 925.7 252.25 917.05 256.4 909.35 264.3 906.6 264.2 906.25 263.2 917.05 256.4 925.2 251.15
M 920.55 259.45
L 920.9 259.6 918.75 264 914.9 264 914.85 263.25 920.55 259.45
M 930.45 263
Q 926.7 263.35 923.8 263.45 925.65 260.05 933.3 255.35 941.1 250.65 944.45 251 941.5 252.4 937.35 254.95 935.95 255.9 932.9 257.95 930.5 260 930.45 263
M 900.4 253.7
Q 897.55 255.65 891.35 258.85 886.85 261.4 885 265.15
L 879.95 265.35 899.85 252.55 900.4 253.7
M 897.3 259.55
L 897.3 259.65 893.7 264.85 889.3 265 897.3 259.55
M 902.4 264.65
L 898.15 264.7
Q 908.3 255.4 916.4 252.15 913.95 254.1 908.35 257.35 903.85 260.4 902.4 264.65
M 965.6 251.4
Q 965.4 251.75 965.4 252.25
L 961.55 254.1 961.25 253.45 965.8 250.7
Q 965.75 250.95 965.6 251.4
M 956.6 256.9
L 957.05 257.7 952.15 261.15 951.35 260.3 956.6 256.9
M 958.1 267.95
Q 957.65 268.6 957.3 269.3
L 953.45 268.25
Q 955.7 268.05 958.1 267.95
M 962.2 260
L 960.3 260
Q 961.65 258.8 963.15 257.6 962.65 258.85 962.2 260
M 937.3 261.95
Q 935.75 262.35 933.35 262.85 935.9 259.8 942.85 255.25 949.95 250.65 951.9 250.7
L 951.2 251.4 937.3 261.95
M 847.95 257.15
L 848.5 258.25 845.65 259.85 844.95 259.05 847.95 257.15
M 834 259.75
L 838.2 257.8 838.65 258.6 834.45 261.05 834 259.75
M 822.2 261.15
L 817.85 263.45 816.95 262.6 820.45 259.05 824.15 259.45 822.2 261.15
M 813.5 260.95
L 810.35 262.75 809.2 260.55 813.65 260.45 813.5 260.95
M 882.2 254.1
L 882 254.65 872.05 260.85 871.75 259.9 868.45 261.9 879.85 254.45 882.2 254.1
M 877.05 265.3
L 873.15 265.4 873 264.75 880.25 259.65 877.05 265.3
M 856.05 258.1
L 851.85 261.05 851.15 260.8 853.4 256.45 856.75 256.45 856.05 258.1 Z"/>

<path fill="#FDAE2A" stroke="none" d="
M 1005.3 126.75
Q 1004.7 131.3 1004.2 144.1
L 1004.8 102.15 995.55 102.6
Q 975.1 103.3 964.85 103.95 958.95 104.45 953.65 104.8 933.4 106.2 922.05 106.85 917.4 107.15 908.3 107.35 899.05 107.6 892.85 108.05 886.1 108.55 874.95 109.4 861.35 110.65 856.8 111.05 847.35 111.45 841.65 111.8 839.5 111.9 837.85 111.95
L 799.65 114.2
Q 792.3 114.85 788.7 114.9 788.45 116.15 787.95 120.05 787.5 122.8 787.5 124.6
L 785.95 160.1
Q 785.35 182.1 785.2 183.85 785.1 186.2 784.25 191 783.5 195.7 783.25 198.05
L 781.9 259.45
Q 796.05 258.35 826.35 254.9 855.6 251.7 880.45 250.2
L 871.4 251.3
Q 875.4 250.95 880.15 250.5
L 910.5 248.4
Q 933.2 247.05 939.75 246.75 950.7 246.6 972.5 246 977.35 246.05 1002.15 246.95
L 1002.95 246.85 1005.3 126.75 Z"/>
</g>

<g id="Layer2_9_MEMBER_0_MEMBER_1_MEMBER_0_FILL">
<path fill="#FFFFFF" fill-opacity="0.4980392156862745" stroke="none" d="
M 933.45 209.1
Q 920.5 216.8 912.05 225.25
L 953.4 201.05
Q 956.15 199.45 956.9 196.65 935.85 207.75 933.45 209.1
M 949.95 219.1
Q 944.5 218.35 936.8 222.55 929.15 226.5 924.85 232.35
L 949.95 219.1
M 953.7 209.15
Q 947.2 208.95 934.75 215.85 922.2 222.9 915.75 230.65
L 953.7 209.15
M 782.4 215.2
Q 791.65 212.6 795.35 211.15 797.75 210.4 798.9 209.85 800.65 208.95 801.45 207.1 790.3 207.85 782.4 215.2
M 799.35 196.15
L 799.5 195.85
Q 788 201.2 785.55 202 785.3 202.1 778.55 205.4 775.2 207 771.2 211.6 787.5 205.4 791.6 202.6 795 200.15 796.65 198.55 798.8 196.6 799.35 196.15
M 962.8 164.55
Q 960.8 165.75 959.55 166.6 942.7 177.45 930.2 188.4 935.9 186.5 961.55 169.3 964.1 167.65 966.35 166.05 968.35 164.75 970.1 163.45
L 972.05 158.85
Q 966.35 162.4 962.8 164.55
M 968.3 124.45
L 938.7 142.75 936.1 145.85 936 146.15
Q 936.7 145.8 937.3 145.4 961.95 131.95 966.3 129.75 969.8 127.8 974.15 126.95
L 968.3 124.45
M 933.85 135.4
Q 950.8 126.9 951.75 124.1 937.7 128.75 924.9 140.15 924.85 140.15 924.75 140.25 924.9 140.2 924.95 140.15 929 137.8 930.95 137.15 931.45 137.05 933.85 135.4
M 821.1 126.85
Q 838.95 115.45 841.1 112.9 832.7 114.45 818.2 123.7 804 132.95 798.5 139.95 803.6 137.9 821.1 126.85
M 814.85 119.9
Q 820.5 116.55 821.85 112.4 811 116.65 802.35 124.55 809.4 123.2 814.85 119.9 Z"/>

<path fill="#000000" stroke="none" d="
M 869.6 116.65
Q 869.65 116.45 869.7 116.3 869.5 116.4 869.25 116.55
L 869.6 116.65 Z"/>
</g>

<g id="Layer2_9_MEMBER_0_MEMBER_1_MEMBER_0_MEMBER_0_FILL">
<path fill="#FD7B23" fill-opacity="0.4980392156862745" stroke="none" d="
M 883.1 29.5
Q 882.05 31.95 881.7 34.35 882.05 41.45 877.75 47.3 873.5 53.25 866.5 55.3 850 61.3 830.9 51.55 823.65 47.8 817.1 41.5 809.85 33.9 806.05 29.95
L 803.1 25.7
Q 799.35 18.9 793 14.75 793.5 22.45 799.55 27.85 804 32.3 804.9 38.5 805.85 44.75 803.05 50.4 800.6 54.55 796 57.45 782.15 65.65 765.5 63.9 755.55 62.9 750 61.55 741.45 59.55 735.2 55.7 732.15 54.25 728.15 53.4 729.5 55.85 731.3 57.8
L 742.5 64.55
Q 751.3 70.3 756.15 79.65 762 88.7 759.7 99.25 757.55 109.85 748.5 115.7
L 745.8 117.45
Q 729.25 126.45 710.35 129.1
L 705.9 130.2
Q 707.55 132.3 709.95 132.45 711.45 132.55 714.05 132.35 719.95 132.75 729.05 134.1 733.15 134.1 736.3 137.15 739.35 140.1 739.65 144.5 740.35 148.75 738.7 152.6 737.1 156.4 733.65 158.7 731.6 160.25 726.55 162.75 724.15 164.2 724.05 164.5 723.15 165.3 723.55 167.5 723.65 168.45 730.45 170.3 737.55 171.95 739.45 177.25 739.8 171.75 739 170.05 738.2 168.4 733 163.65
L 737.05 159.7
Q 741.6 154.9 742.3 148.55 743 142.2 739.65 136.3 735.8 131.9 730.25 128.2 731.1 127 733.1 126.45 735.95 125.25 736.6 125.05 744.8 121.85 752.45 117.55 761.7 110.6 763.15 97.05 764.5 82.75 755.15 72.6 753.1 70.7 752.1 69.4 750.5 67.4 750.1 64.75 754.25 64.8 757.55 66.2 775.6 71.15 792.8 63.4 799.65 60.65 803.75 54.55 807.9 48.35 807.65 41.05
L 807.95 38.8 808.95 37.95 815.55 44.4
Q 824.3 52.95 832.3 57 842.1 61.85 852.5 61.4 859.2 61.4 863.05 60.65 868.8 59.55 872.95 56.65 878.2 52.9 881.3 46.8 884.8 39.65 883.3 32.25
L 883.1 29.5 Z"/>
</g>

<g id="Layer2_9_MEMBER_1_FILL">
<path fill="#FFFFFF" stroke="none" d="
M 1000.2 138.1
Q 996.3 137.6 993.7 141.2 990.7 145.3 990.05 150.25 989.95 151.2 989.6 152.15 986.55 159.8 981.35 166.35 976.6 172.4 971.95 180.05 970.35 182.6 967.9 186 967.35 186.8 966.7 187.55 967.3 186.45 967.5 185.25 967.6 184.75 968.1 184.35 970.05 182.75 970.25 178.95 970.3 178.05 970.4 177.1 970.75 172.65 970.55 168.2 970.4 163.3 968.45 159.1 967.1 156.15 964.2 154.3 963.6 153.9 962.8 153.65 962.25 153.45 961.75 153.05 957.55 149.9 951.05 149.85 946.45 149.8 942.9 151.95 941.25 153 939.55 154.05 933.85 157.75 931.25 163.65 931.85 161 932.25 158.35 933.05 153 934.6 147.55 934.95 146.3 935.15 145 935.55 142.9 936.4 141.2 936.75 140.5 936.8 139.6 936.85 137.9 937.3 136.75 938.85 132.75 939 127.95 939 127.55 939.2 127 939.95 125.35 941.05 124.25 942.2 123.05 943.75 122.75 944.35 122.6 945.05 122.05 948.3 119.6 949.8 116.2 950.15 115.45 950.15 114.55 950.25 111.8 946.65 112.9 945.75 113.2 944.75 113.45 943.9 113.65 943.1 113.9 941.65 113.65 941.05 112.85 939.05 110.05 937.3 108.75 936.75 108.3 935.85 108.2 925 107.2 926.1 118.15 926.45 121.65 928.35 125.45 928.7 126.2 928.65 127.1 928.4 135.75 925.25 143.2 923.45 147.5 921.4 151.1 921.1 151.65 920.95 152.2 919.6 157.3 916.4 161.55 916.55 158.3 915.65 156.45 914.85 154.8 914.25 153.05 912.75 148.95 910 144.05 905.7 136.4 897.25 132.8 896.5 132.45 895.65 132.25 894.75 132 893.8 131.6 891.9 130.8 889.35 130.55 886.25 130.2 883.1 130.05 880.3 129.95 877.75 130.65 872.95 132.05 869.4 135.7 862.65 142.65 861.8 152.45 861.7 152.25 861.6 152.1 859.6 148.1 859.45 143.15 859.4 142.3 859.35 141.35 859 136.7 857.95 132.45 856.9 128.05 856.05 123.55 855.85 122.6 855.85 121.7 855.85 120.8 856.4 119.95 859.25 115.6 856.9 111.15 855.05 107.7 851 106.25 850.5 106.05 850.1 105.55 848.9 104.05 845.55 104.6 841.3 105.35 839.5 107.55 838.85 108.3 838.4 109.2 837.5 110.95 835.35 109.9 834.85 109.65 834.15 110.3 830.55 113.7 833.2 118.05 835.4 121.6 840.1 123.7 840.65 123.95 841.2 124.25 844.25 125.85 846 127.55 846.45 128 846.5 128.85 846.8 133.8 847.15 138.7 847.35 141.35 847.7 144 847.8 144.95 848.05 145.9 848.9 149.05 849.85 152.15 850.95 155.65 852 160.1 852.25 161.05 852.6 162 854.1 166 855.25 169.15 856.45 172.45 856.7 176.25 856.75 177.2 857 178.2 856.3 178.45 855.65 178.7 852.5 180 849.25 180.5 849.25 180.15 849.3 179.85 849.9 170.65 847.3 162.85 844.95 155.65 838.25 151.45 835.55 149.75 832.15 149.5 827.4 149.15 823.35 150.65 822.8 150.85 822.25 151.1 816.5 155.2 816.1 161.95 816.05 162.85 815.8 163.65 815.6 164.2 815.55 164.7 815.15 169.1 815.05 173.55 814.95 176 815.7 177.35 816.05 178.05 816.35 178.85 817.7 182.85 820.25 184.7 820.95 185.2 821.45 186.05 823.85 189.95 829.2 192.35 828 192.35 826.8 192.35 825.45 192.35 824.2 192 820.95 191 817.75 189.9 816.95 189.65 816.65 189.2 812.9 184.05 809.75 178.95 808.9 177.6 807.85 176.35 804.15 171.9 800.95 167.25 800.4 166.4 799.65 165.9 798.35 165.05 797.55 162.75 796.8 160.45 795.25 158.55 792.8 155.45 792.4 150.35 792.35 149.45 792.2 148.5 791.9 146.3 791.55 144.1 791.45 143.6 791.35 143.1 790.45 139.05 786.55 138.75 785.65 138.7 784.9 139.05 782.8 140.05 778.9 141.45 778.45 145.5 780.3 147.65 776.35 147.2 773.25 148.75 772.7 149 772.7 149.45 772.7 151.2 773.15 153 773.6 154.8 774.3 156.5 775.05 158.25 776.6 158.65 777.15 158.8 777.65 158.85 781.9 159.2 786.1 159.25 788.9 164.7 792 169.95 793.85 173.1 796.3 177.2 797.75 179.65 798.45 182.4 798.6 182.95 799 183.45 802.85 188.35 804.7 194.05 804.9 194.6 805.3 195.05 810.5 200.7 812.7 207.45 812.9 208 813.2 208.55 815.75 212.9 818.4 217.6 818.75 218.3 819 219.05 819.2 219.6 819.6 220.1 820.6 221.4 821.6 223.55 821.85 224.1 822.3 224.55 823.85 223.85 823.3 220.95 822.5 216.45 824.1 212.9 827.35 214.45 828.65 218.2 831.15 225.9 836.2 231.25 836.6 231.7 837.4 231.95 837.95 232.15 838.4 232.6 840.35 227.6 840.9 221.85 841.65 213.8 843.75 206.65 845.95 208.5 846 212.9 846 214.7 846.3 216.5 847.35 222.4 849.45 228 850.05 229.45 850.55 230.9 851.85 234.5 853.65 236.1 856.7 238.75 859.15 234.45 860.85 231.35 862.1 228.3 862.55 227.2 863.45 226.3 865.1 226.95 864.85 229.95 864.8 230.8 865.35 231.65 867.45 235.1 869.95 236.65 870.6 237.05 871.5 237.15 874.9 237.4 875.9 233.65 876.4 231.7 877.8 229.95 885.15 220.8 889.35 210.2 889.8 210.65 889.9 211.15 890.65 215.25 889.65 219.2 886.6 230.85 891.9 241.6 892.5 242.85 892.6 244.25 892.85 246.95 895.65 247.25 896.95 247.35 897.95 246.5 900.1 244.65 901.8 242.3 906.3 236.15 910.55 229.7 913.15 225.7 916.2 224.55 917.95 225.5 917.1 229 915 237.3 917.85 244.8 918 245.1 918.8 244.9 925.65 243.35 927.25 236.2 927.75 234 929.35 232.35 930.5 231.25 931.5 230 935.35 225.1 939.55 224.15 941.35 229.25 941.15 234.35 940.95 241.95 947.05 242.95 948 240.45 948.9 238.65 949.25 237.95 949.5 237.15 949.7 236.6 950.05 236.1 954.1 229.8 957.3 222.75 958 221.15 958.65 220.5 959.1 220.05 959.15 219.15 959.2 217.5 960.45 216.1 960.9 215.6 961.2 214.85 961.8 213.35 962.4 211.9 962.7 211.1 963.1 210.45 963.6 209.8 964.05 209.1 964.45 208.45 964.7 207.65 964.9 207.1 965.2 206.55 968.9 199.85 971.7 192.4 972.3 190.75 973.15 190.15 973.85 189.65 974.45 188.9 977.15 185.55 978.55 183.25 980.35 180.3 982 177.8 983.95 174.95 985.65 172.45 986.4 171.35 987 170.1 987.25 169.55 987.7 169.1 994.45 162.25 998.15 157 998.45 156.6 999.25 156.35 999.8 156.15 1000.25 156.15 1000.7 156.15 1001 156.7 1003.6 160.95 1008.45 158.7 1009.2 158.35 1009.6 157.9 1010.05 157.5 1010.4 156.75 1012.65 151.8 1006.5 152.1 1009.1 150.4 1009.15 146.75 1009.2 146.3 1008.25 146.2 1005.6 145.85 1002.9 145.85 1006 141.8 1002.6 139.05 1001.6 138.25 1000.2 138.1 Z"/>
</g>

<g id="Layer2_9_MEMBER_2_MEMBER_0_MEMBER_0_FILL">
<path fill="#000000" stroke="none" d="
M 316.2 456.3
L 314.6 457.7
Q 313.45 456.9 312.7 457.6 312.45 457.8 311.7 459.2
L 309.8 458.7
Q 308.3 461.3 309.4 464.1 309.8 465.4 310.85 466.25 311.9 467.15 313.3 467.2
L 312.7 477.3
Q 311.6 488.3 312.2 499.8 312.3 500.4 312.5 501
L 313 501
Q 312.35 494.05 313.2 483.5 314.45 467.7 314.5 466.1 312.35 465.4 311.9 465.2 310.45 464.55 310.5 463.9 310.4 462.8 310.35 462.2 310.25 461.05 310.9 460.25 311.1 460.5 311.4 460.75
L 312.7 463.55 316.7 464.55 314.8 467.35
Q 315.4 476.65 316.9 495.75
L 317.2 495.75
Q 317.25 495.5 317.7 493.15
L 318.8 494.4
Q 320.15 495.75 321.9 497.1 324 498.9 326.8 498.5 328.05 498.2 333.2 496.5
L 334.1 496.2 333.9 497.3
Q 335.1 496.35 335.8 495.2
L 348.75 474.4
Q 350.15 472.45 349.45 470.15 349.25 469.15 349.25 467.9
L 350.35 467.9 350.15 469 352.55 472.1
Q 350.85 473.75 343.15 487.95 335.5 502.15 335.25 504.1 340.5 494.85 353.15 473.3 355.55 472.7 357.35 470.9 359.2 469.1 359.55 466.8 359 466.25 358.05 466.6 356.9 467 356.55 466.9
L 355.95 464.6 353.95 465 353.25 462.7
Q 349.6 462.7 347.45 467.1
L 348.55 471.9
Q 344.45 479.75 339.15 487.5 339.15 484.45 338.55 481.5 337.3 476.65 331.75 472.7 329.55 471.5 327.15 471.3 325.75 471.1 324.35 471.9 321.85 473.7 320.8 474.8 319.1 476.55 318.55 478.7
L 317.25 482.3 316.8 482.4
Q 316.6 479.9 316.5 474.95 316.4 470 316.2 467.6 320.05 463.95 319.4 461.4 318.9 459.55 318.4 458.6 317.6 457.1 316.2 456.3
M 316.35 457.6
L 316.85 457.6 318 460.1 316.1 460.8
Q 315.4 459.95 315.65 459.1 315.65 459 316.35 457.6
M 313.65 462.25
Q 312.609765625 460.3267578125 313.45 458.3 314.1 459.15 314.15 460.25 314.198828125 461.32421875 313.65 462.25
M 315.65 462.9
L 317.45 461.6 317.5 461.6
Q 317.3 462.5 317.1 462.65 316.85 462.85 315.65 462.9
M 321.25 476.7
L 321.15 476.8
Q 321.5 476.05 322.05 475.4 323.65 473.9 325.75 473.35 327.85 472.8 329.95 473.3 330.55 473.35 331.15 473.8 336.95 477.6 337.5 483.55 338.05 489.1 334.05 493.4 332.3 495.3 329.85 496.25 327.4 497.15 324.75 496.9 322.6 496.75 320.7 494.75 318.85 492.8 318.35 490.2 317.7 486.65 318.45 483.15 319.2 479.65 321.25 476.7
M 352.35 464.2
Q 352.35 464.9 352.15 467.1
L 350.1 466.4
Q 350.5 464.55 352.35 464.2
M 354.1 469.05
Q 354.05 469.45 354.25 470.2
L 356.85 468.5 357.15 468.9 354.05 471.4 352.15 469.7 354.65 466.8
Q 354.15 468.6 354.1 469.05 Z"/>
</g>

<g id="Layer2_9_MEMBER_2_MEMBER_0_MEMBER_1_FILL">
<path fill="#000000" stroke="none" d="
M 353.85 482.7
Q 351.8 482.85 350.05 484 348.3 485.2 347.35 487.1 345.6 490.4 344.6 493.2 344 494.95 343.85 496.8 343.45 500.05 345.65 501.95 347.65 503.7 350.5 503.3 353.4 502.85 356.1 502.1
L 352.85 506.4 353.35 506.8
Q 353.95 505.9 354.45 505.3
L 364.45 494.8 371.85 487.7
Q 373.15 486.8 373.45 485.3 373.8 483.55 375.35 483.1 375.7 484.4 375.75 485.6 375.25 485.3 374.95 485.3
L 374.15 485.3
Q 374.4 486.6 376.1 487.15 377.85 487.7 378.15 488.5
L 379.65 488.5 379.65 488.9 376.85 489.6 376.35 488.8 375.55 488.2
Q 375.5 489.55 375.7 490 375.95 490.5 376.85 490.7 378.35 491.2 379.85 490.6 381.3 490.05 382.05 488.7
L 381.25 487.2 383.25 485.4
Q 382.95 484.5 381.5 484.7 380.2 484.8 380.25 484.1 380.4 481.6 378.65 480.8 374.8 481.15 373.25 482.5 371.8 483.7 371.65 486.4
L 360.65 497
Q 360.75 496.75 361.5 494.35 361.95 492.95 362.15 492 363 488.35 360.25 485.3 357.55 482.25 353.85 482.7
M 354.35 486
Q 354.45 486.6 353.75 487.85 353.1 488.95 353.6 489.75
L 357.5 487.65
Q 358.25 488.75 357.4 490.1 356.45 491.65 356.7 492.4 358.7 491.8 359.05 489.9 359.4 488 357.8 486.5
L 355.6 487
Q 355.3 486.25 354.3 484.25 356.8 483.7 358.95 485.45 361.15 487.2 361.3 489.9 361.45 494.55 357.95 498.3 354.45 502.05 349.8 502.1 344.65 502.1 344.8 497 344.85 494.9 345.8 492.7 346.5 491.1 348.1 488.8 348.5 491.2 349.3 493.6 350.5 496.1 353.2 496.8 355.45 497.75 357.8 496.7
L 357.8 496.2 352.85 495.1
Q 351.35 494.75 350.45 493.15 349.75 491.85 349.75 490.7 349.75 490.65 349.45 488.8 349.25 487.6 349.65 487 350.1 486.4 351.65 485.95 352.5 485.75 353.35 485.6 353.5 485.55 353.9 485.25 354.25 485.15 354.35 486
M 380 485.6
L 380 486 377.7 486.7 377.7 486.1 380 485.6
M 379.1 482.8
L 377.3 484.3
Q 377.15 482.85 377.45 482.6 377.8 482.3 379.1 482.8 Z"/>
</g>

<g id="Layer2_9_MEMBER_2_MEMBER_0_MEMBER_2_FILL">
<path fill="#000000" stroke="none" d="
M 295.85 479.7
Q 295.45 480.05 295.35 480.8
L 294.6 487.4 294.75 487.4
Q 294.7 488.3 294.75 489.3 295.2 495 299.5 496.2 301.75 496.85 303.7 496 305.35 495.3 307.1 493.4
L 307.85 492.2
Q 309.3 489.25 309.6 485.8 310.1 482.85 308.8 480.45 307.7 478.4 305.2 476.4 304.05 475.55 302.65 475.5 301.25 475.4 300.1 476.2 297.85 477.8 295.85 479.7
M 302.4 481.55
Q 302.15 481.15 300.5 479.4
L 300.4 479.4 298.8 479
Q 300.85 476.55 304 476.8 309.1 480.35 308.3 485.4 307.9 488.7 306.5 491.6 305.55 493.3 303.85 494.2 302.1 495.15 300.2 495 297.95 494.85 297 492.9 294.75 489.05 296.1 483.7 297.9 484.7 298.4 484.8 298.85 484.95 299.9 484.7 299.65 484.05 298.1 483.2 296.75 482.5 296.8 481.2
L 297.8 480.3
Q 299.2 480.25 300.5 481.05
L 302.6 482.7
Q 302.7 481.95 302.4 481.55 Z"/>
</g>

<g id="Layer2_9_MEMBER_2_MEMBER_0_MEMBER_3_FILL">
<path fill="#000000" stroke="none" d="
M 280.4 474.3
Q 281.45 473.55 283.1 474.05 285.2 474.6 285.8 474.5
L 286.1 473.3 287 473.5 286.25 476.2
Q 287.25 477.25 287.85 479.1 288.15 480.15 288.8 482.3
L 291.6 488.6
Q 292.5 490.6 294 494.7 294 491.5 292.6 488.75 290.05 483.75 288.7 478.25 288 476.4 287.7 475.5 289.7 469.4 285.3 467.2
L 283.8 469.1 281.8 468.8
Q 281.35 471.7 281.3 472.3
L 278.9 473.2
Q 278.85 473.65 278.9 474.15 279.15 475.9 280.6 476.95 282 478.05 283.8 477.8 283.7 477.15 283.05 476.9
L 281.9 476.4
Q 281.05 475.8 280.9 475.6 280.4 475.1 280.4 474.3
M 283.05 471.8
Q 282.95 471.55 283.25 470.1
L 284.15 472.35
Q 283.195703125 472.09140625 283.05 471.8
M 285.3 469.55
Q 285.65 468.9 286.35 468.7 286.35 468.8 287.15 470.35 287.6 471.25 287 471.6 285.75 472.35 285.25 471.2
L 285.2 470.9
Q 285 470.2 285.3 469.55 Z"/>
</g>

<g id="Layer2_9_MEMBER_2_MEMBER_0_MEMBER_4_FILL">
<path fill="#000000" stroke="none" d="
M 372.05 489.6
L 369.05 492.8
Q 368.3 493.65 362.05 500.1 357.75 504.5 355.15 507.5 353.35 509.45 351.1 512.6 349.8 514.35 347.25 517.9 346.6 518.75 346 520.1
L 346.45 520.4 347.05 519.6
Q 353.4 511.95 354.75 510.15 360.3 503.1 366.75 496.45 368.55 494.75 373.35 489.75 373.85 489.25 374.35 488.5
L 373.95 488.1
Q 373.35 488.6 372.05 489.6 Z"/>
</g>

<g id="Layer2_9_MEMBER_2_MEMBER_0_MEMBER_5_FILL">
<path fill="#000000" stroke="none" d="
M 286.35 477.7
Q 286 476.9 285.1 476.5
L 285.1 477.6 286.85 484.5
Q 288.2 488.4 288.75 492.2 289.05 495.55 290.25 498.7 291.5 501.8 291.85 505 291.85 506.45 293 507.2 293.15 503.4 292.2 500 289.5 490.5 288.8 487.7 287.5 482 286.7 479.2 286.45 477.95 286.35 477.7 Z"/>
</g>

<g id="Layer2_9_MEMBER_2_MEMBER_0_MEMBER_6_FILL">
<path fill="#000000" stroke="none" d="
M 292.4 466.5
Q 293 467.65 294.35 469.9 293.9 466.55 292.25 463.6 292.15 463.35 291.8 463.05 291.4 462.75 291.25 462.6
L 290.85 462.9
Q 291.25 464.5 292.4 466.5 Z"/>
</g>

<g id="Layer2_9_MEMBER_2_MEMBER_0_MEMBER_7_FILL">
<path fill="#000000" stroke="none" d="
M 326.15 464.8
L 327.25 456.6
Q 326 457.4 325.7 460 325.35 462.55 326.15 464.8 Z"/>
</g>

<g id="Layer2_9_MEMBER_2_MEMBER_0_MEMBER_8_FILL">
<path fill="#000000" stroke="none" d="
M 300.35 457.1
Q 298.6 461.25 300.6 465.3 300.65 463.35 300.5 461.1 300.45 460.8 300.7 459.15 300.9 457.9 300.35 457.1 Z"/>
</g>

<g id="Layer2_9_MEMBER_2_MEMBER_0_MEMBER_9_FILL">
<path fill="#000000" stroke="none" d="
M 365.2 471.4
L 365.2 470.1
Q 361.85 473.85 360.6 478.5 362.55 475.75 365.2 471.4 Z"/>
</g>

<g id="Layer2_9_MEMBER_2_MEMBER_0_MEMBER_10_FILL">
<path fill="#000000" stroke="none" d="
M 339 467.1
Q 341.75 463.15 343.35 459.1 341.4 461.25 340.25 463.45 339.1 465.6 339 467.1 Z"/>
</g>

<g id="Layer2_9_MEMBER_2_MEMBER_0_MEMBER_11_FILL">
<path fill="#000000" stroke="none" d="
M 366.5 480.6
Q 370.05 478.95 371.6 475.4 368.65 477.8 366.5 480.6 Z"/>
</g>

<g id="Layer2_9_MEMBER_2_MEMBER_0_MEMBER_12_FILL">
<path fill="#000000" stroke="none" d="
M 333.1 460.65
Q 332.95 461.55 332.7 464 334.7 459.55 334.4 457.3 333.5 458.75 333.1 460.65 Z"/>
</g>

<g id="Layer2_9_MEMBER_2_MEMBER_0_MEMBER_13_FILL">
<path fill="#000000" stroke="none" d="
M 301.7 478.15
Q 300.85 478.6 300.35 479.4
L 300.5 479.4 303.3 479 304.1 479.7
Q 304.75 478.4 303.5 477.9 302.55 477.75 301.7 478.15 Z"/>
</g>

<g id="Layer2_9_MEMBER_2_MEMBER_0_MEMBER_14_FILL">
<path fill="#000000" stroke="none" d="
M 322.15 489.5
Q 322.45 491.1 323.75 492.3 325.5 494.05 328 493.4 330.75 492.7 332.6 490.65 334.05 489 335.35 486
L 334.35 483.8
Q 330.45 486.45 325.75 486 324.4 485.55 323.65 483.75 322.7 481.3 322.15 480.7
L 321.55 482.6
Q 321.7 486.05 322.15 489.5
M 323.65 487.6
L 323.5 486.2
Q 325.95 487.85 328.5 487.7 330.7 487.55 333.35 486.1 333.25 487.45 332.15 488.4 327.75 489.1 323.65 487.6 Z"/>
</g>

<g id="Layer2_9_MEMBER_2_MEMBER_0_MEMBER_15_FILL">
<path fill="#000000" stroke="none" d="
M 322.4 476.3
L 321.2 476.8 321.3 476.8 321.5 478.2 323.6 477.1 325.7 476.4
Q 325.85 476.7 325.7 478.1 325.6 479 326.6 479.3
L 328.2 476.7 328.7 476.7 329 478.8
Q 329.05 479.15 329.05 479.9 329.1 480.55 329.6 480.9 330.45 479 330 477.05 329.55 475.05 328.2 474.9
L 326.6 475.7
Q 324.35 474.9 322.4 476.3 Z"/>
</g>

<g id="Layer2_9_MEMBER_2_MEMBER_0_MEMBER_16_FILL">
<path fill="#000000" stroke="none" d="
M 333.35 478.3
L 334.5 480.2
Q 334.9 479.4 334.7 478.5 334.45 477.6 333.7 477.1 333.2 476.7 332.6 476.7 331.95 476.7 331.5 477.1 331.6 477.9 332.25 478.05
L 333.35 478.3 Z"/>
</g>

<g id="Layer2_9_MEMBER_2_MEMBER_0_MEMBER_17_FILL">
<path fill="#000000" stroke="none" d="
M 298 488.1
L 297 486.2
Q 296.8 486.7 296.8 486.95 296.75 488.15 297.5 489.05 298.3 490 299.5 490.1 301.4 490.4 303.4 488.9 305.35 487.35 305.75 485.4
L 305.5 484.9
Q 302.8 487.4 302.2 487.8 300.2 489 298 488.1 Z"/>
</g>
</defs>

<g transform="matrix( 1, 0, 0, 1, 0,0) ">
<use xlink:href="#Layer4_0_FILL"/>
</g>

<g transform="matrix( 1, 0, 0, 1, 140.6,62.8) ">
<use xlink:href="#Layer3_0_FILL"/>
</g>

<g transform="matrix( 1, 0, 0, 1.0689697265625, 5.4,-88.9) ">
<use xlink:href="#Layer3_1_FILL"/>
</g>

<g transform="matrix( 1, 0, 0, 1, 135,61.2) ">
<use xlink:href="#Layer2_0_MEMBER_0_FILL"/>
</g>

<g transform="matrix( 1, 0, 0, 1, 135,61.2) ">
<use xlink:href="#Layer2_0_MEMBER_1_FILL"/>
</g>

<g transform="matrix( 1.4100189208984375, -2.4122314453125, 2.42138671875, 1.415374755859375, 307.85,1421) ">
<use xlink:href="#Layer2_0_MEMBER_2_FILL"/>
</g>

<g transform="matrix( 1.4100189208984375, -2.4122314453125, 2.42138671875, 1.415374755859375, 307.85,1421) ">
<use xlink:href="#Layer2_0_MEMBER_3_FILL"/>
</g>

<g transform="matrix( 1.4100189208984375, -2.4122314453125, 2.42138671875, 1.415374755859375, 307.85,1421) ">
<use xlink:href="#Layer2_0_MEMBER_4_FILL"/>
</g>

<g transform="matrix( 1, 0, 0, 1, 135,61.2) ">
<use xlink:href="#Layer2_0_MEMBER_5_MEMBER_0_FILL"/>
</g>

<g transform="matrix( 2.33111572265625, -0.677764892578125, 0.6302337646484375, 2.1676025390625, -174.8,558.9) ">
<use xlink:href="#Layer2_0_MEMBER_5_MEMBER_1_FILL"/>
</g>

<g transform="matrix( 2.33111572265625, -0.677764892578125, 0.6302337646484375, 2.1676025390625, -174.8,558.9) ">
<use xlink:href="#Layer2_0_MEMBER_5_MEMBER_2_FILL"/>
</g>

<g transform="matrix( 1, 0, 0, 1, 135,61.2) ">
<use xlink:href="#Layer2_0_MEMBER_6_FILL"/>
</g>

<g transform="matrix( 1, 0, 0, 1, 135,61.2) ">
<use xlink:href="#Layer2_1_FILL"/>
</g>

<g transform="matrix( 1, 0, 0, 1, 0,0) ">
<use xlink:href="#Layer2_2_FILL"/>
</g>

<g transform="matrix( 4.41357421875, 0, 0, 5.9318695068359375, 794.75,-217.2) ">
<use xlink:href="#Layer2_2_MEMBER_0_FILL"/>
</g>

<g transform="matrix( 1, 0, 0, 1, 135,61.2) ">
<use xlink:href="#Layer2_2_MEMBER_1_FILL"/>
</g>

<g transform="matrix( 1, 0, 0, 1, 135,61.2) ">
<use xlink:href="#Layer2_2_MEMBER_2_FILL"/>
</g>

<g transform="matrix( 0.9941253662109375, -0.10821533203125, 0.10821533203125, 0.9941253662109375, -50.05,128.3) ">
<use xlink:href="#Layer2_2_MEMBER_3_FILL"/>
</g>

<g transform="matrix( 1, 0, 0, 1, 0,0) ">
<use xlink:href="#Layer2_2_MEMBER_4_FILL"/>
</g>

<g transform="matrix( 1.30975341796875, 0, 0, 1.30975341796875, -156.9,-66.35) ">
<use xlink:href="#Layer2_3_FILL"/>
</g>

<g transform="matrix( 1.30975341796875, 0, 0, 1.30975341796875, -163.45,-69) ">
<use xlink:href="#Layer2_4_FILL"/>
</g>

<g transform="matrix( 1, 0, 0, 1, 135,61.2) ">
<use xlink:href="#Layer2_5_FILL"/>
</g>

<g transform="matrix( 1.6104736328125, 0.9058380126953125, -0.5062103271484375, 2.7120208740234375, 200.65,-891.05) ">
<use xlink:href="#Layer2_6_MEMBER_0_MEMBER_0_FILL"/>
</g>

<g transform="matrix( 1.6104736328125, 0.9058380126953125, -0.5062103271484375, 2.7120208740234375, 200.65,-891.05) ">
<use xlink:href="#Layer2_6_MEMBER_0_MEMBER_1_FILL"/>
</g>

<g transform="matrix( 1.6104736328125, 0.9058380126953125, -0.5062103271484375, 2.7120208740234375, 200.65,-891.05) ">
<use xlink:href="#Layer2_6_MEMBER_0_MEMBER_2_FILL"/>
</g>

<g transform="matrix( 1.6104736328125, 0.9058380126953125, -0.5062103271484375, 2.7120208740234375, 200.65,-891.05) ">
<use xlink:href="#Layer2_6_MEMBER_0_MEMBER_3_FILL"/>
</g>

<g transform="matrix( 1.6104736328125, 0.9058380126953125, -0.5062103271484375, 2.7120208740234375, 200.65,-891.05) ">
<use xlink:href="#Layer2_6_MEMBER_0_MEMBER_4_FILL"/>
</g>

<g transform="matrix( 1.6104736328125, 0.9058380126953125, -0.5062103271484375, 2.7120208740234375, 200.65,-891.05) ">
<use xlink:href="#Layer2_6_MEMBER_0_MEMBER_5_FILL"/>
</g>

<g transform="matrix( 1.6104736328125, 0.9058380126953125, -0.5062103271484375, 2.7120208740234375, 200.65,-891.05) ">
<use xlink:href="#Layer2_6_MEMBER_0_MEMBER_6_FILL"/>
</g>

<g transform="matrix( 1.6104736328125, 0.9058380126953125, -0.5062103271484375, 2.7120208740234375, 200.65,-891.05) ">
<use xlink:href="#Layer2_6_MEMBER_0_MEMBER_7_FILL"/>
</g>

<g transform="matrix( 1.6104736328125, 0.9058380126953125, -0.5062103271484375, 2.7120208740234375, 200.65,-891.05) ">
<use xlink:href="#Layer2_6_MEMBER_0_MEMBER_8_FILL"/>
</g>

<g transform="matrix( 1.6104736328125, 0.9058380126953125, -0.5062103271484375, 2.7120208740234375, 200.65,-891.05) ">
<use xlink:href="#Layer2_6_MEMBER_0_MEMBER_9_FILL"/>
</g>

<g transform="matrix( 1.6104736328125, 0.9058380126953125, -0.5062103271484375, 2.7120208740234375, 200.65,-891.05) ">
<use xlink:href="#Layer2_6_MEMBER_0_MEMBER_10_FILL"/>
</g>

<g transform="matrix( 1.6104736328125, 0.9058380126953125, -0.5062103271484375, 2.7120208740234375, 200.65,-891.05) ">
<use xlink:href="#Layer2_6_MEMBER_0_MEMBER_11_FILL"/>
</g>

<g transform="matrix( 1.6104736328125, 0.9058380126953125, -0.5062103271484375, 2.7120208740234375, 200.65,-891.05) ">
<use xlink:href="#Layer2_6_MEMBER_0_MEMBER_12_FILL"/>
</g>

<g transform="matrix( 1.6104736328125, 0.9058380126953125, -0.5062103271484375, 2.7120208740234375, 200.65,-891.05) ">
<use xlink:href="#Layer2_6_MEMBER_0_MEMBER_13_FILL"/>
</g>

<g transform="matrix( 1.6104736328125, 0.9058380126953125, -0.5062103271484375, 2.7120208740234375, 200.65,-891.05) ">
<use xlink:href="#Layer2_6_MEMBER_0_MEMBER_14_FILL"/>
</g>

<g transform="matrix( 1.6104736328125, 0.9058380126953125, -0.5062103271484375, 2.7120208740234375, 200.65,-891.05) ">
<use xlink:href="#Layer2_6_MEMBER_0_MEMBER_15_FILL"/>
</g>

<g transform="matrix( 1.6104736328125, 0.9058380126953125, -0.5062103271484375, 2.7120208740234375, 200.65,-891.05) ">
<use xlink:href="#Layer2_6_MEMBER_0_MEMBER_16_FILL"/>
</g>

<g transform="matrix( 1.6104736328125, 0.9058380126953125, -0.5062103271484375, 2.7120208740234375, 200.65,-891.05) ">
<use xlink:href="#Layer2_6_MEMBER_0_MEMBER_17_FILL"/>
</g>

<g transform="matrix( 1.6104736328125, 0.9058380126953125, -0.5062103271484375, 2.7120208740234375, 200.65,-891.05) ">
<use xlink:href="#Layer2_6_MEMBER_0_MEMBER_18_FILL"/>
</g>

<g transform="matrix( 1.6104736328125, 0.9058380126953125, -0.5062103271484375, 2.7120208740234375, 200.65,-891.05) ">
<use xlink:href="#Layer2_6_MEMBER_0_MEMBER_19_FILL"/>
</g>

<g transform="matrix( 1.7084808349609375, 0.703277587890625, -0.1726531982421875, 2.7532196044921875, 249.15,-823.85) ">
<use xlink:href="#Layer2_6_MEMBER_0_MEMBER_20_MEMBER_0_FILL"/>
</g>

<g transform="matrix( 1.7084808349609375, 0.703277587890625, -0.1726531982421875, 2.7532196044921875, 249.15,-823.85) ">
<use xlink:href="#Layer2_6_MEMBER_0_MEMBER_20_MEMBER_1_FILL"/>
</g>

<g transform="matrix( 1.7084808349609375, 0.703277587890625, -0.1726531982421875, 2.7532196044921875, 249.15,-823.85) ">
<use xlink:href="#Layer2_6_MEMBER_0_MEMBER_20_MEMBER_2_FILL"/>
</g>

<g transform="matrix( 1.7084808349609375, 0.703277587890625, -0.1726531982421875, 2.7532196044921875, 249.15,-823.85) ">
<use xlink:href="#Layer2_6_MEMBER_0_MEMBER_20_MEMBER_3_FILL"/>
</g>

<g transform="matrix( 1.5626220703125, 0, 0, 1.8540191650390625, 534.75,-162.5) ">
<g transform="matrix( 1, 0, 0, 1, 0,0) ">
<use xlink:href="#cash_notes_1_1_Layer5_0_FILL"/>
</g>

<g transform="matrix( 1, 0, 0, 1, 0,0) ">
<use xlink:href="#cash_notes_1_1_Layer4_0_FILL"/>
</g>

<g transform="matrix( 1, 0, 0, 1, 0,0) ">
<use xlink:href="#cash_notes_1_1_Layer3_0_FILL"/>
</g>

<g transform="matrix( 1, 0, 0, 1, 0,0) ">
<use xlink:href="#cash_notes_1_1_Layer3_1_MEMBER_0_FILL"/>
</g>

<g transform="matrix( 1, 0, 0, 1, 1.8,1) ">
<use xlink:href="#cash_notes_1_1_Layer2_0_FILL"/>
</g>
</g>

<g transform="matrix( 1.5626220703125, 0, 0, 1.8540191650390625, 555,-256.5) ">
<g transform="matrix( 1, 0, 0, 1, 0,0) ">
<use xlink:href="#cash_notes_1_1_Layer5_0_FILL"/>
</g>

<g transform="matrix( 1, 0, 0, 1, 0,0) ">
<use xlink:href="#cash_notes_1_1_Layer4_0_FILL"/>
</g>

<g transform="matrix( 1, 0, 0, 1, 0,0) ">
<use xlink:href="#cash_notes_1_1_Layer3_0_FILL"/>
</g>

<g transform="matrix( 1, 0, 0, 1, 0,0) ">
<use xlink:href="#cash_notes_1_1_Layer3_1_MEMBER_0_FILL"/>
</g>

<g transform="matrix( 1, 0, 0, 1, 1.8,1) ">
<use xlink:href="#cash_notes_1_1_Layer2_0_FILL"/>
</g>
</g>

<g transform="matrix( 1.5626220703125, 0, 0, 1.8540191650390625, 538.15,-348.55) ">
<g transform="matrix( 1, 0, 0, 1, 0,0) ">
<use xlink:href="#cash_notes_1_1_Layer5_0_FILL"/>
</g>

<g transform="matrix( 1, 0, 0, 1, 0,0) ">
<use xlink:href="#cash_notes_1_1_Layer4_0_FILL"/>
</g>

<g transform="matrix( 1, 0, 0, 1, 0,0) ">
<use xlink:href="#cash_notes_1_1_Layer3_0_FILL"/>
</g>

<g transform="matrix( 1, 0, 0, 1, 0,0) ">
<use xlink:href="#cash_notes_1_1_Layer3_1_MEMBER_0_FILL"/>
</g>

<g transform="matrix( 1, 0, 0, 1, 1.8,1) ">
<use xlink:href="#cash_notes_1_1_Layer2_0_FILL"/>
</g>
</g>

<g transform="matrix( 1.5626220703125, 0, 0, 1.8540191650390625, 565.15,-432.6) ">
<g transform="matrix( 1, 0, 0, 1, 0,0) ">
<use xlink:href="#cash_notes_1_1_Layer5_0_FILL"/>
</g>

<g transform="matrix( 1, 0, 0, 1, 0,0) ">
<use xlink:href="#cash_notes_1_1_Layer4_0_FILL"/>
</g>

<g transform="matrix( 1, 0, 0, 1, 0,0) ">
<use xlink:href="#cash_notes_1_1_Layer3_0_FILL"/>
</g>

<g transform="matrix( 1, 0, 0, 1, 0,0) ">
<use xlink:href="#cash_notes_1_1_Layer3_1_MEMBER_0_FILL"/>
</g>

<g transform="matrix( 1, 0, 0, 1, 1.8,1) ">
<use xlink:href="#cash_notes_1_1_Layer2_0_FILL"/>
</g>
</g>

<g transform="matrix( 2.5407562255859375, 0, 0, 1.9459686279296875, 946.1,-133.4) ">
<use xlink:href="#Layer2_7_MEMBER_0_FILL"/>
</g>

<g transform="matrix( 2.5407562255859375, 0, 0, 1.9459686279296875, 946.1,-133.4) ">
<use xlink:href="#Layer2_7_MEMBER_1_FILL"/>
</g>

<g transform="matrix( 2.5407562255859375, 0, 0, 1.9459686279296875, 946.1,-133.4) ">
<use xlink:href="#Layer2_7_MEMBER_2_FILL"/>
</g>

<g transform="matrix( 2.5407562255859375, 0, 0, 1.9459686279296875, 796.75,-116.4) ">
<use xlink:href="#Layer2_7_MEMBER_3_FILL"/>
</g>

<g transform="matrix( 2.5407562255859375, 0, 0, 1.9459686279296875, 957.7,-141.45) ">
<use xlink:href="#Layer2_7_MEMBER_4_FILL"/>
</g>

<g transform="matrix( 2.5407562255859375, 0, 0, 1.9459686279296875, 860.25,-154.85) ">
<use xlink:href="#Layer2_7_MEMBER_5_FILL"/>
</g>

<g transform="matrix( 1, 0, 0, 1, 0,-76) ">
<use xlink:href="#Layer2_8_FILL"/>
</g>

<g transform="matrix( 0.8355712890625, 0.1619873046875, -0.1619873046875, 0.8355712890625, 153.75,-111.45) ">
<use xlink:href="#Layer2_9_MEMBER_0_MEMBER_0_FILL"/>
</g>

<g transform="matrix( 1, 0, 0, 1, -0.9,13.5) ">
<use xlink:href="#Layer2_9_MEMBER_0_MEMBER_1_MEMBER_0_FILL"/>
</g>

<g transform="matrix( 1, 0, 0, 1, -0.9,13.5) ">
<use xlink:href="#Layer2_9_MEMBER_0_MEMBER_1_MEMBER_0_MEMBER_0_FILL"/>
</g>

<g transform="matrix( 0.6988525390625, 0.1354827880859375, -0.1354827880859375, 0.6988525390625, 272.8,-55.65) ">
<use xlink:href="#Layer2_9_MEMBER_1_FILL"/>
</g>

<g transform="matrix( 1.6336669921875, 0.10516357421875, 0.0514373779296875, 1.6866455078125, 307.8,-676.05) ">
<use xlink:href="#Layer2_9_MEMBER_2_MEMBER_0_MEMBER_0_FILL"/>
</g>

<g transform="matrix( 1.6336669921875, 0.10516357421875, 0.0514373779296875, 1.6866455078125, 307.8,-676.05) ">
<use xlink:href="#Layer2_9_MEMBER_2_MEMBER_0_MEMBER_1_FILL"/>
</g>

<g transform="matrix( 1.6336669921875, 0.10516357421875, 0.0514373779296875, 1.6866455078125, 307.8,-676.05) ">
<use xlink:href="#Layer2_9_MEMBER_2_MEMBER_0_MEMBER_2_FILL"/>
</g>

<g transform="matrix( 1.6336669921875, 0.10516357421875, 0.0514373779296875, 1.6866455078125, 307.8,-676.05) ">
<use xlink:href="#Layer2_9_MEMBER_2_MEMBER_0_MEMBER_3_FILL"/>
</g>

<g transform="matrix( 1.6336669921875, 0.10516357421875, 0.0514373779296875, 1.6866455078125, 307.8,-676.05) ">
<use xlink:href="#Layer2_9_MEMBER_2_MEMBER_0_MEMBER_4_FILL"/>
</g>

<g transform="matrix( 1.6336669921875, 0.10516357421875, 0.0514373779296875, 1.6866455078125, 307.8,-676.05) ">
<use xlink:href="#Layer2_9_MEMBER_2_MEMBER_0_MEMBER_5_FILL"/>
</g>

<g transform="matrix( 1.6336669921875, 0.10516357421875, 0.0514373779296875, 1.6866455078125, 307.8,-676.05) ">
<use xlink:href="#Layer2_9_MEMBER_2_MEMBER_0_MEMBER_6_FILL"/>
</g>

<g transform="matrix( 1.6336669921875, 0.10516357421875, 0.0514373779296875, 1.6866455078125, 307.8,-676.05) ">
<use xlink:href="#Layer2_9_MEMBER_2_MEMBER_0_MEMBER_7_FILL"/>
</g>

<g transform="matrix( 1.6336669921875, 0.10516357421875, 0.0514373779296875, 1.6866455078125, 307.8,-676.05) ">
<use xlink:href="#Layer2_9_MEMBER_2_MEMBER_0_MEMBER_8_FILL"/>
</g>

<g transform="matrix( 1.6336669921875, 0.10516357421875, 0.0514373779296875, 1.6866455078125, 307.8,-676.05) ">
<use xlink:href="#Layer2_9_MEMBER_2_MEMBER_0_MEMBER_9_FILL"/>
</g>

<g transform="matrix( 1.6336669921875, 0.10516357421875, 0.0514373779296875, 1.6866455078125, 307.8,-676.05) ">
<use xlink:href="#Layer2_9_MEMBER_2_MEMBER_0_MEMBER_10_FILL"/>
</g>

<g transform="matrix( 1.6336669921875, 0.10516357421875, 0.0514373779296875, 1.6866455078125, 307.8,-676.05) ">
<use xlink:href="#Layer2_9_MEMBER_2_MEMBER_0_MEMBER_11_FILL"/>
</g>

<g transform="matrix( 1.6336669921875, 0.10516357421875, 0.0514373779296875, 1.6866455078125, 307.8,-676.05) ">
<use xlink:href="#Layer2_9_MEMBER_2_MEMBER_0_MEMBER_12_FILL"/>
</g>

<g transform="matrix( 1.6336669921875, 0.10516357421875, 0.0514373779296875, 1.6866455078125, 307.8,-676.05) ">
<use xlink:href="#Layer2_9_MEMBER_2_MEMBER_0_MEMBER_13_FILL"/>
</g>

<g transform="matrix( 1.6336669921875, 0.10516357421875, 0.0514373779296875, 1.6866455078125, 307.8,-676.05) ">
<use xlink:href="#Layer2_9_MEMBER_2_MEMBER_0_MEMBER_14_FILL"/>
</g>

<g transform="matrix( 1.6336669921875, 0.10516357421875, 0.0514373779296875, 1.6866455078125, 307.8,-676.05) ">
<use xlink:href="#Layer2_9_MEMBER_2_MEMBER_0_MEMBER_15_FILL"/>
</g>

<g transform="matrix( 1.6336669921875, 0.10516357421875, 0.0514373779296875, 1.6866455078125, 307.8,-676.05) ">
<use xlink:href="#Layer2_9_MEMBER_2_MEMBER_0_MEMBER_16_FILL"/>
</g>

<g transform="matrix( 1.6336669921875, 0.10516357421875, 0.0514373779296875, 1.6866455078125, 307.8,-676.05) ">
<use xlink:href="#Layer2_9_MEMBER_2_MEMBER_0_MEMBER_17_FILL"/>
</g>
</svg>
