
<svg xmlns="http://www.w3.org/2000/svg" version="1.1" xmlns:xlink="http://www.w3.org/1999/xlink" preserveAspectRatio="none" x="0px" y="0px" width="1588px" height="828px" viewBox="0 0 1588 828">
<defs>
<g id="Layer4_0_FILL">
<path fill="#20CB86" fill-opacity="0.2980392156862745" stroke="none" d="
M 1407.3 274.3
Q 1392.65 272.05 1377.8 270.35 1348.6 267 1318.95 268 1304.45 268.65 1290.15 270.45 1262.15 273.7 1234.25 277.4 1221.3 279.15 1208.25 280 1164.0994140625 282.8359375 1130.95 278.25 1026.172265625 263.740234375 1031.3 175.05 1030.2 154.35 1015.35 137.6 990.75 111.8 949 101.95 946.35 101.35 943.85 100.55 883.75 84.25 817.3 89.05 725.5 95.55 636.85 115.5 551.68203125 134.5728515625 469 159.35 460.86328125 161.8046875 452.75 164.3 374.0060546875 188.5357421875 302 223.1 292.8962890625 227.509765625 283.9 232.05 202.2 273.3 143.05 333.6 103.45 374.1 79.6 421.7 75.8 431.1 73.4 440.9 69.55 456.7 76.3 471.6 78.9 477.3 83.9 481.95 104.35 500.75 133.8 509.6 162.5 518.3 193.5 519.8 206.65 520.3 219.85 520.8 312.641015625 519.5267578125 293.15 568 288.184375 580.4373046875 275.8 596.15 274.8 597.45 273.75 598.65 259.6 619.65 261.6 643.6 263.4 665.2 287.2 676.5 314.05 689.25 344.4 695.6 369.4 700.85 395.45 700.6 407.05 700.5 418.65 700.75 444.8 701.4 470.55 698.5 500.7 695.4 530.65 691.2 554.25 687.85 577.65 683.6 582.1517578125 682.7955078125 586.65 681.95 609.8275390625 677.78046875 632.9 673.3 637.9564453125 672.33203125 643 671.35 657.729296875 668.4451171875 672.35 665.35 677.0306640625 664.3609375 681.7 663.35 711.7 656.9 741.95 651.65 769.4 646.75 797.05 643.65 829.7 639.35 862.5 641 866.15 641.2 869.6 641.8 919.65 650.75 907.75 676.4 898.95 695.3 896.35 701.6 895.4 703.85 895.3 704.55 892.65 709.95 889.95 716.6 883.6 759.8 1046.1 750 1089.8681640625 747.039453125 1130.95 737.55 1182.8423828125 725.5806640625 1230.45 703.2 1314.05 663.9 1383.45 610.2 1437.9 568.05 1472.6 514.75 1476.45 509.35 1480.2 503.95 1495.35 481.95 1506.3 458.45 1517.05 435.2 1522.55 410.95 1528.25 385.5 1523.75 359.95 1519.25 334 1499 313.4 1484.6 298.75 1463.5 289.95 1436.95 278.85 1407.3 274.3 Z"/>
</g>

<g id="Layer4_1_FILL">
<path fill="#000000" fill-opacity="0.14901960784313725" stroke="none" d="
M 988.1 211.9
Q 988.2 210.9 988.3 209.9 992.2 162.9 971.25 135.3 970.95 134.85 970.6 134.45 970.15 133.85 969.7 133.3 964.05 126.4 956.8 120.7 948.6 114.35 940.95 109.45 932.55 104.1 924.85 100.55 907.65 92.55 893.7 93.55 867.85 95.35 859.8 97.4 856.15 98.55 853.15 99.75 850.05 101.25 843.4 103.35 833.1 107.45 823.8 113.1 821.35 114.55 818.95 116.15 807.8 123.6 798.05 133.3 783.8 147.35 773.8 163.95 759.8 188.85 750.1 215.65 748.8 219.5 744.65 229.5 741.2 238.4 739.5 243.6 738.2 247.55 735.4 256.6 732.25 266.65 727.3 283.3 725.45 288.8 718.85 307.1 718.55 309.2 716.9 310.5 716.55 310.75 716.15 310.95
L 716.1 310.95 713.7 319.65 713.8 323.65 670.7 324.75 581.45 641.3 646.8 684.45
Q 784.6 717.3 918.45 684.05
L 918.45 683.9 1003.2 368.8 965.2 333.35 966.7 328.1
Q 970.65 321.3 971.8 314 975.6 296.85 983.65 257.2 985.6 246.95 986.75 236.8 987.85 224.25 988.1 211.9
M 810.3 180.1
Q 821.5 162.85 839.1 152.8 855.9 143 875.15 142.55 894.3 141.95 910.65 150.85 927.1 160.1 934.1 177.75 940.4 193.3 940.15 209.6 939.85 218.95 938.3 237.05 937.9 241.5 935.95 249.65 934.2 257.35 933.95 261.85 933.9 263.8 932.5 267.1 930.8 270.9 930.55 272.1
L 925.4 290.25 916.3 318.65 763.55 322.45 766.5 314.3
Q 765.7 314.15 764.65 313.7 764.35 310.3 765.25 306.1 765.5 305.65 767.55 298.95 773.9 278.45 779.1 261.55 785.4 241.45 790.2 226.3 795.2 211.15 798.75 202.5 804 189.65 810.3 180.1
M 865.3 650.75
L 865.7 649.95 865.8 650 865.3 650.75
M 866.65 647.9
L 865.5 649.8 865.45 649.75 866.65 647.9 Z"/>
</g>

<g id="Layer3_0_FILL">
<path fill="#118E5B" stroke="none" d="
M 902.45 665.05
L 902.45 664.9 849.8 631 849.3 631.75
Q 717.15 573.65 565.45 622.3
L 630.8 665.45
Q 768.6 698.3 902.45 665.05
M 797.75 651.55
Q 796.65 661.25 778.1 666.05 759.6 670.9 734.45 668 709.35 665.15 692.35 656.3 675.4 647.45 676.5 637.75 677.6 628.05 696.1 623.25 714.65 618.45 739.75 621.3 764.9 624.2 781.85 633 798.85 641.85 797.75 651.55 Z"/>

<path fill="#08643E" stroke="none" d="
M 778.1 666.05
Q 796.65 661.25 797.75 651.55 798.85 641.85 781.85 633 764.9 624.2 739.75 621.3 714.65 618.45 696.1 623.25 677.6 628.05 676.5 637.75 675.4 647.45 692.35 656.3 709.35 665.15 734.45 668 759.6 670.9 778.1 666.05
M 767.2 659.15
Q 758.2 662.65 746.3 661.3 734.35 659.95 726.45 654.5 718.5 649 719.2 642.65 719.95 636.3 728.9 632.7 737.85 629.15 749.8 630.5 761.7 631.85 769.65 637.35 777.6 642.85 776.85 649.2 776.15 655.55 767.2 659.15 Z"/>

<path fill="#054F31" stroke="none" d="
M 746.3 661.3
Q 758.2 662.65 767.2 659.15 776.15 655.55 776.85 649.2 777.6 642.85 769.65 637.35 761.7 631.85 749.8 630.5 737.85 629.15 728.9 632.7 719.95 636.3 719.2 642.65 718.5 649 726.45 654.5 734.35 659.95 746.3 661.3 Z"/>

<path fill="#EC777A" stroke="none" d="
M 849.8 631
L 849.5 630.8 849.7 630.95 849.8 631 Z"/>

<path fill="#20CB86" stroke="none" d="
M 949.2 314.35
L 935.6 301.7
Q 934.5 302.05 933.5 302.45
L 850.65 628.9 849.5 630.8 849.8 631 902.45 664.9 987.2 349.8 949.2 314.35 Z"/>

<path fill="#56E5AB" stroke="none" d="
M 789.95 330.75
Q 715.35 333.25 654.7 305.75
L 565.45 622.3
Q 717.15 573.65 849.3 631.75
L 849.7 630.95 849.5 630.8 849.45 630.75 850.65 628.9 933.5 302.45
Q 914.25 308.85 895.8 313.95 839.7 329.05 789.95 330.75 Z"/>

<path fill="#CCCCCC" stroke="none" d="
M 972.1 192.9
Q 972.2 191.9 972.3 190.9 976.2 143.9 955.25 116.3 954.95 115.85 954.6 115.45 954.15 114.85 953.7 114.3 948.05 107.4 940.8 101.7 932.6 95.35 924.95 90.45 916.55 85.1 908.85 81.55 891.65 73.55 877.7 74.55 851.85 76.35 843.8 78.4 840.15 79.55 837.15 80.75 834.05 82.25 827.4 84.35 817.1 88.45 807.8 94.1 805.35 95.55 802.95 97.15 791.8 104.6 782.05 114.3 767.8 128.35 757.8 144.95 743.8 169.85 734.1 196.65 732.8 200.5 728.65 210.5 725.2 219.4 723.5 224.6 722.2 228.55 719.4 237.6 716.25 247.65 711.3 264.3 709.45 269.8 702.85 288.1 702.55 290.2 700.9 291.5 700.55 291.75 700.15 291.95
L 700.1 291.95 697.7 300.65 697.8 304.65 747.55 303.45 750.5 295.3
Q 749.7 295.15 748.65 294.7 748.35 291.3 749.25 287.1 749.5 286.65 751.55 279.95 757.9 259.45 763.1 242.55 769.4 222.45 774.2 207.3 779.2 192.15 782.75 183.5 788 170.65 794.3 161.1 805.5 143.85 823.1 133.8 839.9 124 859.15 123.55 878.3 122.95 894.65 131.85 911.1 141.1 918.1 158.75 924.4 174.3 924.15 190.6 923.85 199.95 922.3 218.05 921.9 222.5 919.95 230.65 918.2 238.35 917.95 242.85 917.9 244.8 916.5 248.1 914.8 251.9 914.55 253.1
L 909.4 271.25 900.3 299.65 932.55 298.9 934.05 300.3 933.5 302.45
Q 934.5 302.05 935.6 301.7
L 949.2 314.35 950.7 309.1
Q 954.65 302.3 955.8 295 959.6 277.85 967.65 238.2 969.6 227.95 970.75 217.8 971.85 205.25 972.1 192.9
M 943.75 127.45
Q 949.494140625 134.9546875 953.9 157.85 958.317578125 180.7359375 952.15 221.6 945.9765625 262.51875 936.95 241.45 935.76640625 235.393359375 941.55 191.65 947.3376953125 147.9046875 922.3 127.7 897.2541015625 107.547265625 888.3 106.55 844.9734375 96.3048828125 862.3 89.65 911.4 85.35 943.75 127.45 Z"/>

<path fill="#E0E0E0" stroke="none" d="
M 953.9 157.85
Q 949.494140625 134.9546875 943.75 127.45 911.4 85.35 862.3 89.65 844.9734375 96.3048828125 888.3 106.55 897.2541015625 107.547265625 922.3 127.7 947.3376953125 147.9046875 941.55 191.65 935.76640625 235.393359375 936.95 241.45 945.9765625 262.51875 952.15 221.6 958.317578125 180.7359375 953.9 157.85 Z"/>

<path fill="#F0C2C3" stroke="none" d="
M 932.55 298.9
L 933.5 302.45 934.05 300.3 932.55 298.9 Z"/>

<path fill="#97F3CE" stroke="none" d="
M 697.8 304.65
L 654.7 305.75
Q 715.35 333.25 789.95 330.75 839.7 329.05 895.8 313.95 914.25 308.85 933.5 302.45
L 932.55 298.9 900.3 299.65 747.55 303.45 697.8 304.65 Z"/>
</g>

<g id="Layer3_1_FILL">
<path fill="#CCCCCC" stroke="none" d="
M 379.7 606.55
L 369.45 602.7 326.1 586.25 317.3 608.6 359.15 624.5 370.2 628.7 379.7 606.55
M 339.05 553.3
L 331.6 572.3 376.05 588.55 385.95 592.2 395.9 569.15 386.35 566.5 339.05 553.3
M 354.25 514.65
L 346.15 535.15 393.4 551.5 402.15 554.5 411 534.1 402.85 531.3 354.25 514.65
M 397.15 365.5
Q 397.6 365.45 398.05 365.4 402.8 365.2 407.45 366.05 411.9 366.9 415.1 369.8 416 370.6 416.75 371.65 417.1 372.25 417.55 372.8 418.25 373.65 418.4 374.75 418.5 375.6 418.85 376.35 419.2 377 419.15 377.6 419.1 378 419.1 378.45 419.2 380.7 419.4 383 419.45 383.4 419.4 383.7 419.35 384.15 419.25 384.6
L 379.45 481 392.8 485.65 434.55 386.6
Q 434.75 383.35 434.05 379.95 433.5 377.5 432.75 375.15 432.55 374.7 432.35 374.15 431.7 372.45 430.75 370.8 430.4 370.1 429.95 369.5 428.85 367.95 427.75 366.6 427.4 366.15 427.1 365.65 426.5 364.5 425.25 363.65 424.9 363.5 424.75 363.2 423.65 361.65 422.25 360.7 421.85 360.45 421.5 360.15 421 359.5 420.25 359.15 417.85 358.05 415.6 356.6 415 356.25 414.3 355.95 409.9 354.25 405.25 353.85 400.65 353.55 395.85 354.15 395.6 354.15 395.25 354.2 392.85 354.65 390.5 355.3 389.75 355.5 388.95 355.65 384.3 356.8 379.65 358.25 377.35 358.95 375.45 360.5 374.8 361.05 374.05 361.5 372.45 362.35 371.25 363.6 369.6 365.3 367.6 366.7 366.55 367.45 365.7 368.35
L 326.6 462.35 329.45 463.45 337.7 466.45 371.9 387.5
Q 372.05 387.35 372.15 387.15 372.4 386.8 372.6 386.3 374.25 382.5 376.75 379.15 379.6 375.4 382.85 372.3 383.35 371.85 383.85 371.55 386.05 370.25 388.25 368.95 390.5 367.6 393.05 366.7 395 366 397.15 365.5 Z"/>

<path fill="#999999" stroke="none" d="
M 277.85 495.65
L 246.55 575.35 252.35 609 330.7 640.45 358.7 625.65 359.15 624.5 317.3 608.6 326.1 586.25 369.45 602.7 376.05 588.55 331.6 572.3 339.05 553.3 386.35 566.5 393.4 551.5 346.15 535.15 354.25 514.65 402.85 531.3 411.3 513.3 395.75 486.65 392.8 485.65 379.45 481 337.7 466.45 329.45 463.45 277.85 495.65 Z"/>
</g>

<g id="Layer3_2_FILL">
<path fill="#C9C9C9" stroke="none" d="
M 687.95 546.2
Q 685.25 546.3 682.75 546.9 678 548.05 673.45 551 672.25 553.55 674.45 555.55 675.5 556.5 677.5 556.6 678.15 556.65 678.8 556.6 680.15 556.5 680.1 557.7 678.15 557.75 676.65 559 676.45 559.25 676.15 559.4 673.6 561.25 670.85 563.15 668.7 564.65 666.75 566.55 666.2 567.1 665.6 567.6 662.9 570.25 661 573.4 660.75 573.85 660.4 574.1 659.6 574.7 659.35 576.05 658.95 578.6 659.7 580.8 659.9 581.25 660.2 581.55 662.1 583.4 664.85 584.8 665.1 584.95 665.3 584.95 669.2 585.15 673.15 585 679.7 584.8 685.4 581.75 686 581.45 686.65 581.35 688.35 581.1 689.8 580.05 692.25 578.2 695.05 576.15 698 574.05 700.55 576.5 701.55 577.4 702.05 578.5 702.8 580.05 702.65 581.65 702.45 583.3 703.2 583.85 704.1 583.85 704.5 583.4 704.75 583.2 705 583.1 706.85 582.7 708.55 581.8 708.9 581.65 709.2 581.45 711.15 580.45 713.25 579.55 713.9 579.3 714.45 578.9 716.1 577.75 717.5 576.35 717.8 576 718.15 575.7 719.5 574.45 719.2 571.65 719.15 571.2 718.95 570.8 718.1 568.9 717.7 566.85 717.6 566.45 717.4 566.1 716.2 564 715.4 561.65 714.1 557.8 711.5 554.2 709.4 551.3 705.8 549.9 705.15 549.65 704.65 549.25 702.45 547.7 699.75 546.8 699.1 546.6 698.4 546.5 694 545.75 689.25 546.1 688.6 546.2 687.95 546.2
M 810.95 442.55
Q 810.6 442.3 810.3 441.95 807.95 439.2 806.3 436.25 806.05 435.75 805.6 435.3 802.5 431.8 799.85 428.8 797.4 425.95 795.2 423.5 793.15 421.25 791.6 418.35 790.45 416.15 789.6 413.9 789 412.2 788.2 410.85 787.45 409.55 786.7 408.9 786.45 408.7 786.05 408.85 784.45 409.5 783.6 411.25 783.4 411.8 782.9 412.15 779.2 415.4 774.6 417.8 772.2 419.05 769.5 420.2 765.8 421.85 762.05 423.25 759.6 424.15 757.35 425.05 754.85 426.05 752.4 427.35 751.8 427.7 751.15 427.9 748.5 428.8 745.8 429.35 742.75 437.05 741.75 441.35 741.55 442.3 741.3 443.2 740.65 445.95 739.35 448.35 738.35 450.35 737.9 452.65 737.65 453.85 737.4 454.95 737 456.55 736.1 457.3 735.9 457.5 735.55 457.35 733.6 456.45 731.85 455.05 731.2 454.55 730.05 453.8 729.8 453.6 729.4 453.45 729.15 453.4 728.9 453.15 727.5 451.85 725.05 452.45 724.8 452.5 724.6 452.75 723.45 454.5 723.6 457.5 723.7 458.6 723.9 459.65 724.1 460.6 724.45 461.5 727.65 469.15 731.55 476.7 733.45 480.4 734.8 484.15 735 484.75 735.2 485.35 735.65 487 736.3 488.45 737.7 491.6 738.65 494.95 738.95 495.85 739.35 496.7 740.65 499.45 741.35 502.35 741.55 503.05 741.85 503.75 744.1 508.7 747.5 512.95 748.3 513.9 748.85 515.05 749.05 515.55 749.75 515.95 751.05 516.75 752.35 517.8 753.45 518.7 755.15 519.65 758.35 521.4 762.45 522.4 757.45 524.65 753.6 528.85 753.1 529.4 752.55 529.95 752.2 530.3 751.85 530.55 752.55 534.65 753.9 538.5 754.2 539.2 754.45 539.9 756.35 544.4 759.2 548.25 759.65 548.8 760 549.35 760.75 550.3 761.4 551.3 761.8 551.85 762.2 552.35 762.45 552.7 762.8 553 763.15 553.35 763.45 553.75 765.05 555.8 767.15 557.4 769.6 559.35 772.55 560.2 772.95 560.3 773.35 560.35 777.7 560.6 781.65 559.55 782.05 559.45 782.5 559.35 788.55 558.05 792.95 553.35 796.15 549.95 798.1 545.9 799.7 542.55 801.8 539.5 804.5 535.55 805.35 531.2 805.55 530.2 805.8 529.75 806 529.4 806.15 529 806.25 528.75 806.3 528.45 806.85 526.4 804.7 526.2 804.3 526.15 803.85 525.95 802.7 525.5 801.75 524.5 801.45 524.2 801.15 523.85 800.05 522.7 798.75 521.8 798.4 521.55 798.05 521.25 796.55 519.85 795.3 518.35 794.7 517.65 794.3 516.75 793.25 514.25 794.25 511.55 795.5 508.25 798.05 505.7 799.1 504.7 799.65 503.3 799.95 502.6 800.35 501.95 802.55 498.55 804.7 495 806.15 492.6 807.25 490.15 808.3 487.9 809.85 486.2 811.1 484.85 812.6 483.25 815.2 480.5 819.15 479.4 826.55 477.3 834 472.95 836.45 471.5 838.25 469.3 839.75 467.5 840.3 465.3 840.8 463.2 839.05 462.55 838.5 462.3 837.8 462.2 834.35 461.55 830.4 461.9 827.55 462.2 825.15 463 824.55 463.2 823.95 463.4 822.4 463.9 820.85 464 820.2 464.05 819.55 464.2 819.1 464.3 818.65 464.5 818.8 463.3 819.4 462.25 820.25 460.8 819.95 458.8 819.7 457.3 819.7 455.75 819.7 453.9 818.3 452.6 818 452.3 817.75 451.85 816.75 450.15 815.7 448.75 815.1 447.9 814.5 446.95 814.3 446.65 814.1 446.35 813.85 446 813.55 445.6 813 444.9 812.4 444.1 811.75 443.2 810.95 442.55 Z"/>
</g>

<g id="Layer3_3_FILL">
<path fill="#20CB86" stroke="none" d="
M 1129.7 393.85
Q 1124.95 394.05 1122.6 394.35
L 1062.25 405.8
Q 1066.3 419.45 1075.95 448.35 1085.25 476.3 1091.9 500.3
L 1091.6 500.35 1099.9 529.3
Q 1105.95 551.25 1107.6 557.55 1110.05 568.25 1115.15 589.4 1116.1 594.2 1120.4 618.6
L 1120.65 619.4 1221.6 600 1221.45 599.2 1262.6 591.1 1260.2 582.15
Q 1255.25 562.25 1252.5 552.4 1250.75 546.7 1249.35 541.55 1243.7 522.05 1240.75 511.1 1239.45 506.6 1237.35 497.75 1235.2 488.75 1233.45 482.75 1231.6 476.3 1228.45 465.55 1224.3 452.5 1223.05 448.2 1220.65 439.05 1219.15 433.5 1218.65 431.4 1218.2 429.8
L 1208.05 392.9
Q 1205.9 385.85 1205.1 382.3 1203.8 382.4 1199.9 382.7 1197.1 382.85 1195.35 383.2
L 1160.25 389.1
Q 1138.65 393.05 1136.9 393.3 1134.55 393.7 1129.7 393.85 Z"/>
</g>

<g id="Layer3_4_FILL">
<path fill="#CCCCCC" fill-opacity="0.4980392156862745" stroke="none" d="
M 1160.25 436.45
Q 1149.55 429 1134.45 429 1119.35 429 1108.65 436.45 1097.95 443.95 1097.95 454.5 1097.95 465.05 1108.65 472.5 1119.35 480 1134.45 480 1144.5169921875 480 1152.6 476.65 1157.0984375 481.01875 1161.45 484.6 1161.95 485 1162.1 485.95 1163 491.05 1158.95 494 1162.2 495.65 1165.9 496.35 1171.5 497.5 1174.25 502.85 1175.6 505.6 1176.3 507.9 1176.45 508.5 1176.65 509.1 1177.9 512.95 1173.9 512.6 1172.95 512.5 1171.9 512.75 1168.55 513.5 1166.45 516.35 1165.95 517 1166.05 518 1166.65 523.35 1172.9 522.7 1174.95 522.5 1176.95 522.05 1179.95 521.4 1182.95 521 1182.95 521.5 1182.9 522 1182.7 525.1 1180 527.1 1179.45 527.5 1178.95 528 1179.8 530.4 1182.95 530.95 1189.8 532.1 1189.5 539.05 1189.45 540 1189.2 540.75 1188.95 541.5 1188 542.1 1183.75 544.65 1189.1 546.55 1190.45 547 1191.8 547.45 1198.15 549.5 1204.9 549.95 1205.95 550 1207.05 550.85 1209.7 552.8 1213.05 553.35 1213.95 553.5 1214.65 552.75 1219.75 547.35 1217.35 539.85 1216.6 537.45 1215.5 535.2 1214.95 534 1214.05 532.95 1207.55 525.45 1203.55 517.2 1202.95 516 1202.15 514.85 1195.8 505.7 1189.65 496.2 1184.75 488.65 1180.9 481.05 1179.9 479.1 1178.45 477.55 1177.95 477 1177.65 476.1 1177.45 475.5 1177.1 474.9 1173.95 469.5 1170.6 464.25 1169.9826171875 463.26796875 1169.3 462.3 1170.95 458.639453125 1170.95 454.5 1170.95 443.95 1160.25 436.45
M 1136.9 439.35
Q 1139.95 440 1142.75 441.4 1143.95 442 1145.15 442.3 1147.2 442.8 1147.25 445 1147.4 448.95 1145.8 450.9 1142 455.6 1135.95 455.1 1131.05 454.7 1128.05 452.85 1127.45 452.5 1126.85 452.25 1124.1 451.15 1124.4 447.05 1124.45 446 1124.45 445 1124.37265625 442.7166015625 1125.4 441.1 1130.4544921875 437.957421875 1136.9 439.35 Z"/>
</g>

<g id="Layer2_0_MEMBER_0_FILL">
<path fill="#000000" stroke="none" d="
M 992.95 372.95
Q 991.5 369.05 986.95 365.7 983.1 363 955.7 342.35 956.95 338.9 957.3 336.95
L 961.75 313.35 968.35 261.75
Q 969.85 251.4 969.35 241.35 969.25 236.05 968.25 228.45 967.212109375 220.3361328125 966.7 216.05
L 966.95 216.05
Q 966.89375 200.2927734375 963.1 186.05 956.861328125 162.4146484375 940.3 143.05 936.43125 138.5255859375 932 134.2 929.1185546875 131.4416015625 926 128.75 923.524609375 126.621875 920.9 124.55 910.22578125 116.1236328125 899 110.85 894.32265625 108.6869140625 889.55 107.05 885.3287109375 105.60234375 881 104.55 852.774609375 97.9001953125 821.25 109.85 819.1353515625 110.6818359375 817 111.55 805.348828125 116.4642578125 794.1 122.4 788.29921875 125.3361328125 783 128.65 777.199609375 132.2978515625 772 136.4 747.9 157.15 733.15 185.55 721.1 209.4 714.95 234.45 710.3 253.15 701.95 290.75 699.25 302.3 697.5 317.05 696.55 324.9 694.8 343.6 694.8 345.95 695.55 347.75
L 695.65 347.9
Q 697.75 348 699.1 346.65 700.6 345.2 700.7 343.1 705.15 324.2 706.35 318.5 712.15 286.2 714 277.7 715.1 272.3 717.55 263.1 720.5 252.65 721.35 248.7 728 220.95 739.05 194.65 747.15 177.05 759.7 161.45 770.101171875 148.4111328125 783 138.45 791.617578125 131.816796875 801.35 126.55 807.75 123.75 810.7 121.9 813.5138671875 120.326171875 817 118.8 824.7490234375 115.847265625 850.25 111.15 863.9890625 108.622265625 882 114.55 890.07109375 117.23359375 899 121.6 907.1322265625 125.5849609375 915.95 130.95 924.484375 136.161328125 931.25 143.05
L 932 143.05 932 143.8
Q 942.8490234375 155.1947265625 949.05 171.05 949.9748046875 174.2125 950.8 177.55 958.15 209.65 958.9 242.95 958.9 253.15 958.15 263.6 954.6 303.9 952.75 321.35 952.4 329.45 948.6 337.35
L 930.15 322.85 899.45 325.8
Q 901.25 318.4 902.85 309.9
L 907.05 284.35
Q 907.15 283.15 908.4 279.2 909.4 275.75 909.25 273.8 909 269.35 909.85 261.5 910.85 253.15 910.75 248.7 910.25 230.55 909.5 221.2 907.9 204.95 899.9 190.2 890.95 173.5 873.6 166.15 856.3 159.15 837.35 161.95 818.3 164.55 802.7 176.2 786.35 188.15 777.15 206.55 772 216.75 768.2 230.15 765.7 239.15 762.4 254.75 756.75 283.5 748.15 329.45 746.8 336.35 746.65 336.85 746.2 341.15 746.9 344.45 749.4 345.2 750.5 344.6 751.6 343.85 752.35 341 754.65 331.3 755.25 329.45 760.95 311.15 762.9 301.95 764.85 292.85 767.95 276.85 771.25 259.05 772.75 252.05 774.7 244.8 775.65 241.1 781.95 218.75 783.65 214.05 792.4 190.2 814.4 176.7 832.1 165.75 853.2 167.1 865.75 167.5 875.35 175.1 893.05 188 898.7 212.2 904.6 242.35 901.65 273.4 900.4 284.1 897.85 299.85 896.5 308.55 893.55 326
L 786.1 343.25 651.9 362.65
Q 650.7 362.65 649.7 363.4 649.7 364.5 649.95 367.55 650.1 369.9 649.95 371.25
L 647 392.9
Q 644.05 411.55 637.9 448.65
L 628.1 510.85
Q 623.15 540.6 622.9 542.05 622.55 544.55 619.1 570.45 616.75 587.55 614.95 598.6 611 623.2 601.8 671.6 600.65 677.5 598.7 690.3
L 605.45 695.7 627.85 707.25
Q 630.65 708.7 643.8 715.2 653.75 720 659.8 723.45 671.2 730.35 684.6 731.3 693.1 731.7 709.95 732.8 724.8 733.55 735.25 733.05
L 748 733.05
Q 757.1 732.9 775.45 732.8 791.15 732.45 802.6 730.6
L 838.95 727.4 869.45 722.5
Q 879.15 720.9 887.4 719.05 900.8 716.35 912.45 713 923.5 710.3 933.35 705.9
L 943.9 700.7 948.6 665.8
Q 948.95 661.4 949.2 659.2 949.55 655.25 951.05 652.55 952.4 649.7 953.15 645.9 953.6 641.35 954 639.05 958.4 605.5 960.9 588.4
L 964.8 564.55
Q 969.85 532.1 971.7 520.55
L 980.3 458.85
Q 983.1 440.3 985.7 425.2 990.6 396.7 993.3 382.45 994.45 376.9 992.95 372.95
M 679.45 373.35
Q 674.9 372.85 670.6 371.1
L 759.6 357.6
Q 771.35 355.9 794.7 351.7
L 914.9 335 918.1 335.25 918.1 336.2 895.75 345.55
Q 878.9 352.95 856.8 358.45 843.65 361.8 816.6 366.95 795.95 371 767.7 374.8 762.9 375.55 755.75 375.9 747.8 376.3 743.85 376.55
L 721.5 377.5
Q 699.85 377.9 679.45 373.35
M 659.15 377.5
L 659.9 374.55
Q 677.85 378.25 692.1 380.45 697 381.2 703.9 381.55 707.85 381.8 715.7 382.2
L 735.75 382.2
Q 744.85 381.95 746.55 381.8 752.55 381.55 760.3 380.7 767.45 379.95 778 378.35 783.9 377.4 795.6 375.55 806.15 373.95 830.35 369.4
L 877.05 358.1
Q 895.6 352.2 912.2 343.85 917.85 341.4 929.15 335.75 927.95 342.5 926.95 353.9 926.7 356.15 926.2 365.35 925.75 372.35 925 378
L 921.05 407.75
Q 919.35 420.3 916.4 445.1 915.75 450.15 914.2 458.4 912.45 467.95 911.45 474.1 909.5 487.15 906.05 513.7 903.85 529.15 901.15 545.15 899.9 552.25 897.95 566.5
L 885.65 656.95 884.2 664.1 849.55 652.55
Q 835.9 648.15 809.95 646.65 788.8 645.05 764.75 646.4 744.95 647.5 719.75 650.85 680.3 656.6 643.3 670 636.95 672.2 626.35 676.5 612.95 681.9 608.65 683.5
L 609.15 677.85
Q 612.45 660.4 614.2 651.55 617.15 636.1 619.7 625.5 622.3 615.05 624.75 599.45 627.6 581.75 629.05 572.9 630.05 566.75 631.65 553.5 633.1 540.6 634.6 532.1 640.5 500.15 643.2 484.2 644.05 479.9 645.3 471.15 646.5 462.45 647.25 458.15 652.55 424.2 654.25 412.4 656.7 396.3 659.15 377.5
M 928.9 383.05
Q 930.4 370 930.75 360.3 931.15 355.25 932.5 348.15 934.1 339.65 934.8 335
L 984.35 373.1
Q 983 382.45 979.9 400.15
L 968.35 473.85
Q 956.35 552.25 955.85 555.95 950.55 588.5 947 615.2 946.6 617.9 938.9 681.3 938.5 684.75 936.65 692.35
L 889.25 664.6
Q 890.95 647.65 892.2 639.05
L 899.55 592.6
Q 900.9 583.35 903.25 565.65 905.55 547.35 906.95 538.5 907.05 538 912.35 505.1 913.2 499.9 914.2 492.3 915.55 481.75 916 477.8 920.45 453.2 921.65 444.1 922.4 438.95 923.15 430.5 924 419.9 924.4 416.85
L 925.85 405.8
Q 927.95 390.65 928.9 383.05
M 739.3 655
Q 748.4 654.25 761.05 653.65 768.3 653.3 782.8 652.55 810.6 651.45 837.1 656 847.45 658.2 855.8 660.9
L 868.1 665.1
Q 879.4 668.55 889.6 672.95 902.6 679.6 928.2 693.85
L 930.9 696.05
Q 917.15 701.2 910.5 702.95 884.95 709.35 871.9 711.8 847.95 715.95 816.85 720.15 790.4 723.2 772.35 723.85 747.8 724.8 713.35 724.3 707.35 724.3 697.4 723.7 684.25 722.95 682.4 722.85 676.25 722.7 669.5 720.25 664.95 718.65 657.35 715
L 608.15 690.65
Q 620.1 684.15 636.8 678.25 646.4 674.9 665.3 668.75 675.9 666.05 686.95 664.35
L 699.5 660.9
Q 719.25 656.5 739.3 655 Z"/>
</g>

<g id="Layer2_0_MEMBER_1_FILL">
<path fill="#000000" stroke="none" d="
M 308.65 713.65
Q 306.75 714.55 305.15 715.75 300.15 719.55 304.15 724.85 305.1 726.1 306.75 727 307.75 727.55 309.75 728.25 315.6 730.15 319.6 730.95 325.1 732 329.85 731.75
L 333.85 731.35
Q 342.1 731.2 349.25 727.65 351.8 726.55 353.05 724.15 353.85 722.3 354.25 720.7 353.8 717.9 351.55 716.05 344.8 710.45 335.95 710.15 333 710.05 328.75 710.25 324 710.55 321.65 710.65 315.05 710.95 308.65 713.65
M 306.65 717.6
Q 307.75 716.7 310.15 715.75 316.85 712.8 324.25 712.55 332.9 712.2 335.5 712.35 339.25 712.45 342.7 713.75 343.35 714.05 346.1 715 348.2 715.75 349.8 716.55 351.85 717.55 352.15 719.15 352.45 720.75 351.1 722.65 349.75 724.65 347.6 725.4 340.05 728.55 331.95 729.15 323.85 729.75 316 727.7
L 312.25 726.8
Q 308.4 725.95 305.5 723.3
L 304.75 721.05
Q 305 718.95 306.65 717.6 Z"/>
</g>

<g id="Layer2_0_MEMBER_2_FILL">
<path fill="#000000" stroke="none" d="
M 318.4 722.7
Q 319.5 723.35 323.85 723.5 326.85 726.05 334.1 726.1 341.3 726.2 344.55 723.7 345.3 721.25 345.1 720.25 344.9 719.1 343.25 717.5 342.35 716.2 341.85 715.5 337.9 712.95 331.6 714.05 325.3 715.15 322.55 719
L 317.45 719.7
Q 317.3 722.05 318.4 722.7
M 330.65 716.4
Q 333.85 716 337.55 715.9 340.15 716.05 341.75 717.9 342.7 718.95 344 719.9 343.8 720.55 343.35 722.7 336.3 725.2 327.25 723.2 331.35 722.4 333.45 722.15 336.9 721.75 339.85 722.1
L 339.35 719.8
Q 336.9 718.5 333.15 718.55 328.8 718.8 326.55 718.7 328.25 716.8 330.65 716.4 Z"/>
</g>

<g id="Layer2_1_FILL">
<path fill="#000000" stroke="none" d="
M 777.6 578.65
Q 775.9 577.5 774 577.8 773.95 592.6 774 594.5 773.75 600.95 778.4 605.7 782.8 609.45 788.65 610.65 794.4 611.8 800.05 610 802.4 608 803.1 607.2 800.45 605.85 797.6 605.3
L 793.9 605.85
Q 787.75 606.55 784.55 604.15 781.5 601.7 780.65 595.8 780.45 594.4 780.4 590.1 780.1 585.25 779.65 582.55
L 779.55 581.9
Q 779.25 579.95 777.6 578.65
M 801.75 565.25
Q 800.9 567.3 800.95 567.4 807.8 583.7 815.5 606.55 819.9 619.7 828.25 646.15
L 829.85 645.9
Q 831.3 633.45 830.15 629.75
L 826.95 620.4
Q 816.75 590.95 811.2 576.4 809.65 572.2 808 569.85 805.45 566.6 801.75 565.25
M 751.1 572.45
Q 750.9 572.15 750.5 571.8 749.65 573.95 748.1 577.1 740.5 592 740.4 597.75 740.6 601.3 742.55 604.1 743.15 604.85 743.85 605.5 749.95 611.7 758.95 612.3 761.6 612.65 763.85 611.5 766 610.4 767.25 608.4 760.5 607.55 759.95 607.7 758.7 608 756.7 607.15 754.65 606.3 751.85 604.75 748.65 602.85 747 601.9 747.35 595.3 747.8 592.2
L 751.05 577.25
Q 751.75 573.55 751.1 572.45
M 798.7 394.05
Q 785.7 387.95 772.2 393.35 768.35 394.6 765.25 396.5 755.25 402.15 754.6 402.65 749.2 406.55 744.65 413.8 731.9 433.75 730.8 450.5
L 729.6 454.4 722.85 447.3 718.4 450.1
Q 716.05 455.5 719.55 460.2 721.05 462.85 723.85 468.4 724.35 469.45 727.25 473.85
L 729.9 472.1
Q 731.1 477.25 733.2 486.95 737.45 500.15 739.85 504.6 744.75 513.75 753.5 518.05 753.05 518.45 752.25 519.8 751.65 520.7 751.05 521 741.15 529.2 735.45 546.35 732.25 555.75 731 572.95 730.4 579.55 728.6 593.15 725.8 591.1 724.25 588 724 587.65 722.05 582.75 717.85 571.8 715.7 566.25 711.95 556.45 708.2 550.4 707.15 548.45 705 546.5 696.25 539.85 685.65 540.05 675.8 540.25 666.95 546.2
L 664.05 550.15 671.95 553.55
Q 663.7 560.1 655.9 567.15 647.2 578.95 658.4 583.25 663.55 585.75 670.7 584.8 676.15 583.95 680.9 581.5 685.65 579.15 695.2 573.2 698.2 582.75 699.1 585.9 702.3 597.3 704.45 602.8 707.95 611.9 712.75 618.3 714.1 620.55 715.75 622 722.6 627.6 731.4 624.4 740.15 621.3 742.25 612.7 742.25 610.35 741.45 607.9
L 728.8 618.8
Q 725.5 621.75 721.25 620
L 720.1 618.5
Q 709.4 603.4 704.95 585.25 703.35 579.5 702.15 576.55 700.3 572 697.75 569.1 693.6 568.7 692 569.2 690.55 569.5 686.95 571.7
L 676.35 577.1 670.35 578.6 681.95 571.35
Q 684.2 569.95 685.25 569.15 687.15 567.7 687.35 565.6 683.55 565.8 677.7 569.3 671.5 572.85 662 577.95
L 677.9 565.9 678.6 565.45
Q 679.25 564.75 679.1 563.75 679.1 562.8 678.4 562.05
L 657.6 575.6 660.2 570.1
Q 670.3 561.5 670.7 561.2 673.45 559.1 676.35 557.85 679.75 556.3 683.35 555.95 683.25 552.3 679.2 551.5 674.15 550.5 673.2 548.9 678.25 545.55 684.2 544.6 690.2 543.65 695.95 545.3 701.9 546.7 704.35 552.15 706.6 557.2 711 566.75 712.25 569.6 719.35 587.85 720.55 590.95 723.65 594.4 725.35 596.4 728.9 600.3 730.7 601.55 732.8 601.6
L 734.15 591.35
Q 736 578.65 736.4 572.3 737 559.85 740.5 546.95 742.4 541.5 743.6 539.1 745.65 534.9 748.55 532.6
L 757.35 547.55
Q 760.15 552.7 765.15 555.9 770.1 559.1 776.05 559.55 779.6 560.35 782.8 558.25 788.4 554 791.05 551.6 795.5 547.5 797.65 543.1
L 804.55 528.9
Q 806.9 532.1 809.15 536.1 821.95 560.8 829.2 587.8 834.65 609.55 839.25 625.6 840.75 632.85 844 638.4 845.25 637.8 845.2 637.55 845.45 631.45 845.55 628.35 845.6 623 844.9 619.35 842.8 610.15 839.05 597 834.9 582.25 832.75 574.9 830.7 568.2 827.9 562.1
L 819.55 540.55
Q 819.65 539.8 820.05 539.3 830.8 538.3 839.1 531.4 845.4 527.6 847.9 520.45 850.2 512.3 846.85 502.6 843.5 493 836.45 488.15 830.6 484.2 823.2 481.85 819.85 480.4 816.1 481.85 817.3 484 819.35 485.15 821.4 486.5 823.65 486.45 830.45 488 835.35 496.55 840.05 504.65 839.6 512.15 839.15 518.8 835.1 523.85 831.8 528.05 825.4 531.65 822.9 533.5 821.55 534.15 819.35 535.25 817.45 534.8 810.05 525.95 806.35 522.1 803.5 518.65 799.4 517 795.15 515.3 790.8 515.7
L 800.85 524.6
Q 800.45 525.6 799.6 528.55 798.8 531.1 798.1 532.5 792.55 544.05 782.95 551.9 778.75 555.5 773.65 555.25 768.5 555.15 765.1 550.95 760.4 545.1 755.65 536.85 754.55 535.05 750.95 527.8
L 760.7 520.2
Q 766.6 521.6 772.65 519.95 777.7 518.6 783.85 514.7 784.1 519.65 785.35 524.25
L 785.6 525.1
Q 786.6 527.35 788.65 528.05 790.85 528.85 792.95 527.9 788.7 523.35 789.8 517 790.05 516.2 790.3 515.5 792.2 509.35 792.85 506.25 807.35 491.75 811.8 479.05 813.35 478.6 814.85 478.15 822.25 475.6 828 471.65 835.05 467.05 837.7 461.9 836.4 458.8 834.35 457.5 832.4 456.25 827.3 455.1
L 820.45 457.35
Q 820.55 457 821 450.55 821.2 446.65 821.15 444.2 822.4 428.7 816.95 413.7 811.4 400.1 798.7 394.05
M 813.85 438.55
L 813.8 441.35
Q 813.45 442.6 812.95 443.15 810.95 441.3 809.8 439.2 808.85 437.8 799.45 426.8 793 419.35 790.95 413
L 787.65 400.9 786.6 400.25
Q 785.1 399.45 783.4 400 781.75 400.45 781 401.95 778.95 405.2 775.2 408.05 773.7 409.1 768.2 412.35 759.6 417.45 751.6 420.85 751.2 421.15 749.85 420.85 755.35 412.1 763.8 405.95 772.25 399.95 782.4 397.5 782.65 397.45 782.85 397.4 791.9 395.15 799.15 399.95 805.75 404.25 808.65 412.75 813.4 425.1 813.85 438.55
M 812.95 451.1
Q 812.95 453.85 812.15 456.8 804.7 479.6 803.65 482.35 799.45 493.05 790.75 500.75
L 780.05 510.4
Q 774.55 515.7 766.8 516.65 758.05 517.85 753.5 515 749.5 512.65 745.05 504.65 737.7 489.75 736.35 472.95 735.5 466.85 736.25 458.9 736.4 456.5 737.8 445.15 739.65 436.85 742.4 428.6
L 742.5 428.55
Q 747.75 428.75 753.6 426.25 756.9 424.75 763.4 421.25 767.3 419.4 773.05 415.8 781.15 410.8 782.6 409.85 785.95 419.95 795.7 431.5 801.3 438.1 812.95 451.1
M 817.85 465.4
Q 824.75 460.9 826.5 460.2 828.3 459.75 831.9 460.65 829.1 464.25 824.75 467.5 819.45 470.9 816.9 472.6
L 815.8 471.85 817.85 465.4
M 722.8 452.2
L 728.65 457.8
Q 729.35 460.4 729.4 462.8 729.8 465.1 728.85 467.1 728.6 465.75 725.05 460.45 722.3 456.4 722.8 452.2
M 781.75 476.85
L 782 478.2 795.1 474.35
Q 787.7 472.45 781.75 476.85
M 777.4 473.45
Q 779.9 472.75 785.3 471.35 790.35 470.1 794.3 468.6 783.15 466.75 777.4 473.45
M 785.25 461.65
Q 787.1 461.8 788.6 459.3 790.05 456.9 790.35 453.35 790.55 449.7 789.35 447.1 788.25 444.4 786.35 444.35 784.6 444.2 783.1 446.65 781.7 449.15 781.35 452.65 781.2 456.3 782.3 458.9 783.4 461.65 785.25 461.65
M 741.35 470.8
Q 748.25 469.5 753.15 464.8 746.15 465.8 741.35 470.8
M 763.25 488.3
Q 757.8 488.5 755.1 490.75 757.3 491.9 763.8 491.8 769.6 491.65 772.45 493.95 771.5 494.45 766 495.25 762.15 495.75 760.55 498.55
L 763.15 501.65
Q 768.3 501.15 772.8 499.85 774.8 498.9 777.9 500.1 781.45 501.3 783.1 501.05 782.9 496.55 779.8 493.9 778.4 492.65 772.8 490.05 768.8 488.05 763.25 488.3
M 744.1 475.2
L 744.75 476.55 753.45 472.3 753.05 470.95 744.1 475.2
M 769.3 462.85
L 766.55 460.5
Q 760.5 463.65 758.45 469.9 757.1 472.85 757.8 475.85 760.2 482.25 765.25 483.1 771.3 483.75 775.65 479.6 776.1 479.4 776.1 478.55 776.05 476.85 776.05 476.45
L 768.65 478.15
Q 766.75 479 764.7 478.35 762.7 477.65 761.75 475.7 761.6 467.9 769.3 462.85
M 763.95 452.2
Q 764.15 448.55 763 445.95 761.85 443.25 760 443.2 758.25 443.1 756.7 445.5 755.3 447.95 755 451.5 754.75 455.15 755.95 457.7 757.05 460.45 758.9 460.45 760.7 460.65 762.2 458.15 763.65 455.75 763.95 452.2
M 753 438.65
Q 761.5 437.45 767.35 427.45 764.6 426.6 764.15 426.9
L 748.5 437.35
Q 749.5 439.4 750.8 439.4 751.35 439.4 753 438.65
M 767.8 427.6
Q 767.7 427.55 767.65 427.55 766.4 429.15 767.8 427.6
M 784.5 431.5
L 782.35 435.2 788.9 441.65
Q 793.1 445.15 798 445.85 796.2 440.65 792.5 437.05 789.55 434.15 784.5 431.5 Z"/>

<path fill="#121212" stroke="none" d="
M 823.65 486.45
Q 821.4 486.5 819.35 485.15 817.3 484 816.1 481.85
L 814.85 478.15
Q 813.35 478.6 811.8 479.05 807.35 491.75 792.85 506.25 792.2 509.35 790.3 515.5
L 790.8 515.7
Q 795.15 515.3 799.4 517 803.5 518.65 806.35 522.1 810.05 525.95 817.45 534.8 819.35 535.25 821.55 534.15 822.9 533.5 825.4 531.65 831.8 528.05 835.1 523.85 839.15 518.8 839.6 512.15 840.05 504.65 835.35 496.55 830.45 488 823.65 486.45
M 813.8 441.35
L 813.85 438.55
Q 813.4 425.1 808.65 412.75 805.75 404.25 799.15 399.95 791.9 395.15 782.85 397.4 782.65 397.45 782.4 397.5 772.25 399.95 763.8 405.95 755.35 412.1 749.85 420.85 751.2 421.15 751.6 420.85 759.6 417.45 768.2 412.35 773.7 409.1 775.2 408.05 778.95 405.2 781 401.95 781.75 400.45 783.4 400 785.1 399.45 786.6 400.25
L 787.65 400.9 790.95 413
Q 793 419.35 799.45 426.8 808.85 437.8 809.8 439.2 810.95 441.3 812.95 443.15 813.45 442.6 813.8 441.35 Z"/>
</g>

<g id="Layer2_2_MEMBER_0_FILL">
<path fill="#000000" stroke="none" d="
M 475.05 653.55
Q 472 650.6 467.85 649.8 463.6 648.9 459.55 650.3 457.55 651 455.4 652.65 454.4 653.35 451.75 655.7 448.25 658.95 447.55 663.6 445.75 672 445.75 680.6
L 445.75 702.5 444.5 703
Q 444.05 704.6 443.2 706.1
L 438.5 713
Q 436.2 716.2 433.85 719.9 434.85 729.05 434.1 738.7 433.7 744.9 433.3 757.4 439.7 767.8 440.7 769.3 441.25 770.35 442.4 770.5 445.25 771.25 448.3 771.4
L 467.6 771.9 476.8 771.5
Q 477.8 768.45 481.6 765.4 482.2 764.95 483.55 763.15 484.7 761.65 485.6 761.35 486.25 761.1 488.05 761.15 489.5 761.15 490.3 760.55
L 488.6 749.35 485.35 748.75 485.35 745.25 491.25 744.55
Q 491.1 743.45 491.05 738.8 491 735.35 490.25 733.25
L 486.25 732.95 486.35 729.95 490.85 729.55 491.15 720.4
Q 491 718.35 489.15 718.35 485.85 718.15 484.25 718.05 481.4 717.9 478.85 718.35 476.6 718.75 472.85 718.45 468.6 718.15 467 718.25
L 464.1 718.25
Q 463.35 722.1 463.7 725.15 464.1 728.2 465.5 729.85
L 482.25 729.85 482.25 732.9
Q 479.25 733.2 473.25 733.5 471.8 733.6 464.35 733.6
L 464.35 744
Q 464.85 744.2 465.65 744.7 473.75 745.6 481.85 745.3
L 482.15 749.5 463.55 748.9 463.55 753
Q 463.55 754.1 463.75 758.7 463.85 760.4 464.8 761.25 465.8 762.05 467.45 761.9
L 476.55 761.3
Q 479.05 761.4 480.75 761.7
L 472 769.3 444.6 768.8 442.5 766.1
Q 441.6 764.9 441.15 764.25 440.35 763.15 439.6 761.8 437.9 758.8 437.75 758.55 436.9 756.6 437.1 754.8 437.3 752.15 437.55 746.85 437.8 741.6 438 739 438.45 729.45 437.65 720.2
L 448.15 705.4 458.35 705.4
Q 466.25 705.7 473.75 704.9 475.6 704.75 477.15 705.6 480.35 707.5 483.35 709.8
L 483.35 715.2
Q 485.2 717.1 487.1 716.3 487.85 712.8 488.35 709.3 484.6 707.1 483.3 706.2 480.4 704.1 478.6 701.7 478.2 697 478.2 692.5 478.2 683.95 478.5 678.9 479 668.3 479.2 666.3 479.5 663.4 479 660.6 478.1 656.5 475.05 653.55
M 472.05 653.5
Q 475.95 656.7 476.05 661.7 476.35 667.9 476.05 674.1 475.5 689.25 476.05 698.3
L 476.05 701.7 473.25 702
Q 473.25 701.9 473.35 696.65 473.4 693.5 473.25 691 472.65 682.6 472.55 678.4 472.85 673.5 472.85 671.1 473.15 666.5 473.05 664.25 472.9 660.35 471.35 657.6 470.15 655.4 467.9 654.25 465.6 653.15 463.05 653.5 460.2 654 457.85 655.7 455.5 657.45 454.15 660 451.95 663.95 451.75 668.2
L 450.75 701
Q 450.75 701.5 450.65 702.8
L 447.85 702.4
Q 447.4 694.7 447.45 692.6 447.55 686.25 448.15 673.9 448.2 672.6 448.55 670.6
L 449.05 667.3
Q 449.3 666.35 449.35 665.2 449.45 662.8 450.55 660.65 451.65 658.5 453.55 657 456.25 654.6 457.55 653.6 460.55 651.4 464.75 651.25 469.25 651.1 472.05 653.5
M 466.5 655.4
Q 468.6 657 469.5 659.35 470.25 661.3 470.25 664.1
L 470.25 702.2
Q 461.1 703.05 452.35 702.9 452.95 698.15 453.2 695.8 453.65 691.7 453.5 689.7 453.4 687.8 453.55 684.95 453.8 680.25 453.8 680.2 453.8 677.2 453.9 675.7 453.7 672.2 454.2 668.6 454.8 664.45 455.8 662.2 457.2 658.85 460.1 657.1 462.9 655 466.5 655.4
M 465.9 724.05
Q 466.3 721.3 466.05 720.5
L 488.65 719.8 487.95 727.4
Q 486.05 727.9 478.1 728 470.4001953125 728.0994140625 466.6 727.7 465.6 726.35 465.9 724.05
M 466.65 760.1
Q 466.15 758.05 466.1 755.45 466.15 752.45 466.15 750.9
L 486.75 750.9
Q 486.85 753.3 487.25 759 484.15 759.5 477 759.4 470.3 759.3 466.65 760.1
M 477.7 743.45
Q 471.65 743.6 466.75 743
L 466.75 735.3 488.55 734.5 488.55 742.8
Q 480.6 743.35 477.7 743.45 Z"/>
</g>

<g id="Layer2_2_MEMBER_1_FILL">
<path fill="#000000" stroke="none" d="
M 475.7 710.5
Q 473.85 708.85 471.4 709.1
L 458.7 709.3
Q 457.15 709.3 449.9 708.8
L 448.2 709
Q 444.5 715.7 443.9 716.9 443.3 718 443.2 719.1 441.45 740.95 441.4 741.5 441.2 744 440.8 748.95 440.55 753.2 440.8 756.4 441.5 757.45 442.95 759.65 444.2 761.65 445.2 762.9 446.1 763.95 447.5 764.35 450.55 765.1 453.6 765.4 454.5 765.55 456.3 765.9 457.85 766.1 459 765.7 458.7 764.9 458 764.35 457.25 763.85 456.35 763.8
L 448.35 762.4 444.75 757.3
Q 444.05 756.45 444.15 755.3 445.6 735.3 445.65 734.8 446.1 727.85 446.25 721 446.35 719 448.15 715.65 449.95 712.25 451.65 711.2
L 451.85 711.2
Q 457.6 711.7 462.1 711.7
L 472.3 711.7
Q 472.4 711.75 474.15 713 475.25 713.8 476.6 712.9
L 475.7 710.5 Z"/>
</g>

<g id="Layer2_2_MEMBER_2_FILL">
<path fill="#000000" stroke="none" d="
M 478.5 754.15
L 474.75 752.9
Q 475.2 756.65 475.35 758.3
L 476.75 757 478.5 757.2 478.5 754.15 Z"/>
</g>

<g id="Layer2_2_MEMBER_3_FILL">
<path fill="#000000" stroke="none" d="
M 469.95 755.05
Q 469.85 753.7 469 752.5 468.5 754.55 468.6 755.25 468.7 756 469.7 757.5 470 755.85 469.95 755.05 Z"/>
</g>

<g id="Layer2_2_MEMBER_4_FILL">
<path fill="#000000" stroke="none" d="
M 467.5 757.8
L 467.5 754.2
Q 466.55 755.4 466.55 756 466.55 756.6 467.5 757.8 Z"/>
</g>

<g id="Layer2_2_MEMBER_5_FILL">
<path fill="#000000" stroke="none" d="
M 482.75 757.4
Q 483 756.15 483 755.7
L 482.85 755.65 482.55 755.5
Q 482.05 755.35 481.55 755.65 481.1 755.9 481 756.4
L 482.75 757.4 Z"/>
</g>

<g id="Layer2_2_MEMBER_6_FILL">
<path fill="#000000" stroke="none" d="
M 482.85 754.5
L 482.85 755.6 483 755.7 484.25 756
Q 484.4 755.15 484 754.8 483.7 754.6 482.85 754.5 Z"/>
</g>

<g id="Layer2_2_MEMBER_7_FILL">
<path fill="#000000" stroke="none" d="
M 478.3 738.2
L 475.6 736.4
Q 474.65 738.1 474.75 739.5 474.85 740.85 476 742.2
L 478 742.2
Q 478.6 741.35 478.6 740.25 478.6 739.65 478.3 738.2 Z"/>
</g>

<g id="Layer2_2_MEMBER_8_FILL">
<path fill="#000000" stroke="none" d="
M 485.2 737.7
L 481.7 736.2
Q 481.15 739.35 482.3 742.2
L 483.9 740.2 485.3 742.2
Q 486.15 740 485.2 737.7 Z"/>
</g>

<g id="Layer2_2_MEMBER_9_FILL">
<path fill="#000000" stroke="none" d="
M 469.15 741.5
L 470.35 740.8 470.35 737.5 467.75 737.2
Q 467.85 737.7 467.85 739.55 467.85 740.9 468.35 741.7
L 469.15 741.5 Z"/>
</g>

<g id="Layer2_2_MEMBER_10_FILL">
<path fill="#000000" stroke="none" d="
M 468.1 724.65
Q 468.3 725.85 469.6 726.6 470.5 725.3 470.75 724 471 722.6 470.4 722.1
L 468.7 721.5
Q 467.85 723.45 468.1 724.65 Z"/>
</g>

<g id="Layer2_2_MEMBER_11_FILL">
<path fill="#000000" stroke="none" d="
M 478.4 724.1
Q 478.55 722.45 477.85 721 475.9 724.6 477.85 726.9 478.25 725.05 478.4 724.1 Z"/>
</g>

<g id="Layer2_2_MEMBER_12_FILL">
<path fill="#000000" stroke="none" d="
M 475.85 722.35
Q 475.75 721.65 475 720.9 474.5 721.95 474.4 723.75 474.35 725.3 474.5 725.65 474.6 725.9 475.6 726.35 475.9 723 475.85 722.35 Z"/>
</g>

<g id="Layer2_2_MEMBER_13_FILL">
<path fill="#000000" stroke="none" d="
M 481.15 723.85
Q 481.2 724.65 482.25 726 483.15 724 483.1 723.05 483.05 722.1 482 721.5 481.15 723 481.15 723.85 Z"/>
</g>

<g id="Layer2_2_MEMBER_14_FILL">
<path fill="#000000" stroke="none" d="
M 483.6 722
Q 482.8 724.05 484.1 725.7 485.05 725.25 485.25 724.35 485.25 724.15 485.2 722.6
L 483.6 722 Z"/>
</g>

<g id="Layer2_3_MEMBER_0_FILL">
<path fill="#000000" stroke="none" d="
M 473.3 221.3
Q 471.45 221.05 467.6 221 463.75 220.95 460.6 220.5 455.65 219.9 453.2 221.2 450.25 222.9 448.4 228.3 445.15 237.6 440.7 251.9 440.15 253.7 438.35 259.55 436.7 265.05 433.95 274
L 428.15 294.3
Q 423.9 309.45 422.8 313.9 421.1 321.3 417.5 336 416.8 339.4 416.15 342.85 413.3 356.1 409.55 368.8 407.55 376 406.6 382.85 405.95 386.65 407.75 390 409.65 393.35 415.75 394.65
L 415.2 394.55 490.55 409.9
Q 496.75 411.6 505.1 412.55 507.3 412.8 519.8 413.8 524.1 413.8 527.6 411.35 531.1 408.8 532.45 404.75 534.3 399 536.6 390.4 539.15 380.75 540.45 376
L 541.85 371.7 541.85 370.8
Q 549 340.95 552.45 327.5 553.55 323.55 554.15 321.75 555.05 318.25 555.8 315.55 556.05 314.95 556.2 314.45 556.45 313.75 556.65 312.45 556.65 312.15 556.75 311.9 556.8 311.7 556.8 311.5
L 556.8 311.35
Q 556.9 310.8 557.05 310.4
L 565.45 283.3
Q 568 274.75 572.95 257.75 573.95 253.65 574.25 251.45 574.6 247.95 573.85 245 573.05 240.9 569.25 239.4 563.6 237.65 557.7 236.45
L 496.4 225.4
Q 481.15 222.5 473.3 221.3
M 460.85 234.15
Q 461.75 234.2 464.45 234.4 466.4 234.5 467.6 234.75
L 491.95 238.85
Q 506.95 241.6 508.15 241.75 509.8 242.05 513.15 242.15 516.45 242.3 518.1 242.5
L 559.95 250.45
Q 557.15 259.9 550.45 279.95 544 299.35 539.4 316
L 541.45 310
Q 540.65 312.7 539.65 315.85
L 533.85 336.15
Q 529.65 351.35 528.5 355.75 526.8 363.15 523.25 377.85 522.6 381.15 519.6 398.1
L 519.45 398.65 437.6 382.9
Q 440.75 383.15 449.5 384.65
L 420.95 379 422.6 372.8
Q 426.05 359 427.95 352.15 429.15 348.2 430.15 344.65 434.05 331.1 436.1 323.5 437 320.4 438.45 314.25 439.95 308 441.15 303.85 442.45 299.35 444.65 291.9 447.5 282.85 448.4 279.85 450.05 273.5 451.1 269.65 451.45 268.2 451.75 267.1
L 458.8 241.5
Q 460.3 236.6 460.85 234.15
M 463.75 231
L 463.35 230.6 466.45 227.95 466.8 228.3 463.75 231
M 451.8 243.45
L 455.15 240.05 455.9 240.35 453.35 249.85 448.75 250.25 454.2 244.55 451.8 243.45
M 454.75 237.95
L 454.35 237.6 456.35 235.35 457.1 235.95 454.75 237.95
M 481.35 227.95
L 481.85 228.55 475.6 232.9 475.25 232.15 481.35 227.95
M 469.8 223.7
L 473.2 224.7 476.7 224.8
Q 475.6 225.95 474.75 225.55 473.7 224.75 473.2 224.7
L 471 225.6 469.8 223.7
M 444.75 267.65
Q 443.85 268.15 442.4 269.75
L 436.5 275.8 436.1 275.9 436.7 274.4 448.25 262.75 448.75 263.1 447.8 266.9
Q 446.2 266.65 444.75 267.65
M 444.05 275.95
L 444.9 276.45
Q 444.35 277.65 444.15 279.15 440.85 279.65 438 282.75 434.95 286.6 433.15 288.2
L 432.5 287.65 444.05 275.95
M 442.6 282.15
L 443.15 282.6 442.05 285.15 437.65 286.95 437.6 286.95 442.6 282.15
M 438.8 293.55
L 439.45 293.95 439.1 295.8 432.65 299.9 428.55 305.15 427.9 304.65 432.65 299.9 438.8 293.55
M 441.6 287.85
L 440.65 291.1
Q 437.4 291.3 434.55 294.1 431.55 297.45 429.85 298.85 433.35 293.55 441.6 287.85
M 452.45 251.85
L 451.4 254.35 449.85 253.55 452.1 251.6 452.45 251.85
M 450.5 256.95
L 450.75 256.9 449.5 260.85 446.35 261.25 450.5 256.95
M 446.2 269.7
L 446.7 270.3 445.5 273.75 440.1 275.4 446.2 269.7
M 437.6 299.35
L 438.1 299.5 437.55 302.15 434.2 302.95 434.2 302.7 437.6 299.35
M 434.65 311.9
Q 433.95 313.45 433.45 314.45
L 424.3 322.35 423.7 322.7
Q 424 321.35 428.1 317.25 432.2 313.15 434.65 311.9
M 435.1 309.9
Q 433.1 309.5 431.4 310.85 429.55 312.65 428.7 313.45 426.4 315.9 425 317.7 425.2 315.35 429.6 310.75 433.85 306.25 436.45 305.5 435.95 307.45 435.1 309.9
M 421.75 333.35
L 420.95 332.85 424.2 329.45 424.6 329.75 421.75 333.35
M 421.8 346.05
L 424.3 343.25 424.8 343.45 424.25 345.55 421.8 346.05
M 430.35 323.7
L 430.8 324.4 427.75 327.2 427.25 326.8 430.35 323.7
M 428.05 333
L 427.5 332.75 420 339.95
Q 423.3 333.75 428.85 329.75
L 428.05 333
M 426.8 337.45
L 425.9 340.2 421.5 342.2 426.25 337.05 426.8 337.45
M 422.35 351.35
L 422.3 351.1 416.35 356.85 415.85 356.45 422.65 348.35 423.3 348.75 422.35 351.35
M 420.95 354.65
Q 421.2 356.35 420.3 357.65 419.3 358.95 415.8 361.6
L 420.95 354.65
M 419.05 362.55
Q 418.95 363.95 418.65 365
L 417.45 364.2 418.65 362.65 419.05 362.55
M 423.1 383.25
Q 423.25 382.9 424.05 382.75
L 422.65 383.95 423.1 383.25
M 459 395.45
L 459.35 395.7 456.35 399.5 454.55 398.7 459 395.45
M 455.05 394.2
Q 456.75 393.15 460 391.3
L 452.5 397.8 452.55 398.25 450.35 397.9
Q 452.2 395.95 455.05 394.2
M 446.25 394.05
Q 446.95 393.5 449.4 392.4
L 445.35 397.15 443.95 396.8
Q 444.55 395.15 446.25 394.05
M 474.65 394.5
L 473.05 394 473 393.55 478.05 394.25 474.9 396 474.65 394.5
M 468.15 392.35
L 468.7 392.6 460.9 400.1 458.45 399.45 468.15 392.35
M 481.1 395.1
L 483.75 395.7 477.6 399
Q 477.8 397.45 479.2 396.55 480.9 395.3 481.1 395.1
M 569.1 251.5
L 569.15 251.85 563.55 255.55 563.5 255.1 569.1 251.5
M 570.55 247.25
L 570.7 248 565.25 250.7 565.2 250.1 570.55 247.25
M 539.8 243.2
L 539.3 242.9 542.8 240.55 542.85 240.85 539.8 243.2
M 557.6 244.65
L 557.95 244.95 557.3 246.6 554.9 246.3 557.6 244.65
M 550.9 240.25
L 550.5 239.45 552.55 238.7 552.6 239.2 550.9 240.25
M 486.1 231.7
L 486.2 234.8 482.95 234 486.1 231.7
M 490.75 229
L 486.8 228.45 487.3 227.1 492 227.8 490.75 229
M 510.05 231.8
L 506.3 231.5 506.2 230.85 509.95 231.25 510.05 231.8
M 522.05 233.4
L 522.15 234.05 519 235.25 518.9 234.75 522.05 233.4
M 556.4 272.1
L 556.05 272.15 556.75 269.15 558.05 270.25 556.4 272.1
M 558.2 265.1
L 559 265.2 558.6 266.8 557.95 266.95 558.2 265.1
M 561.7 260.45
L 559.25 262.3
Q 559.75 261.25 560.05 259.55
L 561.7 260.45
M 558.85 269.3
L 561.55 267.3 562 267.8 559.3 269.9 558.85 269.3
M 557 274.7
L 557.45 275.4 555.25 278.05 553.85 279.15 554.1 276.55 557 274.7
M 548.85 294.95
L 550.55 293.2 551 293.8 549.5 295.5 548.85 294.95
M 550.7 288.45
L 552.6 285.85 553.4 286.35 551.15 288.85 550.7 288.45
M 550.95 298.15
L 548.3 300.6 547.1 300.8 547.55 298.55 550.85 297.65 550.95 298.15
M 550.35 313.05
L 550.8 313.25 550.15 315.9 545.85 317.25 550.35 313.05
M 549.1 309.55
L 547.25 311.5 547.85 311.85 542.2 317.7 541.8 317.75 542.4 316.2 549.1 309.55
M 549.75 317.85
L 548.9 321.25
Q 546.1 321.95 543.7 324.65 540.65 328.4 538.9 330.05
L 538.2 329.5 549.75 317.85
M 543.4 328.8
L 543.35 328.8 548.15 324.15 547.45 327.1 543.4 328.8
M 546.7 330.1
L 546.05 333
Q 542.95 333.35 540.25 335.95 537.25 339.3 535.55 340.7 538.9 335.65 546.7 330.1
M 545.15 335.8
L 544.8 337.65 538.35 341.75 534.25 347 533.6 346.5 538.35 341.75 544.5 335.4 545.15 335.8
M 539.95 344.8
L 539.9 344.55 543.3 341.2 543.8 341.35 543.25 344 539.95 344.8
M 526.25 388.45
L 526.25 388.35 526.75 388.25 526.55 388.4 526.25 388.45
M 525 392.3
L 525.55 389.9 527.05 390.9 525 392.3
M 542.15 347.35
Q 541.65 349.3 540.85 351.8 538.85 351.4 537.1 352.7 535.25 354.5 534.4 355.3 532.1 357.75 530.7 359.55 530.95 357.2 535.3 352.6 539.6 348.1 542.15 347.35
M 540.35 353.75
Q 539.65 355.3 539.15 356.3
L 530 364.2 529.45 364.55
Q 529.7 363.25 533.85 359.1 537.9 355 540.35 353.75
M 536.5 366.25
L 533.45 369.05 532.95 368.65 536.05 365.6 536.5 366.25
M 541.1 368.15
L 541.3 370.9
Q 540.75 371.05 540.25 371.25 540.65 369.65 541.1 368.15
M 534.55 371.6
L 534.25 372.9
Q 533.4 373.05 532.5 373.2 533.5 372.35 534.55 371.6
M 528.5 373.95
Q 528.2 373.9 527.9 373.95 527.6 374 527.4 374
L 529.95 371.3 530.35 371.6 528.5 373.95
M 514.65 405.65
L 514.65 405.9 510.4 408.75 510.35 408.2 514.65 405.65
M 502.1 399.9
L 502.05 399.6 499.6 400.05
Q 498.35 398.85 496.75 398.75 495.45 398.7 493.4 399.5
L 495 397.55 504.5 399.6 504.55 400.2 502.1 399.9
M 498.5 407.75
L 500.55 406.15 501.8 408.2 498.5 407.75
M 486.6 403.3
L 487.35 405.6 484.6 404.9 486.6 403.3
M 480.55 401.8
L 480.9 404.05 476.6 403.1 482.5 399.2 482.55 399.55 480.55 401.8
M 472.65 401.95
L 475.1 400.1 475.15 400.45 474.35 402.4 472.75 402.45 472.65 401.95
M 469.25 396.6
Q 467.55 398.15 466.8 399 465.25 400.4 463.9 400.85
L 463.55 400.3 468.9 396 469.25 396.6
M 467.4 401.7
L 467.3 400.95 472.45 397.2
Q 471.05 399.05 470.3 399.95 468.9 401.45 467.4 401.7 Z"/>
</g>

<g id="Layer2_3_MEMBER_1_MEMBER_0_FILL">
<path fill="#FFFFFF" fill-opacity="0.4980392156862745" stroke="none" d="
M 1135.55 582.8
Q 1122.15 572.5 1110.8 569.05
L 1151.5 600.2
Q 1148.75 593.1 1135.55 582.8
M 1160.15 596.2
Q 1163.1 598.4 1166.5 598 1144.8 580.3 1142.25 578.3 1128 567.85 1114.95 562.55
L 1160.15 596.2
M 1129.25 588.1
Q 1121.45 581.65 1113.15 579.65
L 1139.05 600.75
Q 1137.35 594.55 1129.25 588.1
M 1066.35 417.75
Q 1073.4 426.55 1076.65 429.85 1078.6 432.1 1079.65 433.15 1081.45 434.6 1083.85 434.6 1077.95 422.95 1066.35 417.75
M 1094.75 427.3
L 1095.1 427.3
Q 1084.05 417.4 1082.05 415.05 1081.85 414.85 1075.2 409.1 1071.9 406.2 1065.05 403.95 1079.3 418.8 1084.2 421.9 1088.4 424.45 1090.9 425.5 1094 426.95 1094.75 427.3
M 1211.55 552.15
Q 1212.2580078125 552.71171875 1212.95 553.25 1238.767578125 573.748046875 1243.15 577.4 1246.9 580.3 1249.8 584.65
L 1249.8 577.2 1216.45 553.55 1211.9 552.15 1211.55 552.15
M 1203.95 589.6
Q 1201.7 588 1200.25 587 1180.75 573.8 1163.15 565.3 1167.85 570.6 1198.25 590.45 1201.2 592.4 1203.95 594.15 1206.2716796875 595.640234375 1208.4 597
L 1214.3 597
Q 1207.8810546875 592.3919921875 1203.95 589.6
M 1212.75 537.3
Q 1212.85078125 537.3763671875 1212.95 537.45 1217.3365234375 540.78984375 1218.95 542.55 1219.3 543.1 1222.2 544.9 1239.15 559.35 1242.6 559.1 1231.11328125 546.0716796875 1212.95 537.4 1212.8501953125 537.34765625 1212.75 537.3
M 1184.35 409.1
Q 1190.55 413.65 1195.6 413.25 1186.05 403.45 1173.55 397.7 1178.25 404.75 1184.35 409.1
M 1179.7 419.05
Q 1200.15 433.15 1203.9 434.25 1198.35 425.9 1181.7 414.5 1165.2 403.35 1155.1 400.6 1159.65 405.15 1179.7 419.05 Z"/>

<path fill="#000000" stroke="none" d="
M 1212.95 466.75
Q 1213.149609375 466.766796875 1213.35 466.75 1213.1505859375 466.5609375 1212.95 466.35
L 1212.95 466.75 Z"/>
</g>

<g id="Layer2_3_MEMBER_1_MEMBER_0_MEMBER_0_FILL">
<path fill="#FFFFFF" stroke="none" d="
M 1167 -7.2
Q 1166.4 -3.95 1166.5 -1.2 1167.4 4.7 1166.15 11.75 1165.4 16.35 1163 24.15 1159 37.2 1148.45 45 1144.8 47.5 1140.9 48 1135.8 48.35 1131.4 45.6 1127 42.95 1125.1 38.2 1123 31.95 1117.35 29.15 1118.45 35.2 1122.35 40.2
L 1124.6 43.75
Q 1126.35 47.85 1129.75 55.75 1132.4 62.65 1132.9 69.3 1134.15 86.75 1124.35 97.2 1120.6 101.8 1114.8 103.1 1109.05 104.45 1103.8 101.95 1101.9 101.45 1099.75 101.45
L 1101.75 102.45
Q 1106.8 105.95 1113.3 105.6 1118.85 105.2 1123.35 102.45 1126.85 100.3 1129.5 96.3 1131.25 93.65 1133.4 88.65 1137.05 81 1136.55 72.1 1136.05 64.8 1132.4 55.5
L 1129.65 48.5 1130.65 48 1132.4 48.5
Q 1137.8 51 1143.8 49.85 1149.7 48.75 1153.95 44.5 1165.25 34.05 1167.25 18.9 1167.25 16 1168.55 12.85 1170.4 14 1171.4 15.85 1172.05 17 1172.8 19.15 1177.45 29.4 1188.6 32.95 1199.25 36.2 1207.45 31.45 1213.1 27.05 1218.1 21.9 1218.45 21.5 1220.25 19.75 1221.35 18.4 1222.5 18.15 1223.5 23.5 1225.6 27.8 1228.9 32.2 1233.9 33.7 1238.9 35.2 1243.95 33.3
L 1248.2 31.55
Q 1250.1 36.95 1251.1 38.1 1252.1 39.2 1256.35 40.7 1253 37.6 1254 31.7 1254.75 26.05 1254.1 25.65 1252.6 24.65 1251.7 25.05 1251.45 25.05 1249.6 26.4 1246.1 29.4 1244.3 30.4 1241.45 32.3 1238.05 32.3 1234.65 32.3 1231.75 30.4 1228.5 28.8 1227.25 25.55 1226 22.25 1227.25 19.15 1229.15 11.85 1230.75 7.35 1231.75 5.45 1232.15 4.3 1232.8 2.45 1231.75 0.55
L 1229.5 3.55
Q 1221.5 16.85 1209.45 26.4
L 1207.3 27.9
Q 1200.05 32.8 1191.35 31.05 1182.7 29.4 1177.8 22.15 1172.3 15.5 1170.8 7.1
L 1169.3 -3.45
Q 1168.4 -5.45 1167 -7.2 Z"/>
</g>

<g id="Layer2_4_MEMBER_0_FILL">
<path fill="#FFFFFF" stroke="none" d="
M 660.85 432.95
Q 661.65 423.2 657.35 414.25 653.8 406.95 646.35 399 619 370.4 577.8 374.95 544.9 379.15 525.2 398.55 517.05 406.25 515 417.55 511.15 433.85 516.3 450.3 518.7 457.2 526.05 463.55 529.7 466.6 537.25 471.6 540.95 473.95 546.25 475.25 548.9 475.85 556.15 477 576.35 480.85 595.35 478.85 615.55 476.6 632.6 467.95
L 635.25 466.9 636.85 467.4
Q 637.7 468.75 638.9 472
L 663.9 483.9 664.6 482.95 645 467.15 649.25 461.45
Q 655.3 455.95 657.85 449.55 660.05 443.8 660.85 432.95 Z"/>
</g>

<g id="Layer2_4_MEMBER_1_FILL">
<path fill="#000000" stroke="none" d="
M 667.4 417.2
Q 665.5 405.85 658.4 396.85 642.05 375.05 609.75 367.7 584.2 361.4 559.3 369.95 546.95 374.35 539.4 378.5 529.2 384 522.1 391.75 514.6 399.8 510.35 410 506.05 420.15 505.95 431.15 505.05 446.35 511.5 460.8 513.85 467.1 519.15 470.7 535.8 482.15 555.3 485.2 578.3 488.25 600.9 485.55 611.95 483.6 622.6 479.05 631.4 475.75 639.5 479.7 657.9 488.1 676.45 499.35 679.8 500.75 682.55 500.7 683.65 497.2 682.65 493.45 681.55 489.7 678.6 487.2 671.6 480.05 662.1 471.8 657.2 467.6 653.55 465.05 661.5 453.5 665.7 439.15 669.35 428.45 667.4 417.2
M 657.35 414.25
Q 661.65 423.2 660.85 432.95 660.05 443.8 657.85 449.55 655.3 455.95 649.25 461.45
L 645 467.15 664.6 482.95 663.9 483.9 638.9 472
Q 637.7 468.75 636.85 467.4
L 635.25 466.9 632.6 467.95
Q 615.55 476.6 595.35 478.85 576.35 480.85 556.15 477 548.9 475.85 546.25 475.25 540.95 473.95 537.25 471.6 529.7 466.6 526.05 463.55 518.7 457.2 516.3 450.3 511.15 433.85 515 417.55 517.05 406.25 525.2 398.55 544.9 379.15 577.8 374.95 619 370.4 646.35 399 653.8 406.95 657.35 414.25 Z"/>
</g>

<g id="Layer2_5_MEMBER_0_FILL">
<path fill="#FFFFFF" stroke="none" d="
M 660.85 432.95
Q 661.65 423.2 657.35 414.25 653.8 406.95 646.35 399 619 370.4 577.8 374.95 544.9 379.15 525.2 398.55 517.05 406.25 515 417.55 511.15 433.85 516.3 450.3 518.7 457.2 526.05 463.55 529.7 466.6 537.25 471.6 540.95 473.95 546.25 475.25 548.9 475.85 556.15 477 576.35 480.85 595.35 478.85 615.55 476.6 632.6 467.95
L 635.25 466.9 636.85 467.4
Q 637.7 468.75 638.9 472
L 663.9 483.9 664.6 482.95 645 467.15 649.25 461.45
Q 655.3 455.95 657.85 449.55 660.05 443.8 660.85 432.95 Z"/>
</g>

<g id="Layer2_5_MEMBER_1_FILL">
<path fill="#000000" stroke="none" d="
M 667.4 417.2
Q 665.5 405.85 658.4 396.85 642.05 375.05 609.75 367.7 584.2 361.4 559.3 369.95 546.95 374.35 539.4 378.5 529.2 384 522.1 391.75 514.6 399.8 510.35 410 506.05 420.15 505.95 431.15 505.05 446.35 511.5 460.8 513.85 467.1 519.15 470.7 535.8 482.15 555.3 485.2 578.3 488.25 600.9 485.55 611.95 483.6 622.6 479.05 631.4 475.75 639.5 479.7 657.9 488.1 676.45 499.35 679.8 500.75 682.55 500.7 683.65 497.2 682.65 493.45 681.55 489.7 678.6 487.2 671.6 480.05 662.1 471.8 657.2 467.6 653.55 465.05 661.5 453.5 665.7 439.15 669.35 428.45 667.4 417.2
M 657.35 414.25
Q 661.65 423.2 660.85 432.95 660.05 443.8 657.85 449.55 655.3 455.95 649.25 461.45
L 645 467.15 664.6 482.95 663.9 483.9 638.9 472
Q 637.7 468.75 636.85 467.4
L 635.25 466.9 632.6 467.95
Q 615.55 476.6 595.35 478.85 576.35 480.85 556.15 477 548.9 475.85 546.25 475.25 540.95 473.95 537.25 471.6 529.7 466.6 526.05 463.55 518.7 457.2 516.3 450.3 511.15 433.85 515 417.55 517.05 406.25 525.2 398.55 544.9 379.15 577.8 374.95 619 370.4 646.35 399 653.8 406.95 657.35 414.25 Z"/>
</g>

<g id="Layer2_6_MEMBER_0_FILL">
<path fill="#FFFFFF" stroke="none" d="
M 660.85 432.95
Q 661.65 423.2 657.35 414.25 653.8 406.95 646.35 399 619 370.4 577.8 374.95 544.9 379.15 525.2 398.55 517.05 406.25 515 417.55 511.15 433.85 516.3 450.3 518.7 457.2 526.05 463.55 529.7 466.6 537.25 471.6 540.95 473.95 546.25 475.25 548.9 475.85 556.15 477 576.35 480.85 595.35 478.85 615.55 476.6 632.6 467.95
L 635.25 466.9 636.85 467.4
Q 637.7 468.75 638.9 472
L 663.9 483.9 664.6 482.95 645 467.15 649.25 461.45
Q 655.3 455.95 657.85 449.55 660.05 443.8 660.85 432.95 Z"/>
</g>

<g id="Layer2_6_MEMBER_1_FILL">
<path fill="#000000" stroke="none" d="
M 667.4 417.2
Q 665.5 405.85 658.4 396.85 642.05 375.05 609.75 367.7 584.2 361.4 559.3 369.95 546.95 374.35 539.4 378.5 529.2 384 522.1 391.75 514.6 399.8 510.35 410 506.05 420.15 505.95 431.15 505.05 446.35 511.5 460.8 513.85 467.1 519.15 470.7 535.8 482.15 555.3 485.2 578.3 488.25 600.9 485.55 611.95 483.6 622.6 479.05 631.4 475.75 639.5 479.7 657.9 488.1 676.45 499.35 679.8 500.75 682.55 500.7 683.65 497.2 682.65 493.45 681.55 489.7 678.6 487.2 671.6 480.05 662.1 471.8 657.2 467.6 653.55 465.05 661.5 453.5 665.7 439.15 669.35 428.45 667.4 417.2
M 657.35 414.25
Q 661.65 423.2 660.85 432.95 660.05 443.8 657.85 449.55 655.3 455.95 649.25 461.45
L 645 467.15 664.6 482.95 663.9 483.9 638.9 472
Q 637.7 468.75 636.85 467.4
L 635.25 466.9 632.6 467.95
Q 615.55 476.6 595.35 478.85 576.35 480.85 556.15 477 548.9 475.85 546.25 475.25 540.95 473.95 537.25 471.6 529.7 466.6 526.05 463.55 518.7 457.2 516.3 450.3 511.15 433.85 515 417.55 517.05 406.25 525.2 398.55 544.9 379.15 577.8 374.95 619 370.4 646.35 399 653.8 406.95 657.35 414.25 Z"/>
</g>

<g id="Layer2_7_MEMBER_0_FILL">
<path fill="#000000" stroke="none" d="
M 193.5 879.4
Q 193.85 883.35 196.85 886 199.85 888.65 203.85 888.5 208.85 888.35 212.6 885.8 216.35 883.2 217.95 878.8 218.9 876.1 219.05 873.1 219.3 870 217.65 867.35 215.95 864.7 213.05 863.6 209.05 861.8 205.35 862.45 201.6 863.1 198.55 866.2
L 197.85 867
Q 192.6 872.75 193.5 879.4
M 195.7 872.3
Q 197.5 867.8 201.55 865.7 204.3 864.25 207.35 864.05 210.4 863.9 213.25 865 217.55 866.8 217.55 872.8
L 217.6 872.8
Q 217.3 879.15 212.95 883.1 208.95 886.8 203.15 887.1 200.45 887.15 198.25 885.55 196.1 883.95 195.25 881.4 193.9 876.75 195.7 872.3 Z"/>
</g>

<g id="Layer2_7_MEMBER_1_FILL">
<path fill="#000000" stroke="none" d="
M 219.15 878.1
L 224.8 878.1 224.8 877.5
Q 222.9 877.4 221.95 877.4 220.3 877.4 219.15 878.1 Z"/>
</g>

<g id="Layer2_7_MEMBER_2_FILL">
<path fill="#000000" stroke="none" d="
M 190.1 873.6
L 184.6 872.1
Q 186.25 873.35 187.4 873.7 188.5 874 190.1 873.6 Z"/>
</g>

<g id="Layer2_7_MEMBER_3_FILL">
<path fill="#000000" stroke="none" d="
M 220.65 881
Q 219.6 880.65 218.6 881
L 218.6 881.5 222.5 882.3 222.5 881.8
Q 221.2 881.15 220.65 881 Z"/>
</g>

<g id="Layer2_7_MEMBER_4_FILL">
<path fill="#000000" stroke="none" d="
M 221.5 887
Q 220.2 885.15 218.1 884.6 218.9 885.9 219.65 886.4 220.4 886.95 221.5 887 Z"/>
</g>

<g id="Layer2_7_MEMBER_5_FILL">
<path fill="#000000" stroke="none" d="
M 189.1 876.7
L 184.8 876.7
Q 186.4 877.3 187.2 877.35 188.05 877.35 189.1 876.7 Z"/>
</g>

<g id="Layer2_7_MEMBER_6_FILL">
<path fill="#000000" stroke="none" d="
M 187.6 868.9
L 188 869.3 188.2 869.15 187.7 868.9 187.6 868.9 Z"/>
</g>

<g id="Layer2_7_MEMBER_7_FILL">
<path fill="#000000" stroke="none" d="
M 198.55 874.75
Q 199.55 875.85 201 875.9 204.55 876.45 206.85 873.1 207.75 875.85 209.6 877.05 211.3 878.15 213.2 877.6 214.95 877.1 215.85 874.85 216.7 872.65 216.1 870.7 215.5 868.8 214 868.25 212.45 867.65 210.6 868.6
L 207.4 871.2
Q 207 867.35 203.8 866.4 200.6 867.3 198.6 870 197.7 870.9 197.6 872.25 197.55 873.7 198.55 874.75
M 200.2 870.15
Q 201.6 868.95 202.3 868.3
L 204.65 868.1
Q 205.6 869.3 205.55 870.45 205.45 871.35 204.65 872.8 204.05 874 202.75 874.35 201.7646484375 874.6455078125 200.1 874.5 199.5 873.4 199 872.7 199.1 871.3 200.2 870.15
M 214.65 872.85
Q 214.4 874.65 212.95 875.8 212.25 876.2 211.35 876.2 210.5 876.2 209.75 875.8 209 875.25 208.75 874.3 208.5 873.35 208.85 872.5 209.55 871.3 210.75 870
L 213.75 869.6 213.8 869.6
Q 214.9 871.05 214.65 872.85 Z"/>
</g>

<g id="Layer2_7_MEMBER_8_FILL">
<path fill="#000000" stroke="none" d="
M 202.1 880.3
L 199 882
Q 199 883.7 199.55 884.4 200.05 885.05 201.5 885.3 203.7 885.7 205.7 884.6
L 206.6 883.4
Q 204.95 880.85 202.1 880.3
M 201.65 883.2
L 201.9 882.8
Q 202.25 882.45 202.7 882.45 203.15 882.45 203.5 882.8
L 203.5 883.3 201.65 883.2 Z"/>
</g>

<g id="Layer2_7_MEMBER_9_FILL">
<path fill="#000000" stroke="none" d="
M 209.8 872.8
L 211.8 874.1 212.8 872.5
Q 211.55 871.9 211.2 871.95 210.8 872 209.8 872.8 Z"/>
</g>

<g id="Layer2_7_MEMBER_10_FILL">
<path fill="#000000" stroke="none" d="
M 200.7 871.6
L 201.9 872.8 203.6 871
Q 201.65 869.6 200.7 871.6 Z"/>
</g>

<g id="Layer2_8_MEMBER_0_FILL">
<path fill="#000000" stroke="none" d="
M 90.65 882.3
Q 87.05 883.85 85.9 888.95 84.7 894.25 87.65 898.1 90.75 902.2 96.65 902.2
L 98.3 902.1
Q 103.35 901.55 106.4 897.5 108.5 894.75 107.7 889.55 107 884.7 104.9 882.6 100.8 878.5 96 879.9 93.35 880.85 90.65 882.3
M 93.65 882.6
Q 95.3 881.8 96.95 881.4 99.8 880.6 102.35 881.95 104.95 883.35 105.75 886.2 106.8 888.45 106.65 890.95 106.45 893.45 105.15 895.6 103.55 898.1 100.85 899.45 98.15 900.8 95.15 900.6 90.15 900.8 88.25 897 85.7 891.9 87.75 888.2 89.9 884.5 93.65 882.6 Z"/>
</g>

<g id="Layer2_8_MEMBER_1_FILL">
<path fill="#000000" stroke="none" d="
M 97.3 884.4
L 96.3 883.7
Q 95.2 885.3 93.9 886.5 92.2 887.35 90.4 887.8 90.5 888.6 91.35 888.85 92.4 889.2 92.6 889.4 93.55 890.3 94.2 891.1 95.1 889 95.7 887.8 97.3 886.45 97.3 884.4 Z"/>
</g>

<g id="Layer2_8_MEMBER_2_FILL">
<path fill="#000000" stroke="none" d="
M 97.85 897.4
Q 98.35 897.65 99 897.3 98.6 895.7 97.45 894.65 96.25 893.55 94.65 893.3 90.75 892.6 88.55 894.5 89.1 895.05 89.15 895.5 89.2 895.6 90.75 895.1 94.95 893.75 97.15 896.8 97.65 897.3 97.85 897.4 Z"/>
</g>

<g id="Layer2_8_MEMBER_3_FILL">
<path fill="#000000" stroke="none" d="
M 99.75 888
L 98.15 890.4
Q 99.2 891.6 99.75 891.45 100.25 891.3 101 889.7 101.5 889.85 102.3 890.55 103.05 891.05 103.75 890.3 103.65 889.85 103.25 889.4 100.5 887.95 101.05 885.2 101.1 885.1 101.05 884.95 101 884.55 100.7 884.3 100.35 884.05 99.95 884.1 99.45 884.6 99.45 884.7
L 99.75 888 Z"/>
</g>

<g id="Layer2_9_MEMBER_0_FILL">
<path fill="#000000" stroke="none" d="
M 16.1 873.6
Q 13.95 874.3 12.35 875.9 6.75 880.65 4.5 887.5 3.7 889.55 3.6 890.1 3.45 891.55 4.5 893.4 5.65 895.5 7.6 895.85 9.55 896.15 11.25 894.5 12.5 893.55 13 892.1 13.45 890.65 13.05 889.2 12.75 887.05 14.05 885.5 14.8 884.3 16.1 883.8 17.45 883.3 18.75 883.8 20.1 884.2 20.95 885.35 21.8 886.5 21.85 887.9 21.95 890.6 20.05 892.7 18.25 894.9 16.25 897.1 13.95 899.7 12.85 903.05 11.75 906.35 12.1 909.9 12.1 913.7 15.2 916 21.25 916.4 25.5 911.2 25.85 909.2 24.45 907.8 23.15 905.8 23.45 903.4 24 899.7 26.45 897.1
L 28.35 895.2
Q 32 891.45 33.85 886.5 35.35 881.9 32.9 878 30.5 874.1 26.25 873.8 23.3 873.55 20.5 873.2 18.25 872.9 16.1 873.6
M 13.15 877.3
L 15.45 876.3 16.05 880.9 14.65 882 13.15 877.3
M 16.8 876.2
L 18.3 876.3
Q 18.45 878.45 17.8 880.4 17.75 880.5 17.45 880.6 16.95 880.75 16.8 880.8
L 16.8 876.2
M 19.15 878.5
Q 19.55 876.95 19.5 876.5
L 21.3 876.5
Q 20.65 878.85 19.2 880.7 18.8 879.75 19.15 878.5
M 8 884.6
L 8.6 884.6 10.6 887.2
Q 9.55 887.75 8.4 887.65 7.2 887.55 7.35 886.9 7.95 884.75 8 884.6
M 8.85 882.95
L 10.1 880.95 12.3 884.4
Q 11.7 885.05 11.1 886.1
L 8.85 882.95
M 7.3 889.9
L 7.3 888
Q 8.95 888.6 9.3 888.8 10.4 889.3 9.9 889.7 9.35 890.1 8.7 890.1 8.3 890.1 7.3 889.9
M 12.95 883.6
L 10.65 880.2
Q 11.5 879.1 12.35 878.2 13 879.8 14 882.5
L 12.95 883.6
M 26 877.1
L 28.35 878.6 24.05 882.5 22.9 881.6 26 877.1
M 22.5 876.6
L 25 876.9 22.2 881.1 20.55 880.65 22.5 876.6
M 28.75 879.5
L 30 881 25.2 883.5
Q 25.55 882.4 26.7 881.35 28.75 879.55 28.75 879.5
M 24.55 889.5
L 24.75 889
Q 27.3 888.3 29.75 889.5
L 28.15 892.2 24.55 889.5
M 30.25 888.5
L 25.7 887.7
Q 25.35 887.2 25.5 886.8 25.65 886.4 26.2 886.3
L 30.75 885.2
Q 30.55 886.5 30.25 888.5
M 30.5 882
L 30.75 884.4 25.5 885.3
Q 27.4 882.75 30.5 882
M 27.5 893
L 26.2 894.6 23.25 891.8 24.05 890.5 27.5 893
M 21.65 893.9
L 22.55 892.7 25.3 895.3 24.4 896.5 21.65 893.9
M 21 894.7
L 23.6 897.1
Q 22.9 897.9 22.25 897.85 21.6 897.85 19.2 896.9
L 21 894.7
M 20.6 902.7
L 20.6 903.1 15.5 904.8 15.85 902.7 20.6 902.7
M 20.5 906.6
L 20.5 907.3 15.6 910 15.6 909 20.1 906.2 20.5 906.6
M 22.3 911.4
Q 21.5 912.4 20.25 912.75 19.8 912.85 17.9 913.1 18.35 912.2 19.1 911.65 19.8 911.1 21.7 910.2
L 22.3 911.4
M 16.4 901.6
L 16.9 900.3
Q 19.35 900.05 21.7 900.9 20.55 901.6 19.1 901.7 18.7 901.7 16.4 901.6
M 17.5 899.3
L 18.5 897.8 22.2 899
Q 21.25 899.6 19.95 899.55 19.85 899.55 17.5 899.3
M 9.9 891.2
L 9.9 892.7 8.4 891.8 8.4 891.4 9.9 891.2
M 19.5 905.45
Q 18.9 905.9 15.35 907.7
L 15.35 905.8 20.25 904.1
Q 20.1 905 19.5 905.45
M 16.5 911.9
L 16.25 911
Q 18.3 909.3 21 908.7 19.2 910.7 16.5 911.9 Z"/>
</g>

<g id="Layer2_9_MEMBER_1_FILL">
<path fill="#000000" stroke="none" d="
M 17.9 923.15
Q 16.9 925.5 17.85 927.9 18.85 930.3 21.2 931.3 23.65 932.2 26.7 929.5 29.6 926.95 29.6 924.7 29.6 922.7 27.8 921.05 25.95 919.4 23.7 919.4 21.8 919.35 20.2 920.4 18.65 921.4 17.9 923.15
M 24.7 927.8
Q 22.25 927.7 20.4 926.2 20.15 926.05 20 925
L 20.4 924.7 24.7 927.8
M 20.55 923.3
L 21.55 922.4 26.75 925.9 25.55 927.2 20.55 923.3
M 25.5 922.2
Q 26.55 922.9 26.7 924.7
L 22.75 922.1
Q 24.45 921.5 25.5 922.2
M 23.6 928.7
Q 22.35 929 22 928.85 21.7 928.7 21.1 927.5
L 23.6 928.7 Z"/>
</g>

<g id="Layer2_10_MEMBER_0_MEMBER_0_FILL">
<path fill="#000000" stroke="none" d="
M 156.8 2.6
Q 155.4 2.5 153.25 1.9 150.25 1.1 149.7 1 143.15 -0.3 138.5 0.15 132.65 0.75 128 4.2
L 76.1 43.4
Q 73.9 45.05 67.7 49.4 62.4 53.15 60.2 54.9 57.7 56.9 54.5 59.8 52.7 61.45 49.4 64.5 34.1 60.25 31.1 59.5 24.25 57.8 18.8 59.9 13.4 61.95 9.1 67.8 3.5 75.35 1.25 84.5 -0.95 93.65 0.6 102.9 1.1 106.05 2.75 111.15 4.75 117.3 5.3 119.5 6.25 123.5 8.8 127.25 10.65 130.1 14.2 133.8 16.7 136.4 20.3 139.3 22.45 141 27.6 145 35.1 151 46.7 150 54 149.1 61 147 70.4 144.6 74.3 138 76.05 135.4 77.7 133.5 80.85 129.15 81.6 126.4 82.75 122.3 80.4 118.3 79.2 116.1 79.1 113.5 78.2 105.15 77.45 102.35 75.75 96.35 71.4 92.8 71.1 92.55 70.9 91.95 70.55 90.95 70.5 90.9 73.9 85.45 75.6 83.35 78.65 79.55 81.9 78
L 93.1 78.9 93.25 77
Q 93.1 68 99.85 64.1 101.8 62.95 102.75 61 103.75 59.35 105.55 58.6 107.35 57.8 109.25 58.2 110.85 62.2 114.35 70.5 118.1 70.3 125 70 126.95 69.85 127.3 69.15 127.6 68.45 126.85 66.2 126.3 64.6 125.25 61.8 124.05 58.85 123.6 57.5 123.05 55.25 122.8 52.6 123.7 52.85 125.5 53.45 126.95 53.95 127.7 54.1 130.15 54.6 131.25 53.75 132.3 52.9 132.3 50.5 132.3 47.45 132.8 43.6
L 139.9 38.4
Q 141.15 43.4 147.7 44.9 149.7 45.35 150.9 44.55 152.1 43.7 152.1 41.7 152.2 36.5 152.2 26.7
L 154.4 21.9 155.85 20.5
Q 156.7 19.65 157 19 158.8 14.7 162.2 5.9 161.4 4.4 159.95 3.5 158.5 2.65 156.8 2.6
M 142.75 5.8
Q 144.4 5.8 145.8 6.75 142.9 14.1 135.1 20.05 130.75 23.4 122.15 29.7 113.4 36.15 109.3 39.25 104.5 42.9 96.85 49 87.25 56.7 84.5 58.85 73.4 67.6 65.6 73.35 63.85 74.55 61.8 74.95 59.85 75.15 58.6 76.45 57.65 77.45 56.7 79.65 58.8 80.1 60.8 79.25 61.7 78.85 63.9 77.35 69.2 73.75 79.6 65.95 82.1 64.15 89.35 59.1 95.45 54.85 99.2 52.05 102.9 49.3 109.05 44.3 116.05 38.6 118.8 36.45 121.15 34.6 125.05 31.95 127.15 30.5 130.6 28.15 132.05 27.15 134.85 25.15 137.3 23.4 139.1 22.55
L 147.2 20.85 146.5 36.25
Q 145.15 35.35 144 34.35 138.5 29.3 133.4 34.95 131 37.55 128.4 39.95 127.05 41.1 126.95 43.15 126.85 44.3 126.8 46.65 126.6 47.95 126.1 49.75 122.7 46 120.8 44.5 117.5 41.9 113.6 42.15 113.55 47 116.7 54.05 120.3 62.25 120.85 65.45 118.25 66.8 117.9 66.75 117.2 66.65 116.15 64.05 114.45 59.8 111.15 53.25 110.35 51.6 108.15 51.2 105.95 50.8 104.05 51.85 102.2 52.85 100.35 54.45 97.65 56.6 96.3 57.7 93.85 59.65 92.05 60.85 88.2 63.5 87.85 69.05 87.75 70.75 86.95 74.45 83.1 73.7 78.35 73.45 75.9 73.45 73.95 75.15 72.8 76.15 70.95 78.3 69 80.6 67.95 81.55 63.1 85.7 66.45 93.05 67.25 94.8 69 98.2 70.4 101.2 70.75 103.45 71.7 108.55 72 111.65 72.4 116.2 71.85 119.75 70.65 129.2 60.85 135.95 51.65 142.4 40.5 143.15 37.2 143.4 33.95 141.75 32.4 140.95 28.6 138.15 21.15 132.85 17.4 124.55 13.25 115.3 12.1 105.35 11.4 101.7 11.2 99.85 10.9 96.7 11.8 93.1 13.2 87.5 14.2 84.75 15.85 80.25 18.4 77.1 20.45 74.25 21.5 72.9 23.4 70.55 25.6 69.3 27.9 68 30.9 67.75 32.45 67.6 36.3 67.8 36.7 67.8 37.65 68.05 38.55 68.3 39 68.3 41.4 68.3 42.5 69.3 43.8 70.45 43.85 73.1
L 50.6 74.35 52.6 71.65 53 72.25
Q 57.2 69.85 59.1 68.35
L 91.7 43.05
Q 98.5 37.85 112.1 27.55
L 130.8 13.05
Q 133 11.4 139.8 6.85 141.1 5.85 142.75 5.8
M 145.5 17.45
L 144.85 16.8 151.85 6.5 155 7.75 152.1 16.25 145.5 17.45 Z"/>
</g>

<g id="Layer2_10_MEMBER_0_MEMBER_1_FILL">
<path fill="#000000" stroke="none" d="
M 27.05 95.25
Q 24.25 95.25 22 97.5 19.95 99.55 19.15 102.6 17.7 108.35 19.7 113.6 21.4 118.1 25.8 122.6 27.35 124.15 29.4 124.9 31.45 125.6 33.65 125.35 35.6 125.1 37.05 124.05 38.9 122.5 40.5 121.35 42.95 119.5 44 117.5 45.15 115.35 44.85 112.6 45.15 101.4 35.65 97.5 33.15 96.4 31.8 96 29.55 95.25 27.05 95.25
M 36.05 101.75
Q 39.65 104.9 39.5 110.45 39.35 116 35.65 118.85
L 35.65 118.8
Q 33.4 119.1 32.4 118.35 31.5 117.7 29.85 114.85 28.3 112.15 27.9 108.85 27.45 105.55 28.45 103.45 29.45 101.3 31.9 100.75 34.35 100.15 36.05 101.75 Z"/>
</g>

<g id="Layer2_10_MEMBER_0_MEMBER_2_FILL">
<path fill="#000000" stroke="none" d="
M 45.55 84.5
L 44.85 85.2 45.5 89.9 40.35 94.6 41.3 95.9
Q 44.05 94.55 44.9 94 46.3 93.15 46.9 93 48.05 92.8 48.9 93.9 50.25 95.85 51.4 98.2
L 47.9 102.8 48.8 104
Q 50.8 103.05 52.8 102.4 54.3 102.1 57.6 101.9
L 57.6 98.1
Q 55.8 96.95 54.5 95.4 53.7 94.25 51.65 90.95 49.85 88.1 48.65 86.5 48.25 85.95 47.25 85.45 46.1 84.85 45.55 84.5 Z"/>
</g>

<g id="Layer2_10_MEMBER_0_MEMBER_3_FILL">
<path fill="#000000" stroke="none" d="
M 33.45 78.95
Q 29.8 81.15 28.15 84.8 29 86.05 29.7 86.35 30.6 86.75 31.65 85.9
L 39.65 79.4
Q 39.95 79.15 40.1 78.6 40.25 77.9 40.35 77.5 37.15 76.7 33.45 78.95 Z"/>
</g>

<g id="Layer2_10_MEMBER_0_MEMBER_4_FILL">
<path fill="#000000" stroke="none" d="
M 61.5 108.25
Q 62.15 107.25 61 105.9 56.25 108.5 55.95 108.75 53.25 110.5 51.85 112.9 54.65 114.35 56.75 112.5 58.75 109.95 60 109.3 61.15 108.75 61.5 108.25 Z"/>
</g>

<g id="Layer2_10_MEMBER_0_MEMBER_5_FILL">
<path fill="#000000" stroke="none" d="
M 37.4 84.55
Q 34.95 86 33.5 88.4 35.65 88.9 38.75 86.85 41.8 84.75 42.35 82.5 38.95 83.65 37.4 84.55 Z"/>
</g>
</defs>

<g transform="matrix( 1, 0, 0, 1, 0,0) ">
<use xlink:href="#Layer4_0_FILL"/>
</g>

<g transform="matrix( 0.92413330078125, 0, 0, 0.92413330078125, 70.15,45.15) ">
<use xlink:href="#Layer4_1_FILL"/>
</g>

<g transform="matrix( 1, 0, 0, 1, 0,0) ">
<use xlink:href="#Layer3_0_FILL"/>
</g>

<g transform="matrix( 1, 0, 0, 1, 0,0) ">
<use xlink:href="#Layer3_1_FILL"/>
</g>

<g transform="matrix( 0.99359130859375, 0.1130218505859375, -0.1130218505859375, 0.99359130859375, 48.35,-139.7) ">
<use xlink:href="#Layer3_2_FILL"/>
</g>

<g transform="matrix( 1, 0, 0, 1, 0,0) ">
<use xlink:href="#Layer3_3_FILL"/>
</g>

<g transform="matrix( 1, 0, 0, 1, 4,-1) ">
<use xlink:href="#Layer3_4_FILL"/>
</g>

<g transform="matrix( 0.9935760498046875, 0.113006591796875, -0.113006591796875, 0.9935760498046875, 38.4,-140.8) ">
<use xlink:href="#Layer2_0_MEMBER_0_FILL"/>
</g>

<g transform="matrix( 2.44207763671875, 0.27777099609375, -0.27777099609375, 2.44207763671875, 128,-1214.8) ">
<use xlink:href="#Layer2_0_MEMBER_1_FILL"/>
</g>

<g transform="matrix( 2.44207763671875, 0.27777099609375, -0.27777099609375, 2.44207763671875, 128,-1214.8) ">
<use xlink:href="#Layer2_0_MEMBER_2_FILL"/>
</g>

<g transform="matrix( 0.99359130859375, 0.1130218505859375, -0.1130218505859375, 0.99359130859375, 48.35,-139.7) ">
<use xlink:href="#Layer2_1_FILL"/>
</g>

<g transform="matrix( 2.2876739501953125, 0.8985748291015625, -0.8985748291015625, 2.2876739501953125, -68.85,-1558.05) ">
<use xlink:href="#Layer2_2_MEMBER_0_FILL"/>
</g>

<g transform="matrix( 2.2876739501953125, 0.8985748291015625, -0.8985748291015625, 2.2876739501953125, -68.85,-1558.05) ">
<use xlink:href="#Layer2_2_MEMBER_1_FILL"/>
</g>

<g transform="matrix( 2.2876739501953125, 0.8985748291015625, -0.8985748291015625, 2.2876739501953125, -68.85,-1558.05) ">
<use xlink:href="#Layer2_2_MEMBER_2_FILL"/>
</g>

<g transform="matrix( 2.2876739501953125, 0.8985748291015625, -0.8985748291015625, 2.2876739501953125, -68.85,-1558.05) ">
<use xlink:href="#Layer2_2_MEMBER_3_FILL"/>
</g>

<g transform="matrix( 2.2876739501953125, 0.8985748291015625, -0.8985748291015625, 2.2876739501953125, -68.85,-1558.05) ">
<use xlink:href="#Layer2_2_MEMBER_4_FILL"/>
</g>

<g transform="matrix( 2.2876739501953125, 0.8985748291015625, -0.8985748291015625, 2.2876739501953125, -68.85,-1558.05) ">
<use xlink:href="#Layer2_2_MEMBER_5_FILL"/>
</g>

<g transform="matrix( 2.2876739501953125, 0.8985748291015625, -0.8985748291015625, 2.2876739501953125, -68.85,-1558.05) ">
<use xlink:href="#Layer2_2_MEMBER_6_FILL"/>
</g>

<g transform="matrix( 2.2876739501953125, 0.8985748291015625, -0.8985748291015625, 2.2876739501953125, -68.85,-1558.05) ">
<use xlink:href="#Layer2_2_MEMBER_7_FILL"/>
</g>

<g transform="matrix( 2.2876739501953125, 0.8985748291015625, -0.8985748291015625, 2.2876739501953125, -68.85,-1558.05) ">
<use xlink:href="#Layer2_2_MEMBER_8_FILL"/>
</g>

<g transform="matrix( 2.2876739501953125, 0.8985748291015625, -0.8985748291015625, 2.2876739501953125, -68.85,-1558.05) ">
<use xlink:href="#Layer2_2_MEMBER_9_FILL"/>
</g>

<g transform="matrix( 2.2876739501953125, 0.8985748291015625, -0.8985748291015625, 2.2876739501953125, -68.85,-1558.05) ">
<use xlink:href="#Layer2_2_MEMBER_10_FILL"/>
</g>

<g transform="matrix( 2.2876739501953125, 0.8985748291015625, -0.8985748291015625, 2.2876739501953125, -68.85,-1558.05) ">
<use xlink:href="#Layer2_2_MEMBER_11_FILL"/>
</g>

<g transform="matrix( 2.2876739501953125, 0.8985748291015625, -0.8985748291015625, 2.2876739501953125, -68.85,-1558.05) ">
<use xlink:href="#Layer2_2_MEMBER_12_FILL"/>
</g>

<g transform="matrix( 2.2876739501953125, 0.8985748291015625, -0.8985748291015625, 2.2876739501953125, -68.85,-1558.05) ">
<use xlink:href="#Layer2_2_MEMBER_13_FILL"/>
</g>

<g transform="matrix( 2.2876739501953125, 0.8985748291015625, -0.8985748291015625, 2.2876739501953125, -68.85,-1558.05) ">
<use xlink:href="#Layer2_2_MEMBER_14_FILL"/>
</g>

<g transform="matrix( -1.441162109375, 0, 0, 1.441162109375, 1862.35,40.4) ">
<use xlink:href="#Layer2_3_MEMBER_0_FILL"/>
</g>

<g transform="matrix( 1, 0, 0, 1, 0,0) ">
<use xlink:href="#Layer2_3_MEMBER_1_MEMBER_0_FILL"/>
</g>

<g transform="matrix( -1.441162109375, 0, 0, 1.441162109375, 2898.35,295.1) ">
<use xlink:href="#Layer2_3_MEMBER_1_MEMBER_0_MEMBER_0_FILL"/>
</g>

<g transform="matrix( 0.99359130859375, 0.1130218505859375, -0.1130218505859375, 0.99359130859375, 55.35,-133.9) ">
<use xlink:href="#Layer2_4_MEMBER_0_FILL"/>
</g>

<g transform="matrix( 0.99359130859375, 0.1130218505859375, -0.1130218505859375, 0.99359130859375, 48.35,-139.7) ">
<use xlink:href="#Layer2_4_MEMBER_1_FILL"/>
</g>

<g transform="matrix( 0.99359130859375, 0.1130218505859375, -0.1130218505859375, 0.99359130859375, -5.65,-306.9) ">
<use xlink:href="#Layer2_5_MEMBER_0_FILL"/>
</g>

<g transform="matrix( 0.99359130859375, 0.1130218505859375, -0.1130218505859375, 0.99359130859375, -12.65,-312.7) ">
<use xlink:href="#Layer2_5_MEMBER_1_FILL"/>
</g>

<g transform="matrix( 0.99359130859375, 0.1130218505859375, -0.1130218505859375, 0.99359130859375, -230.65,-260.9) ">
<use xlink:href="#Layer2_6_MEMBER_0_FILL"/>
</g>

<g transform="matrix( 0.99359130859375, 0.1130218505859375, -0.1130218505859375, 0.99359130859375, -237.65,-266.7) ">
<use xlink:href="#Layer2_6_MEMBER_1_FILL"/>
</g>

<g transform="matrix( 2.19549560546875, 0, 0, 2.19549560546875, 68.65,-1743.45) ">
<use xlink:href="#Layer2_7_MEMBER_0_FILL"/>
</g>

<g transform="matrix( 2.19549560546875, 0, 0, 2.19549560546875, 68.65,-1743.45) ">
<use xlink:href="#Layer2_7_MEMBER_1_FILL"/>
</g>

<g transform="matrix( 2.19549560546875, 0, 0, 2.19549560546875, 68.65,-1743.45) ">
<use xlink:href="#Layer2_7_MEMBER_2_FILL"/>
</g>

<g transform="matrix( 2.19549560546875, 0, 0, 2.19549560546875, 68.65,-1743.45) ">
<use xlink:href="#Layer2_7_MEMBER_3_FILL"/>
</g>

<g transform="matrix( 2.19549560546875, 0, 0, 2.19549560546875, 68.65,-1743.45) ">
<use xlink:href="#Layer2_7_MEMBER_4_FILL"/>
</g>

<g transform="matrix( 2.19549560546875, 0, 0, 2.19549560546875, 68.65,-1743.45) ">
<use xlink:href="#Layer2_7_MEMBER_5_FILL"/>
</g>

<g transform="matrix( 2.19549560546875, 0, 0, 2.19549560546875, 68.65,-1743.45) ">
<use xlink:href="#Layer2_7_MEMBER_6_FILL"/>
</g>

<g transform="matrix( 2.19549560546875, 0, 0, 2.19549560546875, 68.65,-1743.45) ">
<use xlink:href="#Layer2_7_MEMBER_7_FILL"/>
</g>

<g transform="matrix( 2.19549560546875, 0, 0, 2.19549560546875, 68.65,-1743.45) ">
<use xlink:href="#Layer2_7_MEMBER_8_FILL"/>
</g>

<g transform="matrix( 2.19549560546875, 0, 0, 2.19549560546875, 68.65,-1743.45) ">
<use xlink:href="#Layer2_7_MEMBER_9_FILL"/>
</g>

<g transform="matrix( 2.19549560546875, 0, 0, 2.19549560546875, 68.65,-1743.45) ">
<use xlink:href="#Layer2_7_MEMBER_10_FILL"/>
</g>

<g transform="matrix( 2.3167877197265625, -2.1198577880859375, 2.1198577880859375, 2.3167877197265625, -1533.65,-1506.8) ">
<use xlink:href="#Layer2_8_MEMBER_0_FILL"/>
</g>

<g transform="matrix( 2.3167877197265625, -2.1198577880859375, 2.1198577880859375, 2.3167877197265625, -1533.65,-1506.8) ">
<use xlink:href="#Layer2_8_MEMBER_1_FILL"/>
</g>

<g transform="matrix( 2.3167877197265625, -2.1198577880859375, 2.1198577880859375, 2.3167877197265625, -1533.65,-1506.8) ">
<use xlink:href="#Layer2_8_MEMBER_2_FILL"/>
</g>

<g transform="matrix( 2.3167877197265625, -2.1198577880859375, 2.1198577880859375, 2.3167877197265625, -1533.65,-1506.8) ">
<use xlink:href="#Layer2_8_MEMBER_3_FILL"/>
</g>

<g transform="matrix( 1.50604248046875, 0.516693115234375, -0.26361083984375, 1.592864990234375, 502.25,-1224.1) ">
<use xlink:href="#Layer2_9_MEMBER_0_FILL"/>
</g>

<g transform="matrix( 1.50604248046875, 0.516693115234375, -0.26361083984375, 1.592864990234375, 502.25,-1224.1) ">
<use xlink:href="#Layer2_9_MEMBER_1_FILL"/>
</g>

<g transform="matrix( -0.0500946044921875, 0.8135986328125, -0.8135986328125, -0.0500946044921875, 1225.55,426.3) ">
<use xlink:href="#Layer2_10_MEMBER_0_MEMBER_0_FILL"/>
</g>

<g transform="matrix( -0.0500946044921875, 0.8135986328125, -0.8135986328125, -0.0500946044921875, 1225.55,426.3) ">
<use xlink:href="#Layer2_10_MEMBER_0_MEMBER_1_FILL"/>
</g>

<g transform="matrix( -0.0500946044921875, 0.8135986328125, -0.8135986328125, -0.0500946044921875, 1225.55,426.3) ">
<use xlink:href="#Layer2_10_MEMBER_0_MEMBER_2_FILL"/>
</g>

<g transform="matrix( -0.0500946044921875, 0.8135986328125, -0.8135986328125, -0.0500946044921875, 1225.55,426.3) ">
<use xlink:href="#Layer2_10_MEMBER_0_MEMBER_3_FILL"/>
</g>

<g transform="matrix( -0.0500946044921875, 0.8135986328125, -0.8135986328125, -0.0500946044921875, 1225.55,426.3) ">
<use xlink:href="#Layer2_10_MEMBER_0_MEMBER_4_FILL"/>
</g>

<g transform="matrix( -0.0500946044921875, 0.8135986328125, -0.8135986328125, -0.0500946044921875, 1225.55,426.3) ">
<use xlink:href="#Layer2_10_MEMBER_0_MEMBER_5_FILL"/>
</g>
</svg>
