<svg id="Layer_1" data-name="Layer 1" xmlns="http://www.w3.org/2000/svg" viewBox="0 0 347.56 334.71"><path d="M233.69,83.67c-.06.15-.12.3-.17.46.09-.12.18-.24.26-.37Zm10.51,44.44h0l0-.1ZM359.76,340.23s0,.07,0,.11l.12,0a.36.36,0,0,0,0-.11Zm2.73-17-.11,0a.83.83,0,0,1,.08.12l.07,0S362.5,323.32,362.49,323.28Zm13.74-20.49-.09-.06s0,0,0,0l.13.14ZM346.77,199.71l.79-.61V180.31c-3.17-4.48-5.66-8.93-6.67-14.07-1.51-7.65-2.8-15.33-4.25-23-.46-2.43-1.37-4.79-1.61-7.23-.42-4.29-.42-8.61-.71-12.91-.6-8.93-1.52-17.85-1.85-26.78-.47-12.61-.56-25.23-.74-37.85-.11-8.14-.11-16.28-.15-24.43q-.06-13-.11-25.92V3.38h-5.79v.71c0,3,.24,6,.23,9,0,6.67-.05,13.34-.25,20-.09,3-1.1,4-4.06,3.64-2.7-.36-4.69.61-7.52,3.09.67-3,1.05-4.79,1.48-6.74l2.59,2c1.4-5.22-2.22-8.79-2.76-13.08l-5,.24c.07-2,.13-3.64.18-5.22a4.71,4.71,0,0,0-6,1.74c-2.7-.69-5.19-2.67-7.32-.07-2-.7-3.73-1.72-5.45-1.76-1.95-.06-3.61.27-5.51-1.07-1.58-1.11-3.88-.6-5.26,1.38-.69,1-1.45,1.95-2.3,3.08l-8.32-9c-1,0-3,.79-5.1-.52-2-1.21-4.27-.13-5.69,1.81-1.28,1.74-2.26,3.7-3.55,5.43-2.06,2.74-4.27,5.36-6.4,8-2.22-4.24-6.55-6.12-10.13-8.8-.7-.53-2.08-.15-3.31-.19,3.52,12,5.44,9.59-3.92,24.92a13.49,13.49,0,0,1,2.27.68c.72.36,1.27,1,2,1.39,3.54,1.74,3.59,1.8,2.34,5.8l3.7-1.13c.38,2.54.74,4.9,1.1,7.24l-.11,0c.53,4.49-3.22,2.18-5.18,2.87.12.89.2,1.52.28,2.14,3-1.17,3.29,2.35,5.34,3.12s1.92,2.78-.46,3.82c-2.54,1.12-2.65,2.62-1.74,4.76.31.73.59,1.48.91,2.28l-3.32,3.31c3.68,2.15,3.17-2.77,5.41-2.77,4.33,1.8,4.29,1.7,9.31,0a32.7,32.7,0,0,1,5.66-1,36.26,36.26,0,0,0,3.43,4.13c.92.82,2.46,1.9,3.35,1.63,3.06-.94,6.15-.7,9.22-1a3.87,3.87,0,0,0,2.78-1.68c.78-1.65,1.92-1.93,3.51-2.17a11.29,11.29,0,0,0,3.21-1.5c3.13,2.31,3.89,5.2,3.33,8.82-.7,4.56-.91,9.21-1.37,13.81-.25,2.5-.76,5.17,1.3,7.08,3.65,3.38,3.53,7.22,1.94,11.4-.28.74-.48,1.52-.67,2.12,2.77,3.21,2.81,4.76-.08,5.87a115.4,115.4,0,0,1-11.28,3.41c-1.48.4-3.22.21-3.31,2.21,1.95.45,3.36-2.19,5.74-.59a44.38,44.38,0,0,1-10.54,10,3,3,0,0,1-1.85.58c-2.91-.32-4.52,1.55-6.34,3.31-5.84,5.62-11.77,11.13-17.7,16.72-.79-8.87-2.16-12.58-6.5-16.78,11.2-3.48,22.44-6.2,33.14-12.86l-5.26,1,.68-2.74a39.81,39.81,0,0,0-4.51-.36c-4.81.16-9.62.4-14.43.67a28.29,28.29,0,0,0-3.39.59c-1,2.09-2,4.17-3,6.32l4.81,3.29c-3.65.74-6.33,2.7-9.77,1.85-1.24-2.55-2.37-5.11-3.7-7.55-1.72-3.17-3.84-6-7.2-7.63.15-2.89.29-5.77.44-8.63l4.33-.58c.2-2.47.3-4.79-1.63-6.16s-1.79-3-1.47-4.81c1.07-5.84,2.21-11.66,5.2-16.92a19.6,19.6,0,0,0,1.26-3.14c-1.39,2-3.21,3.84-3.86,6-2.4,8.17-5.32,16.27-5,25a21.33,21.33,0,0,1-1.36,6.83c-.28.91-1.33,1.58-2.23,2.58-3.45-4.26-7.4-6.75-12.41-7.24-3.23,4.91-1.38,16,3.52,20.14-3.46-4.94-3.75-10.62-4.58-16.69a20.08,20.08,0,0,1,8.55,5.43c-.19,2.81-.64,4.7-.34,6.47a4.74,4.74,0,0,1-1,4.14c-.51.64-.92,1.35-1.38,2-3.55,5.19-5.68,11.24-10.43,15.72-2.93,2.78-2.37,6.72,1,9.08,1.93,1.37,4.35,2.07,6.68,3.14-.73,2.85-1.53,6-2.34,9.17-1.35,1.15-1.56,2.6-1.25,4.35,4.85-2.51,8-1.63,13.94,3.91-4.83-.69-9.15-2.17-13.82-1.22l3.64,1.48c-4.19,4.12-5.84,5.15.13,12-.64,1.15-1.4,2.41-2.05,3.71-3.47,7-1.92,14.64,6.94,15.91a4.62,4.62,0,0,1,1,.4c-5.73,1.1-11.48,1.91-17.05,3.4a13.69,13.69,0,0,0-6.62,4.21,66.06,66.06,0,0,0-7.62,11.59,13,13,0,0,1-3.55,4.71l-9.8-3.84a9.92,9.92,0,0,0,4.56,3.12c3.24,1.05,4.75,3.05,5.22,6.49.42,3,1.78,5.92,2.73,8.88-.15-2-.29-3.89-.48-6.35l5.41-.84a45.84,45.84,0,0,1-1.55,17.85q-1.76-5.41-3.5-10.85c.4,3,.81,5.93,1.21,8.9,1.13,8.32,4,16.35,3.88,24.88,0,1.4.65,2.82,1,4.17,6.23-.56,7.83-1.64,9.29-6.74.81-2.84,1.22-5.79,1.87-9,2.36-.37,4.24-1.71,3.91-4.51-.44-3.66.22-7.25.29-10.85.14-8-.48-15.94-.71-23.91a9.06,9.06,0,0,0-4.36-7.94c-.76-.48-1.48-1-2.72-1.87a30.77,30.77,0,0,1,3.79-1.35c6.37-1.24,12.75-2.35,19.11-3.61a37.39,37.39,0,0,0,4.68-1.61l-2.38-4.21,16.58,2.1c-1.14,2.42-2,4.31-2.91,6.15-5.37-1.21-5.45-1.11-8,3.42-5,8.8-6,18.22-4.43,28,.66,4.19,1.71,8.36,1.91,12.57.21,4.41-.41,8.87-.62,13.3,0,.44.33.89.57,1.49l7-.12,7-6.62c5.47.68,6.79,3.76,7.18,8.08a133.11,133.11,0,0,0,2.49,16.25,22.21,22.21,0,0,0,6.87,12.25l5.63-4.34c-.91-8.47,2.69-15.42,7-21.95,4.51-6.76,9.52-13.2,14.36-19.74a16.64,16.64,0,0,1,2.34-2.25c.06,2.23.7,4.06,3.54,4.72,2.68-4.21,5.44-8.41,8.09-12.69,3.85-6.23,7.67-12.48,11.39-18.78,2.47-4.19,4.37-8.58,4-13.66a5.69,5.69,0,0,1,.85-2.73q4.33-8.41,8.79-16.79a30.41,30.41,0,0,1,2.34-3.17c.13,6.71.32,12.51.33,18.32q.06,28.47,0,56.94,0,24.85-.05,49.72h9.52q.16-18.6.39-37.21a20.81,20.81,0,0,1,.35-2.48c4.38-2,7.7-.42,10.81,2.48l.79.73V270.13l-11.7-8.75c4.21-1.84,8-3.44,11.7-5.11V243.75c-2.08-.07-4.14,0-6.11-.1a27.94,27.94,0,0,1,6.11-1.42V228.57a17.09,17.09,0,0,1-8.92,1.61,28.43,28.43,0,0,1,8.92-3.39v-2.93L335.36,225c-.33-4.45-.78-8.55-.84-12.65a5.3,5.3,0,0,1,1.81-3.33A139.35,139.35,0,0,1,346.77,199.71ZM241.86,30.08c0-.16-.16-.34-.11-.46a5.3,5.3,0,0,1,.42-.73c.09.3.18.59.26.89Zm1.51,10.45c-.19.07-.49-.2-.75-.32.14-.25.27-.5.4-.76l.75.37C243.64,40.07,243.56,40.46,243.37,40.53Zm1.93,15.95L243.75,56c-.13-1.49-.53-3,.71-4.73C246,53.08,245.44,54.71,245.3,56.48Zm3.44-21.08a1.57,1.57,0,0,1-.05-.37s.15-.05.24-.08a1.49,1.49,0,0,1,0,.36S248.83,35.37,248.74,35.4ZM248.33,33c-2.15-3.36-2.19-3.42,1.27-6.63C249.2,28.5,248.8,30.6,248.33,33Zm28.59,34.7-1.12-.16c.25-1.56.5-3.12.76-4.68l.84.12Zm8.93-11.63c0,.18,0,.37,0,.55l-.12.43c0,2.28,0,4.57-.06,6.86a5.48,5.48,0,0,1-3.54,5.55l3.6-12.41v-.54l.14-.44c0-1.22.09-2.42.13-3.64l1,.16C286.59,53.79,286.22,55,285.85,56.11Zm.83-26.77-1.11-.78q1.11-2.26,2.2-4.53C288.64,26.31,289,28.36,286.68,29.34Zm-36.79,103.2,8.73-.81C253.44,135.71,252.73,135.72,249.89,132.54Zm4.67-2.82-4.94,1.92C249.73,128.12,249.73,128.12,254.56,129.72ZM194.89,284.85c-1.73-4.45-.56-9.13-.9-13.69A18.78,18.78,0,0,1,194.89,284.85Zm6.19-31.17.27,11.14a10.09,10.09,0,0,1-1.36-11.3Zm-2.2-19.31c2.61,4.6,2.37,5.23-2.26,7C196.05,238.71,196.93,236.67,198.88,234.37Zm107-126.95c.05,2.07.07,3,.09,3.88l-3.71-.37Zm1.56,17-2.17,4.17C304.35,126.44,304.54,125,307.42,124.37ZM290.73,28.18c-.19-.34-.61-.75-.52-1s.58-.62.91-.92l.7,1.08Zm1,89.48c.06-1.81.11-3.07.17-4.85C293.88,114.62,294.12,115.89,291.72,117.66Zm-48.57,42.75s.15.19.24.29l-.6.63-.33-.48C242.69,160.7,242.91,160.54,243.15,160.41Zm-3-10.49c0,.57,0,1.13.05,1.69l.15.38c0,.22,0,.43,0,.65.32,1.1.66,2.19,1,3.29l-.8.14c-.07-1.14-.13-2.29-.19-3.43-.06-.18-.12-.37-.17-.55s0-.32,0-.48l-.6-1.57Zm-21.52-22.28a3.85,3.85,0,0,1,.76.09l-.58,1a3.8,3.8,0,0,1-.33-.69C218.47,127.9,218.59,127.64,218.65,127.64Zm-7.75,63.15a3.36,3.36,0,0,1-.71-2.54c.25-.75,1.45-1.85,2-1.73,4,.8,7.86,1.89,12.23,3-3,3.85-7.16,3.1-10.31,4.28A25.85,25.85,0,0,1,210.9,190.79Zm28.53,18-.07.06-.06.06-7.73,7.57c-4.88.78-10-1.85-15.33-2.73a5.11,5.11,0,0,1-3.2-2.86,20.66,20.66,0,0,1-1.58-7.21c0-3.48,2.41-4.62,5.42-2.85,1.24.72,2.4,1.57,4.07,2.67,1.53-5.37-4.64-3.89-4.88-7.05,2.67-3.47,4.68-3.68,8.85-.67l2.14-1c.56-.26,1.14-.5,2.45-1.08-.33,2.67-.67,4.66-.8,6.67s0,4,2.5,5.59c2.51-4,1.32-7.93.7-12.15a25.48,25.48,0,0,0,2.28-3.45c1.26-2.74-.55-5.21-3.45-4.41a4.74,4.74,0,0,1-4.93-1.24c-1.37-1.2-2.93-2.18-4.37-3.31-3.06-2.42-6.32-4.24-10.38-4.33-.88,0-1.75-.74-2.62-1.13l-.07.06,4.56-8.21a25.34,25.34,0,0,0,4.52,1.15,13.5,13.5,0,0,0,4.81-.57,3.56,3.56,0,0,0,2.63-4.28c-.53-2.32-2.51-2.68-5.18-2.3.71,1.75,1.29,3.18,1.87,4.58-4,.83-5.31.3-6.76-2.61-1.68-3.37-2.25-3.54-5.61-1.73-.15.07-.26.21-.41.28s-.6.23-.91.34c-4.3-2.78-4.34-4.16-1.31-8.72,5.13-7.74,10-15.64,14.75-23.12l14.32,14.41c-4.65,6.29-1.08,12.34-.62,18.23,6.21,2.95,8.11,3,12-1.79,6.17-7.55,13.85-13.37,21.09-19.71a5.15,5.15,0,0,1,2-1.38c5.79-1.18,10-4.94,14.35-8.54,3-2.46,6.51-3.72,10.87-4.63-1.26,2.57-2.36,4.75-1.41,7.29.18.49-.72,1.38-1.12,2.1-2.83,5.16-2.45,8.33,1.15,13.18a7.7,7.7,0,0,1,1.07,4.1c.26,5.47.17,11,.54,16.43s1.89,10.82,6.27,15l-5.9,2.69c-.19-.92-.3-1.6-.46-2.27-.56-2.36-1.85-3.33-3.75-2.4-3.22,1.58-6.74,2.76-8,6.9-.46,1.52-2.29,2.62-3.92,4.37-.1-1.52-.15-2.24-.2-2.94-.35-.13-.77-.44-.94-.34-3.79,2.33-8.24,2.67-12.32,4.14a18.86,18.86,0,0,0-4.18,2.29,18.7,18.7,0,0,1-7.72,3c-3.63.47-7.23.9-10.56,2.41-1,.47-1.69,1.8-2.52,2.73v0c0,.31,0,.62,0,.93l-.1.09c-.28.25-.54.51-.81.75l-.12.11-.11.1Zm35-11.64-3.37,2-.42-.63c1-.72,2.08-1.44,3.13-2.15ZM250,226.48c1.35,2.22.14,4.06-.74,6.73-2-4.66-3.71-8.59-5.44-12.59,2.21-3.21,5.78-1.8,8.75-2.62a8.09,8.09,0,0,1-1.11,1.22C247.44,222.26,247.41,222.27,250,226.48Zm-5.3,18.05c.73,4.69-.59,8.61-4.78,11.51Q242.29,250.3,244.68,244.53Zm43.13,18.63a12.25,12.25,0,0,1-1.34,2.42l-1.56-5.2C288,260.36,288.55,260.84,287.81,263.16Zm4.85-22.47a.46.46,0,0,1-.2.05l-.13.15-.16.3c-.49,5.19-1.33,10.23-5.41,14,0-5.4,3-9.58,5.41-14,0-.14,0-.29,0-.43l.25,0,.33-.37C292.75,240.48,292.74,240.65,292.66,240.69Zm1.83,18.58L294,259c.3-.56.59-1.12.88-1.68l.67.56ZM295.9,224l-.13.09c-.18,4.36-3.29,7.31-5.3,10.78-2.41,4.16-5.13,8.15-7.31,12.41a32.59,32.59,0,0,0-3.67,15.86,10.29,10.29,0,0,1-1.6,5.54c-3.61,5.57-7.41,11-11.32,16.38A50.07,50.07,0,0,0,258.73,300a4,4,0,0,1-1.59,2.19c-.48-3.08-1-6.16-1.41-9.25-.41-3.28-.76-6.58-.95-9.88a8.33,8.33,0,0,0-5.75-7.93,30.86,30.86,0,0,1-2.93-1.54l2.21-3.3h0l-1.91-.18-.11.11-1.1,1-.21.31c0-.14.06-.28.1-.42l1.1-1.06.22,0c.79-.84,1.46-2.14,2.86-.72l0,0,5.09-4.76h0c0-.12,0-.24,0-.36a2.26,2.26,0,0,1-.19-.49s.11-.11.22-.18,0-.15,0-.22l.13.12-.14.1,0,.67c0,.09.07.17.11.26l-.1.09c3.93-1.07,6-4.47,8.73-7,2.41-2.27,4.53-4.86,7.09-6.93,9.42-7.65,18.63-15.48,24.95-26.09a2,2,0,0,1,.63-.51,1.55,1.55,0,0,0,0-.22l.32-.26C296,223.75,296,223.88,295.9,224Zm7,20.46c.53-5.29,1.91-10.27,5.41-14.45C307.79,235.31,305.57,240,302.92,244.47Zm7.23-47.19a.43.43,0,0,1-.16.05l-.13.16-.16,0c-.25.56-.41,1.35-.79,1.49-4.75,1.68-7,5.83-9.69,9.58-3.72,5.28-7.36,10.62-11.06,15.92-.16.22-.58.25-1.1.46.05-4.15.54-7.94,3.91-10.85a13.75,13.75,0,0,0,3.13-3.83c3.07-5.66,8.39-8.77,13.44-12.19a6.43,6.43,0,0,1,2.16-.58.94.94,0,0,1,.06-.15l.23,0,.26-.32C310.22,197.1,310.22,197.24,310.15,197.28ZM301,195a.61.61,0,0,1,0,.14l-1.1,1-.29.05c-1.24,1.19-2.5,2.38-3.74,3.58a2.58,2.58,0,0,0,0,.29l-.18-.1-7.07,5.56c0,.08,0,.15,0,.23l-.1.08c.48,2.6-1.62,4.17-2.78,6a26.25,26.25,0,0,0-3.95,16.63l3,.84c-2.61,3-4.82,5.85-7.4,8.35-3.82,3.7-7.93,7.09-11.86,10.68-2.69,2.47-5.62,4.79-7.82,7.65-4,5.23-9,9.27-14,13.47-2,1.68-3.94,2.36-6.45.29,1.64-4.74,4.88-8.45,7.78-12.79,5.65,3.57,8.33-2.35,12.67-3.29a36.51,36.51,0,0,1,9.49-17.9c2.86-3,2.44-4.44-1.45-7.73,1.9-4.19,6.65-7.61,4.09-13.58,6.69-1.87,13.24-4.08,18.68-8.57a1.62,1.62,0,0,0,0-.2l.14-.11c.05-1.37.09-2.76.14-4.16,2.4-1.19,4.39-2.72,6.93-1.4l0,0,.17-.16c.24-2.24,1.67-3.23,3.74-3.58l.18-.17,1.1-1,.12,0c0-.13,0-.27.08-.34l7-7.58c.73.89,1.47,1.81,2.38,2.94C307.53,192.61,304.6,194.41,301,195ZM317.07,45.06l-.87-.32c.33-.87.65-1.74,1-2.61l.86.31ZM319,179.18l-.79-.19c.23-.84.46-1.69.68-2.53l.73.18C319.36,177.49,319.16,178.34,319,179.18Zm1.63,15.6c-.27-.11-.44-.47-.84-.92l5.5-11.42c.19,5.41.34,9.62.51,14.22C323.65,195.91,322.1,195.37,320.58,194.78ZM346,250.38c-3.27,2.21-6.38,5.23-11,2C338.53,249.63,342.52,251,346,250.38Z"/><path d="M51.37,234.41l.1.13.21-.22Zm106.93-58c-.26-2.95-2-4.54-4.85-5.54-3.64-1.27-6.93-3.64-11.1-2.84-.38.07-.86-.45-1.32-.65-2.42-1.12-13.57-1.12-15.68.38a73.35,73.35,0,0,0-6.41,5.75c-.8,0-2.56-.63-3.62,0-2.92,1.67-5.26,4.1-5.93,7.63-.32,1.68-.44,3.36,1.51,4.29s1.84,2.38,1.08,4.23a22.29,22.29,0,0,0-2.93-1.1,4.28,4.28,0,0,0-4.94,5.39,2.71,2.71,0,0,0,2.24,1.17c.76,0,1.47-.89,2.83-1.81.54,3.77,1,7,1.52,10.52-1.75-.81-2.87-2.39-4.42-.23l4.7,2.47c-.07,2-.15,4-.22,6.28L106,211.5c.24,3.06,2.33,3.63,4.12,4.1,3.06.8,4,2.86,4.73,5.7,1.14,4.54.42,8.8-.91,13-9.38,4.41-18.55,9.19-28.75,12.93-.56-3.23-1-5.78-1.4-8.06-3.15-1.38-6-2.75-8.92-3.9-3.86-1.52-7.68-3.28-11.69-4.17-3.78-.85-7.54-1.27-10-5.06-.94,3,.5,6-1.51,8.27,2.47-.74,4.71-2.08,7.66-.85,6.42,2.67,13.07,4.79,19.54,7.34,2.6,1,4,5.17,2.26,7.64-2,2.93-1.37,5.57-.52,8.52.8,2.74,1.23,5.59,2,9.08l3.48,1.34c-.09,2.62,0,5-.3,7.27-.49,3.65.57,6.18,4.28,7.31a6.78,6.78,0,0,1,1.56,1c-3.7,13.32-4.65,30-1.55,36.66,1.62-9.79,3.09-18.63,4.47-26.93l5.31-2.57-2-5.84,4.87-.32a19.54,19.54,0,0,1,.79,3.15,44.36,44.36,0,0,0,4.13,16.32c1.21,2.48.91,4.72-.11,7.15a30,30,0,0,0-2,6.65c-.39,2.5,1.23,2.59,2.58,2.25,1.14-2.93,1.61-5.74,3.14-7.75,3.58-4.72,2.19-8.91-.31-13.34a41.83,41.83,0,0,1-2.83-6.34,11.28,11.28,0,0,1-.23-3.17c2.42-.91,3,.51,3.46,2,.89,2.81,1.75,5.63,2.53,8.18l4.88,1.95-1.32,5.55c1.25-.41,1.84-.42,2.12-.72a86.08,86.08,0,0,0,18.3-28.72,23.63,23.63,0,0,0,1.32-6.83c.07-1.12-.56-3-1.38-3.31a4.75,4.75,0,0,0-4.09.31,19.54,19.54,0,0,0-4.58,5.17c-3.34,5.37-6.43,10.88-9.64,16.33-.72,1.23-1.51,2.41-2.48,4-5-6.33-.59-10.95,1.61-15.83.29-.16.62-.48.87-.43,3,.62,4.42-1.45,5.21-3.55.86-2.3-1.8-2.8-3-4-.3-.3-.84-.34-1.52-.59l-13.44,15.13c-1.44-4.3-5.85-3.59-9.7-4.52-.24-1.65-2.19-3.11,0-4.83.46.8.95,1.6,1.56,2.62l3.91-2.44a12.78,12.78,0,0,1-2.13-.87c-3-2.19-3.88-2-5.35,1.22-.52,1.16-1.06,2.31-1.52,3.3-2.54.08-2.86-1.35-2.76-3,.19-2.82.41-5.64.73-8.45.27-2.42-.32-4.27-2.8-5.18-.91-.33-1.78-.8-2.65-1.19-.2-.79-.34-1.43-.52-2.06-1.52-5.67-1.49-5.94,3.82-8.36,3.63-1.65,7.43-2.91,11.08-4.5,6.23-2.72,12.24-6.07,18.66-8.21,7.53-2.51,15.24-4.86,23.46-2.4a14.69,14.69,0,0,0,10.37-.9c-3.48-3.51-2.57-8.07-2.39-11.85.2-4.36.91-8.41-2.83-12.61l6.72-.8a7.74,7.74,0,0,0,.74-1.82c1.09-8.08,2.17-16.16,3.15-24.25A29.77,29.77,0,0,0,158.3,176.44Zm-27.08,104c.81,2.05.81,2.05-1.72,5.61Q130.37,283.26,131.22,280.45Zm-33.76-6.72c-.06.07-.1.17-.17.2h-.07Zm32.82-103.45c3.55-.3,5.63,2,8.33,3.58-.5,1.68-1,3.21-1.35,4.57l-4.93-2.76c-.48,1.21-.82,1.91-1,2.64s-.28,1.47-.53,2.84l-3.64-6.93,3.23-1C130.34,172.18,130.31,171.3,130.28,170.28Zm-4.75,14.09c1.26,4.71,2.61,8.45,2,12.93C123.61,194.23,123,190.68,125.53,184.37Zm-1.11-7.79c.22.5.39.9.56,1.3-.21.06-.52.24-.6.16a1.43,1.43,0,0,1-.46-.77C123.9,177.11,124.18,176.9,124.42,176.58Zm-8.54,38.87c-.85-.82-1.82-2.16-1.73-3.18a63.6,63.6,0,0,0-1.33-17.84c-.08-.42.22-.92.57-2.21,1,1.14,2,1.8,2.1,2.58a59.45,59.45,0,0,1,.18,6,46.62,46.62,0,0,0,3.57,16.65A15.49,15.49,0,0,1,115.88,215.45Zm8,14.22c-.32-2.54-.63-5.09-1.06-8.53,3.42,2.36,7.17,0,10,2.7a1.89,1.89,0,0,0,1.82-.15c1.6-2.75,5.77-3.51,5.81-7.47,0-.26.38-.51.92-1.17l4.18,1.06c.71,5.17,1.38,10,2.09,15.13Z"/><path d="M14,242.06c0,.06,0,.13,0,.19l.11-.14Zm4.31-7.79-.05.07.18,0Zm6.19-3.84.08.14.15-.22ZM49.72,220a2.69,2.69,0,0,1-.4-.89c1.67-6.33.66-9.25-3.76-10.84-.42-2.1-.69-4.25-1.31-6.3a6.67,6.67,0,0,0-2-3.24c-3.13-2.41-6.4-4.65-9.7-6.82a9.13,9.13,0,0,0-9.92-.43c-2.15,1.28-4,2-6.43,1.74A3.91,3.91,0,0,0,11.64,196c-.08.21-.15.42-.21.64a16.67,16.67,0,0,0-.53,4.4c0,6.64,0,13.29.18,19.93.14,3.9-.19,7.86.56,11.72a18.06,18.06,0,0,0,1,3.52A5.32,5.32,0,0,1,12.4,239a2.32,2.32,0,0,0,1.56,3,4.85,4.85,0,0,1,2-4.84,12.35,12.35,0,0,0,2.27-2.88c-4.55-.87-6.12-3.7-4.79-9.39,3.36,5.08,8.15,3.1,12.9,2.81l-1.64,2.59c2.37-.86,4.77-1.71,7.66-2.74,1.07,1.68,2.23,3.23,3.1,4.94,1,1.9,2.2,2.79,4.38,2.17s2.9-1.91,2.39-4.11a33.75,33.75,0,0,1-.45-4.16c1.81-.1,3.25-.21,4.7-.25,1.76,0,3.84.75,4.86-1.41C52.28,222.81,51.12,221.33,49.72,220ZM22,222.45l-.09-2.56-.15-.37-.48-1.16c.21.35.41.71.61,1.06,0,.16,0,.31,0,.47.31.8.63,1.59.94,2.38Zm7.17,4.73c.11-3.13.19-5.41.26-7.34C31,224.06,31,224.06,29.19,227.18ZM26.28,198.1l-3.35-4.57c1.85-.37,3.44-1.16,4.75-.84a7,7,0,0,1,5.2,5.24Zm10.59,10.23a2.52,2.52,0,0,1-.31-.44s.17-.18.26-.27L37,208C37,208.09,36.92,208.21,36.87,208.33Zm10.19,2.6.9,2.65-1.39.2c-.12-.88-.25-1.75-.37-2.63Zm-7.63-9a5.77,5.77,0,0,1-.38-1.6l.81-.28,1.44,2.8-.55.48A8.28,8.28,0,0,1,39.43,202Zm2.46,22.1c-.14-3.51-3.84-6.79-.45-11.81.93,5.28,2.32,9.4,7.74,10.94C46.55,225.85,44.36,225,41.89,224.07Z"/><path d="M80.19,275.34A21,21,0,0,0,68,269.1a6.19,6.19,0,0,1-3.49-2.32,38.38,38.38,0,0,1-2.78-5.28c-1.35-2.59-2.75-5.15-4.33-8.1-2.69,2.76-1.78,5.52-1.77,8.06,0,4.14.52,8.32.19,12.43A34.16,34.16,0,0,0,59,292.32,32.48,32.48,0,0,1,60.86,297c1.27,4.07,2.45,8.18,3.63,12.28a1.56,1.56,0,0,1-.2.94c-1.35,2.93.19,5.44.88,8.28l6.12.21c.26-6.31,1.21-12.24-1.14-18.06a12,12,0,0,1-.8-5.38c.6-6.78-1.7-12.68-5.2-18.22a16.29,16.29,0,0,1-1.9-5.59c1.43.38,2.36.68,3.32.88,5.22,1.06,10.48,1.92,14.21,6.42,1,1.16,2.53,1.38,4.25-.21A41.34,41.34,0,0,1,80.19,275.34Zm-20,4.32-.27-2,.6-.07c.06.67.11,1.33.16,2Zm.51-10.2c-.09-.11-.28-.26-.25-.33a4.47,4.47,0,0,1,.37-.67c.08.12.17.23.25.34Z"/><path d="M244,127.94l.18.17.09-.11Zm19.58-13c-.16-3.68-5.48-2.55-5.67-6.06-2.67-.09-5.3-.51-7.85-.19a46.52,46.52,0,0,0-9.15,2.18c-5.78,2-10.37,5.33-5.3,12.85a15.43,15.43,0,0,1,1.17,2.54l7.22,1.65-2.15-2,19.36-.78,0-.6-19.13.4a29.17,29.17,0,0,1,19.84-1.53c2.29.61,4.56,1.17,6.24-1.22C267.22,119.36,266.42,116.53,263.6,115Zm-23.21,9.7a1.51,1.51,0,0,1-.41-.13c.05-.1.1-.28.15-.28a1.73,1.73,0,0,1,.42.14C240.5,124.49,240.44,124.67,240.39,124.67Zm-.76-2.2,1.18-5.43-3.1.67-.12.17-.44.6.33-.72.23-.05c.61-.88,1.16-2.21,1.88-2.31,4.07-.58,8.2-.87,12.32-1.12a27.36,27.36,0,0,1,4.4.51l-3.46,1.33c3.8.72,7.33.29,11,3.27Z"/><path d="M170.87,283.6c-2.4,2.24-2.55,6.26-6.91,4.88,0-2.54.25-5,2.63-6.41s2.66-3.77,2.51-6.08c-.3-4.81-.83-9.6-1.32-14.4-.29-2.83-.33-2.82,1.89-5.1,2.05.79,2,2.82,2.52,4.47a93.8,93.8,0,0,0,3,9,27.75,27.75,0,0,1,2.16,11.67c0,4.47-1.43,5.46-6.38,4.8C170.92,285.62,170.9,284.86,170.87,283.6Z"/><path d="M43.82,275.14l-.39,11.1,3.37-1.47a6.46,6.46,0,0,1,1.87,6.71c-1,3.9-1.6,8.1.36,12.06l-.11-.12c1.72,4.7.67,8.48-3,10.5a4.87,4.87,0,0,1-1.68.17,55.39,55.39,0,0,0,.47-25.94l-2.88,2.33c-2.42-1.56-1.25-10.17,2.06-15.22Z"/><path d="M51.37,234.41a38.25,38.25,0,0,1-20,6.19,44.92,44.92,0,0,0-9.69,1.73,4.21,4.21,0,0,0-2.79,2.34c-.7,3.24-3.25,4.33-5.56,5.88-1.17-1.77-.53-3,.84-3.93,2.27-1.59,1.11-3-.11-4.51l-.11.14,4.08-2.56c1.2.31,2.72,1.12,4.13,1,8.67-.89,17.46-1.26,25.48-5.38,1.1-.57,2.53-.51,3.8-.74Z"/><path d="M29.89,285.45c2.49,4,4.2,7.52,2.55,11.85-.61-2.87.22-6.14-2.82-8.76l-1.05,2.83C27.41,289.21,27,287.49,29.89,285.45Z"/><path d="M50,285.9l.35-10.1c2.1.29,2.77,1.44,2.15,2.79-.72,1.55-1.08,2.75-.32,4.49C52.74,284.42,51.47,285.39,50,285.9Z"/><path d="M179.24,301.85c-.52-5.07-2.53-10.1-1.76-15.23l1,0Q178.86,294.22,179.24,301.85Z"/><path d="M117.42,264.76c2.09-1.89,4.23-.84,6.38-.26.21,1.73-.64,2.39-2,2a36.93,36.93,0,0,1-4.52-1.89Z"/><path d="M233.78,83.76l1.83-3.65c.59,2-.42,3-1.92,3.56Z"/><path d="M169.36,236.24l-2.87-.09,0-.31,2.86.1Z"/><path d="M24.45,230.43c-.9,1.65-2.38,2-4.09,1.85l.1.14,4.08-1.85Z"/><path d="M161.26,234.69l2.19.07v.33l-2.19-.07Z"/><path d="M222,112.13l.07-2.14h.53c0,.76,0,1.53.05,2.29Z"/><path d="M156.94,234.43l.47.11a1.88,1.88,0,0,1-.49.32c-.13,0-.31-.07-.46-.11Z"/><path d="M107.58,278.13a3.7,3.7,0,0,1,.29-.29,4,4,0,0,1,.63.6s-.17.24-.26.36Z"/><path d="M243.9,80c.21-.53.43-1,.65-1.57l.56.41-1.33,1Z"/><path d="M219.7,110.17c-.1.46-.2.91-.29,1.36.13-.41.27-.82.4-1.23Z"/><path d="M219.81,110.3l.4-.43c-.05.07-.08.17-.14.21a2.49,2.49,0,0,1-.37.09Z"/><path d="M20.36,232.28l-1,1,.1.14,1-1Z"/><path d="M19.35,233.24l-1.08,1,.13.1,1.05-1Z"/><path d="M243.78,79.9l-.1.36.22-.24Z"/><path d="M49,303.54l1-1-.11-.13-1,1Z"/><path d="M50,302.54l.17-.38-.28.25Z"/><path d="M180.58,284.93l-.15.32.27-.19Z"/><path d="M181.64,284l-1.06.94.12.13,1.05-.95Z"/><path d="M181.75,284.11l1-1-.12-.13-1,1Z"/><path d="M183.71,282.06l-1.06.94.12.13,1.06-.95Z"/><path d="M183.83,282.18l1-1-.12-.12-1,1Z"/><path d="M185.78,280.12l-1.07.93.12.12,1.08-.92Z"/><path d="M185.91,280.25l.17-.45-.3.32Z"/><path d="M44.91,274.22c-.37.3-.73.61-1.09.92l.11.12c.37-.3.73-.61,1.09-.92Z"/><path d="M45,274.34l.18-.41-.29.29Z"/><path d="M117.3,264.63l-.12.35.24-.22Z"/><path d="M255.08,197.5l1,.51a7,7,0,0,1-.94,1c-.08,0-.7-.41-.67-.51A3.73,3.73,0,0,1,255.08,197.5Z"/><path d="M239.45,207.89l0,1.16a3.25,3.25,0,0,1-.26-.78C239.15,208.16,239.35,208,239.45,207.89Z"/><path d="M240.49,206.93l0,1.14-1.13-.06Z"/><path d="M241.53,206l0,1.15-1.14-.06Z"/><path d="M345.25,292.7c-.25.06-.57.24-.71.14s-.27-.46-.39-.71c.26-.06.59-.26.78-.16S345.15,292.44,345.25,292.7Z"/><path d="M248.17,270.4l1.19-1.12Z"/></svg>