<svg xmlns="http://www.w3.org/2000/svg" viewBox="0 0 96.65 125.26"><defs><style>.cls-1{fill:#cdcccc;}.cls-2{fill:#fefcfb;}</style></defs><g id="Layer_2" data-name="Layer 2"><g id="Layer_1-2" data-name="Layer 1"><path class="cls-1" d="M96.65,0V67.61h-29V29H29V0Z"/><path class="cls-2" d="M96.65,67.61l-29,29H0V29L29,0V67.61Z"/><path class="cls-2" d="M44.76,115.42A4.65,4.65,0,0,1,43.37,118a6.69,6.69,0,0,1-4.76,2.07v-3a2.94,2.94,0,0,0,1.55-.62,3.23,3.23,0,0,0,.77-1Z"/><path class="cls-2" d="M64.87,119.65H61.12V100.27h3.75Z"/><path class="cls-2" d="M73.68,110.93a5.83,5.83,0,0,0,1.49-.32,1.11,1.11,0,0,0,.81-1.07,1.26,1.26,0,0,0-.62-1.22,3.91,3.91,0,0,0-1.82-.33,2.41,2.41,0,0,0-1.91.66A2.7,2.7,0,0,0,71.1,110H67.48a5.48,5.48,0,0,1,1.06-3.09Q70,105,73.67,105a9.14,9.14,0,0,1,4.2.93,3.58,3.58,0,0,1,1.84,3.53V116c0,.46,0,1,0,1.66a2,2,0,0,0,.23,1,1.4,1.4,0,0,0,.55.44v.55H76.43a4,4,0,0,1-.24-.82c0-.25-.07-.54-.1-.87a7.81,7.81,0,0,1-1.8,1.44,5.53,5.53,0,0,1-2.76.7A4.76,4.76,0,0,1,68.3,119,4,4,0,0,1,67,115.85,4.07,4.07,0,0,1,69.08,112a9.09,9.09,0,0,1,3.31-.92ZM76,112.68a3.3,3.3,0,0,1-.73.36,5.89,5.89,0,0,1-1,.26l-.86.16a5.69,5.69,0,0,0-1.72.51,1.73,1.73,0,0,0-.89,1.59,1.65,1.65,0,0,0,.54,1.39,2.09,2.09,0,0,0,1.32.43,4,4,0,0,0,2.26-.71A3,3,0,0,0,76,114.08Z"/><path class="cls-2" d="M95,107a8.29,8.29,0,0,1,1.61,5.26,9.25,9.25,0,0,1-1.59,5.54,5.14,5.14,0,0,1-8.71,0v1.81H82.66V100.29h3.75v6.89A5.29,5.29,0,0,1,88,105.66a4.68,4.68,0,0,1,2.6-.66A5.36,5.36,0,0,1,95,107Zm-3.14,8.73a5.29,5.29,0,0,0,.81-3.07,6.81,6.81,0,0,0-.4-2.53,2.76,2.76,0,0,0-2.78-1.89,2.81,2.81,0,0,0-2.83,1.85,6.92,6.92,0,0,0-.4,2.55,5.37,5.37,0,0,0,.82,3,2.81,2.81,0,0,0,2.51,1.21A2.59,2.59,0,0,0,91.9,115.77Z"/><path class="cls-2" d="M4.79,109.15a6.62,6.62,0,0,0,0,6.64,2.83,2.83,0,0,0,1.8,1.1v3.18a6.33,6.33,0,0,1-4.77-2.21,8.87,8.87,0,0,1,0-10.77,6.31,6.31,0,0,1,4.77-2.25v3.21A2.79,2.79,0,0,0,4.79,109.15Z"/><path class="cls-2" d="M14.66,112.47a8.31,8.31,0,0,1-1.81,5.39,6.34,6.34,0,0,1-4.72,2.21v-3.19a2.89,2.89,0,0,0,1.72-1.09,6.72,6.72,0,0,0,0-6.64,2.83,2.83,0,0,0-1.72-1.08v-3.22a6.27,6.27,0,0,1,4.72,2.24A8.39,8.39,0,0,1,14.66,112.47Z"/><path class="cls-2" d="M19.71,110.17a7.23,7.23,0,0,0-.39,2.61,4.13,4.13,0,0,0,1.34,3.51,2.94,2.94,0,0,0,1.27.54v3a4,4,0,0,1-1.26-.63,5.53,5.53,0,0,1-1.22-1.38v7.47H15.74v-20h3.59v2.12a5.9,5.9,0,0,1,1.3-1.47,4.54,4.54,0,0,1,1.3-.7v3.06A2.8,2.8,0,0,0,19.71,110.17Z"/><path class="cls-2" d="M29.66,112v.58A8.47,8.47,0,0,1,28,118a5.57,5.57,0,0,1-4.42,2h-.07v-3.26a2.63,2.63,0,0,0,1.5-1.09,6.34,6.34,0,0,0,.06-6.16,2.48,2.48,0,0,0-1.56-1.16V105h.16a5.65,5.65,0,0,1,4.28,1.85A7.43,7.43,0,0,1,29.66,112Z"/><path class="cls-2" d="M35.6,108.81a3.91,3.91,0,0,0-1,2.22h2.48v2.47H34.51a3.44,3.44,0,0,0,1.5,3,3.32,3.32,0,0,0,1.07.44v3.1a7.74,7.74,0,0,1-4.15-1.72q-2.19-1.77-2.19-5.74a7.8,7.8,0,0,1,2-5.72,6.81,6.81,0,0,1,4.37-2v3.13A2.65,2.65,0,0,0,35.6,108.81Z"/><path class="cls-2" d="M45,112.76v.74H38.61V111h2.45a3,3,0,0,0-2.45-3v-3.14a7.77,7.77,0,0,1,2.6.65,5.8,5.8,0,0,1,2.48,2.12,7.06,7.06,0,0,1,1.14,3A13.59,13.59,0,0,1,45,112.76Z"/><path class="cls-2" d="M51.73,105.38v2.81a2.51,2.51,0,0,0-1.59,1.48,5.62,5.62,0,0,0-.36,2.18v7.76H46V105.3h3.62v2.09A6.27,6.27,0,0,1,51,105.8,3.9,3.9,0,0,1,51.73,105.38Z"/><path class="cls-2" d="M59,110v9.66H55.13V110.9a4,4,0,0,0-.3-1.74,1.94,1.94,0,0,0-1.56-1.07V105c.22,0,.45,0,.67,0a5.54,5.54,0,0,1,3.63,1.16A4.74,4.74,0,0,1,59,110Z"/></g></g></svg>