<svg xmlns="http://www.w3.org/2000/svg" width="150" height="195" viewBox="0 0 150 195"><g fill="none" fill-rule="evenodd"><polygon fill="#bbb" fill-rule="nonzero" points="150.091 0 150.091 105 105.064 105 105.064 45 45.027 45 45.027 0"/><polygon fill="#fff" fill-rule="nonzero" points="150.091 105 105.064 150 0 150 0 45 45.027 0 45.027 105"/><g fill="#fff" fill-rule="nonzero" transform="translate(0 156)"><path d="M70,24 C69.7185426,25.4868639 68.9256401,26.8505498 67.7387148,27.8891067 C65.7139986,29.8396273 62.9266897,30.9601003 60,31 L60,26.4199104 C60.9191535,26.3380172 61.7928319,26.0118548 62.5151354,25.4809577 C63.0368475,25.0696047 63.4640718,24.5660645 63.771641,24 L70,24 Z"/><polygon points="101 30 95 30 95 0 101 0"/><path d="M114.367777 17.0535685C115.163292 16.9873605 115.946646 16.8205788 116.698211 16.5574024 117.435709 16.3452726 117.945906 15.6888242 117.956889 14.9379162 118.034727 14.1900278 117.657215 13.4668687 116.9918 13.0892013 116.102972 12.7006244 115.13177 12.5257229 114.159521 12.5791425 113.067593 12.46821 111.981239 12.8339179 111.191113 13.5784211 110.737654 14.1607798 110.451176 14.8506117 110.361137 15.5769781L104.730102 15.5769781C104.777329 13.8845821 105.351011 12.2463555 106.374815 10.8802698 107.923697 8.96176087 110.583277 8.00250641 114.353554 8.00250641 116.617841 7.96050205 118.859692 8.44699109 120.892788 9.42154146 122.798583 10.3675648 123.751481 12.1537628 123.751481 14.7801354L123.751481 24.773913C123.751481 25.4665609 123.765026 26.306074 123.792116 27.2924522 123.776671 27.8193397 123.896459 28.3416259 124.140564 28.8117128 124.361881 29.1024099 124.658551 29.330202 125 29.4716137L125 30.3111268 118.652768 30.3111268C118.486969 29.9113269 118.363406 29.4960311 118.284003 29.0717038 118.216277 28.6853558 118.161758 28.2457527 118.120446 27.7528943 117.303478 28.6129141 116.359442 29.3487615 115.319658 29.9360252 114.013101 30.6530176 112.535125 31.0183977 111.036699 30.9948437 109.20226 31.0625646 107.407631 30.461244 106.001987 29.3078789 104.634811 28.0863512 103.904736 26.3275385 104.014921 24.5208683 103.848094 22.1432012 105.090779 19.8824649 107.211902 18.7048093 108.825241 17.9253879 110.574785 17.4506696 112.36852 17.3056209L114.367777 17.0535685ZM117.935555 19.7120265C117.577701 19.9310994 117.198643 20.1152376 116.803862 20.2617785 116.2939 20.434718 115.769865 20.5651793 115.237372 20.6517651L113.909614 20.8919095C112.978509 21.009302 112.072895 21.2726776 111.227685 21.6718826 110.330742 22.1523788 109.794918 23.0923432 109.849133 24.0901962 109.773783 24.8834877 110.085909 25.6650227 110.691299 26.1989021 111.276818 26.6396628 112.000421 26.8689613 112.739317 26.8478874 113.999994 26.8522828 115.231112 26.4751119 116.263413 25.7682299 117.337539 25.0484583 117.895258 23.7359336 117.936571 21.8306557L117.935555 19.7120265ZM147.457691 10.5929085C149.223975 12.9755322 150.117163 15.8921062 149.987663 18.8541672 150.10778 21.9444369 149.233318 24.9918144 147.492587 27.5491496 144.75199 31.0245429 139.898229 32.0115157 136.015854 29.8828501 135.148656 29.2497647 134.402284 28.4662698 133.812264 27.5696567L133.812264 30.4006527 128 30.4006527 128 0 133.895399 0 133.895399 10.8164351C134.55155 9.85962419 135.39425 9.04495282 136.373027 8.42121356 137.604505 7.68950728 139.022174 7.3308067 140.453826 7.38868439 143.169001 7.26626813 145.776676 8.45926294 147.457691 10.5929085L147.457691 10.5929085ZM142.531174 24.3059622C143.439995 22.8630175 143.884179 21.1764147 143.803857 19.4734796 143.84482 18.1243409 143.632466 16.7794736 143.177779 15.5084446 142.557486 13.6430751 140.76274 12.4244996 138.79831 12.5349246 136.833947 12.4098926 135.023288 13.596868 134.356234 15.4469235 133.897169 16.7310436 133.68476 18.0901682 133.730156 19.4529726 133.664129 21.1442718 134.115207 22.8155581 135.023366 24.2444411 135.91178 25.5254765 137.407963 26.2467548 138.96458 26.1444178 140.393375 26.1964941 141.745675 25.4994299 142.531174 24.3059622L142.531174 24.3059622Z"/><path d="M7.50543823 6.79057008C5.64752274 10.0271573 5.64752274 14.0129628 7.50543823 17.2495499 8.19183755 18.1725363 9.20611709 18.7941338 10.3372214 18.9849979L10.3372214 24C7.45602122 23.9777469 4.72528629 22.7045756 2.84861437 20.5085298-.949538123 15.4967493-.949538123 8.55468666 2.84861437 3.54290613 4.7106347 1.32102961 7.44595595.0269322739 10.3372214 0L10.3372214 5.05409344C9.20618471 5.2458238 8.19208944 5.86767677 7.50543823 6.79057008L7.50543823 6.79057008ZM22.9957529 12.0144021C23.0741548 15.0964254 22.0649247 18.1070034 20.1465592 20.5136734 18.290932 22.6886013 15.5943013 23.9576845 12.7429569 23.9979426L12.7429569 18.9644235C13.8237103 18.7509749 14.7859334 18.1392907 15.440576 17.2495499 17.2844869 14.009212 17.2844869 10.030908 15.440576 6.79057008 14.784302 5.90413702 13.8223577 5.29556467 12.7429569 5.08392628L12.7429569.0102871839C15.6043926.0570999288 18.305103 1.3476166 20.1465592 3.54804972 22.0507758 5.9497353 23.0587049 8.94478714 22.9957529 12.0144021Z" transform="translate(0 7)"/><path d="M6.28645149 7.95282743C5.82678547 9.23079496 5.61305945 10.5793232 5.65584537 11.9317073 5.65584537 14.4778711 6.36282605 16.2664381 7.77678739 17.2974083 8.37089675 17.7236029 9.06151919 18.0067942 9.79142428 18.1235148L9.79142428 22.6690956C9.07103704 22.4607417 8.39404666 22.1318322 7.79123663 21.6973231 7.03176245 21.1029579 6.38077535 20.3896783 5.86535935 19.5871599L5.86535935 31 0 31 0 .469979196 5.67648715.469979196 5.67648715 3.70456506C6.22851661 2.8508886 6.9216471 2.09051606 7.72827923 1.45372431 8.3516976.992700206 9.0489749.633429799 9.79245637.390162148L9.79245637 5.0634503C8.15355767 5.31018072 6.79777719 6.42750977 6.28645149 7.95282743L6.28645149 7.95282743ZM22 10.7105064 22 11.6084482C21.9311941 15.2421193 21.0291487 18.0297297 19.2938638 19.9712794 17.5671713 21.9587625 14.9966768 23.0759297 12.3128167 23.0053249L12.2096078 23.0053249 12.2096078 18.021748C13.1793505 17.7591671 14.0185485 17.1672048 14.5730906 16.3545694 16.2868122 13.4477509 16.3258409 9.89143664 14.6762995 6.95012577 14.1412329 6.05382184 13.249203 5.40897576 12.2085757 5.16621475L12.2085757.00105403946C12.2901107.00105403946 12.3726778.00105403946 12.4542128.00105403946 15.0274589-.0377103374 17.4938612.994340114 19.2257459 2.83455924 21.0050666 4.64308051 21.929818 7.26839625 22 10.7105064Z" transform="translate(24 8)"/><path d="M7.52145306 5.89888659C6.65248324 6.83252652 6.11089249 8.01530291 5.97615654 9.27364923L9.81414789 9.27364923 9.81414789 13.0325393 5.83879685 13.0325393C5.92834998 15.2162092 6.70268157 16.7487485 8.16179161 17.6301571 8.67167667 17.9414322 9.23183579 18.1649879 9.81818788 18.2912135L9.81818788 23C7.4584136 22.7733795 5.2200929 21.8638557 3.38652237 20.3865441 1.12884079 18.5999051 0 15.6916537 0 11.6617901 0 7.88668796 1.0190877 4.99200184 3.05726311 2.97773175 4.86166211 1.20192124 7.2686388.141810219 9.81818788 2.25685937e-13L9.81818788 4.74948213C8.9473792 4.881823 8.14253519 5.28460842 7.52145306 5.89888659L7.52145306 5.89888659ZM21.9987604 11.910927 21.9987604 12.3893492C21.9987604 12.5971287 21.9967405 12.8111945 21.9927005 13.0315467L12.1805726 13.0315467 12.1805726 9.27265665 15.970084 9.27265665C16.0052192 7.05912646 14.399083 5.14834687 12.1805726 4.76437079L12.1805726 0C13.5672265.0954169925 14.9267465.425153544 16.1993535.974710858 17.7646079 1.66927328 19.0959598 2.7879456 20.0373449 4.19959434 20.9681001 5.54903954 21.5726629 7.08971717 21.8048409 8.70390989 21.9451707 9.76719411 22.0099674 10.8387931 21.9987604 11.910927L21.9987604 11.910927Z" transform="translate(48 8)"/><path d="M8.80859868.694049331 8.80859868 5.10450693C7.68163808 5.45351913 6.77480855 6.30697524 6.34808498 7.42020173 5.93679243 8.51078984 5.7446412 9.67366805 5.78291366 10.8405566L5.78291366 22.9959087 0 22.9959087 0 .580514825 5.60125145.580514825 5.60125145 3.85358169C6.16185382 2.9101985 6.87330686 2.06783358 7.70651461 1.3609367 8.04991102 1.10027933 8.41928482.87676578 8.80859868.694049331L8.80859868.694049331ZM20 7.87433976 20 23 14.060655 23 14.060655 9.34108285C14.1070916 8.41082134 13.9485027 7.48175633 13.5964071 6.62136885 13.1312198 5.67436452 12.2139805 5.04030079 11.1742443 4.94699059L11.1742443.0609154602C11.521624.0248662004 11.8706157.00711321044 12.2198113.00772812366 14.241206-.0790686773 16.2268853.567565327 17.8200535 1.83144007 19.2726783 3.04383858 19.9993272 5.05813848 20 7.87433976Z" transform="translate(71 7)"/></g></g></svg>
