<svg xmlns="http://www.w3.org/2000/svg" viewBox="0 0 299 150.53"><defs><style>.cls-1{fill:none;}.cls-2{fill:#fefcfb;}.cls-3{fill:#ef7a25;}</style></defs><g id="Layer_2" data-name="Layer 2"><g id="Layer_1-2" data-name="Layer 1"><path class="cls-1" d="M164,71.18V65.69a7.68,7.68,0,0,1,3.06,0,2.47,2.47,0,0,1,2.12,2.49A2.67,2.67,0,0,1,167.26,71,10.54,10.54,0,0,1,164,71.18Z"/><path class="cls-2" d="M299,150.53H0V0H299ZM.89,149.65H298.11V.89H.89Z"/><path class="cls-2" d="M298.62,2.46a4.59,4.59,0,0,0-.07-1.36l0-.12H151c-.42,0-.85,0-1.27.05v149.1H298.6c0-.51,0-1,0-1.54V46.26Q298.65,24.36,298.62,2.46ZM275.89,85.84l4.25,7.07c1.63-2.26,2.87-4.58,4.27-6.81h3.13c0,.54-.36.87-.6,1.24-1.54,2.35-3.09,4.71-4.67,7a3.44,3.44,0,0,0-.64,2.14c0,1.92,0,3.84,0,5.84a17.54,17.54,0,0,1-3,.14,8.44,8.44,0,0,1,0-2.7,9.84,9.84,0,0,0-2-7.52,73,73,0,0,1-4-6.18A17.61,17.61,0,0,1,275.89,85.84Zm5.8,39.08a12.76,12.76,0,0,1-2.82,0c0-1.91,0-3.73,0-5.55a3,3,0,0,0-.52-1.79c-1.49-2.28-2.94-4.59-4.39-6.89a1.74,1.74,0,0,1-.47-1.1,9.9,9.9,0,0,1,2.8-.21c1.31,2.16,2.63,4.34,4,6.62,1.53-2.1,2.67-4.29,4-6.35a20.5,20.5,0,0,1,2.93,0,2.27,2.27,0,0,1-.6,1.21c-1.47,2.24-2.95,4.49-4.45,6.71a2.75,2.75,0,0,0-.5,1.66C281.71,121.13,281.69,123,281.69,124.92ZM266.52,85.86l7.68,16.58-3.19.29-1.9-4.43h-6.57c-.71,1.29-1.09,2.73-1.76,4.11h-3.14L265,86.12A2.87,2.87,0,0,1,266.52,85.86ZM264,112a37.79,37.79,0,0,0-5-.11,6.25,6.25,0,0,1,.05-2.47c4.28.11,8.51.14,12.79,0a7.58,7.58,0,0,1-.14,2.48,46,46,0,0,0-4.85.08v12.92a12.23,12.23,0,0,1-2.95.13C264.05,120.61,264,116.33,264,112ZM239.93,85.8l3.68,11.27.25,0c1.31-3.67,2.62-7.34,3.92-11a2.12,2.12,0,0,1,1.5-.21c1.32,3.69,2.65,7.41,4,11.13l.22,0c1.15-3.62,2.3-7.25,3.47-10.92a18.37,18.37,0,0,1,3.18-.07c-2,5.5-4,10.91-6,16.35a2.8,2.8,0,0,1-1.45.23q-1-2.79-2-5.6c-.68-1.84-1.36-3.67-2.14-5.75l-4.23,11.37h-1.47l-6-16.57A18,18,0,0,1,239.93,85.8Zm16.58,23.85v15.26a10.24,10.24,0,0,1-2.72.06V109.76A12.8,12.8,0,0,1,256.51,109.65Zm-9.38,9.4c-1.27-.85-2.74-1.39-3.94-2.37a3.78,3.78,0,0,1-.4-5.65,4.65,4.65,0,0,1,2.13-1.36,7,7,0,0,1,5.77.86l-.63,2c-.46.2-.7-.12-1-.24a6.63,6.63,0,0,0-2.23-.54,2.24,2.24,0,0,0-2.26,1.35c-.26.83.08,1.52,1.14,2.2.54.34,1.11.63,1.68.93a14.06,14.06,0,0,1,2,1.18,4.1,4.1,0,0,1-.09,6.83,5.64,5.64,0,0,1-3.12,1,8.94,8.94,0,0,1-4.88-1.27,7.1,7.1,0,0,1,.13-2.54,10.92,10.92,0,0,0,3.61,1.37,4,4,0,0,0,1.14.08c1-.14,1.84-.43,2.15-1.52C248.55,120.52,248.2,119.77,247.13,119.05ZM226,140a2.46,2.46,0,0,1-1.44.1v-8.72c.74-.35,1,.17,1.26.51,1.19,1.39,2.36,2.8,3.55,4.19a2.32,2.32,0,0,0,1.09.95v-5.43a2.22,2.22,0,0,1,1.42-.08v8.74c-.58.35-.86-.09-1.15-.43-1.22-1.43-2.42-2.87-3.64-4.3-.26-.31-.55-.61-1-1.08C225.94,136.4,226.11,138.17,226,140Zm-20.81-8.47a13.66,13.66,0,0,1,4.19.14,3.85,3.85,0,0,1,3.13,3.84,4.21,4.21,0,0,1-3,4.4,11.32,11.32,0,0,1-4.31.12C205.33,137.18,205.32,134.42,205.22,131.51ZM206.9,125a1.87,1.87,0,0,1-1.38.16l-6.67-15.46a8.69,8.69,0,0,1,2.94-.32l4.48,11.13c1.46-3.74,2.82-7.25,4.21-10.8a11.08,11.08,0,0,1,3,0C211.27,114.85,209.11,119.89,206.9,125Zm-9.84,15a2.42,2.42,0,0,1-1.43.09v-8.72c.76-.35,1,.18,1.26.51,1.2,1.39,2.37,2.8,3.56,4.19a2.21,2.21,0,0,0,1,.93V131.6a2.34,2.34,0,0,1,1.52-.09v8.71c-.63.37-.91-.07-1.2-.42l-3.63-4.29c-.27-.32-.56-.61-1-1.08C197,136.41,197.16,138.17,197.06,140Zm-12.79-1.11c.32.38.15.73.07,1.15h-5.19v-8.49a3.79,3.79,0,0,1,1.52-.09v7.18C181.93,139,183.14,138.66,184.27,138.88Zm-3.68-22.71a6.17,6.17,0,0,0-1.36-1.34c0,3.46-.06,6.73.12,10.08a12.52,12.52,0,0,1-2.94.06c.29-5.14.28-10.2.23-15.24.8-.55,1.34-.28,1.89.36q3.85,4.45,7.75,8.87a2.54,2.54,0,0,0,1.07.91c0-3.43.08-6.73-.18-10.08a9.32,9.32,0,0,1,2.94-.09c-.28,5.18-.08,10.32-.24,15.43a1.45,1.45,0,0,1-1.82-.52C185.58,121.78,183.08,119,180.59,116.17Zm-.43-27.81a8.26,8.26,0,0,1,13.25,1.73,8,8,0,0,1,.91,3.51c-.07,5.9-4.56,9.87-9.78,9a7.44,7.44,0,0,1-6.34-5.25A8.6,8.6,0,0,1,180.16,88.36Zm9.34,42.81a4.29,4.29,0,0,1,4.3,4.44,4.56,4.56,0,0,1-4.6,4.77,4.27,4.27,0,0,1-4.37-4.37A4.58,4.58,0,0,1,189.5,131.17Zm4.08-6.18V109.76a9.81,9.81,0,0,1,2.72-.07v15.23A13.59,13.59,0,0,1,193.58,125Zm13.3-25.15a8.61,8.61,0,0,1-.28,2.62,82.24,82.24,0,0,0-9.8,0c.08-5.46.14-10.85,0-16.33a21.44,21.44,0,0,1,3.12-.09V99.84Zm2.74,2.63c.08-5.44.13-10.83,0-16.3a17.85,17.85,0,0,1,3.12-.09V99.87h6.88a5.72,5.72,0,0,1-.16,2.59A89.2,89.2,0,0,0,209.62,102.47Zm8.77,28.7a4.27,4.27,0,0,1,4.36,4.37,4.57,4.57,0,0,1-4.54,4.84,4.27,4.27,0,0,1-4.42-4.43A4.58,4.58,0,0,1,218.39,131.17ZM215.87,125V109.42a61.7,61.7,0,0,0,8.81,0,7.29,7.29,0,0,1,0,2.33h-6v4.11h5a4.86,4.86,0,0,1,0,2c-1.65.22-3.27,0-4.94.15-.2,1.58-.05,3.08-.1,4.65,2.26.2,4.38,0,6.5.06.31.82-.05,1.48-.07,2.3A69,69,0,0,0,215.87,125Zm14.9-5.68c-.2,1.83,0,3.69-.1,5.61a13.6,13.6,0,0,1-2.85,0c.08-5.12.1-10.14,0-15.29,1.92-.07,3.71-.1,5.49,0a7.07,7.07,0,0,1,1.51.29c1.77.56,3.22,1.53,3.51,3.5a4.38,4.38,0,0,1-2.33,4.61l-.53.35s-.05.07-.12.19l4.24,6.27a16.16,16.16,0,0,1-3.16.31l-2.82-4.7C232.68,119,232.68,119,230.77,119.32Zm-4.72-56V77h6.89a6.28,6.28,0,0,1-.2,2.62,86.61,86.61,0,0,0-9.8,0c.09-5.46.13-10.85,0-16.37Zm-4.16,25.07a8.3,8.3,0,0,1,13.27,1.69,8.78,8.78,0,0,1-6.91,12.64,8,8,0,0,1-8-4.45A9.13,9.13,0,0,1,221.89,88.37Zm-10.2-25.31q3.8,8.2,7.67,16.57l-3.17.3-1.93-4.46h-6.52c-.75,1.27-1.1,2.74-1.78,4.11a17.29,17.29,0,0,1-3.16,0c2.48-5.5,4.94-10.92,7.38-16.33A3.17,3.17,0,0,1,211.69,63.06Zm-17.8,0c1.4,2.33,2.79,4.65,4.26,7.08,1.6-2.26,2.85-4.52,4.23-6.77a19.75,19.75,0,0,1,3.18-.05c0,.55-.38.88-.62,1.26-1.55,2.35-3.1,4.7-4.68,7a3.27,3.27,0,0,0-.63,2c.05,2,0,3.93,0,6h-3.06a18.08,18.08,0,0,1,0-3.68,8.46,8.46,0,0,0-1.74-6.06c-1.51-2-2.77-4.29-4.19-6.53A11.31,11.31,0,0,1,193.89,63Zm-17.29,2.5a8.27,8.27,0,0,1,13.25,1.79,8.75,8.75,0,0,1,.88,4A8.47,8.47,0,0,1,181,79.84a7.44,7.44,0,0,1-6.4-5.18A8.59,8.59,0,0,1,176.6,65.53Zm-4.08,69.29c.88.39,1.75.05,2.64.26.33.31.2.7.05,1.2h-2.66V140a3.67,3.67,0,0,1-1.64.08c0-2.85.09-5.68,0-8.57h5c.25.37.12.72,0,1.13-1,.25-2.09,0-3.17.17A6.2,6.2,0,0,0,172.52,134.82Zm-.8-39.68H164.1v7.23a16,16,0,0,1-3.17.06c.1-5.44.12-10.83,0-16.3H164v6.51h7.73a58.4,58.4,0,0,0-.08-6.46,17.46,17.46,0,0,1,3.16-.11v16.29a22.33,22.33,0,0,1-3.14.14C171.71,100,171.84,97.63,171.72,95.14Zm-10.8-31.89c2.36.11,4.65-.21,6.93.26a6.73,6.73,0,0,1,1.46.47,4.5,4.5,0,0,1,1.12,7.74c-.45.38-1,.69-1.51,1.08,1.39,2.29,3,4.42,4.56,6.77l-3.34.35-3.9-6.35H164c-.23,2,.07,4,0,6h-3.1C161.05,74.11,161,68.75,160.92,63.25Zm-.47,46.44a17.08,17.08,0,0,1,2.77,0,5.14,5.14,0,0,1,.08,1.82c0,2.39,0,4.78,0,7.17a5.69,5.69,0,0,0,.33,2.13,2.91,2.91,0,0,0,2.36,1.93,6.33,6.33,0,0,0,2.17,0,3.11,3.11,0,0,0,2.56-3.34c0-3,.14-6.06-.12-9.08a4.72,4.72,0,0,1,.05-.57,11.5,11.5,0,0,1,2.67-.06.69.69,0,0,1,.27.66q0,4.09,0,8.19a6.76,6.76,0,0,1-10.25,6,5.33,5.33,0,0,1-2.81-5q0-4,0-8.06Zm4.35,21.48a4.28,4.28,0,0,1,4.4,4.34,4.57,4.57,0,0,1-4.63,4.87,4.28,4.28,0,0,1-4.34-4.4A4.58,4.58,0,0,1,164.8,131.17Z"/><path class="cls-2" d="M231.92,98.08a4.85,4.85,0,0,1-4.74,2.16A4.76,4.76,0,0,1,223,97a7.09,7.09,0,0,1,.06-5.48,5.17,5.17,0,0,1,5-3.27,5.08,5.08,0,0,1,4.74,4,6.9,6.9,0,0,1,.24,2A6.12,6.12,0,0,1,231.92,98.08Z"/><path class="cls-2" d="M190.45,97.62a4.9,4.9,0,0,1-4.75,2.65,4.78,4.78,0,0,1-4.51-3.37,7.1,7.1,0,0,1,0-5.23,5.17,5.17,0,0,1,5-3.43,5.07,5.07,0,0,1,4.79,4.06,7.06,7.06,0,0,1,.23,2A6,6,0,0,1,190.45,97.62Z"/><path class="cls-2" d="M186.86,74.82a4.92,4.92,0,0,1-4.75,2.65,4.79,4.79,0,0,1-4.5-3.37,7.08,7.08,0,0,1,0-5.24,5.17,5.17,0,0,1,5-3.43,5.08,5.08,0,0,1,4.79,4.07,7.45,7.45,0,0,1,.22,2A6,6,0,0,1,186.86,74.82Z"/><path class="cls-2" d="M167.26,71a10.54,10.54,0,0,1-3.24.16V65.69a7.68,7.68,0,0,1,3.06,0,2.47,2.47,0,0,1,2.12,2.49A2.67,2.67,0,0,1,167.26,71Z"/><path class="cls-2" d="M268.15,96h-4.74c.77-1.81,1.51-3.54,2.24-5.27l.27,0Z"/><path class="cls-2" d="M213.32,73.22h-4.75l2.37-5.55C211.8,69.68,212.55,71.41,213.32,73.22Z"/><path class="cls-2" d="M235.53,114.91a2.54,2.54,0,0,1-2.25,2.11,23.4,23.4,0,0,1-2.53,0v-5a4.65,4.65,0,0,1,3.57.2A2.33,2.33,0,0,1,235.53,114.91Z"/><path class="cls-2" d="M167.31,137.27a2.8,2.8,0,0,1-3.66,1.61,3.16,3.16,0,0,1-1.83-3.09c0-2.36,2-3.9,4-3.11C167.35,133.3,168.07,135.44,167.31,137.27Z"/><path class="cls-2" d="M192.22,135.76c0,2.35-1.95,3.9-4,3.13-1.57-.6-2.29-2.73-1.55-4.58a2.8,2.8,0,0,1,3.65-1.64A3.2,3.2,0,0,1,192.22,135.76Z"/><path class="cls-2" d="M221.17,135.82c0,2.36-2,3.86-4,3.05-1.52-.61-2.21-2.68-1.52-4.5a2.8,2.8,0,0,1,3.62-1.72A3.18,3.18,0,0,1,221.17,135.82Z"/><path class="cls-2" d="M210.52,137.5c-.77,1.33-2.07,1.47-3.57,1.26v-6c1.4-.22,2.64-.1,3.47,1.08A3.23,3.23,0,0,1,210.52,137.5Z"/><path class="cls-2" d="M115.53,58.08c-.93,2.9-2,5.41-4.78,6.85-.76-2.51-1.31-5-3.76-6.34,2.85-2,4.35-4.56,4-8.15a30.94,30.94,0,0,1-4,1.89,6.4,6.4,0,0,1-4.21-.17,14.45,14.45,0,0,0,4.65-1.75A6.82,6.82,0,0,0,111,43.25a8.3,8.3,0,0,0-5.1-6.86,13.21,13.21,0,0,1-5.53-4.61c-.21-.3-.31-.71-.74-.83a5.28,5.28,0,0,0,2.92,7.59c-2,1.83-2.34,3-1.43,5,.62-.45,1-1.23,1.91-1.36-.59,2.44-1.83,3.88-3.74,4.38C99.46,42,97.49,39,94,38.19c-.22.4,0,.83,0,1.24a9.41,9.41,0,0,1-.68,4.51,2.87,2.87,0,0,1-5,.41c3.4-2.62,2.87-6-1.38-8.42l6.81-12L86.33,11,80.22,21.75c-.15-2-.91-3-2.4-3a2.39,2.39,0,0,0-1.74.69c-.82.77-.63,1.75-.45,2.73-.75.09-.84-.47-1-.84-1.71-3-3.4-6-5.12-9-.22-.39-.32-.89-.86-1.1-.22.38-.44.74-.65,1.11-2,3.45-3.9,6.91-5.87,10.35-.37.65-.75,1.28-.32,2H59.53c1.78-3.86.85-7.94-2.39-8.94,0,.31.06.6.12.89a4.31,4.31,0,0,1-1.09,4.14A2.49,2.49,0,0,0,55.61,24c1,1.44,2.08,2.82,4,3.16,1,.18,2.07.52,3.12.7a2.1,2.1,0,0,1,1.64,1.23c1,1.92,2.12,3.8,3.17,5.71a1.61,1.61,0,0,1,.4,1.15c-2,0-4,.21-5.09,2.35a5,5,0,0,0,.34,5.81,14.24,14.24,0,0,0-1.53,1.25c-1.48,1.62-4.12.54-4.73-1.13a10.58,10.58,0,0,1-.72-3.36c0-.88,0-1.76,0-2.81a9.17,9.17,0,0,0-3.89,2.64,7.11,7.11,0,0,0-1.42,6c-2.35-.75-3.22-2.51-3.93-4.56,1,.21,1.39,1,2.09,1.47.75-2.1.47-3.78-1.58-4.9,3.53-1.92,4.48-4.49,2.92-7.95C48.71,33.75,46,35.41,43.13,37a7.8,7.8,0,0,0-4.07,7.86c.23,3.16,2.26,5,5,6.21a16,16,0,0,0,1.67.64,12,12,0,0,0,1.59.41c-3.05,1.25-5.52-.28-8.15-1.68-.45,3.65,1.13,6.16,3.91,8.14a6.43,6.43,0,0,0-2.53,2.78c-.42,1.14-.82,2.29-1.27,3.55-2.72-1.42-3.78-3.89-4.71-6.77a13.84,13.84,0,0,0-.4,5.57A7.26,7.26,0,0,0,38,69.32,15.84,15.84,0,0,0,40.4,70c0,.24-.17.32-.3.42-3.41,2.62-4.21,6.07-3.1,10a12.69,12.69,0,0,0,5.94,7.41c3,1.83,3.81,3.81,3.19,7.31a2,2,0,0,0-1.78,2.44c-2.17,1.67-1.69,3.68-.72,5.71-1.1.37-2.17.43-3.32.93,1.6,1,3.25,1.68,4.15,3.25s.67,3.48,1,5.25l2,.11a5,5,0,0,1,0,.61,115.78,115.78,0,0,0-.41,11.64,2.48,2.48,0,0,0,.76,1.93,44.2,44.2,0,0,0,9.27,7.42c6.35,3.78,13.15,5.86,20.61,5.16,10-.93,18-5.77,24.91-12.87a1.68,1.68,0,0,0,.5-1.25c0-2.94,0-5.89-.11-8.84,0-1.22-.18-2.44-.28-3.65.67-.36,1.37-.05,2-.37.18-1.71,0-3.52.91-5.1s2.62-2.34,4.12-3.4c-1.09-.49-2.23-.42-3.19-.9,0-.13,0-.17,0-.21s.12-.32.19-.47c.8-1.71.78-3.31-.7-4.67a.7.7,0,0,1-.3-.54A2,2,0,0,0,104,95.19c-.58-3.56.25-5.43,3.19-7.31a20.27,20.27,0,0,0,1.78-1.25,11.8,11.8,0,0,0,3.81-5c1.53-4,1.15-8.2-2.73-11.15-.13-.1-.3-.18-.31-.45a10.14,10.14,0,0,0,2.39-.67,7.32,7.32,0,0,0,3.81-5.6A15.26,15.26,0,0,0,115.53,58.08ZM59,19.81v.09l0,.17s0,.07,0,.1a.24.24,0,0,0,0,.08l0,.11a3,3,0,0,1-.21.54l-.06.12-.06.1-.07.11,0,.07,0,0,0,.08a.64.64,0,0,0-.1.13l-.11.12a3.16,3.16,0,0,1-.4.42l-.1.09-.29.25-.28.21c-.23.18-.49.35-.77.53a1.16,1.16,0,0,1,.32-1.38c.13-.13.25-.27.37-.41a.76.76,0,0,1,.08-.11l.13-.17.08-.13a3.45,3.45,0,0,0,.25-.41l.1-.2a1.24,1.24,0,0,0,.1-.2c0-.06.05-.11.07-.17l.09-.24a1.72,1.72,0,0,0,.07-.21,1.72,1.72,0,0,0,.07-.21.57.57,0,0,1,0-.14c0-.1,0-.19.07-.29s0-.15,0-.22a1.43,1.43,0,0,1,0-.22l0-.27c0-.11,0-.22,0-.34a2.45,2.45,0,0,0,0-.27.76.76,0,0,0,0-.15l0,0h0v0l.12.24,0,.06c.07.15.14.3.19.44a.78.78,0,0,1,.05.14.69.69,0,0,1,0,.13,2.58,2.58,0,0,1,.08.26,3.15,3.15,0,0,1,.09.42s0,.09,0,.13A2.82,2.82,0,0,1,59,19.81ZM95,46.4c1.1-1.78.94-3.75.79-5.72,2.39,2.42,2.56,5.17,1.11,8.33,4.29-.78,6.67-3.33,7.88-7.08a3.37,3.37,0,0,1,2.92,4.1,6.67,6.67,0,0,1-6,5,1.61,1.61,0,0,1-.36-.1c0-.66.45-1.21.4-2.06-3.8,2.45-7.69,2.45-11.69.73C91.9,48.78,93.86,48.23,95,46.4Zm.61,12.93s-.06.05-.08,0-.1-.11,0-.15,0,0,.07,0S95.6,59.32,95.59,59.33Zm-.5-.31,0,.07L95,59Zm-2,4.42v0L93,63.34C93.05,63.35,93.06,63.39,93.05,63.44Zm-2.93,5a2.42,2.42,0,0,0,2.69-1.35l.12-.23,0-.08.09-.23.06-.14.06-.19s0-.1,0-.15a1.22,1.22,0,0,0,.06-.26l0-.13a.77.77,0,0,1,0-.15,1.94,1.94,0,0,0,0-.24v-.27a2.17,2.17,0,0,0,0-.36v-.06c0-.1,0-.2,0-.3a.44.44,0,0,1,0-.1L93.22,64a.29.29,0,0,0,0-.09.93.93,0,0,0,0-.13l0-.08a1,1,0,0,0,0-.1l0,0a.06.06,0,0,1,0-.07v0l0,.07s0,0,0,0l.07,0h0l.06,0,0,0,.09.07.08.08.08.08.07.09,0,0,.06.08a4.92,4.92,0,0,1,.26.43l.08.15,0,0,.08.14a1.74,1.74,0,0,0,.11.18c2.28,3.69,5.72,4.56,9.73,4.1.25,0,.5-.08.75-.12a3,3,0,0,0,.28-.14,44.61,44.61,0,0,0-4.27-5,41,41,0,0,0-5.22-4.53c1.42.06,2.45.64,3.67.3,1.49,3.46,4.53,4.79,7.84,5.82-1.27.41-2.48-.05-3.91-.21l3.1,3.91A6.73,6.73,0,0,1,103,70a2.9,2.9,0,0,0,.91,1.15,22.8,22.8,0,0,1,3,3.94,1.59,1.59,0,0,1-.42,2.23c-.69.5-1.42.34-2.07-.54a7.64,7.64,0,0,1-1.35-4c-.79.27-1,1.06-1.79,1.45V69.9H88.88A16.32,16.32,0,0,0,88.6,63,7.24,7.24,0,0,1,90.12,68.47ZM102.29,98a.48.48,0,0,1,0,.37,10.22,10.22,0,0,0-.74,4.43l-2.6.31a50.19,50.19,0,0,0,1.9-9.1l1.54,1.8A2.69,2.69,0,0,0,102.29,98ZM99.55,71.47V83.23H50.67V71.52c.31-.26.8-.1,1.25-.1,6.27,0,12.54,0,18.82,0a6.83,6.83,0,0,1,2.86.53c.54.24,1.12.4,1.62.57.61-.12.33-.82,1-1ZM69.77,128.61h0l-.06,0h0l0,0-.15,0a2.76,2.76,0,0,1-1-.2A28.85,28.85,0,0,1,52.62,117.6a3.37,3.37,0,0,1-.61-3.14c.51-1.71,1.1-3.39,1.68-5.13a1.94,1.94,0,0,1,.61.91,60.68,60.68,0,0,0,14.57,17.51c.31.26.73.43.9.85h0l0,0,.16.1a.25.25,0,0,1-.14,0c-.07,0-.07-.08,0-.14ZM55.29,87.47c.6-.14,1-.64,1.58-1,.08.85-.74,1.15-1,1.75.35.26.53-.16.81-.16,0-.1.08-.22.19-.12s0,.18,0,.27-.24.54-.2.57c.72.48.43,1.29.65,2,.47-.53-.08-1.56.91-1.86l-.33-.69c-.09-.08-.17-.19-.07-.27s.16,0,.2.14l.89.33c-.26-.69-.92-.93-1-1.55a.27.27,0,0,1-.15-.39c.2-.07.24.13.34.22l.8.47.28-.25a5.66,5.66,0,0,1-1.4-2H63l-5.35,9-5.35-9h4.63c-.26,1.1-1.17,1.67-1.8,2.44A1.37,1.37,0,0,1,55.29,87.47ZM53,102.1c1.53-2.51,3-5,4.63-7.75l5.64,9.44c2-3.27,3.84-6.45,5.77-9.67l-5.49-9.26h4.91c-.1,1.1-1.1,1.57-1.65,2.4.64.24.91-.39,1.37-.48,0-.11.13-.23.26-.13s0,.21,0,.32l-.39.71.25.23a.13.13,0,0,0,.15-.08v0h0v0l0,0h-.06c.28.41-.17.69-.22,1l.12.11c.65,0,.21.75.66.86.47-.1,0-.93.67-.86l.12-.1c-.06-.41-.6-.69-.35-1.19l.33-.21c-.06-.3-.38-.54-.24-.89h-.16a0,0,0,0,1,0,0h0a0,0,0,0,1,0,0l0-.07h0l0,0s0,0,0,0h0a.6.6,0,0,1,0,.12l0,0v0c.57.14.88.76,1.49.81l.19-.21a5.73,5.73,0,0,1-1.74-2.29h5.06L69.1,94.12l5.75,9.67,5.78-9.68-5.48-9.22h5c0,.89-.94,1.32-1.28,2.08.47.34.74-.25,1.17-.26.06.62-.41.87-.64,1.24l.21.23.42-.1c0-.09.08-.23.19-.13s0,.17-.1.22h0l-.16.55.12.17c.58.53.22,1.37.65,1.94.28-.52-.12-1.23.32-1.7l0,0,.06,0,.14-.09.1-.1c0-.3-.38-.47-.23-.86.48.09.75.66,1.48.58A4.25,4.25,0,0,1,81,86.5c.72.3,1.11.86,1.71,1l.17-.17c-.62-.78-1.53-1.35-1.83-2.47h5.09C84.31,88,82.51,91,80.67,94.1l5.61,9.46-5.79,9.71c-1.92-3.21-3.73-6.25-5.64-9.43l-5.78,9.69c-1.95-3.27-3.83-6.42-5.79-9.69l-5.39,9c-.47,0-.54-.44-.71-.7A48.07,48.07,0,0,1,53,103.44,1.42,1.42,0,0,1,53,102.1ZM80.16,86.4l.07.09-.08.06s-.06,0-.06-.08S80.14,86.42,80.16,86.4ZM68.49,123.21h0l.08-.15c.05.07.06.11,0,.13a0,0,0,0,1,0,0h0a.22.22,0,0,1-.08,0,0,0,0,0,0,0,0h0a.24.24,0,0,1,0,.08v.07a.53.53,0,0,1,0,.13.65.65,0,0,1,0,.13l-.06.11a.75.75,0,0,1-.07.12l-.07.11-.09.17a.67.67,0,0,0-.07.18c0,.3.84.16.24.77-.15-.57-.79-.51-1.15-.94l.15-.14a2.61,2.61,0,0,1,.31-.27,2.45,2.45,0,0,1,.41-.31l.08,0,.07,0,0,0,.15-.07.09,0Zm.83,2.89c-.08-.46.66-.81.11-1.32-.18-.18.14-.18.27-.2l.28-.22c-.15-.37-.61-.63-.45-1.12h0l0,0h0c-.06,0-.12,0-.09-.07a.56.56,0,0,1,0-.08h0a0,0,0,0,1,0,0h0s0,0,0,0v.06a0,0,0,0,1,0,0v0h0l0,0s0,0,0,0c.71.26,1.15,1.06,2,1-.22-.48-.71-.69-1-1-1.48-1.53-1.62-2.35-.7-4.4l-.79-2c-.31.74-.56,1.34-.81,1.92,1,2.43.64,3.53-1.45,5-.27-.06-.41-.29-.6-.46l-1.84-1.68,4.75-8,5.79,9.68,5.64-9.42,4.81,8c-.81.71-1.27,1.77-2.44,2.06a0,0,0,0,0,0,0l0,0,0-.06h0c-.34-.36-.69-.72-1-1.09-1.25-1.41-1.32-2-.44-4.11a11.74,11.74,0,0,1-.72-2.15l-.92,2.2c1.47,1.88.35,3.32-1,4.73l.28.26.8-.47.25-.27c.18.19.11.32-.07.43,0,.63-.7.87-.89,1.41.38.21.56-.21.84-.17l.14-.19s.08.08.08.09l-.14.18c0,.32-.26.52-.36.79.73.31.84.71.27,1.21s-1.32,1-2.08,1.61c-1-1.71-2-3.33-3.07-5.07L72,128.12A19.56,19.56,0,0,1,69.32,126.1Zm11.74-2.84h0v-.05l-.1-.14a.22.22,0,0,1,.1,0s0,0,0,0a.25.25,0,0,1,0,.08l0,0,0,0c.42-.08.57.35.88.48s.51.51.89.29c-.15.29-.14.78-.57.72-.61-.09-.3.63-.81.66C80.76,124.84,81.75,123.85,81.06,123.26Zm-.54,5.32c0-.29.3-.4.49-.56a60.89,60.89,0,0,0,15.08-18.24.6.6,0,0,1,.49-.38c.53,2,1.47,3.91,1.75,6A2.06,2.06,0,0,1,98,117a28.69,28.69,0,0,1-16.52,11.57,5.14,5.14,0,0,1-.88.07c-.08.21-.2.2-.38.06A3.18,3.18,0,0,1,80.52,128.58Zm6.06-25,5.49-9.22,1.65,2.78,3.15,5.27a1.42,1.42,0,0,1,.25,1.31A47.81,47.81,0,0,1,92.2,113Zm9.07-15.77c-.37.13-.53-.14-.77-.21l0,0h0c.13.18.38.1.68.31l-3.5,5.94c-1.83-3.06-3.56-6-5.36-9h5C91.51,86,90.6,86.53,90,87.3l.17.18c.6-.15,1-.65,1.59-1,0,.85-.71,1.18-1,1.74.38.27.56-.15.84-.15,0-.1.08-.21.19-.12s0,.18,0,.27c0,.35-.52.51-.38.92.3-.11.58-.15.64.28s.11.91.16,1.4c.55-.53-.14-1.68,1-1.86l-.38-.78c-.09-.07-.17-.18-.07-.26s.16,0,.19.14l.89.39.12-.12c-.29-.54-1-.79-1.08-1.49a.29.29,0,0,1-.14-.39c.2-.07.23.13.34.21.3.13.48.49.87.42h0l.06,0a0,0,0,0,1,0,0h0L94,87s0,0,0,0h0s0,0,0,0v0c0-.15-.19-.25-.28-.36a4,4,0,0,1-1.06-1.66h4.62A19,19,0,0,1,95.65,87.79ZM47.93,95.62l1.35-1.57a52,52,0,0,0,2,9.25,16.5,16.5,0,0,0-2.73-.49C48.72,100.49,47.62,98.31,47.93,95.62Zm.79-21.37c-.65-.47-1-1.15-1.69-1.56a9.39,9.39,0,0,1-.8,3,8.14,8.14,0,0,1-.65,1.1c-.64.82-1.31,1-2,.52a1.58,1.58,0,0,1-.48-2.24,22.67,22.67,0,0,1,3.13-4c.29-.3.56-.61,1-1a8.94,8.94,0,0,1-3.39-.74c1-1.33,2-2.55,3.12-3.9-1.38.08-2.62.53-3.89.2a34.24,34.24,0,0,0,4.51-2,9.34,9.34,0,0,0,3.29-3.75,11.42,11.42,0,0,0,3.77-.59A48.66,48.66,0,0,0,45,69c5.51.92,9.65-.5,12.05-5.75a10.36,10.36,0,0,0,0,4c.49,1.69,1.52,2.29,3.38,1.91-.6-3.63.88-6.41,3.75-8.69l2.42,3.68a35.77,35.77,0,0,1-3.35,3.91c1.32.78,2.8,1,4.35,1.82H48.88C48.63,71.33,48.87,72.73,48.72,74.25ZM55,59h.1L55,59.1ZM72.53,36.92a43,43,0,0,1,2.21,4H72.8A33.77,33.77,0,0,1,70.74,37,6,6,0,0,1,72.53,36.92Zm-3.26-1.08c.77-1.36,1.46-2.57,2.15-3.8l3.84,1.51c-1,1.22-3,.8-3.73,2.29Zm5,.07c1-.72,1.86-1.31,2.69-1.87a1.81,1.81,0,0,1,2,0c1,.6,1.93,1.25,2.89,1.88Zm12.84,28v0s0,0,0,0l0,0h0s0,0,0,0h0l-.33,0-.32,0h-.36a2.81,2.81,0,0,0-.41,0H85l-.28,0-.18,0-.28,0-.53.09-.32.07-.15,0-.16,0q-.42.1-.81.24a10.52,10.52,0,0,0-1.55.64l-.37.19-.36.2-.27.16-.44.29L78.9,66l-.22.17-.23.16-.22.18-.22.17-.22.18-.21.18-.24.21-.18.17-.14.13-.27.25L76.6,68c-.32.3-.63.63-.94,1l-.15.17c-.3.33-.6.68-.9,1q-.15.16-.3.36a25.13,25.13,0,0,1-3.46-1.08,13,13,0,0,1,4-3.53c.26.41,0,.94.36,1.42.37-.06.58-.39.81-.65.65-.74,1.29-1.47,1.9-2.24a7,7,0,0,1,8.33-1.56l.25.15a2.2,2.2,0,0,1,.25.17h0l.17.15,0,0,.07.09,0,0,0,0a.43.43,0,0,1,0,.07l0,0s0,0,0,0l0,0s0,0,0,0h0l0,0,.15.14a.27.27,0,0,1-.12,0l0,0A.08.08,0,0,1,87.16,63.86Zm-5.14,6H76.91a14,14,0,0,1,4.55-3.65A7.77,7.77,0,0,1,82,69.81Zm1.76-9a16.67,16.67,0,0,0-3.73.48,16.34,16.34,0,0,0,1.81-8.22,6,6,0,0,1,1,1.83c1,2.18,2,4.35,4,5.77.39.27.36.32.45,1.27A7.56,7.56,0,0,0,83.78,60.79ZM80.67,37.21a4.34,4.34,0,0,1,1.77-.14c.85,1.18,1.4,2.5,2.18,3.8a8.34,8.34,0,0,1-1.91.09A34.79,34.79,0,0,1,80.67,37.21Zm4-1.2C84,34.31,82,34.79,80.93,33.6a19.23,19.23,0,0,0,2.81-1.39l2,3.68A1.37,1.37,0,0,1,84.7,36Zm-6.17,2.32,1.36,2.52a8.91,8.91,0,0,1-2.11.1,39.4,39.4,0,0,1-2.1-3.85C77.64,36.72,77.65,36.72,78.53,38.33Zm0,5.82a9.19,9.19,0,0,1,1.87,4.45,4.23,4.23,0,0,1-2,3.66,6,6,0,0,1-5,.93C78.09,51.35,79.35,51,78.56,44.15Zm-7.19,8.17c.79,2.8,2.89,3.89,5.46,2.87.09-.07.19-.16.28-.06s0,.18-.11.23,0,.09,0,.12a14.15,14.15,0,0,0-2,8.5,56.28,56.28,0,0,0-4.44,3.53c-3.6-5.27-6.76-10.75-11.08-15.66H73.89A8.32,8.32,0,0,1,71.37,52.32ZM69.56,68.91c-1.39-.27-2.53-.84-3.85-1.19a9.22,9.22,0,0,1,1.76-2.34A32.39,32.39,0,0,1,69.56,68.91ZM89,39.16a2.82,2.82,0,0,1-.3,3.61c-1.16-1.8-2.16-3.64-3.21-5.58C87.32,36.85,88.23,37.91,89,39.16ZM86.26,13.81A2.08,2.08,0,0,1,87,15c-1.83,3.25-3.7,6.54-5.62,9.94a2.48,2.48,0,0,1-.76-1.18Zm-9.64,7a1.16,1.16,0,0,1,1.23-1A1.22,1.22,0,0,1,79,20.94a1.24,1.24,0,0,1-1.26,1A1.13,1.13,0,0,1,76.62,20.81Zm2.53,2.52a3.2,3.2,0,0,0,.28,1.41c-1.92.14-3.78,0-5.81,0A6.45,6.45,0,0,1,79.15,23.33ZM63.3,23.22c1.77-3.09,3.52-6.2,5.31-9.38.5.34.59.78.85,1.21-1.84,3.26-3.7,6.53-5.59,9.87C63.09,24.39,62.9,23.93,63.3,23.22Zm-1.16,2.93c.17,0,.33,0,.5,0H80.31L83.05,31a8.29,8.29,0,0,1-5.79,1.39A12.67,12.67,0,0,1,72,30.66c-.59-.33-1.19-.65-1.76-1A21.62,21.62,0,0,0,62.14,26.15ZM67.7,37l2.1,3.86a6.11,6.11,0,0,1-2,0l-2-3.62A3.4,3.4,0,0,1,67.7,37Zm-3.9,1.77,1.55,2.54a10.6,10.6,0,0,1-1.69,1.48C62.86,41.32,62.9,40.42,63.8,38.78ZM65,44.36A4.88,4.88,0,0,1,68.8,43c2.67.09,5.35,0,8,0a4.07,4.07,0,0,1,.25,1.67h-8c-.45.28-.34.57-.41.8-.28,1-.66,1.4-1.68,1.44-1.65.06-3.3,0-5.16,0C62.91,45.88,64.05,45.24,65,44.36Zm-5,4c2.34,0,4.69,0,7,0,2.07,0,2.48-.28,3.22-2.22h7.12a6.48,6.48,0,0,1-.6,4.14,1.93,1.93,0,0,1-1.2.18c-5.46,0-10.92,0-16.38,0a3.94,3.94,0,0,1-2.73-1.09A6.23,6.23,0,0,1,60,48.38Zm-15.63.86a7.19,7.19,0,0,1-1.74-2.79c-.74-2.1.36-4,2.73-4.56A9.68,9.68,0,0,0,53.15,49c-.68-2-1.28-3.88-.5-5.83a6.4,6.4,0,0,1,1.76-2.69c-.15,2.76-.47,5.39,2,7.23-.78.71-1.78.94-2.58,1.58.33.63,1.1.72,1.55,1.24-1.56.56-3.59.13-6.92-1.59-.19.69.39,1.27.32,2A6.12,6.12,0,0,1,44.34,49.24Zm1.21,9.08a13.3,13.3,0,0,1-3.13-2.16,7.09,7.09,0,0,1-1.83-3.55c3.15,1.83,6.19,1.55,9.26.28.77.45,1.3,1.22,2.15,1.56a12.85,12.85,0,0,0,2.44.55c-2.69,1.36-5.29,1-8.09-.59a8.74,8.74,0,0,0,3.22,4.9c-1.07,2.65-5.25,5.2-8.4,5.19C41.44,62,42.35,60.73,45.55,58.32ZM44,87.1a6,6,0,0,1-2.61-5.28,8.47,8.47,0,0,1,.77-3.67c1.11.69,2.24,1.09,3.45.35a6.85,6.85,0,0,0,2.18-2.88A5.07,5.07,0,0,1,49,78.27,2.78,2.78,0,0,1,47.76,81,12.32,12.32,0,0,1,43.85,83c2.37,1.18,4.66,2.37,5.17,5.27a6.82,6.82,0,0,1-1.26,5.64C47.94,90.62,46.37,88.64,44,87.1ZM49,85c-.24-.06-.33-.06-.39-.11l-2.23-1.67,2.39-1.46A13.43,13.43,0,0,1,49,85ZM45,98.66a3.87,3.87,0,0,0,1.82.3c1.11,1.92.18,4.24,1.3,6.21a1.79,1.79,0,0,1-1.63-.56,6.92,6.92,0,0,1-2.29-3A2.38,2.38,0,0,1,45,98.66Zm2.79,12.49c-.22.48-.6.32-1.06.2-.26-2.6-.5-5.25-3.47-6.53,1.15-.41,1.15-.41,1.89.18a6.26,6.26,0,0,0,4.61,1.54c-.24-.78-.74-1.37-.73-2.12,2-.29,2.82.19,3.45,1.85a1.51,1.51,0,0,1,0,1.33,4.15,4.15,0,0,1-3.05,2.63C48.71,110.34,48.05,110.45,47.74,111.15Zm53.44,15.2C95.4,132.26,88.65,136.46,80.43,138a30.58,30.58,0,0,1-17.78-2.1,41.56,41.56,0,0,1-13.49-9.32,2.14,2.14,0,0,1-.73-1.68c.11-3.75-.11-7.51.35-11.25.07-.55.16-1.09.24-1.64s.48-.59.87-.49a.74.74,0,0,1,.08.81c-.9,1.72-.26,3.26.63,4.7a29.26,29.26,0,0,0,7.9,8.28,27,27,0,0,0,13.31,5.16c1.26.13,2.14,1,3.28,1.4.07,0,.17,0,.23,0,1.6-1.1,3.45-1.31,5.29-1.69,8.34-1.72,14.65-6.4,19.21-13.52a4.3,4.3,0,0,0,.44-4.15c-.21-.53-.28-1,.67-1a12,12,0,0,1,.59,3.59c.26,3.28.22,6.56.26,9.85A2,2,0,0,1,101.18,126.35ZM107,104.72c-3,1.39-3.42,3.93-3.55,6.54-.45.29-.83.32-1-.09a1.87,1.87,0,0,0-1.47-.87,4.46,4.46,0,0,1-2.72-1.73,2.81,2.81,0,0,1-.07-3.4,1.13,1.13,0,0,1,.8-.56,4.94,4.94,0,0,1,2.19-.27c0,.78-.55,1.38-.7,2.2a5.81,5.81,0,0,0,4.38-1.44A1.93,1.93,0,0,1,107,104.72Zm-1.91-6a2.2,2.2,0,0,1,.94,2.62,6.39,6.39,0,0,1-4.13,4.09c1.2-2.13.39-4.4,1.35-6.39A4.57,4.57,0,0,0,105.13,98.67Zm3.13-14.38A5.5,5.5,0,0,1,106,87.15c-2.31,1.51-3.81,3.5-3.79,6.43a6.55,6.55,0,0,1-.84-6.35c.77-2.27,2.85-3.25,4.87-4.26a17.86,17.86,0,0,1-3.1-1.38c-2.2-1.39-2.61-2.74-1.47-5a1.92,1.92,0,0,1,.55-.82c2.47,3.5,3.09,3.78,5.71,2.47A8.41,8.41,0,0,1,108.26,84.29Zm-7,.68V81.68l2.5,1.48Zm-.82-25.49c2.13-2.13,2.69-3,3.14-5-2.65,1.41-5.28,1.86-8,.48a5.63,5.63,0,0,0,4.44-2.15c3.1,1.24,6.19,1.65,9.44-.27-.72,3-2.53,4.58-5.25,5.78a8.18,8.18,0,0,1,4.81,6.36C105.63,63.83,102.33,62.9,100.49,59.48Z"/><path class="cls-3" d="M81.58,89.13h0v0h0Zm-.46-.1.14-.09h0Zm-1-.86-.16.55.16-.55Zm-.62.92v.06s0,0,0,0h0Zm-9.94-2.5h0v0Zm-1.09,1.22v0h0v0Z"/><path class="cls-3" d="M52.81,123.07h0a.48.48,0,0,1,.56-.06A.5.5,0,0,0,52.81,123.07Zm.95.18.26.21Zm6.18,6.41,0,0a.23.23,0,0,0,0,.2.24.24,0,0,1,0-.2Z"/><path class="cls-3" d="M71.58,124.23l0,0,0,0Zm6.37,0a.16.16,0,0,1,0,.07A.16.16,0,0,0,78,124.25Zm0,0v0h0v0Zm4.91-.24h0l0,0A0,0,0,0,1,82.86,124Zm-13.34-.74h0s0,0,0,0Z"/><path class="cls-3" d="M69.47,128.68l.15,0Z"/><path class="cls-3" d="M69.8,128.59l0,0h0Z"/><path class="cls-3" d="M93.09,63.55s0,0,0,0l0,0Z"/><path class="cls-3" d="M60.06,87.58h0l0,0S60.07,87.59,60.06,87.58Z"/><path class="cls-3" d="M87.23,63.76l0,0s0,0,0,0h0Z"/><path class="cls-3" d="M91.33,89.17h0l0,0Zm3.55-1.59,0,0h0Zm-1-.49v0h0Z"/><path class="cls-3" d="M93.86,87.09l.09,0a0,0,0,0,0,0,0l-.06,0Z"/><path class="cls-3" d="M94.91,87.62h0l0,0Z"/><path class="cls-3" d="M58.28,17.36h0v0l0,0Z"/><path class="cls-3" d="M82.86,124l0,.06,0,0ZM81,123.24l0,0h0Z"/><path class="cls-3" d="M67.34,124a3.74,3.74,0,0,1,.31-.27A2.61,2.61,0,0,0,67.34,124Z"/><path class="cls-3" d="M68.49,123.21l0,0h0Z"/><path class="cls-3" d="M93,86.69l-.2.18a.29.29,0,0,1-.14-.39C92.86,86.41,92.89,86.61,93,86.69Z"/><path class="cls-3" d="M58.15,86.7l-.19.17a.27.27,0,0,1-.15-.39C58,86.41,58.05,86.61,58.15,86.7Z"/><path class="cls-3" d="M81,123.24l0,0v-.05Z"/><path class="cls-3" d="M80.57,128.63c-.08.21-.2.2-.38.06a3.18,3.18,0,0,1,.33-.11Z"/><path class="cls-3" d="M93.09,63.55,93,63.34c.18,0,0,.17.11.23Z"/><path class="cls-3" d="M87.2,63.78l.15.14a.27.27,0,0,1-.12,0q-.15-.07,0-.18Z"/><path class="cls-3" d="M95.59,59.26s0,.06,0,.07l-.08,0c-.1,0-.1-.11,0-.15S95.57,59.25,95.59,59.26Z"/><polygon class="cls-3" points="95.04 59.09 95 59.01 95.09 59.02 95.04 59.09"/><polygon class="cls-3" points="55.03 59.1 54.99 59.01 55.09 59.02 55.03 59.1"/><path class="cls-3" d="M77,55.36c-.06,0-.11-.11-.17-.17.09-.07.19-.16.28-.06S77.1,55.31,77,55.36Z"/><path class="cls-3" d="M68.52,123.21v0l0,0Z"/><path class="cls-3" d="M69.54,123.2l0,0h0Z"/><path class="cls-3" d="M69.54,86.56c-.09.08-.22,0-.18,0,.14-.22.13,0,.16.07Z"/><path class="cls-3" d="M80.23,86.49l-.08.06s-.06,0-.06-.08,0,0,.07-.07Z"/><path class="cls-3" d="M68.43,87l-.24-.19c0-.11.13-.23.26-.13S68.49,86.86,68.43,87Z"/><path class="cls-3" d="M69.77,128.61l.17.1a.25.25,0,0,1-.14,0c-.08,0-.07-.09,0-.16Z"/><path class="cls-3" d="M92.87,88.09l-.12.12c-.09-.07-.17-.18-.07-.26S92.84,88,92.87,88.09Z"/><path class="cls-3" d="M91.72,88.25a.8.8,0,0,1-.17-.15c0-.1.08-.21.19-.12S91.73,88.16,91.72,88.25Z"/><path class="cls-3" d="M80.08,88.17h0l0,0L80,88.08c0-.09.08-.23.19-.13S80.19,88.12,80.08,88.17Z"/><path class="cls-3" d="M58,88.09a.8.8,0,0,0-.13.13c-.09-.08-.17-.19-.07-.27S58,88,58,88.09Z"/><path class="cls-3" d="M56.87,88.25a.8.8,0,0,1-.17-.15c0-.1.08-.22.19-.12S56.88,88.16,56.87,88.25Z"/><polygon class="cls-3" points="58.31 17.37 58.23 17.37 58.28 17.36 58.31 17.37"/><polygon class="cls-3" points="68.45 87.8 68.5 87.83 68.43 87.81 68.45 87.8"/><path class="cls-2" d="M76.74,73.08c.33,1.25.7,2.49-.59,3.38a2.06,2.06,0,0,1-2.3.15c-1.46-.82-1.24-2.15-.88-3.64-2.39,1.3-3.37,3.47-2.73,5.69a4.78,4.78,0,0,0,9.35-.54A4.51,4.51,0,0,0,76.74,73.08Zm.86,7.08a4,4,0,0,1-4.93.46,3.89,3.89,0,0,1-1.19-5.13c.47,2.08,1.51,3.45,3.7,3.3,1.61-.11,2.51-1.18,3-3.23A3.57,3.57,0,0,1,77.6,80.16Z"/><path class="cls-2" d="M92.14,73.19c-.18.57.25,1.07.19,1.63a2.24,2.24,0,0,1-.81,1.54,2.11,2.11,0,0,1-1.54.5c-1.61-.08-2.14-1.17-1.86-3.81a4.7,4.7,0,0,0-2.7,5.46,4.84,4.84,0,0,0,4.79,3.69,4.9,4.9,0,0,0,4.64-4A4.5,4.5,0,0,0,92.14,73.19Zm.43,7.2a3.92,3.92,0,0,1-5.15-.15,3.57,3.57,0,0,1-.62-4.7c.42,2.08,1.44,3.16,3.1,3.29s2.77-.89,3.55-3.19A3.62,3.62,0,0,1,92.57,80.39Z"/><path class="cls-2" d="M61.55,73.23c.41,1.28.56,2.5-.76,3.31a2.05,2.05,0,0,1-2.3,0c-1.35-.87-1.12-2.15-.69-3.6-2.49,1.32-3.49,3.62-2.76,5.9a4.8,4.8,0,0,0,9.36-1A4.21,4.21,0,0,0,61.55,73.23Zm.5,7.21a4,4,0,0,1-4.95-.07,3.81,3.81,0,0,1-.76-5,3.93,3.93,0,0,0,1,2.44,3.14,3.14,0,0,0,2.4,1c1.66,0,2.73-1.13,3.23-3.36A3.8,3.8,0,0,1,62.05,80.44Z"/><path class="cls-2" d="M69.85,104.79c.49-.34.8.47,1.39,0-1.61-1.41-2.91-2.93-1.34-5.16-.52-.51-.45-1.27-1-1.79-.26.67-.5,1.26-.77,1.94,1.09,1.5.72,2.89-.52,4.17-.33.33-.64.67-1,1l.14.15c.53-.09.87-.52,1.34-.72.08-.05.2-.17.24-.15s.08.24,0,.37A5,5,0,0,1,67,106.2c.5.14.75-.2,1.08-.33.1-.1.19-.23.37-.22.14.21,0,.35-.13.48s-.07.27-.11.4a.47.47,0,0,0,.1.1c.21,0,.4,0,.43.33s.09.86.15,1.39c.43-.48.32-1,.38-1.4s.2-.32.43-.3a.47.47,0,0,1,.1-.1l-.12-.39-.05-.06,0-.06a.22.22,0,0,1,0-.29s.19.08.3.13c.34.11.59.5,1,.32C70.61,105.69,69.86,105.52,69.85,104.79Zm-.2-.27s-.08-.06-.07-.08a.55.55,0,0,1,.08-.15l.08.08Z"/><path class="cls-2" d="M58.09,104.37c.66.26,1.1.88,2,.89-1.62-1.6-3.59-3-1.84-5.46l-.89-2.26a9.47,9.47,0,0,1-.77,2.25c1.11,1.5.71,2.9-.5,4.18-.43.45-.89.87-1.34,1.3.77,0,1.26-.54,1.85-.9l.27-.25c.21.19.12.33,0,.46-.12.68-.82.93-1.1,1.47l0,0c.41.17.63-.27,1-.31,0-.1.1-.22.22-.12s0,.2,0,.29c-.05.28-.4.45-.34.73,1.08.31.49,1.29.84,1.89.35-.63,0-1.47.64-2,0,0,.07-.1.1-.16-.09-.33-.39-.8.37-.56l.21-.22C58.45,105.24,57.86,105,58.09,104.37Zm-.23-.13s-.07-.06-.07-.09.05-.05.08-.08.07.06.07.09S57.89,104.21,57.86,104.24Zm-3.19,1,0,0,0,0Z"/><path class="cls-2" d="M81.16,104.19c.76.41,1.27,1.13,2.16,1.08-.24-.22-.48-.45-.73-.66C80.73,103,80.5,102,81.4,99.69a7.8,7.8,0,0,1-.7-2.2l-.9,2.28c1,1.94,1.1,2.39-.82,4.5-.28.31-.57.63-.87,1,.63,0,1-.49,1.5-.69.11-.14.21-.3.42-.3.18.26,0,.43-.16.61l-.3.53.28.21.34,0c-.45,1.06.49,1.86.4,3.08.39-.88-.17-1.86.91-2.15l-.36-.65c-.06-.09-.12-.21,0-.29s.18,0,.22.13c.27,0,.46.44.81.16C81.88,105.34,81.07,105.05,81.16,104.19Zm-1,.06,0,0h-.09l0,0,0,0,.12-.17C80.17,104.15,80.21,104.21,80.2,104.25Z"/><path class="cls-2" d="M83.36,105.27l0,0s0,0,0,0Z"/><path class="cls-2" d="M79.56,105.84c-.25.26-.5.52-1,.35l.79-.59Z"/><path class="cls-2" d="M78,87.59h0v0Z"/><path class="cls-2" d="M78.82,87.23a.73.73,0,0,1-.82.36.9.9,0,0,1,.49-.47C78.58,87.07,78.72,87,78.82,87.23Z"/><path class="cls-2" d="M81.58,89.13v0h0Z"/><path class="cls-2" d="M81.82,89.27c-.15.09-.2,0-.23-.12S81.78,89.14,81.82,89.27Z"/><path class="cls-2" d="M54.69,105.29l-.17.1.15-.12Z"/><path class="cls-2" d="M79.46,89.09l0,0h0Z"/><path class="cls-2" d="M80,88.89a.38.38,0,0,1-.54.22l.42-.39Z"/><path class="cls-2" d="M83.5,105.39l-.16-.1,0,0Z"/><path class="cls-2" d="M79.09,88.5a.27.27,0,0,1-.39,0c0-.21.16-.18.28-.2Z"/><path class="cls-2" d="M79.57,88.18c-.09.2-.29.25-.48.32L79,88.35c0-.21.23-.29.38-.4Z"/><path class="cls-2" d="M68.29,87.91a.82.82,0,0,1-.43.39l-.18-.23.36-.39Z"/><path class="cls-2" d="M59,106l-.09.09a.51.51,0,0,1-.49-.27l.21-.22C58.82,105.75,59,105.81,59,106Z"/><path class="cls-2" d="M77.93,87.64l-.09.12C77.79,87.63,77.87,87.64,77.93,87.64Z"/><path class="cls-2" d="M78,87.61a.08.08,0,0,1-.07,0l0,0Z"/><path class="cls-2" d="M71.56,87.49A.34.34,0,0,1,71,87.4l.19-.21Z"/><path class="cls-2" d="M55.4,106.22c0-.16.15-.18.29-.17l0,0C55.73,106.4,55.54,106.26,55.4,106.22Z"/><path class="cls-2" d="M59.39,106.13c-.18.21-.31.18-.44,0L59,106Z"/><path class="cls-2" d="M58.09,106.41l.43.38a.39.39,0,0,1-.53-.22S58.06,106.47,58.09,106.41Z"/><path class="cls-2" d="M58.56,106.77l0,0h0Z"/><path class="cls-2" d="M66.68,87.49l-.08.07-.08,0,.08-.11Z"/><path class="cls-2" d="M68.31,106.63c-.06.11-.16.23-.25.11s0-.17.15-.21A.47.47,0,0,0,68.31,106.63Z"/><path class="cls-2" d="M70,106.75c-.09.11-.19,0-.25-.1a.47.47,0,0,1,.1-.1C69.9,106.58,70.05,106.62,70,106.75Z"/><path class="cls-2" d="M79.76,106.71s-.07.08-.09.08-.06-.06-.09-.09.07-.08.1-.07S79.73,106.68,79.76,106.71Z"/><path class="cls-2" d="M82.55,106.18s-.06.08-.09.08-.06-.06-.09-.09.07-.07.1-.07S82.53,106.15,82.55,106.18Z"/><path class="cls-2" d="M58.58,106.89l0-.09,0,0Z"/><path class="cls-2" d="M79.85,105.61a.33.33,0,0,1-.29.23l-.19-.24c.07-.07.14-.13.2-.2Z"/><path class="cls-2" d="M71.5,105.19a.15.15,0,0,1-.08,0c-.1,0-.1-.11,0-.15s0,0,.08,0S71.52,105.18,71.5,105.19Z"/><path class="cls-2" d="M66.82,105.15c-.09.09-.23.17-.31,0s.07-.16.17-.2Z"/><path class="cls-2" d="M79.46,89.15a.66.66,0,0,1,0,.14C79.31,89.22,79.41,89.19,79.46,89.15Z"/><path class="cls-2" d="M79.46,89.15v-.06l0,0S79.48,89.14,79.46,89.15Z"/><path class="cls-2" d="M81.56,89.14a.26.26,0,0,1-.3-.2h0l.1-.1C81.51,88.89,81.62,89,81.56,89.14Z"/><path class="cls-2" d="M81.55,89.16v0h0Z"/><path class="cls-2" d="M69.93,89.08c-.09.1-.2,0-.26-.1l.12-.1C69.89,88.91,70,89,69.93,89.08Z"/><path class="cls-2" d="M68.34,89c-.07.09-.17.21-.26.1s0-.18.14-.21Z"/><path class="cls-2" d="M70.5,88.24a.8.8,0,0,1-.09.14s-.07-.06-.06-.08a1,1,0,0,1,.07-.15Z"/><path class="cls-2" d="M67.86,88.3c-.13.06-.27.19-.39,0,0,0,.14-.15.21-.23Z"/><path class="cls-2" d="M70.08,88.08c-.13.12-.27,0-.36-.15l.2-.29C70,87.77,70.3,87.87,70.08,88.08Z"/><path class="cls-2" d="M69.92,87.64l-.2.29a.33.33,0,0,1-.28-.24l.33-.21A.26.26,0,0,1,69.92,87.64Z"/><path class="cls-2" d="M83.11,87.5c-.14.14-.26.07-.39,0l.17-.17Z"/><path class="cls-2" d="M98.93,125.71a4,4,0,0,1-1.82-2.77c-.35.34-.76.57-.92,1,1.33.73,1.43,2.11,2,3.33a3.4,3.4,0,0,1-2-.86,1.32,1.32,0,0,1,0-.71c0-1-.57-1.37-1.36-.83a2.11,2.11,0,0,0-1,1.81c.59,0,.37-.49.75-.56.28.78,1.08,1.37.7,2.34-.2.48-.58-.08-.89.21a1.12,1.12,0,0,1-1,1.12c-.74-.67.06-1.06.25-1.56-.81.06-.81.06-1-.68.09-.44,1.33,0,.73-1a3.89,3.89,0,0,0-2.52,2.29,2.38,2.38,0,0,0-2.54.9c-.17.24-.43.23-.65.33a4.08,4.08,0,0,1-2.36.34,2.81,2.81,0,0,1-.33,3c-.46-.61-.31-1.33-.45-2a1.39,1.39,0,0,0-1.45.8c.26.38.48-.07.74.09.42.8.18,1.82.73,2.72,1.31-1,1.14-2.9,2.22-4,0,1,.65,1.95.24,3,.48-.24,1.07-.18,1.31-.75-.92-.68-.53-1.7-.85-2.75.67.32,1-.06,1.37-.48a11,11,0,0,0,.41,1.61c.24.6-.47,1-.36,1.55,2.56-1,3-1.84,2.28-4.15.4-.14.26-.72.76-.85.29.93,1,1.76.56,2.91a13.33,13.33,0,0,0,3.86-2.91c0-.49-.69-.37-.31-.83,1.57.81,2.14.9,2.73-.11C98.49,126.52,98.49,126.52,98.93,125.71Zm-8.74,6.2c-.06-.06-.15-.1-.16-.17-.18-.73-.33-1.46-.51-2.24.8-.31,1.07.12,1.25.62A1.35,1.35,0,0,1,90.19,131.91Zm5.35-5.76c-.21-.24-.43-.39-.32-.7.21-.16.29,0,.37.16S95.68,125.92,95.54,126.15Z"/><path class="cls-2" d="M61.72,129.63c-.68.8-.77-.28-1.18-.3h-.26l0,0,0,0-.11.09,0,0-.11.12,0,0a.24.24,0,0,0,0,.2.4.4,0,0,0,.14.18l.06.06,0,0,0,.05,0,0,0,.06,0,.05v0a.3.3,0,0,1,0,.13.54.54,0,0,1,0,.1c-.53-.19-1.11-.48-1.56.17.31.79,1.2.52,1.8.82-1.52,1-2.18-.57-3.28-1,1.21-.09,1.72-1,2.49-1.77-.67-.35-1.39-.52-1.62-1.23-.54,0-.59.34-.57.71.07,1.26-.08,1.51-1,1.62-1.06.13-1.6-.31-1.78-1.47-.87-.09-1.84-.1-1.87-1.36,0-.21-.16-.25-.32-.33-.83-.4-1.25-1.24-2.16-2,1.36.14,2.09-.62,2.94-1.1,0,0,0,0,0,0l0-.05h0l0,0,0,0-.08-.06-.07,0-.12-.09s0,0,0,0l0,0,0,0s0,0,0,0v0s0,0,0,0h0a.5.5,0,0,1,.56,0l.07,0,.07,0h0l.08.05.15.1.26.21.13.13.07.06c.11.12.23.25.34.39a2.09,2.09,0,0,1,.14.17l.21.29.11.15.1.15a1.41,1.41,0,0,1-.43.11h-.08a.09.09,0,0,1-.06,0,.05.05,0,0,1,0,0l0,0-.17-.17,0-.05-.07-.09-.08-.1-.08-.1h-.19l0,0a3.83,3.83,0,0,0-.39.25c-.17.36.37.49.14.91-.51-.14-1.06-.8-1.6-.06.25.71,1,.75,1.51.88a1,1,0,0,1,.18.8c-.06.53.18.88.68.87s.62-.42.62-.92c0-1.11.78-1.63,1.72-1.21a.71.71,0,0,1,.46.71c-.59.77-.73-.22-1.31-.36-.1,1-.25,1.88-.27,2.8,0,.33.39.56.78.5a.55.55,0,0,0,.48-.64c0-.22,0-.43-.05-.64,0-.58.32-.86.78-1s1.07-.15,1.26.31c.28.67.85.74,1.37,1A3.79,3.79,0,0,1,61.72,129.63Z"/><path class="cls-2" d="M70.28,135.38c.3-1,1-1.73,1.21-2.71a2.83,2.83,0,0,0-.58-.11,1.7,1.7,0,0,0-.45.15c-.1,1.55-.87,2.47-1.92,2.28-.12-1.15.95-1.71,1.4-2.65a2.1,2.1,0,0,0-2.19.23c-.35-1.3-1.29-1.26-2.19-1.1A2.13,2.13,0,0,0,64,133.13c-.22.75.18,1.2.86,1.47.32.11.36.46.54.69a1.52,1.52,0,0,0,1.12.75c.41,0,.8,0,.61-.74-.62.38-1,.19-1.15-.64a2.75,2.75,0,0,0,1.32-1.17c.34-.73.93-.7,1.65-.73-.53.9-1.52,1.52-1,2.73,1,.22,2,.45,3,.65.64.13,1-.17,1.32-.83C71.57,135.36,70.94,135.76,70.28,135.38Zm-4.87-1.29c-.56,0-.78-.22-.72-.75.12-.92.81-1.42,1.94-1.36C66.78,133.29,66.32,134,65.41,134.09Z"/><path class="cls-2" d="M79.78,132c-1.47.35-1.61,1.74-2.44,2.49-.42-.51-.3-1.15-.48-1.68-1.32-.05-1.37,0-1.87.85,0,0,.09.13.14.21.34,0,.45-.73.94-.24a4.51,4.51,0,0,1-.59,2,1.93,1.93,0,0,1-1.32,0,2.75,2.75,0,0,1,.09-1.4,3.59,3.59,0,0,0,.14-1.38c-1.71-.29-1.76-.28-2.31.76.41.15.74-.54,1.19-.1-.19.62-1,.91-1,1.64.35.11.72-.11,1,.15.14.29-.3.66.11.93.58,0,1.17.09,1.76.07s.93-.67,1.25-1.31c.17.51.28.86.4,1.23.63-.26.6-1,1.11-1.3.3.39-.24.82.1,1.22a1,1,0,0,0,1.1-.16C78.31,134.55,79.08,133.32,79.78,132Zm-6.32,2.44-.07,0h0v0h0v.06a.13.13,0,0,1,0,.09h0c-.07,0-.1-.09-.1-.11h0a0,0,0,0,1,0,0l.05,0h.1v0h0l0-.05h0a0,0,0,0,1,0,0Z"/><path class="cls-2" d="M63.29,132c-.3.33-.81.14-1.16.52l-.46-1.19,1.12-.46Z"/><path class="cls-2" d="M50.93,122.66H49.66c-.12-.42.37-.8-.14-1.28l1.54.1A1.87,1.87,0,0,0,50.93,122.66Z"/><path class="cls-2" d="M100,123.32c-.37.26-.75,0-1.07.21-.31-.41-.06-.87-.47-1.27h1.43C99.92,122.61,100,123,100,123.32Z"/><path class="cls-2" d="M81.49,134.91c-.52-.13-.69-.6-1.32-.62.38-.47.68-.71.73-1.16l1.12.71C81.89,134.22,81.38,134.38,81.49,134.91Z"/><path class="cls-2" d="M78,124.21h0v0Z"/><path class="cls-2" d="M79.08,123.81l-.09.09-.1.08-.1.08-.1.06-.09,0-.13,0h0l-.08,0h-.3l-.06,0a2.62,2.62,0,0,1,.81-.67Z"/><path class="cls-2" d="M78,124.25a.16.16,0,0,1,0,.07l0,0-.05,0h0a.28.28,0,0,1-.13,0Z"/><path class="cls-2" d="M78,124.24h0v0Z"/><path class="cls-2" d="M71.58,124.23v0l0,0Z"/><path class="cls-2" d="M71.86,124.36a.27.27,0,0,1-.16,0h0l0,0a.17.17,0,0,1-.06-.1Z"/><path class="cls-2" d="M70.58,125l-.13.14a.6.6,0,0,1-.46-.31l.2-.24C70.34,124.68,70.53,124.77,70.58,125Z"/><path class="cls-2" d="M70.91,125.11c-.17.24-.32.15-.46,0l.13-.14Z"/><path class="cls-2" d="M70.19,124.57l-.2.24a.37.37,0,0,1-.29-.23l.28-.22Z"/><path class="cls-2" d="M79,125.12l0,.08-.12-.08s0-.07.08-.07S78.94,125.1,79,125.12Z"/><path class="cls-2" d="M69.89,125.62a.86.86,0,0,1,.14.13h-.16Z"/><path class="cls-2" d="M70.09,125.74l0,0,0,0Z"/><path class="cls-2" d="M70.07,125.78h0l0,0S70.07,125.77,70.07,125.78Z"/><path class="cls-2" d="M70.21,125.92c-.15,0-.19,0-.16-.09v0a0,0,0,0,1,0,0Z"/><polygon class="cls-2" points="79.45 125.94 79.37 125.93 79.42 125.86 79.45 125.94"/><path class="cls-2" d="M92.94,104.37c.66.24,1.09.89,1.88.87-2.86-3-2.87-3-1.75-5.58a21.62,21.62,0,0,1-.95-2.14,7.49,7.49,0,0,1-.71,2.28,2.94,2.94,0,0,1-.43,4.08c-.45.48-1,.93-1.43,1.39.78,0,1.27-.54,1.86-.9l.27-.24c.21.18.12.33,0,.46-.13.67-.81.92-1.1,1.46.42.22.64-.25,1-.29,0-.1.1-.22.22-.12s0,.2,0,.29c-.06.28-.4.45-.35.73,1.08.31.48,1.3.82,1.86.41-.58,0-1.45.66-2h0c.26-.17-.45-1,.46-.71l.21-.22C93.3,105.24,92.71,105,92.94,104.37Zm-.23-.13s-.07-.06-.07-.09,0-.05.08-.08.07.06.07.09S92.74,104.21,92.71,104.24Zm-2.18,1.81h0Zm-1-.78,0,0,0,0Z"/><polygon class="cls-2" points="90.54 106.06 90.53 106.06 90.53 106.05 90.54 106.06"/><path class="cls-2" d="M90.53,106.06c0,.31-.12.21-.28.14a.36.36,0,0,1,.07-.1l0,0A.25.25,0,0,1,90.53,106.06Z"/><path class="cls-2" d="M89.53,105.29l-.16.1.14-.12Z"/><path class="cls-2" d="M93.89,106l-.08.09a.51.51,0,0,1-.5-.27l.21-.22C93.66,105.75,93.86,105.81,93.89,106Z"/><path class="cls-2" d="M93.31,106.73l0,.06h-.28a.4.4,0,0,1-.24-.24h0a.32.32,0,0,1,.19-.07h0l.07,0,.1.12Z"/><path class="cls-2" d="M93.4,106.78l0,0h0Z"/><path class="cls-2" d="M94.24,106.13c-.19.21-.32.18-.43,0l.08-.09Z"/><path class="cls-2" d="M93.42,106.89h0l0-.07,0,0s0,0,0,.07v0Z"/><path class="cls-2" d="M75.69,48.33a.74.74,0,0,1-.84.76.75.75,0,0,1-.72-.88c0-.52.37-.72.82-.79C75.43,47.55,75.73,47.81,75.69,48.33Z"/><path class="cls-2" d="M72.52,48.23c0,.48-.33.75-.79.86a.85.85,0,0,1-.87-.76.81.81,0,0,1,.84-.91A.8.8,0,0,1,72.52,48.23Z"/><path class="cls-2" d="M60,87.53l0,.06h-.21l-.13,0h-.06l-.07,0a.32.32,0,0,1-.09,0l-.16-.08-.1-.07a2.52,2.52,0,0,1-.25-.21l.28-.25.11.07.17.11.06,0,.11.07,0,0,.05,0a1.45,1.45,0,0,1,.17.18Z"/><path class="cls-2" d="M60.06,87.58l0,0h0Z"/><path class="cls-2" d="M60.06,87.58s0,0,0,0l0,0Z"/><path class="cls-2" d="M60.24,87.7c-.05,0-.09,0-.11,0h0a0,0,0,0,1,0,0s0,0,0,0a.14.14,0,0,1,0-.07Z"/><path class="cls-2" d="M55.29,87.47c-.12.09-.24.17-.38,0l.21-.2A1.37,1.37,0,0,1,55.29,87.47Z"/><polygon class="cls-2" points="58.65 89.26 58.6 89.32 58.58 89.25 58.65 89.26"/><path class="cls-2" d="M59.25,88.5l-.09.07-.07,0,.08-.11Z"/><path class="cls-2" d="M55.66,88.51s-.07.07-.1.07-.06,0-.09-.08.07-.08.1-.08S55.63,88.48,55.66,88.51Z"/><path class="cls-2" d="M94.91,87.62h-.34a1,1,0,0,1-.25-.06l0,0,0,0h0l0,0,0,0h0l0,0,0,0,0,0L94,87.28a0,0,0,0,0,0,0l0-.08,0,0s0,0,0,0v0l.09,0h0c.51-.22.66.32,1,.55h0Z"/><path class="cls-2" d="M91.27,89.16l0,0-.3.18a.51.51,0,0,1,0-.1l0-.05v0A.17.17,0,0,1,91.27,89.16Z"/><path class="cls-2" d="M91.35,89.2l0,0h0Z"/><polygon class="cls-2" points="89.35 87.71 89.35 87.76 89.27 87.73 89.35 87.71"/><path class="cls-2" d="M94.06,88.54c-.08.12-.21,0-.3-.06l.12-.12C94,88.39,94.16,88.39,94.06,88.54Z"/><path class="cls-2" d="M90.51,88.51s-.07.07-.1.07-.06,0-.09-.08.07-.08.1-.08S90.48,88.48,90.51,88.51Z"/><path class="cls-2" d="M90.14,87.48c-.12.09-.24.16-.38,0l.21-.2Z"/><polygon class="cls-2" points="93.5 89.26 93.45 89.31 93.43 89.25 93.5 89.26"/><path class="cls-2" d="M81.78,124.6l-.09.16s-.08-.06-.07-.08a.77.77,0,0,1,.07-.16Z"/><path class="cls-3" d="M68.32,106.13l-.24-.26c.1-.1.19-.23.37-.22C68.59,105.86,68.48,106,68.32,106.13Z"/><path class="cls-3" d="M69.92,105.88l-.24.28-.1-.12a.22.22,0,0,1,0-.29S69.81,105.83,69.92,105.88Z"/><path class="cls-3" d="M69.74,104.38l-.09.14s-.08-.06-.07-.08a.55.55,0,0,1,.08-.15Z"/><path class="cls-3" d="M68.41,104.65l-.25-.22c.08-.05.2-.17.24-.15S68.48,104.52,68.41,104.65Z"/><path class="cls-3" d="M56.79,104.58l-.23-.21.27-.25C57,104.31,57,104.45,56.79,104.58Z"/><path class="cls-3" d="M56.85,105.93l-.17-.17c0-.1.1-.22.22-.12S56.92,105.84,56.85,105.93Z"/><path class="cls-3" d="M57.87,104.07s.07.06.07.09,0,0-.08.08-.07-.06-.07-.09S57.84,104.1,57.87,104.07Z"/><path class="cls-3" d="M79.87,104.87l-.26-.31c.11-.14.21-.3.42-.3C80.21,104.52,80,104.69,79.87,104.87Z"/><path class="cls-3" d="M81.34,105.77a1.56,1.56,0,0,1-.2.16c-.06-.09-.12-.21,0-.29S81.3,105.67,81.34,105.77Z"/><path class="cls-3" d="M80,104.26l.12-.17c0,.06.06.12,0,.16s-.1.08-.17,0Z"/><path class="cls-3" d="M95.54,126.15c-.22-.24-.43-.4-.32-.7s.29,0,.37.16S95.68,125.92,95.54,126.15Z"/><path class="cls-3" d="M73.38,134.5l0-.09c.07,0,0,.05-.07.07Z"/><path class="cls-3" d="M73.35,134.48c0,.09,0,.22-.06.19-.22-.17,0-.14.09-.17Z"/><path class="cls-3" d="M91.64,104.59l-.23-.22.27-.24C91.89,104.31,91.8,104.46,91.64,104.59Z"/><path class="cls-3" d="M91.71,105.93a1.45,1.45,0,0,1-.18-.17c0-.1.1-.22.22-.12S91.77,105.84,91.71,105.93Z"/><path class="cls-3" d="M92.71,104.07s.08.06.08.09-.05,0-.08.08-.07-.06-.07-.09S92.69,104.1,92.71,104.07Z"/></g></g></svg>