<svg xmlns="http://www.w3.org/2000/svg" viewBox="0 0 244.41 137.85"><defs><style>.cls-1{fill:#fefcfb;}</style></defs><g id="Layer_2" data-name="Layer 2"><g id="Layer_1-2" data-name="Layer 1"><path class="cls-1" d="M63.42,113.89l1.44,1.25a71.27,71.27,0,0,1-9.73-.85A53.62,53.62,0,0,1,62.25,109L62,111.39a2.41,2.41,0,0,0,.55,0A19.82,19.82,0,0,0,70.84,107a1.29,1.29,0,0,0-.11-2.08l-6.38-4.73a6.06,6.06,0,0,0-2.83-.85,19.22,19.22,0,0,0-8,.77c-.76.21-1.51.49-2.35.76v9.25a1.51,1.51,0,0,1-2.27,1.48,1.09,1.09,0,0,1-.71-1.11c0-.79,0-1.59,0-2.38v-7.23c-1-.33-2-.69-3-1a21.35,21.35,0,0,0-5.84-.73,15.57,15.57,0,0,0-4.57.89,3.09,3.09,0,0,0-.75.46c-1.18.87-2.34,1.78-3.55,2.61a3.33,3.33,0,0,0-1.59,2.19,26.72,26.72,0,0,0,12.43,9.11,12.25,12.25,0,0,1-4.82-.4,21.12,21.12,0,0,1-8-4.58c-.87-.75-1.68-1.56-2.57-2.38l-1.31.78a7.12,7.12,0,0,1-1.92-2.69.75.75,0,0,1,.19-.59,4.28,4.28,0,0,1,.77-.58c-.15-.3-.29-.58-.44-.85a26.62,26.62,0,0,1-2.9-7.82A15.49,15.49,0,0,1,20.5,88a5,5,0,0,1,.41-1c.16,5.48,2.22,10.26,5.2,14.68a5.07,5.07,0,0,0,3-1.27A20.59,20.59,0,0,1,31,99a1.11,1.11,0,0,0,.52-1c0-.82,0-1.65,0-2.47V80.21c0-1.73,0-1.73,1.21-2.82l-5.06-3.75A5.08,5.08,0,0,1,21,72.51a5,5,0,0,1,6.07-7.58c2.29,1.1,3.2,3.33,2.54,6.35l1.37,1,3,2.26a1,1,0,0,0,1,.18A19.45,19.45,0,0,1,41,74.12,14.9,14.9,0,0,1,47.5,76l.67.35c0-1.16,0-2.19,0-3.27-.79-.13-1.52-.21-2.23-.37s-1.29-.37-1.94-.58a.85.85,0,0,1-.62-.86c0-.79-.05-1.58-.09-2.38a1,1,0,0,1,.7-1.09,11,11,0,0,1,3.13-.86L48,66.8c.23-.48.3-1,.6-1.21a2.61,2.61,0,0,1,1.35-.22c1,0,1.13.19,1.34,1.39.65.11,1.32.18,2,.34s1.45.46,2.17.71a.85.85,0,0,1,.61.87l-.06,2.65a.81.81,0,0,1-.69.8c-1,.27-2,.51-3,.75a8.58,8.58,0,0,1-1,.14v3.3c4.55-2.72,9.28-2.7,14.16-1.29l5.25-4,5.47-4.17a1.52,1.52,0,0,1,2.57.65,1.2,1.2,0,0,1-.38,1.5c-.73.6-1.48,1.16-2.22,1.74-2.84,2.19-5.69,4.38-8.52,6.58-.16.12-.3.27-.49.43a1.85,1.85,0,0,1,.74,1.8c0,6.18,0,12.36,0,18.54a1.48,1.48,0,0,0,.69,1.38c1.39,1,2.74,2,4.11,3.05a3,3,0,0,0,.36.26,1,1,0,0,0,1.45-.41A17.29,17.29,0,0,0,76.26,96c.14-1.26.13-2.53.17-3.79a4.12,4.12,0,0,0-.06-.6l-2,1.07c.56-3.08,1.24-6,2-9.16a58.76,58.76,0,0,1,5.31,9l-2.47-1.13c0,1,0,1.93,0,2.83a21.19,21.19,0,0,1-2.31,9.33,2.87,2.87,0,0,0-.36,1.59c0,.79,0,1.59,0,2.5l-3.21,1.1a2.52,2.52,0,0,0-.77.38,23.55,23.55,0,0,1-8.76,4.59A3.14,3.14,0,0,0,63.42,113.89Zm-13.88-35a7.83,7.83,0,0,0-.61-.7,6.31,6.31,0,0,0-.78-.58c-4.06-2.73-8.48-3-13.09-1.84-.77.2-.78.22-.78,1V96.2a6.54,6.54,0,0,0,.08.7c.21-.06.35-.08.49-.13a15.24,15.24,0,0,1,6.54-.48,28.7,28.7,0,0,1,7.73,2,1.42,1.42,0,0,0,1.09,0c.85-.33,1.71-.65,2.57-.91a23.06,23.06,0,0,1,8.68-1.16c1.16.09,2.3.36,3.46.55.15-.79.13-20.13-.06-20.85C59.35,74.41,54.21,74.87,49.54,78.9ZM24.83,72.07a2.69,2.69,0,0,0,2.81-2.67,2.74,2.74,0,1,0-5.48-.12A2.68,2.68,0,0,0,24.83,72.07Z"/><path class="cls-1" d="M.66,91.11a4,4,0,0,1,.26.61,30.37,30.37,0,0,0,6,11.74,55.51,55.51,0,0,0,11.1,10.27,107.88,107.88,0,0,0,21.82,12c2.92,1.22,5.91,2.26,8.87,3.4a1.82,1.82,0,0,0,1.28,0A120.8,120.8,0,0,0,79.8,114.44,59.68,59.68,0,0,0,89.71,106a33.49,33.49,0,0,0,7.45-11.76c.42-1.21.69-2.48,1-3.72a1.17,1.17,0,0,1,.17-.28l0,0a25.49,25.49,0,0,1-1.17,5.33A46.6,46.6,0,0,1,88,112.27a65.1,65.1,0,0,1-15.43,13.18,91.79,91.79,0,0,1-21.81,10,4.28,4.28,0,0,1-2.65,0,88.88,88.88,0,0,1-27.74-14.13,55.7,55.7,0,0,1-14.44-16A44.63,44.63,0,0,1,.77,92a8.27,8.27,0,0,1-.09-.87Z"/><path class="cls-1" d="M98.37,30.43c-.12-.89-.22-1.78-.35-2.66-.36-2.5-.71-5-1.1-7.5-.1-.69-.33-1.37-.49-2.05a4.1,4.1,0,0,0-2-2.79,42.41,42.41,0,0,0-3.88-2.06A78.5,78.5,0,0,0,78.77,9.51a140.46,140.46,0,0,0-14.49-3A98.93,98.93,0,0,0,49.9,5.22a87.37,87.37,0,0,0-9.15.51A140.76,140.76,0,0,0,22.37,9a85.75,85.75,0,0,0-14.1,4.43,37.44,37.44,0,0,0-3.81,2,4.21,4.21,0,0,0-2,2.86c-.29,1.4-.64,2.8-.85,4.22C1.2,24.85.93,27.25.62,29.64a2.42,2.42,0,0,1-.26.86c0-.5-.14-1-.15-1.49C.14,25.33.08,21.66,0,18a4.08,4.08,0,0,1,.7-2.32,12.84,12.84,0,0,1,3.16-3.29A43.15,43.15,0,0,1,13.6,6.92,86.63,86.63,0,0,1,32,1.56,100.24,100.24,0,0,1,45,.1,96.75,96.75,0,0,1,57.2.32,94.13,94.13,0,0,1,79.43,4.74,59,59,0,0,1,93,11a19.66,19.66,0,0,1,4.15,3.4,12,12,0,0,1,1,1.26,4.21,4.21,0,0,1,.73,2.49c0,2.7-.09,5.41-.15,8.11,0,1.29-.1,2.59-.16,3.88a1.94,1.94,0,0,1-.07.33Z"/><path class="cls-1" d="M113.72,74.51a7.14,7.14,0,0,1,.79-.47,96.78,96.78,0,0,1,15.58-5,109.41,109.41,0,0,1,12.3-2.25c3.44-.42,6.9-.74,10.36-.94s6.7-.22,10.05-.23c3.7,0,7.4.22,11.09.54a171.61,171.61,0,0,1,19,2.8c4.66.92,9.36,1.65,14.09,2.22a129.61,129.61,0,0,0,16.71,1,63.06,63.06,0,0,0,13.83-1.42,25.24,25.24,0,0,0,6.13-2.15,2.64,2.64,0,0,1,.57-.14l0,0a22,22,0,0,1-6.78,4,45.64,45.64,0,0,1-10.29,2.64,74.55,74.55,0,0,1-14.16.64c-3.25-.13-6.51-.4-9.74-.81-3.85-.48-7.67-1.15-11.49-1.79-3.62-.6-7.22-1.33-10.84-1.87q-4.67-.7-9.36-1.12c-3.95-.35-7.91-.64-11.87-.8-3.49-.14-7-.13-10.5-.05-3.25.07-6.51.26-9.76.52a126.4,126.4,0,0,0-24.26,4.22l-1.45.37Z"/><path class="cls-1" d="M64.06,28.23v-.74l2.13-1c0,.26-.07.57-.12.87a3.66,3.66,0,0,0,.27,2,2,2,0,0,0,1.14,1.17,6.45,6.45,0,0,0,9-6.11c-.2-2.86-3.28-5.32-6.06-4.48a4.3,4.3,0,0,0-2.79,2.61c.78,0,1.59-.32,2.34.3C69,23.94,67.89,25,68,26.68a4.27,4.27,0,0,1,0-6.79,6.29,6.29,0,0,1,6.44-.73,6.13,6.13,0,0,1,3.69,5.21A9.06,9.06,0,0,1,71.4,34a.8.8,0,0,1-.86-.24,7.84,7.84,0,0,0-4-2.21c.24.14.48.3.73.43A10.73,10.73,0,0,1,70.81,35a7.36,7.36,0,0,1,1.34,3.59,29.09,29.09,0,0,0,1.11,5.16c.21.72.5.89,1.25.69a11.81,11.81,0,0,0,1.39-.55,1.77,1.77,0,0,1,2.29.68,1.72,1.72,0,0,0-1.43.2,4.15,4.15,0,0,1-1.26.36,4.83,4.83,0,0,0-2.23,1,1.34,1.34,0,0,0-.6,1.66c.26.77-.25,1.41-.6,2-.21.37-.4.75-.61,1.15-1-.89-.28-2-.14-3-.6.47-1.22.88-1.74,1.38a3.56,3.56,0,0,0-.5,1c-.63-.88-.43-1.8.68-2.93-.48-.17-.48-.17-1.31,0-.11-1.34,1.55-2.19,3.18-1.61A2,2,0,0,0,71.86,44a9.08,9.08,0,0,0-2.19-3.77,3.9,3.9,0,0,0-2.34-1.11c-.76-.07-1.52-.18-2.27-.32a5.48,5.48,0,0,1-3.33-2c-.95-1.17-1.88-2.34-2.83-3.5a13.3,13.3,0,0,0-1.13-1.24,3.64,3.64,0,0,0-4.3-.8,38.42,38.42,0,0,0-3.39,1.87,41.62,41.62,0,0,1-5.41,3.14,9.74,9.74,0,0,1-4.35.94,3.75,3.75,0,0,1-1.87-.58l.25-2.28a8.07,8.07,0,0,1,5.15.73,2.08,2.08,0,0,0,.83-1.24,2,2,0,0,1,2.41-1.34,3.63,3.63,0,0,1,.51.15c.1-.59.16-1.14.28-1.68A3.34,3.34,0,0,1,50,28.43a1.93,1.93,0,0,1,2.08.24,2.69,2.69,0,0,0,.49.27c0-.3,0-.54.05-.77.07-1,.4-1.31,1.37-1.33a8.88,8.88,0,0,0,3-.61A4.69,4.69,0,0,0,59.4,24.4a5,5,0,0,0,1.49,2.94s0,.05,0,.07h0l-.11-.06-.07-.62A2.81,2.81,0,0,0,63,25.14l.15.7a4.91,4.91,0,0,0,.92,2.38l.07.21,0-.05Z"/><path class="cls-1" d="M87.55,56.47a15.68,15.68,0,0,1-1.3,1.28,19,19,0,0,1-7.42,3.33,33.33,33.33,0,0,1-9.45.76,65.1,65.1,0,0,1-14.69-2.75,72.55,72.55,0,0,0-13.49-2.5,64.32,64.32,0,0,0-10.57-.13,54.06,54.06,0,0,0-18,4.25c-.47.21-.94.45-1.41.67l-.1-.15c.31-.22.62-.46.93-.67A42.65,42.65,0,0,1,24.27,55,51.83,51.83,0,0,1,40,53.1a64.47,64.47,0,0,1,16.37,2.8,79.1,79.1,0,0,0,13.19,2.68,45.24,45.24,0,0,0,9.16.2,22.82,22.82,0,0,0,8.57-2.2,1.78,1.78,0,0,1,.33-.09Z"/><path class="cls-1" d="M131.9,85l-1.08.32a1.44,1.44,0,0,1-.24-.28A4.87,4.87,0,0,0,127,82.15a6.94,6.94,0,0,0-4.41.28,3.24,3.24,0,0,0-2,1.91,2.74,2.74,0,0,0,1.44,3.56,20.64,20.64,0,0,0,3,.91c1,.29,2.06.51,3,.86,5.22,1.85,5.22,7.59,2.34,10.63a8.07,8.07,0,0,1-4.91,2.35,12.76,12.76,0,0,1-5-.18,6.6,6.6,0,0,1-5.28-5.59c0-.2-.08-.4-.14-.69l1.23-.43c.18.3.34.57.48.84,1.65,3.23,5.5,4,7.94,3.29a3.79,3.79,0,0,0,2.95-3,2.86,2.86,0,0,0-1.29-3,11.1,11.1,0,0,0-3.5-1.16,24.49,24.49,0,0,1-3-.86c-3.58-1.37-4.5-4.5-3.59-7.67A6,6,0,0,1,120.23,80a11.63,11.63,0,0,1,7.87-.16A5.38,5.38,0,0,1,131.9,85Z"/><path class="cls-1" d="M133.11,86.14h4.36c1,3,2.07,6.1,3.15,9.3.49-1.08.92-2,1.34-3,.83-1.88,1.67-3.75,2.47-5.64a1,1,0,0,1,1-.72c.6,0,.81.29,1,.76q1.62,4,3.26,8c.06.16.14.32.29.63l3.22-9.31h3.35q-3,8.07-6,16a1.6,1.6,0,0,1-.29.11c-1.25.08-1.25.08-1.76-1L145.3,94c-.13-.29-.28-.57-.46-.94-.17.31-.31.53-.41.76-1.14,2.52-2.27,5-3.41,7.54-.43,1-.43,1-1.5.92a3.41,3.41,0,0,1-.49-.06Z"/><path class="cls-1" d="M70.07,15c-1.28-.16-2.56-.35-3.84-.46a25.24,25.24,0,0,0-11.46,1.32,13.57,13.57,0,0,0-8.21,8.76A32.55,32.55,0,0,1,45.16,28a10,10,0,0,1-3.74,4.13,6.16,6.16,0,0,1-4.41.8,1.33,1.33,0,0,1-1.18-1.14,8.67,8.67,0,0,1,.32-4.52c.3-1,.69-1.94,1-2.92a12.36,12.36,0,0,0,.09-6.95A3.37,3.37,0,0,0,34,14.72c-.2,0-.59.09-.6.17a1.3,1.3,0,0,0,.16.8c.08.13.4.11.61.15l.08,0c1.19-.44,1.72-.25,2.2.92a6,6,0,0,1,.34,3.88,3.35,3.35,0,0,1-4,2.41,7.69,7.69,0,0,0-3.24,0c.22-.92.5-1.15,1.38-1.26a8.42,8.42,0,0,0,1.81-.36,4.12,4.12,0,0,0,1.32-.82,1.49,1.49,0,0,0,.1-2.2,2.68,2.68,0,0,0-2.85-.92,7.09,7.09,0,0,0-.82.3c-.13-1.13-1-1.36-1.91-1.58-.46-.1-.9-.26-1.35-.4a4.2,4.2,0,0,1,4.24-1.52c.43-.28.83-.58,1.27-.81a4.36,4.36,0,0,1,3.58-.33,1,1,0,0,0,1-.1,8.75,8.75,0,0,1,3-1.27A1.92,1.92,0,0,1,42,12c-1.16.79-2.39,1.51-2.11,3.32a3,3,0,0,1-.74-1.92l.16-.36.07,0,0,0-.06.07-.17.36a.92.92,0,0,0-.09,1.2,9.63,9.63,0,0,0,1,1.44c.22.3.49.57.76.87A7.31,7.31,0,0,0,39.1,19.2l.57-.25c.16.7.16,1.48.85,1.87-.52.57-1.06,1.11-1.55,1.7a2.69,2.69,0,0,0-.3.78l-.09.09.07-.11.67-.54,1,1.63c-.42.5-.9,1-1.29,1.59a4.26,4.26,0,0,0-.41,1l-.05,0,0,0,.68-.64a1.67,1.67,0,0,0,2.37,1.14c-.34,1.29-1.19,2.13-3.37,3.36a2.25,2.25,0,0,0,.54,0,6.46,6.46,0,0,0,4-2.95,45.42,45.42,0,0,0,2.67-5.25c1.88-4.48,5.33-7,9.87-8.3a23.67,23.67,0,0,1,8.3-.63,29.69,29.69,0,0,1,5.62,1,3.64,3.64,0,0,1,.7.31Z"/><path class="cls-1" d="M134.76,34.79h3.81c.05,2.37,0,4.73,0,7.25l.66-.64a5.17,5.17,0,0,1,3.46-1.52c4.2-.28,6.13,2.55,6.74,5.58a11.33,11.33,0,0,1-.32,6,6.44,6.44,0,0,1-4.39,4.46,5.31,5.31,0,0,1-5.54-1.29c-.12-.12-.26-.23-.39-.35l-.17,0-.11,1.29h-3.78ZM138.59,48a28.23,28.23,0,0,1,0,2.91,2.18,2.18,0,0,0,1,2.08,3.28,3.28,0,0,0,4.86-.72,6.81,6.81,0,0,0,.83-1.92,10.94,10.94,0,0,0,.18-4.11,6,6,0,0,0-.82-2.4,3.4,3.4,0,0,0-5.6-.3,1.86,1.86,0,0,0-.47,1.28C138.61,45.92,138.59,47,138.59,48Z"/><path class="cls-1" d="M116.19,55.52h-3.6c1-2.41,2.18-4.67,3.25-7S118,44,119.09,41.72l3.29-6.93h1.49l9.5,20.71h-4.46l-2-4.5c-.21,0-.38,0-.55,0-2.47,0-4.94,0-7.42,0a.86.86,0,0,0-.92.61C117.4,52.87,116.8,54.17,116.19,55.52Zm9.37-7.35c-1-2.24-2-4.41-3.1-6.64l-2.95,6.64Z"/><path class="cls-1" d="M224.39,94.49H212.13a5.58,5.58,0,0,0,3,5.14,6.33,6.33,0,0,0,4.31.27,6.46,6.46,0,0,0,3.36-2.64l1,.48a6.51,6.51,0,0,1-4.35,4.6,10.25,10.25,0,0,1-6.5-.09,7.81,7.81,0,0,1-5.31-6.85,9.7,9.7,0,0,1,.46-4.86,7.6,7.6,0,0,1,6.54-5.06,10.63,10.63,0,0,1,3.77.11A7.19,7.19,0,0,1,224.18,92C224.3,92.75,224.32,93.56,224.39,94.49Zm-4.61-2.4a6.06,6.06,0,0,0-.6-2.4A2.91,2.91,0,0,0,216.66,88a9.19,9.19,0,0,0-1,0,3.89,3.89,0,0,0-3.32,4.06C214.76,92.1,217.24,92.11,219.78,92.09Z"/><path class="cls-1" d="M205.83,40.5h4.07c1,2.85,1.94,5.72,3,8.75l3.86-8.75h1.33c1.19,2.86,2.38,5.75,3.63,8.76l3-8.74h3c0,.66-4,11.68-5.48,15h-1.43L216.84,47a26.51,26.51,0,0,0-1.41,2.91c-.45.92-.85,1.87-1.27,2.8l-1.28,2.82a1.36,1.36,0,0,1-.24.1c-1.23.07-1.23.07-1.67-1.12l-4.81-13C206.06,41.18,206,40.91,205.83,40.5Z"/><path class="cls-1" d="M240.7,102.11h-4l-.07-1.63c-.25.19-.42.32-.58.46a6.77,6.77,0,0,1-6.36,1.41,4.68,4.68,0,0,1-3.52-4.26c-.37-4,2.43-5.82,5.19-6.27a9.82,9.82,0,0,1,4.44.31c.24.07.5.11.75.17a3.71,3.71,0,0,0-3.37-4.42,5.13,5.13,0,0,0-5.08,2.34l-1-.52a5.86,5.86,0,0,1,3.84-3.89A9.73,9.73,0,0,1,237,86a5.19,5.19,0,0,1,3.59,4.86c.09,1.08.07,2.17.07,3.26q0,3.53,0,7.05Zm-4.06-7.29a5.73,5.73,0,0,0-2.73-.65,3.78,3.78,0,0,0-2.25.66A2.89,2.89,0,0,0,230.58,98a2.55,2.55,0,0,0,2.27,2,4.84,4.84,0,0,0,3.49-.94.77.77,0,0,0,.28-.58C236.65,97.26,236.64,96.06,236.64,94.82Z"/><path class="cls-1" d="M167.5,92.32A3.7,3.7,0,0,0,164,87.87a5,5,0,0,0-4.66,2l-.34.38-1-.5a6,6,0,0,1,5.07-4.19,10.27,10.27,0,0,1,4.54.28,5.28,5.28,0,0,1,4,5c.06.94.05,1.89.05,2.83q0,3.7,0,7.41v1h-3.93c0-.5-.06-1-.1-1.65l-.89.7a6.66,6.66,0,0,1-5.66,1.31,4.86,4.86,0,0,1-4-5.26,5.47,5.47,0,0,1,4.37-5.2,9.65,9.65,0,0,1,5.14.08Zm.18,4.56c0-.53,0-1.06,0-1.58,0-.29,0-.53-.35-.65a5.47,5.47,0,0,0-4.11-.14,2.83,2.83,0,0,0-1.7,3.24A2.61,2.61,0,0,0,164,100a5,5,0,0,0,3.31-1,1,1,0,0,0,.31-.66C167.71,97.88,167.68,97.38,167.68,96.88Z"/><path class="cls-1" d="M133.06,131.53H130.2v-3c-.33.32-.5.49-.66.67a8.26,8.26,0,0,1-4.41,2.75,9.75,9.75,0,0,1-6.06-.43,5.55,5.55,0,0,1-3.61-4.9q-.12-1.36-.12-2.73,0-6.45,0-12.89v-1.07c1-.08,1.89,0,2.91,0,0,.36,0,.68,0,1q0,6.52,0,13.06a18.75,18.75,0,0,0,.17,2.37,4.11,4.11,0,0,0,2.65,3.36,6.48,6.48,0,0,0,5.23-.1,11.21,11.21,0,0,0,3.41-2.3,1.45,1.45,0,0,0,.42-1.19q0-7.55,0-15.1v-1h2.9Z"/><path class="cls-1" d="M189.75,102.12H185.6c0-.32,0-.64,0-1,0-3.17,0-6.35,0-9.52a10.92,10.92,0,0,0-.08-1.14,2.63,2.63,0,0,0-3.54-2.17A4.44,4.44,0,0,0,179.59,90a1.69,1.69,0,0,0-.23,1q0,5.07,0,10.14v1h-4c-.18-.61-.23-14.85,0-16h4c0,.6.05,1.2.08,1.91l.56-.54A6.28,6.28,0,0,1,186.77,86a4,4,0,0,1,2.82,3.42,10.17,10.17,0,0,1,.15,1.75q0,4.93,0,9.88Z"/><path class="cls-1" d="M207.68,12.87V11.31a17.08,17.08,0,0,1,2.67-.07,3.31,3.31,0,0,1,.1.54c0,5,0,10.06,0,15.09A5.92,5.92,0,0,1,205.1,33a8.61,8.61,0,0,1-3.68-.06,5.65,5.65,0,0,1-4.33-4.62l.84-.31c.25.38.43.72.66,1A5.81,5.81,0,0,0,204.68,31a3.92,3.92,0,0,0,2.81-3.1,17.57,17.57,0,0,0,.18-3.64,1,1,0,0,0-.29.13,5.85,5.85,0,0,1-9.94-1.76,10.77,10.77,0,0,1,.16-8.25,5.77,5.77,0,0,1,3.89-3.57,5.12,5.12,0,0,1,5.58,1.63l.45.51Zm0,6c0-1.09,0-2.17,0-3.26a2,2,0,0,0-.08-.69,4.42,4.42,0,0,0-4.19-2.39,3.72,3.72,0,0,0-2.87,2.09,8.28,8.28,0,0,0-.79,5.13A6.18,6.18,0,0,0,201,23a3.56,3.56,0,0,0,2.65,1.37,5.27,5.27,0,0,0,3.43-1.15,1.23,1.23,0,0,0,.6-1.17C207.65,21,207.68,20,207.68,18.9Z"/><path class="cls-1" d="M243.7,48.36H232.28a4.88,4.88,0,0,0,2.5,4.7,5.88,5.88,0,0,0,4.12.41A6,6,0,0,0,242.19,51l1,.43a6.08,6.08,0,0,1-3.94,4.28,9.46,9.46,0,0,1-6.65-.2,7.36,7.36,0,0,1-4.59-6.3,9,9,0,0,1,.71-5.17,7.22,7.22,0,0,1,5.77-4.1,9.52,9.52,0,0,1,3.76.13,6.6,6.6,0,0,1,5.2,5.57C243.59,46.46,243.6,47.34,243.7,48.36ZM239.41,46c-.13-.57-.2-1.07-.34-1.54a2.85,2.85,0,0,0-2.39-2.18,3.36,3.36,0,0,0-3.57,1.34,5.09,5.09,0,0,0-.89,2.38Z"/><path class="cls-1" d="M167.07,48.38h-11.5a5.08,5.08,0,0,0,2.89,4.83,5.67,5.67,0,0,0,7.1-2.26l1,.44a6,6,0,0,1-3.93,4.28,9.47,9.47,0,0,1-6.73-.23,7.37,7.37,0,0,1-4.52-6.35,9.29,9.29,0,0,1,.47-4.52,7.19,7.19,0,0,1,5.76-4.64,9.31,9.31,0,0,1,4.1.12,6.61,6.61,0,0,1,5.13,5.63C167,46.51,167,47.37,167.07,48.38ZM155.46,46a44,44,0,0,0,7.29-.07c-.1-.46-.17-.92-.3-1.37a2.87,2.87,0,0,0-2.61-2.26,3.23,3.23,0,0,0-3.46,1.55A19.57,19.57,0,0,0,155.46,46Z"/><path class="cls-1" d="M201.27,46.3a3.58,3.58,0,0,0-3.82-4.19,4.76,4.76,0,0,0-3.72,1.69l-.44.51-.95-.46A5.61,5.61,0,0,1,197,40a9.87,9.87,0,0,1,4.12.16,5.08,5.08,0,0,1,4,5c0,1.08,0,2.17,0,3.26v7.1h-3.69l-.13-1.5c-.26.19-.44.31-.61.45a6.3,6.3,0,0,1-5.87,1.29,4.59,4.59,0,0,1-3.38-5.11,5.23,5.23,0,0,1,4.44-4.7,8.86,8.86,0,0,1,4.28.11C200.53,46.13,200.87,46.2,201.27,46.3Zm.13,4.3c0-.36,0-.71,0-1.06,0-1,0-1-1-1.24a1.84,1.84,0,0,0-.25-.09,4.49,4.49,0,0,0-3.33.34,2.69,2.69,0,0,0-1.2,3.05,2.44,2.44,0,0,0,2.41,1.93,5,5,0,0,0,2.84-.77.85.85,0,0,0,.5-.84C201.39,51.48,201.4,51,201.4,50.6Z"/><path class="cls-1" d="M192.27,97.92l1-.21c1.15,2.23,3.15,2.77,5.41,2.72a3.11,3.11,0,0,0,2.25-.87,2,2,0,0,0-.32-3.18,8.24,8.24,0,0,0-1.7-.71c-.5-.16-1-.24-1.54-.36s-1-.24-1.44-.4a4.14,4.14,0,0,1-3.2-3.48,4.81,4.81,0,0,1,2-4.64,7.41,7.41,0,0,1,4.82-1.38,7.12,7.12,0,0,1,3.48.83,4.59,4.59,0,0,1,2.26,2.7,6.24,6.24,0,0,1,.13.72l-1,.34c-.11-.15-.22-.28-.31-.42a3.42,3.42,0,0,0-2-1.49,5.85,5.85,0,0,0-3.56,0,3.15,3.15,0,0,0-.86.43,1.69,1.69,0,0,0,.13,2.93,9.49,9.49,0,0,0,2,.76c.9.27,1.83.42,2.72.71a4.32,4.32,0,0,1,3.14,3.57,4.82,4.82,0,0,1-1.87,4.92,7.47,7.47,0,0,1-4.64,1.41,8.32,8.32,0,0,1-4.58-1,4.5,4.5,0,0,1-2.34-3.44A3.19,3.19,0,0,1,192.27,97.92Z"/><path class="cls-1" d="M121.41,5.18l.83,0c2.27,0,4.53,0,6.8,0a14.7,14.7,0,0,1,2.88.33,4.94,4.94,0,0,1,3.85,4.77c.17,3.64-2.19,5.72-5.41,6.45a19,19,0,0,1-5.26.32c-.23,0-.46,0-.77,0v9.75c-1,.08-1.92,0-2.84,0C121.3,26.16,121.23,6.78,121.41,5.18Zm2.92,10.58c.4,0,.78.1,1.15.09a14,14,0,0,0,1.84-.16,7.24,7.24,0,0,0,3.81-1.48,4.09,4.09,0,0,0,1.43-4.43,3.52,3.52,0,0,0-3.41-2.72C127.6,7,126,7,124.48,7c0,0-.09.07-.15.12Z"/><path class="cls-1" d="M188.18,123.76H176.31a5.94,5.94,0,0,0,3.32,5.9,5.81,5.81,0,0,0,4.3.06c1.1-.39,1.56-.78,3.37-2.77l.61.23a.73.73,0,0,1,0,.21,6.33,6.33,0,0,1-5.87,4.79,8.83,8.83,0,0,1-4.07-.54,6.87,6.87,0,0,1-4.12-4.32,10.2,10.2,0,0,1,.2-7.49,7.65,7.65,0,0,1,11.34-3.21,7,7,0,0,1,2.74,4.94A17.79,17.79,0,0,1,188.18,123.76Zm-2.68-1.7c-.12-3.53-2.63-5-4.81-4.83-2.41.18-4.57,2.63-4.28,4.83Z"/><path class="cls-1" d="M229.49,18.92a13.13,13.13,0,0,1-.71,4,6.64,6.64,0,0,1-5.38,4.41,8.43,8.43,0,0,1-3.93-.16,6.38,6.38,0,0,1-4.56-4.28,11.11,11.11,0,0,1,.16-7.77,6.78,6.78,0,0,1,6.35-4.52,7.64,7.64,0,0,1,3.38.44,6.92,6.92,0,0,1,4.33,5.19A26.94,26.94,0,0,1,229.49,18.92Zm-12.18-.1a9.65,9.65,0,0,0,.86,4.55,4.09,4.09,0,0,0,7.66-.53,11.18,11.18,0,0,0,0-7.59,6.16,6.16,0,0,0-.71-1.31,3.88,3.88,0,0,0-4.18-1.56,4.29,4.29,0,0,0-3.07,3A9.38,9.38,0,0,0,217.31,18.82Z"/><path class="cls-1" d="M149.92,131.53H147.3c0-.32,0-.63,0-.94,0-2.94,0-5.89,0-8.83a11.41,11.41,0,0,0-.15-1.93,2.7,2.7,0,0,0-2.32-2.43,4.65,4.65,0,0,0-4.86,2.32,1.8,1.8,0,0,0-.15.93c0,3.27,0,6.54,0,9.8v1a14.54,14.54,0,0,1-2.72.12V116a20.18,20.18,0,0,1,2.71,0v1.86c.32-.27.58-.46.8-.68a6.29,6.29,0,0,1,6.69-1.49,3.79,3.79,0,0,1,2.74,3.9c.05,3.88,0,7.76,0,11.65A1.52,1.52,0,0,1,149.92,131.53Z"/><path class="cls-1" d="M47.67,37.93,47.88,40c0,.31.06.63.1,1.06l-3,1.47A14.22,14.22,0,0,0,44.6,39c-.17,1-.35,2-.49,3A1.09,1.09,0,0,1,43,43.07c-.63,0-1.26.16-2,.25A9.86,9.86,0,0,0,41.55,40c-.22.52-.43,1-.68,1.55s-.49.87-.73,1.31a.63.63,0,0,1-.73.35l-1.79-.35A14.92,14.92,0,0,0,39,39.43l-2.36,3L34.92,41.4a7.9,7.9,0,0,0,3.14-4c.46.14.87.28,1.29.38a8.31,8.31,0,0,0,5.16-.62,26.8,26.8,0,0,0,3.28-1.7c1.57-.92,3.1-1.9,4.66-2.84A10.82,10.82,0,0,1,53.63,32a3.34,3.34,0,0,1,4.43,1.51l-1.25.77c-.52-.4-.79-1.14-1.59-1.1l0,0c.26.39.53.77.76,1.17a.62.62,0,0,1,0,.8c-.49.54-1,1.08-1.46,1.65a4.18,4.18,0,0,0-1.9-2.39l-.19-.16v0l0,0,.18.18c.26.52.52,1,.76,1.55a6,6,0,0,1,.29.81.71.71,0,0,1-.3.84c-.39.28-.77.59-1.2.92-.4-.7-.74-1.34-1.12-2a3,3,0,0,0-.58-.55l-.09-.22.11.2c.22.76.45,1.5.63,2.27s.16.84-.53,1.26-1.14.69-1.66,1L47.65,38l0-.23-.08.07Z"/><path class="cls-1" d="M190.79,54l.43.83a4,4,0,0,1-.47.37,6.46,6.46,0,0,1-4.93.71,4,4,0,0,1-3-3.94c-.05-2.68,0-5.36,0-8V42.85h-2.36V40.47h2.33V36.39l2,0h1.94v4.06h3.44a11.84,11.84,0,0,1,0,2.38h-3.33a5.76,5.76,0,0,0-.09.73c0,2.39,0,4.77,0,7.15A5.56,5.56,0,0,0,187,52.5a2.47,2.47,0,0,0,3,1.67Z"/><path class="cls-1" d="M229.42,137.77v-.68a.69.69,0,0,1,.2-.13,7.22,7.22,0,0,0,4.17-3.59c.47-.85.86-1.74,1.33-2.58a1.44,1.44,0,0,0,0-1.41c-1.74-4-3.45-8-5.17-12-.19-.44-.37-.9-.58-1.42h3.08c1.43,3.53,2.88,7.08,4.4,10.83L241.61,116H244c-.25.58-.46,1.08-.69,1.59q-3.27,7.41-6.56,14.82a11.9,11.9,0,0,1-2.55,3.78A5.9,5.9,0,0,1,229.42,137.77Z"/><path class="cls-1" d="M173.32,21.84c.56-1.26,1.11-2.52,1.66-3.78.89-2,1.8-4.08,2.66-6.14a.94.94,0,0,1,1.05-.7c.52,0,1,0,1.66,0-.14.37-.23.64-.34.9L173.54,26.8a17.53,17.53,0,0,1-2.13,3.74,6.4,6.4,0,0,1-5.08,2.6,4,4,0,0,1-.5,0c-.09-.76-.1-.78.5-1a6.61,6.61,0,0,0,3.44-2.89c.62-1,1.13-2.13,1.71-3.18a1.35,1.35,0,0,0,0-1.32c-1.36-3.1-2.67-6.21-4-9.31-.51-1.19-1-2.37-1.53-3.56-.07-.16-.1-.32-.19-.6h2.7c.45,0,.49.37.6.66q1.35,3.3,2.68,6.61c.45,1.1.91,2.21,1.36,3.32Z"/><path class="cls-1" d="M200.1,127.38l.75-.25c.17.24.34.47.5.71a6.11,6.11,0,0,0,6.25,2.28,4.21,4.21,0,0,0,1.13-.49,2.31,2.31,0,0,0,.17-3.82,6.17,6.17,0,0,0-1.64-.83c-.88-.33-1.79-.57-2.67-.88a12.72,12.72,0,0,1-1.69-.74,4.08,4.08,0,0,1-1.27-5.89,4.53,4.53,0,0,1,2.12-1.65,7.54,7.54,0,0,1,5.77.05,4.31,4.31,0,0,1,2.8,3.72l-.7.31a5.14,5.14,0,0,1-.35-.43,4.73,4.73,0,0,0-2.61-2,5.32,5.32,0,0,0-3,0,3.66,3.66,0,0,0-1.24.64,1.93,1.93,0,0,0,.15,3.21,10.93,10.93,0,0,0,2,.88c.77.28,1.58.47,2.35.74a10.49,10.49,0,0,1,1.6.73,4.32,4.32,0,0,1,.49,7.1,6.51,6.51,0,0,1-1.84,1,8.61,8.61,0,0,1-5.38.06A5.08,5.08,0,0,1,200.1,127.38Z"/><path class="cls-1" d="M181.45,22.66l.75-.24a1.62,1.62,0,0,1,.19.22,5.92,5.92,0,0,0,4.88,2.89A4.28,4.28,0,0,0,190,25a2.31,2.31,0,0,0,.11-4,9.26,9.26,0,0,0-1.92-.87c-.71-.26-1.46-.45-2.18-.7a13.11,13.11,0,0,1-1.46-.59,4.12,4.12,0,0,1-.26-7.27,7.09,7.09,0,0,1,7.39,0,4,4,0,0,1,2,3.3l-.72.31c-.15-.19-.28-.35-.39-.52a5,5,0,0,0-5.43-2,3,3,0,0,0-1.58.91,1.86,1.86,0,0,0,.22,2.8,7.25,7.25,0,0,0,1.8.91c.74.28,1.52.43,2.26.71a14.55,14.55,0,0,1,2.24,1,4.31,4.31,0,0,1,.85,6.52A5.33,5.33,0,0,1,190.58,27a8.74,8.74,0,0,1-5.8-.11A5,5,0,0,1,181.45,22.66Z"/><path class="cls-1" d="M160.81,26.78H158c-.12-1.17,0-2.31-.05-3.44s0-2.29,0-3.44V13h-2.15V11.25h2.06a7.92,7.92,0,0,0,.08-.85c0-.76,0-1.53.06-2.29a3.43,3.43,0,0,1,2.77-3.42c1.37-.36,3.36-.26,4.37,1.2l-.4.51a13,13,0,0,0-1.8-.28,2,2,0,0,0-2.16,2.07c0,1,0,1.93,0,3h3.15V13h-3.13Z"/><path class="cls-1" d="M173.12,42.21a5.92,5.92,0,0,1,2.45-1.86,4.52,4.52,0,0,1,1-.25c.65,0,1.29,0,2,0v3.33l-.8-.29a4.86,4.86,0,0,0-4.08.31,1.18,1.18,0,0,0-.64,1.22c0,2.94,0,5.88,0,8.81v2.06c-1.32,0-2.56,0-3.87,0v-15H173Z"/><path class="cls-1" d="M158.25,116h3l4.56,11.17c1.62-3.8,3.18-7.46,4.76-11.15h2.25c-.09.26-.15.45-.23.64q-3.15,7.22-6.31,14.44c-.14.32-.21.64-.68.68s-.7-.29-.87-.69c-1.82-4.23-3.66-8.46-5.48-12.69C158.94,117.61,158.61,116.83,158.25,116Z"/><path class="cls-1" d="M228.07,117.72H225a6.7,6.7,0,0,0-.07.72c0,3,0,6,0,9a7.47,7.47,0,0,0,.16,1.49,2,2,0,0,0,2.53,1.68,13.54,13.54,0,0,0,1.39-.43l.37.61a4.64,4.64,0,0,1-6.06.54,2.57,2.57,0,0,1-1-1.61,10.4,10.4,0,0,1-.18-1.66c0-3.09,0-6.18,0-9.27v-1.05H220V116l2.06-.1v-4h2.77v4c1.08.26,2.11,0,3.2.18Z"/><path class="cls-1" d="M25.25,47.16c-.81,0-1.63,0-2.43.14-.32,0-.6.33-.88.5-.08-1.06.37-1.49,2.22-2.09-.22-.58-.84-.44-1.22-.69A2.19,2.19,0,0,1,25,44.38c.82.15,1.29.77,1.91,1.39a8,8,0,0,0,1-1c.66-.93,1.3-1.88,1.89-2.87,1.31-2.19,2.57-4.41,3.88-6.61.31-.53.71-1,1.07-1.51A1.08,1.08,0,0,1,36,33.36c1.13.24,1.58.74,1.53,1.88a6.24,6.24,0,0,1-3,5.28c-.82.52-1.68,1-2.49,1.51A5.35,5.35,0,0,0,30,44.51a3.28,3.28,0,0,0-.23,1,.75.75,0,0,0,.62.84l1.11.25A1.69,1.69,0,0,1,33,48.44c-.41-.33-.79-.81-1.36-.29a7.76,7.76,0,0,1-.69-.4,4.16,4.16,0,0,0-3.7-.5,1,1,0,0,0-.81.69c-.24.76-1,.92-1.63,1.23-.4.21-.82.39-1.2.57A1.47,1.47,0,0,1,24.24,48l1-.87v0Z"/><path class="cls-1" d="M236,5.16v21.6h-2.69V5.19A24.2,24.2,0,0,1,236,5.16Z"/><path class="cls-1" d="M58.38,48.93c-.42-.41-.72-.84-1.33-.46-.13.08-.49-.14-.69-.3a4.08,4.08,0,0,0-3.69-.54,1,1,0,0,0-.89.72c-.24.75-1,.92-1.63,1.22-.41.19-.82.4-1.23.6a1.68,1.68,0,0,1,.75-1.81c.33-.22.61-.52,1.07-.91l-1,.19c-.24,0-.5.17-.69.1a1.47,1.47,0,0,0-1.73.58c-.07-1.16.62-1.82,2.24-2.16-.18-.67-.85-.49-1.24-.74,1.05-1.1,2.71-.86,3.75.58a2.15,2.15,0,0,0,1.53-1.37,25.48,25.48,0,0,1,1.21-2.73,1.86,1.86,0,0,0-.05-2.06,1.7,1.7,0,0,1,.16-2.39c.73-.84,1.51-1.65,2.31-2.42a8.41,8.41,0,0,1,1.31-.85l3.06,3.75a13,13,0,0,1-2.13,1.22,3.66,3.66,0,0,0-1.1.55,3.3,3.3,0,0,0-.93,1.24,11,11,0,0,1-1.86,3,4.94,4.94,0,0,0-.81,1.43,1,1,0,0,0,.76,1.33c.45.13.91.22,1.36.33A1.81,1.81,0,0,1,58.38,48.93Z"/><path class="cls-1" d="M138.8,11.28h2.73V13l.17.07.61-.69a4.14,4.14,0,0,1,4.11-1.42c.25.06.48.18.74.27v2.41c-.63-.17-1.21-.35-1.81-.48a3.61,3.61,0,0,0-3.63,1.62,1.78,1.78,0,0,0-.17.93c0,3.35,0,6.69,0,10v1h-2.66C138.68,26.15,138.61,12.9,138.8,11.28Z"/><path class="cls-1" d="M190.93,131.52V116h2.7l.1,2c1.48-2,3.17-2.92,5.53-2.07v2.45c-.61-.16-1.19-.37-1.79-.47A3.48,3.48,0,0,0,194,119.4a1.82,1.82,0,0,0-.26,1.07c0,3.35,0,6.7,0,10.06v1Z"/><path class="cls-1" d="M152.81,26.78h-2.66V11.2h2.66Z"/><path class="cls-1" d="M218,131.53H215.4c-.18-.62-.24-14.3-.05-15.59H218Z"/><path class="cls-1" d="M153.66,116h2.59c.18.61.24,14.29.05,15.59h-2.64Z"/><path class="cls-1" d="M30.47,31l-1,3.91a2.57,2.57,0,0,1-.34-.39c-.37-.6-.74-1.2-1.06-1.82a7.08,7.08,0,0,0-1.78-2.28,1.16,1.16,0,0,0-1.45-.22,1.35,1.35,0,0,0-.49.57,5.71,5.71,0,0,0-.23,1,1.73,1.73,0,0,1-1.83,1.52c.3-.39.74-.73.34-1.31-.07-.1.13-.44.27-.61a4.06,4.06,0,0,0,.59-3.69,1.12,1.12,0,0,0-.77-1c-.7-.25-.88-1-1.17-1.57-.2-.44-.42-.87-.63-1.29a1.8,1.8,0,0,1,1.9.84c.22.3.47.56.81,1a7.28,7.28,0,0,1-.19-2.32c.07-.3-.31-.72-.48-1.06,1-.07,1.47.39,2.05,2.21.57-.24.46-.83.71-1.32a2.6,2.6,0,0,1,.58,2.21c-.1.84-.77,1.27-1.35,1.91.24.21.44.41.65.58.75.62,1.51,1.22,2.25,1.85A3.48,3.48,0,0,0,30.47,31Z"/><path class="cls-1" d="M50.81,19a16.52,16.52,0,0,1,8.63-3.66,31.31,31.31,0,0,1,9.22,0c.41.06.8.15,1.4.26-1.31.07-2.42.1-3.53.22a17.36,17.36,0,0,0-2.85.5c-1.89.51-2.58,1.45-2.66,3.42,0,.12,0,.24,0,.43a4.86,4.86,0,0,1-.45-.32,7.87,7.87,0,0,0-6.69-1.66,19.91,19.91,0,0,0-2.38.64c-.22.06-.45.09-.67.13Z"/><path class="cls-1" d="M32.29,33.17l-1.65,1.3c-.11-1.35.38-2.31,2.72-5.34L31.93,30a8.3,8.3,0,0,1,2.48-4c.25-.19.46-.42.7-.64l0,0,0,0-1,.17c.28-.59.54-1.16.82-1.71a.62.62,0,0,1,.27-.2l1.54-.76c-.17.56-.33,1.14-.52,1.7-.42,1.22-.9,2.42-1.29,3.65A7.23,7.23,0,0,0,34.83,32a1.15,1.15,0,0,1-.29,1.09c-1,1.25-1.87,2.55-2.78,3.84-.19.26-.34.53-.54.85-.55-.63-.81-1.21-.38-1.95s.77-1.38,1.15-2.07c.11-.2.2-.4.31-.61l.15-.19h.08s0,0,0-.06l-.08.09Z"/><path class="cls-1" d="M48.93,21.84c1.41-2.56,7-4.18,10.65-1.54-1.79.38-3.32,1-3.71,3.15A6.59,6.59,0,0,0,48.93,21.84Z"/><path class="cls-1" d="M25.06,16.38l-.92-1.11a2.88,2.88,0,0,0,1,4,4.52,4.52,0,0,0,3.41.44,9.67,9.67,0,0,0,3.3-1.41c.63-.4.82-.37,1.57.25-.46.34-.87.71-1.33,1a8.65,8.65,0,0,1-4,1.39A4.73,4.73,0,0,1,22.88,17a2.76,2.76,0,0,1,2.76-3.22c.28,0,.57,0,1,.07a3.67,3.67,0,0,0-1.4,2.49Z"/><path class="cls-1" d="M47.55,24.69a2.63,2.63,0,0,1,2.32-2.38A5.56,5.56,0,0,1,55,24l.1.14a1.39,1.39,0,0,1,.08.23,3.37,3.37,0,0,0-2.84,2.37,4.39,4.39,0,0,0-2-2A3.62,3.62,0,0,0,47.55,24.69Z"/><path class="cls-1" d="M46.24,27.8a4,4,0,0,1,1.17-2,2.1,2.1,0,0,1,.9-.49A3.12,3.12,0,0,1,51.5,27.4a4.32,4.32,0,0,0-3.75,2.12,5,5,0,0,0-.57-1A6.43,6.43,0,0,0,46.24,27.8Z"/><path class="cls-1" d="M218.27,111.31a1.52,1.52,0,0,1-1.62,1.66,1.55,1.55,0,0,1-1.58-1.62,1.58,1.58,0,0,1,1.64-1.67A1.51,1.51,0,0,1,218.27,111.31Z"/><path class="cls-1" d="M153.39,111.32a1.6,1.6,0,0,1,1.68-1.64,1.65,1.65,0,1,1-1.68,1.64Z"/><path class="cls-1" d="M153.1,6.59a1.61,1.61,0,1,1-3.21,0,1.57,1.57,0,0,1,1.65-1.65A1.55,1.55,0,0,1,153.1,6.59Z"/><path class="cls-1" d="M44.85,32.31l-.44-1.37,1.59-2a2.69,2.69,0,0,1,1.07,2.73,3.81,3.81,0,0,0-2.24.66Z"/><path class="cls-1" d="M43.65,31.62a2.8,2.8,0,0,1,.17,2.56l-3.19-.6Z"/><path class="cls-1" d="M.68,91.1.33,89.7l.21,0,.12,1.44Z"/><path class="cls-1" d="M98.36,90.23v-.54l.12,0-.14.5Z"/><path class="cls-1" d="M70.05,15l.38,0,0,.1L70.07,15Z"/><path class="cls-1" d="M113.7,74.49l-.53.16,0,0,.53-.16Z"/><path class="cls-1" d="M113.17,74.65l-.12.11.06-.05.08,0Z"/><polygon class="cls-1" points="50.81 18.99 50.8 19.06 50.81 19.02 50.81 18.99"/><path class="cls-1" d="M87.57,56.49l.07-.09s0,.05,0,.05-.06,0-.08,0Z"/><path class="cls-1" d="M44.83,32.29l0,.05.06,0Z"/><polygon class="cls-1" points="244.4 68.33 244.41 68.28 244.37 68.31 244.4 68.33"/><path class="cls-1" d="M244.22,68.53l.18-.2,0,0-.17.21Z"/><path class="cls-1" d="M39.18,81.52v1.32a20.49,20.49,0,0,1,2.51.34c1.28.31,2.53.74,3.79,1.13a.71.71,0,0,1,.38.21c.09.12.17.34.11.45a.49.49,0,0,1-.41.22A1.79,1.79,0,0,1,45,85a15,15,0,0,0-7.75-1.16c-.56.07-1.1.18-1.7.28V78.8a8.41,8.41,0,0,1,3.13-.46,15.75,15.75,0,0,1,6.69,1.33c.29.12.74.18.65.68-.06.32-.34.33-1,.06a16.63,16.63,0,0,0-5.29-1.26,2.69,2.69,0,0,0-.54,0v1.38c1.25.22,2.47.39,3.66.66a23.67,23.67,0,0,1,2.43.78,1.55,1.55,0,0,1,.54.28.52.52,0,0,1,.15.44.5.5,0,0,1-.41.22,3.25,3.25,0,0,1-.74-.26,15.64,15.64,0,0,0-5.13-1.17Z"/><path class="cls-1" d="M58.42,80.62c.93.11,1.87.21,2.8.35.26,0,.65.07.56.5s-.37.34-.69.28a15.06,15.06,0,0,0-8.79,1c-.32.13-.72.42-.91,0s.3-.56.6-.69A17.33,17.33,0,0,1,58.42,80.62Z"/><path class="cls-1" d="M58.84,89.88l2.45.33c.28,0,.56.13.49.48s-.37.37-.69.3a14.81,14.81,0,0,0-8.69,1,2.13,2.13,0,0,1-.57.23.52.52,0,0,1-.42-.18.48.48,0,0,1,.08-.46,2,2,0,0,1,.61-.33A17.59,17.59,0,0,1,58.84,89.88Z"/><path class="cls-1" d="M38.8,85.31a17.27,17.27,0,0,1,6.59,1.39c.3.14.8.23.59.7s-.59.18-.9,0a15.64,15.64,0,0,0-6.5-1.3c-.7,0-1.39.14-2.09.21-.18,0-.36.12-.51.08s-.31-.21-.46-.33c.11-.14.2-.37.35-.42A5.29,5.29,0,0,1,37,85.47C37.63,85.4,38.27,85.36,38.8,85.31Z"/><path class="cls-1" d="M38.5,87.57a17.7,17.7,0,0,1,6.65,1.28c.17.07.33.14.48.22s.54.3.34.59a.8.8,0,0,1-.68.12c-1.09-.32-2.16-.74-3.27-1a13.17,13.17,0,0,0-5.59-.14c-.11,0-.24.11-.34.08s-.48-.16-.54-.31.12-.42.38-.46Z"/><path class="cls-1" d="M58.44,88.43a15,15,0,0,0-5.83,1.14c-.19.08-.38.17-.57.23s-.58.16-.66-.18c0-.15.18-.38.31-.54s.21-.1.32-.15a15.86,15.86,0,0,1,8.79-1.15,2.19,2.19,0,0,1,.68.17c.14.08.32.32.28.44a.57.57,0,0,1-.44.31,3.52,3.52,0,0,1-.77-.12,7.93,7.93,0,0,0-1-.14C59.21,88.42,58.82,88.43,58.44,88.43Z"/><path class="cls-1" d="M38.55,90.69l-2.15.25c-.15,0-.31.13-.43.09a2.05,2.05,0,0,1-.45-.34c.11-.15.21-.4.34-.42a16.78,16.78,0,0,1,2.52-.35,15.73,15.73,0,0,1,6.93,1.33,1.54,1.54,0,0,1,.54.28.37.37,0,0,1-.28.67A2.1,2.1,0,0,1,45,92,17.27,17.27,0,0,0,38.55,90.69Z"/><path class="cls-1" d="M39.84,92.28a15.76,15.76,0,0,1,5.53,1.31c.3.13.8.23.62.68s-.63.19-1,0A15.94,15.94,0,0,0,38.61,93a20.83,20.83,0,0,0-2.09.21,3.38,3.38,0,0,0-.34.08c-.29,0-.57,0-.65-.3s.2-.44.47-.49A14.15,14.15,0,0,1,39.84,92.28Z"/><path class="cls-1" d="M58.7,85.3l2.58.34c.27,0,.57.11.5.47s-.38.37-.7.31a14.75,14.75,0,0,0-8.79,1c-.3.12-.69.45-.9,0s.28-.57.58-.7A17.6,17.6,0,0,1,58.7,85.3Z"/><path class="cls-1" d="M61.37,84l-1.28-.2A15.14,15.14,0,0,0,52.34,85c-.14.05-.27.16-.4.16s-.43,0-.52-.15,0-.44.19-.57a2.93,2.93,0,0,1,.4-.19,15.83,15.83,0,0,1,9-1.1c.12,0,.24,0,.35,0,.27.07.56.18.45.52C61.71,83.87,61.45,84,61.37,84Z"/><path class="cls-1" d="M61.42,93.3c-1-.11-1.8-.24-2.59-.26a15.6,15.6,0,0,0-6.36,1.22,2.21,2.21,0,0,1-.56.23c-.17,0-.45-.07-.49-.18a.65.65,0,0,1,.16-.51,1.24,1.24,0,0,1,.46-.23,15.11,15.11,0,0,1,4.15-1.17,14.16,14.16,0,0,1,4.9.1l.26,0c.25,0,.52.17.42.44S61.44,93.28,61.42,93.3Z"/><path class="cls-1" d="M58.43,78.27l2.62.3a.82.82,0,0,1,.42.1,2.58,2.58,0,0,1,.32.45,2.68,2.68,0,0,1-.49.28.67.67,0,0,1-.34,0,14.91,14.91,0,0,0-8.62,1c-.31.12-.76.52-1-.05s.38-.58.71-.72A17.2,17.2,0,0,1,58.43,78.27Z"/></g></g></svg>