
<svg xmlns="http://www.w3.org/2000/svg" version="1.1" xmlns:xlink="http://www.w3.org/1999/xlink" preserveAspectRatio="none" x="0px" y="0px" width="1588px" height="828px" viewBox="0 0 1588 828">
<defs>
<g id="Layer7_0_FILL">
<path fill="#F7F7F7" stroke="none" d="
M 1316.9 191.3
Q 1324.8 176.95 1324.5 162.15 1324.2 141.9 1309.05 124.65 1296.8 110.65 1276.75 100.3 1239.25 81.05 1190.4 72.4 1154.45 66.05 1100.35 64.1 988.4 59.8 897.4 72.3 789.75 86.85 701 125.75 690.95 130 684.9 133.7 676.2 138.75 670.55 145.1 663.9 152.5 660.85 162.15 657.7 172.6 660 181.95 662.3 190.95 670.05 199.5 673.9 203.6 685.5 213.35 687.05 214.65 688.45 215.65 703.75 236.85 674.5 242.55 645.25 248.25 592.55 252.5 557.9 252.4 536.15 255.5 505.9 259.75 482.55 271.95 463.8 281.55 454.95 294.95 449.4 303.2 447.45 312.95 445.4 323.25 448.1 332.5 450.25 340.1 456.1 347.05 460.4 352.3 467.8 358.2 493.05 378.65 522.25 388.35 534.95 392.65 554.4 396.75 565.3 398.8 586.9 403.35 601 404.6 611.9 407.2 638.15 412 642.25 422.45 645.3 425.95 646.8 430.1 644.65 426.7 642.6 423.45 645.35 433.1 629.95 447.4 596.75 478.1 594.45 494.8 592.35 510.4 602.45 525.05 611.4 537.95 625.9 545.75 648.65 557.75 683.25 560.15 703.1 561.7 743.1 562.3 771.65 564.25 809.6 573.05 831.75 578.1 875.8 589.6 957.7 610.1 1008 602.75 1044.75 597.2 1063.1 576.95 1074.5 564.25 1077.8 546.3 1081.2 527.2 1073.2 512.9 1069.55 506.95 1067.95 504 1065.45 498.6 1065.95 494.25 1067.1 485.85 1078.15 481.05 1101 470.45 1139.25 469.45 1149.75 469.2 1170.75 469.2 1189.4 468.9 1202.25 467.05 1227.65 463.5 1251.7 452.15 1275.65 440.9 1296 422.8 1317.6 403.35 1325.25 383.3 1330.2 370.8 1329.95 357.5 1329.75 343.5 1323.7 332.9 1317.3 321.55 1304.2 314.4 1295.6 309.7 1279.3 304.75
L 1233.8 281.35
Q 1220.55 259.65 1250.1 242.05 1252.35 240.8 1274.45 228.75 1289.2 220.65 1297.95 213.6 1309.9 204 1316.9 191.3 Z"/>
</g>

<g id="Layer6_0_FILL">
<path fill="#E7E6E7" stroke="none" d="
M 511.85 483.45
L 511.85 450.65 511.85 419.75 444.85 419.75 444.85 421.6 444.85 419.75 378.35 419.75 378.35 483.45 511.85 483.45
M 634.7 415.9
L 619.4 405.9 619.4 415.95 619.4 425.85 634.6 415.95 634.7 415.9
M 536.1 363.25
L 546.05 348.05 536.1 348.05 526.1 348.05 536.05 363.35 536.1 363.25
M 378.35 294.4
L 378.35 358.15 511.85 358.15 511.85 325.4 511.85 294.4 378.35 294.4
M 536.1 234.9
L 546.05 219.7 536.1 219.7 526.1 219.7 536.05 235 536.1 234.9
M 511.85 196.95
L 511.85 166 444.85 166 444.85 167.85 444.85 166 378.35 166 378.35 229.75 511.85 229.75 511.85 196.95
M 511.85 71.65
L 511.85 40.75 378.35 40.75 378.35 104.5 511.85 104.5 511.85 71.65
M 546.05 96.1
L 536.1 96.1 526.1 96.1 536.05 111.4 536.1 111.3 546.05 96.1
M 974.85 396.45
L 984.85 381.15 964.9 381.15 974.85 396.45
M 672.55 277.4
L 672.4 277.55 672.4 280.95 672.4 277.55 605.8 316.95 672.55 356.45 739.35 316.95 672.55 277.4
M 731.45 246.25
L 731.6 246.15 716.3 236.15 716.3 246.25 716.3 256.1 731.45 246.25
M 763.55 107.7
L 696.75 147.25 763.55 186.75 830.3 147.25 763.55 107.7
M 867.2 147.2
L 851.9 137.2 851.9 147.25 851.9 157.15 867.1 147.25 867.2 147.2
M 1022.25 273.4
L 1022.25 242.5 955.25 242.5 888.75 242.5 888.75 306.25 1022.25 306.25 1022.25 273.4
M 1022.25 148.1
L 1022.25 117.2 888.75 117.2 888.75 147.25 888.75 180.95 1022.25 180.95 1022.25 148.1
M 1206.45 380.5
L 1206.45 390.6 1206.45 400.45 1221.55 390.6 1221.75 390.5 1206.45 380.5
M 1391.7 390.6
L 1324.95 351.05 1258.15 390.6 1324.95 430.1 1391.7 390.6 Z"/>
</g>

<g id="Layer5_0_FILL">
<path fill="#62BDCC" stroke="none" d="
M 399.8 334.55
Q 363.1 304.95 330.05 271.45 298.75 239.65 261.55 198.95 277 221.55 277.85 231.8 278.9 244.55 271.65 249 205.3 207.8 222.5 241.45 221.1 241.45 235.25 258.5 249.4 275.55 262.5 297.2 275.6 318.85 260.55 315.95 154.35 268.4 174.05 302.05 238.05 360.8 201.1 345.25 178.45 335.75 171.9 342.15 164.9 355.75 183.9 373.05 195.55 391.05 177.4 387.5 159.2 383.95 161.7 391.7 164.2 399.4 163.85 401.3 162.7 402 161.35 401.5 144.5 395.75 128.1 392.35 127.75 392.6 127.45 392.95 127.15 393.35 127 393.85 126.8 394.5 126.75 395.15 126.6 396.35 126.9 397.45 127.65 400.3 129.85 402.3
L 132.1 403.85 142.1 413.25
Q 160.4 430.35 179.3 446.75 185.4 452.05 191.55 457.25 227.35 487.55 264.65 515.9 302.45 544.55 342.05 570.5 382.3 596.9 424.05 620.95 466.45 645.45 510.1 667.35
L 616.65 463.45
Q 574.65 445.35 543.9 429.15 505.5 409 469.05 385.05 433.1 361.45 399.8 334.55 Z"/>
</g>

<g id="Layer5_1_FILL">
<path fill="#62BDCC" stroke="none" d="
M 986.2 130.05
Q 982.95 127.9 974.95 128.9
L 970.35 129.9
Q 905.2 146.75 897.9 148.7 882.95 152.85 872.45 163.3 868.25 166.9 866.6 172.25 865 177.5 866.5 182.85 867.85 188.35 870.25 199.15 872.6 208.9 874.7 215.5 882.7 239.9 885.4 249 891.15 267.8 894.65 282.75 896.25 287.1 898.5 290.6
L 898.6 290.95
Q 899.6 292.7 901.6 293.2 903.6 293.7 905.45 292.7 906.95 292.1 909.1 290.85 939 271.9 972.35 264.3
L 1009.7 255.95
Q 1011.2 255.6 1021.7 253.7
L 1002.15 178.75
Q 994.65 149.6 991.65 139.65 989.4 132.05 986.2 130.05 Z"/>

<path fill="#ABE3EC" stroke="none" d="
M 1051.95 129.8
Q 1047.45 125.8 1041.75 124.8 1021.8 121.45 1002.15 124.55 998.15 125.45 995.15 126.55 995.4 131.65 996.25 136.5
L 1027.4 252.95 1064.55 249.35
Q 1066.25 245.6 1067.15 243.75 1068.65 240.4 1068.75 238.15 1069.4 208.9 1068.5 188.95 1066.65 163.55 1057.95 139.5 1056.2 133.75 1051.95 129.8 Z"/>
</g>

<g id="Layer5_1_MEMBER_0_FILL">
<path fill="#ABE3EC" stroke="none" d="
M 942.35 173.45
L 946.1 225.1 976.5 184.4 942.35 173.45
M 938.75 197.4
L 911.1 186 915.05 236.5 938.75 197.4 Z"/>
</g>

<g id="Layer5_2_FILL">
<path fill="#E95754" stroke="none" d="
M 1023 529.35
Q 1017.95 528.9 1014.15 530.9 1009.95 534.15 1004.65 534 999.3 533.9 995.35 530.2 991.85 534.7 990.75 538.5 989.35 543 990.75 547.9 1012.75 549 1036.05 540 1060.7 530.5 1066.45 516.6
L 1063.65 517.9
Q 1047.1 530.9 1023 529.35
M 994.15 318.05
Q 993.7 317.55 993.2 317.1 990.35 314.4 987.2 311.85 984.35 309.55 981.9 306.8 980.8 305.4 979.4 304.3 979.1 304.1 978.75 303.8 977.35 302.4 976.8 300.65 976.75 300.5 976.7 300.3 976.65 300.25 976.65 300.2 976.45 300.2 976.35 300.2 968.9 300.45 962.35 303.65 956.2 306.7 950.9 310.8 950.4 311.2 949.95 311.7 947.3 314.55 946.35 318.3 946.15 318.9 945.95 319.5 943.15 326.6 943.65 334.5 943.7 335.3 943.8 336 945.1 343.15 947 350.25 948.05 354.15 949.2 357.9 950 360.4 950.5 362.9 950.6 363.3 950.7 363.7 951.6 367.5 953.7 370.75 954.05 371.2 954.3 371.7 954.45 372 954.6 372.15 955.8 373.5 956.4 374.5 956.75 375.1 957.1 375.55 961.65 381.75 968.4 384.95 969.1 385.25 969.65 385.6 974.4 388.65 979.2 391.85 980.1 392.4 981.15 392.7 982 392.95 982.65 393.4 989.15 397.7 996.15 400.25 998.4 401.05 1000.5 401.95 1001 402.15 1001.55 402.3 1005.45 402.95 1009.3 404.15 1012.65 405.2 1016.2 405.2 1017.3 405.2 1018.2 405.45
L 1018.25 405.45
Q 1018.8 404.25 1019.45 403.05 1022.5 397.85 1026.3 393.15 1031 387.2 1037.65 383.7 1040 382.45 1042.55 381.5 1041.05 379.95 1039.4 378.5 1037.65 377.05 1036.2 375.25 1031.4 369.5 1027.7 363.35 1025.5 359.85 1022.35 357.2 1020.6 355.7 1018.9 354.4 1017.45 353.3 1016 352.25 1014.2 351.45 1013.1 350.2 1011.95 349.4 1010.5 348.25 1010.25 347.95 1009.95 347.6 1008.25 345.35 1008.7 342.2 1008.65 342 1008.6 341.75 1008.4 339.6 1007.45 337.85 1005.9 335.15 1004.55 332.25 1004.25 331.6 1003.75 331.05 1001.4 328.55 999.6 325.65 997.05 321.6 994.15 318.05
M 1163.25 189.9
Q 1161.45 191.4 1159.65 192.85 1154.4 197.05 1146.75 207.5 1146.5 207.9 1146.2 208.3 1147.3 209.9 1149.3 209.7 1149.7 209.65 1150.1 209.65 1152.8 209.45 1155.45 209.05 1155.45 209.3 1155.4 209.45 1155.25 210 1155.25 210.6 1155.3 212.25 1154.25 213.6 1153.05 215.25 1153.3 217.1 1153.55 219.15 1154.3 221 1154.8 222.3 1156.2 222.4 1158.3 222.5 1160.45 222.5 1160.25 222.9 1159.95 223.2 1159.2 224 1159.5 225.55 1159.9 227.85 1160.7 230.3 1160.85 230.65 1161 230.7 1161.45 230.95 1161.95 230.8 1165.45 229.55 1168.9 228.15 1171.7 226.95 1174.75 225.75 1178.55 224.2 1182.45 222.7 1185.6 221.4 1188.5 219.7 1188.95 219.4 1189.4 219.2 1193.5 217.05 1197.45 215.25 1198 215.05 1198.5 214.7 1200.15 213.7 1202 213.25 1210.7 211 1219.25 207.75 1221.8 206.85 1224.35 206.25 1225.75 205.9 1227.1 205.3 1229.1 204.4 1231.15 203.75 1230.5 201.95 1229.65 200.2 1228.45 197.8 1226.95 195.7 1226.25 194.8 1225.65 193.9 1223.7 191.2 1220.9 189.3 1218.6 187.65 1215.85 186.7 1215.3 186.55 1214.75 186.3 1212.8 185.35 1210.5 184.75 1209.95 184.65 1209.3 184.5 1201.95 183.4 1194.35 183.55 1186.5 183.75 1178.9 184.9 1175.25 185.45 1171.6 186.3 1169.4 186.85 1167.35 187.9 1167.05 188.1 1166.65 188.2 1164.85 188.65 1163.25 189.9
M 1207.8 176.9
Q 1206.25 177.15 1205.6 178.7 1205.3 179.4 1205.8 179.85 1207.6 181.3 1210.1 181.5 1212.25 181.6 1214.3 182.1 1218.65 183.15 1222.75 181.7 1223.15 181.6 1223.55 181.35 1224.3 180.95 1223.6 179.6 1223.2 178.65 1222.3 178.1 1221.45 177.55 1220.45 177.15 1217.7 175.75 1214.3 176.4 1211.05 176.35 1207.8 176.9
M 1184.1 170.5
Q 1183 170.75 1181.95 171.25 1177.6 173.15 1174.95 176.9 1174.7 177.3 1174.8 177.8 1174.9 178.1 1175 178.35 1175.55 179.35 1177 179.55 1184.95 180.6 1191 174.95 1191.65 174.45 1192.1 173.7 1192.95 172.3 1192.2 170.85 1191.8 170 1190.8 169.8 1188.55 169.45 1186.3 169.7 1185.15 169.9 1184.05 170.1
L 1184.1 170.5 Z"/>

<path fill="#E28381" stroke="none" d="
M 1072.75 259.05
Q 1065.25 260.5 1057.75 261.75 1050.45 263 1043.45 265.4 1042.4 265.8 1041.25 266.2 1034.2 268.9 1027 271.5 1025.85 271.95 1024.6 272.35 1020.55 273.75 1016.6 275.4 1015.6 275.85 1014.6 276.25 1013.3 276.8 1012.05 277.35 1009.9 278.3 1007.7 279.1 1004.35 280.4 1001.05 281.95 994.3 285.3 988.1 289.5 982.2 293.6 976.3 297.75
L 976.3 299.55
Q 978.95 300.65 981.1 302.65 981.4 302.9 981.7 303.2 984.15 305.3 986.65 307.85 987.2 308.45 988 308.9 988.7 309.25 989.3 309.8 991.5 311.7 993.3 313.95 993.7 314.45 994.15 314.95 994.85 315.8 995.55 316.65 998.15 319.75 1000.6 322.65 1001.2 323.35 1001.7 324 1003.45 326.5 1004.55 329.15 1004.95 330.05 1005.6 330.8 1006 331.25 1006.3 331.75 1007.6 333.75 1008.25 335.95 1008.55 336.9 1008.9 337.95 1009.5 340.2 1010.25 342.5 1010.65 343.75 1011.1 344.9 1011.65 346.3 1011.6 347.85 1012 348.6 1012.5 349.35 1012.75 349.8 1013.1 350.2 1014.2 351.45 1016 352.25 1016.05 352.25 1016.15 352.3 1018.1 353.05 1020.45 352.95 1020.8 352.95 1021.1 352.8 1021.55 352.55 1022.3 352.4 1023.55 352.05 1024.6 351.25 1028.7 348.3 1032.7 345.2 1036.2 342.5 1040.15 340.4 1046.15 337.2 1052.35 334.55 1054.25 333.7 1056.25 333.1 1059.5 332 1062.35 331 1067.45 329.15 1072.75 328.4 1073.5 328.3 1074.25 328.1 1075.4 327.7 1076.6 327.95 1077.2 328.15 1077.75 328.1 1078.9 327.9 1079.55 328.8 1081.45 331.55 1081.4 335.25 1081.4 335.45 1081.55 335.6 1085.05 335.05 1088.55 334.2 1089.1 334.1 1089.6 333.95 1091.6 333.3 1093.9 333.35 1095.85 333.4 1097.75 332.95 1100.95 332.2 1104.3 332 1104.7 332 1104.75 331.7 1105.15 330.45 1105.35 329.1 1105.5 327.9 1105.65 326.7 1106.05 326.65 1106.6 326.65 1110.9 326.8 1115.05 325.95 1115.65 325.8 1116.2 325.7 1118.45 325.55 1119.95 323.95 1120.3 323.7 1120.6 323.45 1122.15 322.2 1122.9 320.3 1122.95 320.1 1123 319.85 1123.1 319.3 1123.4 318.85 1123.55 318.45 1123.8 317.55 1123.9 317 1124.05 316.4 1124.4 314.9 1124.7 313.35 1125.15 310.8 1125.55 308.3 1125.75 307.2 1125.95 306 1126.05 305.45 1126.1 304.85 1126.2 303.85 1126.35 302.9 1126.45 302.35 1126.45 301.8 1126.55 300.6 1126.7 299.5 1127.05 297.3 1127.35 295.25 1128.05 290.8 1129.6 286.7 1130.4 284.5 1131.35 282.6 1133.6 278.05 1137.35 274.75 1138 274.25 1138.6 273.75 1139.6 273 1140.05 272.1 1136.8 271.05 1133.55 270.15 1132.95 270.05 1132.4 269.7 1131.45 269.15 1130.05 268.65 1129.7 268.5 1129.3 268.35 1126.5 267.2 1118.95 264.8 1118.9 264.7 1118.8 264.55 1117.8 263.45 1116.9 263 1115.05 261.95 1113.15 261.3 1108.65 259.8 1103.9 259.4 1102.55 259.3 1101.2 258.95 1098.4 258.25 1095.4 258.25 1087.95 258.25 1080.45 258.45 1079.7 258.5 1078.9 258.45 1075.75 258.45 1072.75 259.05
M 1159.65 192.85
Q 1161.45 191.4 1163.25 189.9 1164.85 188.65 1166.65 188.2 1167.05 188.1 1167.35 187.9 1169.4 186.85 1171.6 186.3 1175.25 185.45 1178.9 184.9 1186.5 183.75 1194.35 183.55 1201.95 183.4 1209.3 184.5 1209.95 184.65 1210.5 184.75 1212.8 185.35 1214.75 186.3 1215.3 186.55 1215.85 186.7 1218.6 187.65 1220.9 189.3 1223.7 191.2 1225.65 193.9 1226.25 194.8 1226.95 195.7 1228.45 197.8 1229.65 200.2 1230.5 201.95 1231.15 203.75 1231.55 203.6 1231.95 203.5 1232.8 203.25 1233.65 203.05 1237.05 202.05 1240.45 200.45 1243.4 199.05 1246.65 198.3 1247.6 198.1 1248.55 197.85 1251.8 197.05 1254.75 195.95 1254.7 195.05 1254 194.35 1253.45 193.75 1252.55 192.8 1252.25 192.5 1251.9 192.25 1248.65 188.8 1245.4 186.15 1244.7 185.6 1244.05 185 1243.6 184.65 1243.05 184.3 1241.85 183.4 1241.15 182.15 1240.9 181.55 1240.4 181.1 1238.45 179.05 1236.6 177.15 1231.2 171.55 1224.75 167.95 1217.9 164.2 1210.5 162.9 1205.6 162.05 1200.45 162.3 1195.95 162.45 1191.65 163.35 1191.05 163.45 1190.45 163.6 1186.85 164.2 1183.6 166 1179.1 168.45 1174.8 171.45 1174.1 171.95 1173.5 172.45 1167.6 177.25 1162.3 182.85 1159.45 185.95 1156.9 189.3 1156.2 190.2 1155.6 191.1 1151.45 197.05 1146.95 202.8
L 1146.6 204.45
Q 1146.2 205.2 1145.85 205.95 1145.7 206.35 1145.7 206.75 1145.7 207.190234375 1145.9 207.65
L 1146.75 207.5
Q 1154.4 197.05 1159.65 192.85
M 1181.95 171.25
Q 1183 170.75 1184.1 170.5
L 1184.05 170.1
Q 1185.15 169.9 1186.3 169.7 1188.55 169.45 1190.8 169.8 1191.8 170 1192.2 170.85 1192.95 172.3 1192.1 173.7 1191.65 174.45 1191 174.95 1184.95 180.6 1177 179.55 1175.55 179.35 1175 178.35 1174.9 178.1 1174.8 177.8 1174.7 177.3 1174.95 176.9 1177.6 173.15 1181.95 171.25
M 1205.6 178.7
Q 1206.25 177.15 1207.8 176.9 1211.05 176.35 1214.3 176.4 1217.7 175.75 1220.45 177.15 1221.45 177.55 1222.3 178.1 1223.2 178.65 1223.6 179.6 1224.3 180.95 1223.55 181.35 1223.15 181.6 1222.75 181.7 1218.65 183.15 1214.3 182.1 1212.25 181.6 1210.1 181.5 1207.6 181.3 1205.8 179.85 1205.3 179.4 1205.6 178.7 Z"/>

<path fill="#60C78B" stroke="none" d="
M 1145.9 207.7
L 1146.75 207.5 1145.9 207.65 1145.9 207.7 Z"/>
</g>

<g id="Layer4_0_FILL">
<path fill="#D9D9D9" stroke="none" d="
M 1253.9 583.15
Q 1252.5 581.75 1251 580.55 1250.3 580.05 1249.4 579.6 1246.65 578.1 1241.3 578.9 1232.2 580.15 1218.35 586.5 1204.5 592.75 1188.8 599.6 1173 606.45 1165.6 610 1158.15 613.5 1142.85 625.95 1127.55 638.35 1152.25 642.55 1176.9 646.7 1179.3 647 1179.95 647.05 1180.6 647.35 1187.65 650 1195.2 647.75 1197.4 647.05 1199.7 646.65 1220.9 643.05 1240.2 632.9 1254.85 625.15 1261.45 610.4 1263.45 605.95 1263.05 600.35 1262.85 597.8 1262.65 595.3 1256.35 585.65 1253.9 583.15 Z"/>
</g>

<g id="Layer4_1_FILL">
<path fill="#000000" stroke="none" d="
M 1177.65 545.4
Q 1178.05 546.25 1179.3 550.9
L 1185.9 547.5
Q 1182.4 539.05 1175.3 535.7 1168.45 532.45 1160.1 534.7 1128 543.9 1099.1 561.1 1087 568.3 1086.85 568.45 1079.75 572.3 1073.4 573.9 1079.65 577.65 1081.65 577.9 1083.5 578.05 1089 575.3 1089.5 575.05 1110.9 563.6 1124 556.6 1133.35 552.85 1147.9 547 1168.85 540.65 1175.45 538.65 1177.65 545.4 Z"/>
</g>

<g id="Layer3_0_MEMBER_0_FILL">
<path fill="#000000" stroke="none" d="
M 879.35 323.8
Q 880.9 315.8 884.75 306.4 887.35 300.05 890.95 293.05 884.9 297.55 881.25 306.4 878.5 313.15 877.1 322.4 873.85 343.3 881.15 355.35 876.1 340.2 879.35 323.8
M 858.3 320.15
Q 856.9 329 861.65 337.65 860.55 328.7 861.4 322.25 862.35 314.5 866.3 308.4 859.7 311.3 858.3 320.15
M 1014.65 404.3
Q 1014.5 402.65 1013.2 401.6 1012 400.5 1010.3 400.65 1005.5 423.9 1004.95 446.95 1004.95 447.6 1006.65 450.15
L 1008.2 447.8
Q 1014.8 427.15 1014.5 405.45
L 1014.65 404.3
M 1228.8 555.45
Q 1228.8 555.2 1226.8 553.65 1227.65 560 1227.25 566.3 1227.15 566.85 1227.05 567.65 1225.9 573.45 1221.35 592.8 1223.3 591.5 1223.6 590.95 1227.9 579.6 1228.8 567.65 1229.2 561.65 1228.8 555.45
M 1227.75 545.8
L 1226.8 545.8 1226.8 553.5 1227.75 545.8
M 1262.15 537.7
Q 1273.1 522.8 1260.2 512.7 1262.85 518.7 1263.85 525.05 1263.55 531.65 1262.15 537.7
M 1215.15 481.45
L 1222.75 485.65
Q 1240.85 505.15 1245.6 525.85 1245.6 520 1243.75 514.95 1240.15 504.85 1236.05 498.4 1230.75 490.1 1223.45 485.1 1222.3 482.85 1219.95 481.85 1217.6 480.9 1215.15 481.45
M 684.4 599.4
Q 684.65 603.05 686.75 609.9
L 686.75 588.95
Q 683.95 593.65 684.4 599.4
M 758.25 498.85
L 758.7 499.4
Q 772.05 488.85 772.45 488.6 794.05 473.55 812.6 470.05 810.7 469.25 808.35 469.5 783.35 474.4 759.65 496.3 758.55 498 758.25 498.85
M 753.8 508.25
L 758.7 499.4 758.25 498.95
Q 753.35 502.15 753.8 508.25
M 717.9 547.35
Q 711.7 562.05 713.25 578.6 714.5 591.95 721.25 609.35 710.75 579.05 717.9 547.35
M 765.95 470.75
Q 751.65 481 745.9 493.2 762.9 470.65 789.65 461.4 780.15 460.4 765.95 470.75
M 953.1 90.75
Q 948.05 92 945.65 92.45 909.6 100.15 888.4 119.05 918.7 97.9 961.75 93 957.8 90.3 953.1 90.75
M 895.15 96.05
Q 905.4 89.35 912.95 86.25 923.2 81.9 933.75 81.45 926.7 77.3 914.75 81.9 902.9 86.4 895.15 96.05
M 1214.5 365.6
L 1212.75 354.5 1211.65 358.4
Q 1210.3 365 1213.45 368.1 1214.3 369.5 1216 369.9 1217.85 370.35 1218.4 368.8 1220.5 363.35 1220.05 357.3 1220.35 356.9 1220.05 356.65 1219.95 353.8 1217.85 352 1215.9 350.15 1213.05 350.35
L 1213.35 352
Q 1218.55 355.15 1217.15 362.1 1216.5 363.35 1214.5 365.6
M 1147.2 284.85
L 1147.9 287.95
Q 1151.8 286.35 1163.5 282.75 1173.25 279.65 1180.4 275.15
L 1178.35 275.45 1147.2 284.85
M 1269.3 259.4
Q 1270.85 273.05 1285.15 271.5 1283.75 266.35 1278.25 263.8 1269.7 259.7 1269.3 259.4
M 1273.35 264.45
Q 1276.75 264.9 1278.25 265.75 1280.4 266.85 1281.35 269.8 1278.7 269.95 1276.6 268.4 1274.4 267 1273.35 264.45
M 1268.55 209
Q 1274.5 207.4 1286.2 203.55 1297.3 199.5 1297.8 192.5 1294.4 187.8 1289.35 191.4 1277.3 200.7 1269.45 207.55 1268.85 208 1268.55 209
M 1292 192.95
Q 1296.7 194 1291.95 196.9 1287.15 199.8 1276.8 204
L 1292 192.95
M 1126.15 329.65
L 1121.8 330
Q 1134.55 374.85 1149 382.15 1147.55 380.9 1141 368.55 1134.3 356.25 1126.15 329.65
M 977.1 388.9
Q 976.65 386.05 974.35 384.2 972.1 382.3 969.3 382.4 968.9 385.35 969.1 387.75 973.8 409.2 980 434.3 981.15 440.65 986.85 443.25 987.25 437.55 986.7 432.45 980.3 403.45 977.1 388.9
M 1116.3 283.95
Q 1117.7 280.2 1127.5 269.95
L 1130.9 262.65 1135.8 263.25
Q 1133.3 259.3 1129.35 257.9 1121.5 254.5 1111.5 251.4 1082.25 243.7 1048.55 254.25 1013.2 266.05 981.8 285.35 976.8 288.35 969.3 293.9 959.5 301.5 957.25 303.05 955.2 304.5 953.6 306.4 948.15 312.9 948.15 324.35 948.15 339.25 952.6 356.1 957.55 372.05 974.95 381 989.25 388.45 1000.5 392.95 1007.95 395.85 1022.6 402.45 1035.8 407.5 1046.5 408.1 1046.05 411 1043.95 413.55 1042.65 414.95 1039.85 417.3 1024.05 432.05 1020.25 445.95 1019.9 447.15 1018.95 451.75 1014.2 453.25 1009.85 453.5 981.15 456.05 966.65 457.3
L 937.65 459.7
Q 925.3 430 916.15 398.85 929.2 394.75 930.45 394.65 938.45 393.2 945.1 397.15 950.3 399.4 956 398.7 958.65 398.55 959.4 396.7 960.05 394.9 958.4 392.75 955.55 389.45 951.7 386.65 940.3 378.9 926.7 378.45 916.75 377.65 903.15 379.3 887.55 381.75 879.85 382.7 873.7 383.55 874.55 390.15 876.45 403.75 890.25 403.45 894.6 403.3 903 402.45
L 928.25 465.85
Q 922.65 470.75 922.25 471.2
L 903 490.85
Q 901.6 492.8 899.35 493.1 896.95 493.4 895 491.95 891.8 490.3 886.05 487.75 879.15 484.8 877.05 483.8 871.55 481.15 870.15 480.7 869.55 480.55 868.6 480.45 866.15 480.15 861.6 480.15 848.15 479.75 836 480.7 780.7 487.2 762.75 537.5 757.85 551.25 757 561.4 755.9 574.65 760.8 586.2 762.45 590.1 765.75 598.1 768.65 604.95 771.6 609.45 773.85 612.55 773.85 612.65 775.1 614.8 774.7 617.05
L 765.55 611.85
Q 766.5 614.8 768.65 616.6 784.5 630.5 804.15 640.2 818.3 647.65 834.3 648.3 850.4 649.15 865.25 643.25 877.3 638.8 889.15 629.95 898.25 623.1 909.3 611.55 923.85 595.35 928.95 574.3 929.85 570.95 930.45 567.65 934.1 547.5 926.15 528 920.25 514 910.3 503.3
L 934.55 478.65
Q 940.7 490.55 951.8 514.1 961.9 534.85 970.3 548.05
L 969.3 549.45
Q 961.25 556.2 956.4 567.65 954 573.3 952.35 580.15 949.85 590.85 954.35 599.95 958.95 609.2 968.35 612.55 976.35 615.35 985.3 616.05 990.55 616.35 995 619.45 1002.95 624.75 1010.3 627.55 1022.25 632.5 1034.85 628.65 1033.55 622.8 1027.5 617.15 1018.85 609.35 1018 608.05
L 1025.85 599.4
Q 1028.25 596.55 1027.5 595.55 1025.85 593.45 1026.1 590.55 1026.95 587.05 1027.1 585.35 1028.25 577.75 1024.7 570.6 1024.1 569.5 1023 567.65 1020.9 563.95 1016.9 557.45
L 1029.4 558.3
Q 1028.65 552.65 1031.35 549.45 1033.55 546.65 1039.15 544.85 1050.1 541 1059.65 535 1070.85 528 1075.95 515.4 1077.05 512.1 1075.1 509.35 1074.65 508.8 1072.85 508.8 1071.05 508.8 1069.75 509.35 1064.3 511.75 1055.55 516.5 1049.25 519.7 1041.15 521.15 1035.4 522.1 1025.85 522.55 1026.95 507.7 1037.5 496.85 1049.7 485.4 1056.4 470.45 1058 466.15 1062.75 465.75 1065.8 465.15 1073.25 463.75 1080 462.35 1083.65 461.8 1086.85 461.4 1104.35 460
L 1107.65 476.4
Q 1109.15 485.5 1108.85 486.05 1108.75 486.75 1102 493.2 1081.8 512.3 1073.95 532.5 1069.05 544.95 1067.5 554.8 1066.35 561.4 1066.55 567.65 1066.7 572.8 1067.75 577.75 1068.5 580.85 1070.45 586.3 1072.55 592.25 1073.25 594.9 1075.1 603.35 1080.4 608.9 1080.5 608.9 1080.55 608.9 1080.55 609.75 1080.1 611.45 1079.8 612.85 1080.25 613.5 1090.25 630.8 1104.25 636.25
L 1104.2 636.1 1104.55 636.35 1105.2 637.65
Q 1117.9 643.95 1128.05 646.05 1140.75 648.75 1152.6 646.05 1176.2 641.05 1196.15 626.85 1211.95 615.5 1217.15 602.6 1217.5 602.2 1217.8 601.85 1219.75 599.8 1220.5 598.35 1221.75 596 1221.2 593.35 1220.1 595 1218.3 597.55 1218.4 595.45 1219.1 593.2 1223.85 580.65 1224.55 567.65 1225.05 557.8 1223.3 547.65 1219.1 522.35 1205.75 506.85 1185.9 483.5 1149.7 479.6 1140 479.2 1130.05 479.6
L 1130.75 474.3 1119.5 478.65 1102.7 411.3
Q 1107.35 408.2 1113.95 406.85 1116 406.4 1125.4 405.15 1132.55 404.15 1134.95 405.55 1137.35 407.15 1140.55 414.3 1139.7 414.85 1135.4 418.45 1133.15 420.85 1132.55 422.25 1131.45 424.65 1133 427.15
L 1133.15 427.45
Q 1134.55 430.1 1137.35 430.95 1140.15 431.8 1142.8 430.25 1145.45 428.4 1148.55 428.6 1151.75 428.6 1158.65 427.6 1161.5 426.5 1160.55 426.95 1163.5 426.9 1166.05 425.3 1169.15 423.6 1170.85 420.6
L 1172.05 420.9
Q 1179.95 419.85 1181.2 417.6 1184.85 413 1180.95 406.3 1179 402.2 1177.7 400.35 1175.75 397 1173.65 396.3 1170.75 395.3 1169.6 392.75 1168.6 389.45 1167.65 387.5 1157.4 386.65 1152.2 386.75 1147.15 387.05 1144.2 385.9 1140.3 384.5 1138.2 380.45 1137.75 379.6 1136.6 378.45 1134.95 376.95 1134.65 376.5 1126.25 366.7 1123.35 361.8 1118.1 353.1 1117.9 344.15 1117.6 338.4 1116.3 322.95 1115.6 313.15 1115.3 306.4 1115.1 303.9 1115.05 301.8 1114.5 288.15 1116.3 283.95
M 1078.95 270.5
L 1080.4 289
Q 1067.65 294.35 1043.5 291.25 1019.25 288.35 1008.2 280.05 1039.6 263.9 1063.15 258.75 1093.7 251.95 1122.6 259.85 1120.35 262.65 1116.75 268.25 1113.2 272.2 1107.35 271.05
L 1107.35 325.6 1091.2 327 1088.95 294.1
Q 1088.4 286.95 1086.95 278.4 1086.85 275.1 1084.5 272.9 1082.25 270.8 1078.95 270.5
M 985.3 292.5
L 990.1 289.3
Q 993.2 286.65 997.1 286.65 1001.15 286.65 1004.1 289.3 1019.8 300.1 1043.8 300.1 1050.1 300.1 1058.95 299.4 1064 299.1 1074.1 298.25
L 1079.8 297.85
Q 1080.95 301.35 1081.15 306.4 1081.25 307.1 1081.25 307.8 1081.4 316.65 1081.5 317.8 1065.95 317.9 1049.8 326.9 1044.9 329.65 1021.4 346.1 1023.65 339.5 1021.8 333.5 1020.8 330.5 1016.6 323.55 1010.25 313.85 1002.15 306.4 997.25 301.9 991.65 298.25 987.7 295.05 985.3 292.5
M 1025.25 291.1
Q 1032.3 292.95 1047.35 295.6 1037.2 297.55 1024.15 294.35 1010.4 291 1004.25 284.4 1023.2 290.55 1025.25 291.1
M 993.65 306.4
Q 997.8 310.25 1000.05 312.9 1007.65 321.45 1010 331.05 1010.1 331.25 1009.45 332.75
L 996.95 323.8
Q 996.1 326.05 997.25 327.75 997.7 328.45 999.75 330.25 1002 332.35 1008.6 338.1 1014.25 342.9 1017.25 345.95 1026.65 355.2 1045.75 375.15 1037.95 377.9 1032 383.8 1026.1 389.75 1023.35 397.55 1018.1 396.05 1015.9 395.05
L 981.15 380.05
Q 957.15 369.5 955.45 342.75 954.35 328.15 953.5 320.9 952.9 317.8 954.15 314.95 955.3 312.05 958 310.2
L 975.5 298.15
Q 977.6 296.75 980.1 296.9 982.8 297 984.8 298.7 989.95 303.05 993.65 306.4
M 1038.9 388.35
Q 1043.7 383.25 1050.1 380.6 1069.05 404.05 1070.75 406.3 1074.9 411.3 1072.65 417.9 1071.55 422.65 1069.2 428.7 1062.05 443.15 1047.15 472.05 1041.55 483.25 1032.15 495.75 1026.3 503.55 1014.35 517.6
L 1010.7 522.1 1012 523.2 1020.95 514.95
Q 1020.35 522.35 1017.55 525.2 1014.65 528 1008.2 527.25 1004 526.6 1001.3 523.4 1000.05 521.8 1001 519.85 1001.45 519.15 1003.4 516.8
L 1007.1 512.85
Q 1020.1 499.5 1021.2 481 1023.05 464.35 1027.4 449.75 1030.5 438.8 1042.4 426.35
L 1046.75 422.1
Q 1051.65 417.3 1052.25 415.25 1052.8 413.45 1051.2 406.95
L 1031.9 399.9
Q 1034.1 393.35 1038.9 388.35
M 1034.4 355.8
Q 1034 355.05 1031.05 351.85 1035.95 344 1053.1 334.45 1070.3 324.95 1081.8 323.65 1082.35 325.35 1082.35 326.45 1080.1 339.05 1089.8 351 1094 356.2 1117.6 386.2 1118.1 386.75 1121.1 390.95
L 1114.5 392
Q 1098.05 395.3 1096 395.85 1092.05 397 1090.8 398.85 1089.65 400.75 1090.35 404.9 1090.9 408.1 1095.15 423.1
L 1100.6 444.95 1068.9 447.8
Q 1071.55 437.8 1075.5 427.85 1078.75 420.7 1077.9 414.1 1077.05 407.9 1072.65 400.75 1066.55 390.7 1054.3 377.5 1036.8 358.6 1034.4 355.8
M 1098.9 329.95
Q 1104.8 329.4 1106.6 330.8 1108.3 332.2 1108.85 338.2 1109.7 352 1118.65 363.2 1122.9 368.3 1128.65 376.1 1131.9 380.6 1138.3 389.45
L 1141.5 393.6
Q 1144.2 397.55 1148.55 399.25 1152.9 400.95 1157.5 399.8 1160.9 399.25 1169.75 398.3 1175.35 404.3 1178.8 410.25 1182.15 416.2 1173.45 417.75 1172.25 414.65 1170.45 413.65 1168.65 412.6 1168.65 414.4 1168.6 416.1 1167.8 418.55 1167 421.05 1161.35 420.85
L 1155.7 415.9
Q 1157.15 421.3 1151.95 422.95
L 1140.3 424.05
Q 1136.05 421.65 1146.2 418.15
L 1147.7 410.8
Q 1144.55 409.25 1141.8 406 1138.05 400.95 1136.05 398.55 1116.6 375.55 1096.35 349.75 1092.9 344.4 1092.05 338.65 1091.1 333.9 1092.6 332.2 1093.9 330.7 1098.9 329.95
M 1155.7 391.25
Q 1158.5 391.15 1161.75 393.5 1155.05 396.45 1147.45 394.45 1152.9 391.55 1155.7 391.25
M 906.65 494.75
L 930.65 471.05
Q 930.65 471.85 931 474 931.2 475.15 930.9 475.4
L 910.05 497.55
Q 908.45 499.4 907.5 499.5 905.95 499.95 904.4 497.55 905.8 495.55 906.65 494.75
M 945.65 479.3
Q 945.5 478.9 943.95 474.85 955.45 473.15 978.15 469.5
L 1012.8 467.8
Q 1013.5 488.6 1003.55 507.1 1000.2 513.25 992.6 525.3 985.2 537.1 988.65 550.7
L 972.1 559.8
Q 974.35 555.75 975.65 554.5 976.65 553.5 981.5 550 984.5 547.95 984.25 546.25 984.05 545.5 980.55 542.95 977.3 541.3 976.65 540.2
L 945.65 479.3
M 942.4 470.75
L 938.75 462.45
Q 953.5 460.55 976.8 458.7 1006.5 456.6 1017.7 455.9
L 1014.05 464.15
Q 1000.05 464.6 972.95 467.55 945.9 470.45 942.4 470.75
M 862.9 484.1
Q 865.8 484.45 868.6 485.25 879.25 488.4 889.55 498.65
L 840.6 548.6
Q 833.55 547.1 829.8 549.85 826.05 552.55 823.8 560.65 822.75 563.2 821.25 566 824.05 570.2 826.85 573 830.5 576.35 835 578.35 841 581 844.5 578.8 848.05 576.55 848.15 569.95 848.15 566.3 847.6 563.05
L 902.05 512 905.4 515.2
Q 919.8 532.8 920.55 558.7 920.65 563.25 920.4 567.65 919 587.65 908.75 604 892.45 630.8 862.45 639.65 832.45 648.5 804.3 634.55 790.25 628 785.9 623.95 781.45 619.8 773.85 606.55 749.45 564.05 773.85 522.65 794.15 488.05 837.35 483.4 850.85 482.3 862.9 484.1
M 874.4 533.45
Q 871.45 536.45 868.6 539.25 857.6 549.85 848.05 556.7 846.05 558.1 845.05 558.3 843.25 558.55 841.45 556.6
L 892.35 507.5
Q 894.15 505.8 895.15 506 896 506 898.55 507.8 890.4 516.35 874.4 533.45
M 838.1 549.85
L 839.5 552 833.2 555.75 832.05 554.05 838.1 549.85
M 837.5 559.7
Q 838.1 559.4 839.2 559.8 839.75 560.1 841.55 560.65
L 833.45 570.35
Q 836.2 572.4 837.25 572.3 838.2 572.15 841.3 568.95 842.15 574.4 839.9 574.85 836.5 575.5 833.75 574 829.8 571.65 829.8 568.65 829.65 565.55 833.3 562.8 835 561.1 837.5 559.7
M 901.45 500.1
Q 903.25 502.15 903.45 502.9 903.45 503.45 902.7 504 902.15 504.6 901.75 504.4 900.35 504 899.9 502.6 899.8 502.15 900.35 501.5 901.3 500.25 901.45 500.1
M 895.75 495.75
L 894.9 497.25 890.4 494.45 891.2 493.2 895.75 495.75
M 905.15 508.25
Q 906.75 507.25 908.9 506.95 909.85 506.95 912 509.1 922.45 519.15 926.85 539.35 930.25 555.7 927.35 567.65 926.7 570.4 925.75 572.85 925.85 573 924.7 573.45 924.65 570.45 924.6 567.65 924.1 547.4 921.5 538.65 918.4 528.55 905.15 508.25
M 966 584.9
L 964 583.5 967.5 578.5 969.6 580 966 584.9
M 964 591.95
L 968.5 587.85
Q 970.15 591.2 968.8 592.35 967.95 593.1 965.55 593.45
L 964 591.95
M 958.4 586.75
Q 962.15 596.4 964 598.95 967.1 603.45 974.65 606.55 971.15 610.6 965.4 606.25 957.25 600.6 958.4 586.75
M 1148.75 584.25
Q 1149.1 582.55 1148.85 580.4
L 1132.75 496
Q 1132.15 491.7 1133.15 490.4 1134.1 489.15 1138.2 488.3 1169.05 482.3 1190.05 498.1 1210 512.95 1215.45 542.15 1217.7 554 1215.55 567.65 1213.45 580.45 1207.45 594.9
L 1204.55 601.8 1204.65 601.8
Q 1210.5 594.75 1213.9 584.65 1215.85 579 1218.25 567.65 1218.5 566.6 1218.7 565.55 1219.25 562.6 1219.65 558 1220.5 549.3 1220.5 549.15 1222.1 558.75 1221.8 567.65 1220.95 592.3 1205.75 611.55 1187.95 634.45 1159.65 640.5 1172.15 634 1176.6 631.1 1185.05 625.7 1190.15 619.45 1190.1 619.3 1190.05 619.25 1182.8 623.95 1182.5 624.2 1171.4 632.3 1162.3 636.25 1150.8 641.15 1139.45 641.05 1109.45 640.9 1089.5 614.8 1088 611.45 1086.55 610.5 1084.55 609.65 1081.45 609.4 1081.4 609.45 1081.4 609.5
L 1081.25 609.35 1081.25 608.9 1080.95 608.9 1080.95 608.85 1080.85 608.9 1080.6 608.9
Q 1080.8115234375 608.89609375 1080.95 608.85 1080.4 605.35 1078.75 601.35 1071.7 588.4 1070.85 574.55 1070.25 571.05 1070.4 567.65 1070.7 561.9 1073.25 556.3 1078.2 544.25 1081.5 533.2 1088.25 514.65 1107.9 496.4 1108.45 496 1110.85 495 1117.05 521.8 1119.4 531.1 1124.5 550.4 1129.55 567.65 1131.05 572.85 1132.55 577.95 1134 582.85 1135.95 583.95 1137.75 585.1 1143.1 584.5
L 1148.75 584.25
M 1113.75 398.85
Q 1115.15 399.9 1115.45 400.1 1112.8 401.9 1112.65 401.9 1112.1 401.9 1110.65 400.1 1112.35 398.4 1112.65 398.4 1113.1 398.3 1113.75 398.85
M 1128.65 399.4
Q 1122.3 401.2 1120.9 400.95 1119.4 400.65 1118.4 397.55 1123.9 395.85 1125.15 396.15 1126.4 396.3 1128.65 399.4
M 1098.8 403.45
Q 1101.7 400.95 1103.4 400.35 1105.65 399.7 1108.45 401.5 1106.9 403.85 1104.1 404.45 1101.15 405 1098.8 403.45
M 1061.45 461.8
L 1064.55 454.65
Q 1065.95 450.15 1070.85 449.75
L 1101.3 447.6 1103.5 455.3 1061.45 461.8
M 1124.55 481.25
L 1123.9 480.15
Q 1125.6 478.75 1126.65 478.2
L 1127.8 479.75 1124.55 481.25
M 1017.15 528.4
Q 1020.95 526.4 1026 526.85 1050.1 528.4 1066.65 515.4
L 1069.45 514.1
Q 1063.7 528 1039.05 537.5 1015.75 546.5 993.75 545.4 992.35 540.5 993.75 536 994.85 532.2 998.35 527.7 1002.3 531.4 1007.65 531.5 1012.95 531.65 1017.15 528.4
M 1004.25 563.05
Q 1007.2 560.65 1007.2 558.7 1013.8 561.35 1016.9 567.65 1017.9 569.85 1018.55 572.4 1020.95 582.65 1015.45 592.5 1012.55 589.15 1012.8 587.6 1013.1 586.05 1017.45 581.8
L 1012.25 581.15 1008.9 573.15 998.35 579.45
Q 997.5 575.5 999.65 573.7 1000.2 573.15 1004 571.45 1008.05 569.65 1012.65 568.1
L 1012 565.85 1001.55 568.1
Q 1001.55 567.85 1001.55 567.65 1001.5 565.1 1004.25 563.05
M 994.3 551.8
L 995.25 553.8 977.45 562.9 976.8 561.4 994.3 551.8
M 985.6 566.4
Q 984.45 567 983.05 567.65 978.1 569.75 969.3 572.15
L 992.2 559.8
Q 990.55 563.75 985.6 566.4
M 988.4 569.5
Q 987.55 574.55 983.4 576.65 980.95 577.75 975.95 579.6 975.1 575.5 976.9 574.1 978.6 572.7 988.4 569.5
M 972.95 589.8
Q 974.65 585.1 975.65 584.65 976.65 584.25 980.4 587.05
L 972.95 589.8
M 976.5 593.35
Q 980.55 590.55 986.15 589.15 989.25 588.3 995.25 587.45 982.25 593.65 979.25 594.9 979 595.05 976.5 593.35
M 996.1 587.15
Q 996.4 583.4 999.75 582 1004.1 581 1005.95 579.85 1006.25 583.8 1004.1 585.2 1002.15 586.5 996.1 587.15
M 1006.5 588
Q 1007.2 589.8 1006.5 591.65 1005.8 593.65 1004 594.5
L 1003.7 594.6
Q 996.95 597.55 996.65 597.55 992.5 598.55 988.85 595.35
L 1006.5 588
M 1132.15 502.35
Q 1132.75 506.1 1133.8 514.65 1130.6 508.5 1129.2 502.15 1127.65 495.85 1128.5 491.7 1131.05 495.75 1132.15 502.35
M 1129.2 525.85
Q 1126.25 513.8 1122.6 493.75 1125.4 496.6 1131.9 522.65 1138.3 548.5 1138.85 558.3 1133.4 543.55 1129.2 525.85
M 1103.5 633.35
Q 1100.75 633.35 1100.2 632.6 1088.4 620.55 1084.3 615.75 1083.75 615.1 1083.35 613.5 1082.9 611.25 1082.8 611.05
L 1103.5 633.35
M 1013.8 610.75
L 1027.8 623.35
Q 1020.8 626.2 1012.65 624.3 1004.55 622.5 997.8 616.6
L 1013.8 610.75
M 974.8 602.6
Q 977.85 600.05 979.7 599.8 982.25 599.4 984.35 602.2 981.25 603.85 980 603.85 978.9 604 974.8 602.6
M 967.65 597.15
L 974.1 595.75
Q 971.85 601.45 967.65 597.15
M 1116.2 615.1
L 1103.7 611.7
Q 1108 616.9 1110.3 617.45 1112.35 617.9 1116.2 615.1
M 1106.6 547.75
Q 1106.35 546.35 1106.2 545.7
L 1104.25 545.25
Q 1102.4 548.5 1101.7 550.55 1099.5 559.25 1100.15 567.65 1100.95 577.35 1105.5 586.75 1114.05 603.15 1134.35 605.4 1132.3 604 1129.9 603.35 1110.65 597.7 1106.2 576.55 1105.25 571.8 1104.85 567.65 1103.85 556.95 1106.5 549.55 1106.8 548.9 1106.6 547.75
M 1089.8 570.2
Q 1081.4 576.65 1086.55 591.8 1089.1 598.95 1096.1 604.1 1102.95 609.35 1110 609.35 1096.65 602.75 1092.75 595.35 1088.85 587.6 1089.8 570.2
M 1206.6 576.9
Q 1206.2 572 1203.1 568.25 1201.7 579.85 1194.25 590.95 1191.9 594.6 1179.6 608.9 1188.25 607.1 1194.7 600.25 1198.9 595.75 1204.25 585.95 1206.9 581.8 1206.6 576.9
M 1190.2 532.2
Q 1188.4 530.1 1185.6 529.25 1191 548.95 1186.4 567.65 1185.85 569.85 1185.15 572 1179.85 589.25 1164.7 608.8 1168.6 607.5 1171.4 604.85 1185.85 591.15 1192.45 567.65 1192.75 566.6 1193.05 565.55 1197.35 551.7 1192.75 537.25 1192.2 534.4 1190.2 532.2
M 844 617.9
Q 843.8 617.75 843.15 619.7 845.05 623.75 850.6 620.4
L 844 617.9
M 792.5 528.7
Q 792.2 528.85 788.4 533 783.1 538.9 785.35 544.65
L 797.85 528.1
Q 794.9 526.85 792.5 528.7
M 907.05 565.25
Q 906.75 566.45 906.5 567.65 902.6 583 893.75 596 884.05 610 870.05 619.55 876.2 618.6 887.15 612.3 897.8 606.1 898.25 603.55
L 895 601.05
Q 903.55 585.75 906.25 578.05 908.3 571.9 907.65 567.65 907.5 566.4 907.05 565.25
M 890.1 550.4
Q 889.65 559.35 887.5 567.65 880.55 594.3 855.45 614.35 861.6 612.3 866.7 608.05 885.7 589.15 891.05 567.65 892.7 561.05 893 554.25 892.9 552.4 891.9 550.3
L 890.1 550.4
M 824.9 524.8
Q 824.45 525.2 811.15 535.55 805.8 539.65 802.9 545.8 799.9 551.8 799.9 558.55 799.5 567.5 801.3 575.95 805.1 590.4 816.45 594.3 806.65 587.35 804.4 575.5 800.35 546.35 820.1 532.5
L 834.4 522.65
Q 828.8 520.85 824.9 524.8
M 839.3 530.1
Q 836 530.65 833.55 533.3 816.75 549.15 813.95 566 812.7 572.7 814.65 579.45 816.45 586.05 821.25 591.2 828 598.65 841.3 597.7 841.55 597.7 844 595.55 831.9 597.15 825 591.8 818.15 586.3 817.3 574.85 816.65 562.9 824.9 549.55 833.55 535.7 845.8 531.1 842.7 529.4 839.3 530.1
M 991.5 474.4
Q 992.05 469.25 986.4 470.75 981.5 489 980.55 510.7 979.55 532.6 983.4 539.2
L 991.5 474.4
M 1171 169.95
Q 1160.2 181.6 1150.65 194.5 1147.7 198.25 1146.6 200.25 1144.8 203.8 1144.6 206.8 1147.05 210.1 1150.65 208.95
L 1156.45 207.1
Q 1156 214.55 1156.85 216.1 1157.8 217.65 1163.6 219.5
L 1166.35 227.9
Q 1163.15 228.7 1159.75 230.25 1156.7 231.8 1154.75 234.9 1152.9 237.85 1152.8 241.35 1152.8 244.8 1154.75 247.8 1156.85 250.75 1160.05 251.95 1164.7 253.65 1170.3 255.05
L 1174.6 256.1
Q 1163.4 261.65 1150.9 265.3 1150.1 265.6 1147.6 265.2 1145.35 264.75 1144.6 265.3 1141.4 267.85 1136.25 268.8 1130.3 269.65 1127.5 270.2 1126.65 273.3 1130.3 273.3 1133.8 273.3 1137.2 272.9 1130.35 289.05 1129.4 306.4 1129.1 311.75 1129.35 317.2 1130.6 310.2 1131.6 306.4 1131.8 305.9 1131.9 305.45 1135.65 292.5 1141.4 275.85 1142.65 270.8 1148.15 269.1 1149.4 268.8 1176.5 260.7
L 1181.75 259.95 1185.3 281.45
Q 1181.4 283.85 1162 292.5 1147.7 299 1140 305.85 1144.35 305.3 1149.8 302.1 1157.8 297.45 1159.1 296.9
L 1179.3 287.8
Q 1189 296.05 1185.45 306.4 1185.15 307.1 1184.85 307.8 1183.45 310.65 1182.8 314.25
L 1182.6 314.7
Q 1182.35 316.4 1183.35 317.8 1184.3 319.2 1186 319.3 1192.85 320.6 1193.9 320.7 1198.2 321.3 1200.75 320.3 1205.45 312.7 1207.6 309.8 1208.9 308.05 1210.1 306.4 1217.15 296.6 1220.5 291 1223.3 286.35 1227.35 278.2 1232.15 268.7 1233.95 265.5 1238.6 256.2 1248.55 253.1 1255.3 251 1260.75 247.1 1264.7 244.45 1264.8 240.65 1264.8 236.7 1261.05 233.8 1258.2 231.8 1254.85 231 1252.6 230.4 1242.1 228.7 1244.3 222.55 1245.15 219.5 1246 216.8 1245.15 214.25 1244.2 211.6 1241.95 210.1 1240.55 209.1 1237.6 208.7 1233.95 208.4 1231.9 207.95
L 1227.35 200.7 1237.05 197.6
Q 1238.85 199.55 1241.55 204.05 1244.3 207.25 1249 206.25
L 1243.35 194.95 1265.8 191 1260.2 184.15
Q 1253.9 174 1244.2 167 1234.5 159.85 1223.05 156.95 1191.45 148.95 1171 169.95
M 1197.5 165.55
Q 1194 171.9 1196.9 171.35 1200 170.8 1204.8 164.75
L 1196.35 161 1207.45 158.75
Q 1212.6 157.9 1216.45 160.85 1224.15 164.95 1232.85 165.75 1236.3 166.3 1237.6 167.3 1239.4 168.55 1239.6 171.8 1239.7 175 1241.95 177.4 1244.3 179.65 1247.4 179.5 1250.7 179.5 1252.9 181.7 1255.15 183.95 1255.3 187.25
L 1255.3 187.65
Q 1249.95 189.9 1247.15 190.45 1242.7 191.55 1239.05 189.6 1236.5 191.95 1231.9 194.5 1201.6 204.85 1174.5 222.15
L 1170.2 224.5
Q 1167.75 219.05 1172.45 216.1 1180.4 211.6 1187.1 204.85
L 1175.95 210.1 1175.65 208 1195.55 195.9
Q 1188.25 198 1178.3 203.9 1165 211.8 1161.9 213.15 1163.85 205.4 1171.4 199.1 1175.75 195.6 1185.05 188.85
L 1157.5 199.85
Q 1164.45 190.15 1174.5 184.7 1182.8 180.2 1194.7 177.65 1215.15 173.15 1233.7 189.05 1222.75 175.6 1208.45 174.45 1191.05 172.75 1175.2 180.35 1171.6 182.3 1167.1 182.55
L 1178.75 169.65 1181.5 173.15
Q 1190.4 164.1 1197.5 165.55
M 1257.85 235.05
Q 1259.45 236.7 1259.75 239.1 1260.05 243.2 1255.3 245.55 1244.2 252.25 1231.05 253.55 1228.5 253.55 1226.7 255.35
L 1234.15 257.6
Q 1229.05 267.1 1218.8 286.2 1211.7 298.15 1203.85 306.4 1201.2 309.15 1198.5 311.5 1197.25 309.5 1196.4 306.4 1195.55 303.55 1195 299.65 1194 291.85 1194.7 284.25 1197.1 284.95 1201.85 286.5 1204.35 287.35 1207.05 286.95 1209.7 286.5 1210.7 285.9 1212.5 284.95 1212.35 282.7 1212.35 280.65 1210.7 279.9 1210.25 279.6 1207.45 279.05
L 1202.25 278.1
Q 1203.3 274.7 1205.2 273.75 1207.35 272.75 1218.7 270.1 1209.3 264.45 1193.15 276.95 1191.75 265.9 1190.35 247.9 1188.55 226.1 1187.85 219.05
L 1211 207.25
Q 1207.35 218.75 1206.5 223.65 1204.9 232.4 1207.35 240.1 1202.15 238.25 1199.75 233.6 1198.9 231.95 1196.5 224.5 1193.6 229.4 1195.7 234.05 1197.75 238.5 1205.45 244.7
L 1196.8 243.4
Q 1200.2 247.35 1202.7 247.65 1205.2 247.8 1214.3 244.55 1218.7 243.2 1220.5 241.5 1222.5 239.95 1229.45 231.95
L 1246.3 231.95
Q 1249.55 231.95 1253.7 232.95 1256.15 233.35 1257.85 235.05
M 1239.4 219.6
Q 1237.9 219.6 1236.85 220.65 1235.75 221.8 1235.75 223.3 1235.75 224.85 1236.85 225.9 1237.85 226.9 1239.2 227.05 1239.05 227.45 1238.85 227.8
L 1231.25 228.4
Q 1235.55 219 1233.85 212.1 1240.55 212 1242 214.55 1242.85 216 1241.6 220.4 1240.65 219.6 1239.4 219.6
M 1218.55 205.85
Q 1220.9 202.65 1223.45 202.95 1226.15 203.2 1227.95 206.8 1231.05 213.3 1229.3 221 1229.05 220.65 1228.8 220.4 1227.7 219.3 1226.25 219.3 1224.75 219.3 1223.65 220.4 1222.6 221.5 1222.6 223.05 1222.6 224.55 1223.65 225.65 1224.75 226.75 1226.25 226.75 1226.85 226.75 1227.45 226.6 1227 227.6 1226.4 228.7 1223.3 234.2 1218.55 237.65 1215.15 240.65 1212.9 239.65 1210.55 238.8 1209.7 234.35
L 1209.4 231
Q 1210.15 217.25 1218.55 205.85
M 1182.2 223.55
L 1183.2 238.25 1171 228.7 1182.2 223.55
M 1165.5 231.65
Q 1169.35 230.8 1172.55 234.05 1174.8 236.25 1179.95 240.95 1184.2 245.4 1184.3 250.45
L 1183.65 253.4
Q 1172.8 252.55 1169.6 251.95 1165.5 251.3 1161.9 249.2 1158.8 247.8 1157.7 244.45 1156.55 241.2 1158.05 237.95
L 1159.1 236.45
Q 1161.9 232.4 1165.5 231.65
M 1180.8 247.3
L 1180.4 246.95
Q 1172.7 240.9 1166.35 241.35
L 1162.4 242.2 1180.8 247.3
M 1232.85 171.65
Q 1231.6 170.25 1227.95 168.7 1222.6 166.55 1218.8 166.55 1213.9 166.55 1209.7 169.65 1222.35 168.7 1228.9 173.05 1219 172.1 1219 173.35 1219.1 174.85 1221.65 175.7 1227.75 178.65 1234.7 177.1 1234.15 173.15 1232.85 171.65
M 1209.7 188.1
Q 1204.35 191 1200.6 197.4
L 1203.95 199.85 1220.2 186.4
Q 1215.15 185 1209.7 188.1
M 1305.9 229.85
L 1305.65 229.55 1305.25 229.3
Q 1300.3 225.05 1293.7 225.65 1287.25 226.35 1283.05 231.25 1287 235.7 1292.55 237 1298.2 238.25 1303.55 235.85 1306.3 234.45 1306.6 233.35 1307.05 232.4 1305.9 229.95
L 1305.9 229.85
M 1287 232.4
Q 1290.75 228.45 1294.8 228 1298.6 227.5 1304.55 231.55 1298.3 239.55 1287 232.4 Z"/>

<path fill="#FFFFFF" stroke="none" d="
M 1278.25 265.75
Q 1276.75 264.9 1273.35 264.45 1274.4 267 1276.6 268.4 1278.7 269.95 1281.35 269.8 1280.4 266.85 1278.25 265.75
M 1291.95 196.9
Q 1296.7 194 1292 192.95
L 1276.8 204
Q 1287.15 199.8 1291.95 196.9
M 974.1 595.75
L 967.65 597.15
Q 971.85 601.45 974.1 595.75
M 979.7 599.8
Q 977.85 600.05 974.8 602.6 978.9 604 980 603.85 981.25 603.85 984.35 602.2 982.25 599.4 979.7 599.8
M 1027.8 623.35
L 1013.8 610.75 997.8 616.6
Q 1004.55 622.5 1012.65 624.3 1020.8 626.2 1027.8 623.35
M 1100.2 632.6
Q 1100.75 633.35 1103.5 633.35
L 1082.8 611.05
Q 1082.9 611.25 1083.35 613.5 1083.75 615.1 1084.3 615.75 1088.4 620.55 1100.2 632.6
M 1122.6 493.75
Q 1126.25 513.8 1129.2 525.85 1133.4 543.55 1138.85 558.3 1138.3 548.5 1131.9 522.65 1125.4 496.6 1122.6 493.75
M 1133.8 514.65
Q 1132.75 506.1 1132.15 502.35 1131.05 495.75 1128.5 491.7 1127.65 495.85 1129.2 502.15 1130.6 508.5 1133.8 514.65
M 1006.5 591.65
Q 1007.2 589.8 1006.5 588
L 988.85 595.35
Q 992.5 598.55 996.65 597.55 996.95 597.55 1003.7 594.6
L 1004 594.5
Q 1005.8 593.65 1006.5 591.65
M 999.75 582
Q 996.4 583.4 996.1 587.15 1002.15 586.5 1004.1 585.2 1006.25 583.8 1005.95 579.85 1004.1 581 999.75 582
M 986.15 589.15
Q 980.55 590.55 976.5 593.35 979 595.05 979.25 594.9 982.25 593.65 995.25 587.45 989.25 588.3 986.15 589.15
M 975.65 584.65
Q 974.65 585.1 972.95 589.8
L 980.4 587.05
Q 976.65 584.25 975.65 584.65
M 983.4 576.65
Q 987.55 574.55 988.4 569.5 978.6 572.7 976.9 574.1 975.1 575.5 975.95 579.6 980.95 577.75 983.4 576.65
M 983.05 567.65
Q 984.45 567 985.6 566.4 990.55 563.75 992.2 559.8
L 969.3 572.15
Q 978.1 569.75 983.05 567.65
M 995.25 553.8
L 994.3 551.8 976.8 561.4 977.45 562.9 995.25 553.8
M 1007.2 558.7
Q 1007.2 560.65 1004.25 563.05 1001.5 565.1 1001.55 567.65 1001.55 567.85 1001.55 568.1
L 1012 565.85 1012.65 568.1
Q 1008.05 569.65 1004 571.45 1000.2 573.15 999.65 573.7 997.5 575.5 998.35 579.45
L 1008.9 573.15 1012.25 581.15 1017.45 581.8
Q 1013.1 586.05 1012.8 587.6 1012.55 589.15 1015.45 592.5 1020.95 582.65 1018.55 572.4 1017.9 569.85 1016.9 567.65 1013.8 561.35 1007.2 558.7
M 1123.9 480.15
L 1124.55 481.25 1127.8 479.75 1126.65 478.2
Q 1125.6 478.75 1123.9 480.15
M 1064.55 454.65
L 1061.45 461.8 1103.5 455.3 1101.3 447.6 1070.85 449.75
Q 1065.95 450.15 1064.55 454.65
M 1103.4 400.35
Q 1101.7 400.95 1098.8 403.45 1101.15 405 1104.1 404.45 1106.9 403.85 1108.45 401.5 1105.65 399.7 1103.4 400.35
M 1120.9 400.95
Q 1122.3 401.2 1128.65 399.4 1126.4 396.3 1125.15 396.15 1123.9 395.85 1118.4 397.55 1119.4 400.65 1120.9 400.95
M 1115.45 400.1
Q 1115.15 399.9 1113.75 398.85 1113.1 398.3 1112.65 398.4 1112.35 398.4 1110.65 400.1 1112.1 401.9 1112.65 401.9 1112.8 401.9 1115.45 400.1
M 964 598.95
Q 962.15 596.4 958.4 586.75 957.25 600.6 965.4 606.25 971.15 610.6 974.65 606.55 967.1 603.45 964 598.95
M 968.5 587.85
L 964 591.95 965.55 593.45
Q 967.95 593.1 968.8 592.35 970.15 591.2 968.5 587.85
M 964 583.5
L 966 584.9 969.6 580 967.5 578.5 964 583.5
M 908.9 506.95
Q 906.75 507.25 905.15 508.25 918.4 528.55 921.5 538.65 924.1 547.4 924.6 567.65 924.65 570.45 924.7 573.45 925.85 573 925.75 572.85 926.7 570.4 927.35 567.65 930.25 555.7 926.85 539.35 922.45 519.15 912 509.1 909.85 506.95 908.9 506.95
M 894.9 497.25
L 895.75 495.75 891.2 493.2 890.4 494.45 894.9 497.25
M 903.45 502.9
Q 903.25 502.15 901.45 500.1 901.3 500.25 900.35 501.5 899.8 502.15 899.9 502.6 900.35 504 901.75 504.4 902.15 504.6 902.7 504 903.45 503.45 903.45 502.9
M 839.2 559.8
Q 838.1 559.4 837.5 559.7 835 561.1 833.3 562.8 829.65 565.55 829.8 568.65 829.8 571.65 833.75 574 836.5 575.5 839.9 574.85 842.15 574.4 841.3 568.95 838.2 572.15 837.25 572.3 836.2 572.4 833.45 570.35
L 841.55 560.65
Q 839.75 560.1 839.2 559.8
M 839.5 552
L 838.1 549.85 832.05 554.05 833.2 555.75 839.5 552
M 868.6 539.25
Q 871.45 536.45 874.4 533.45 890.4 516.35 898.55 507.8 896 506 895.15 506 894.15 505.8 892.35 507.5
L 841.45 556.6
Q 843.25 558.55 845.05 558.3 846.05 558.1 848.05 556.7 857.6 549.85 868.6 539.25
M 868.6 485.25
Q 865.8 484.45 862.9 484.1 850.85 482.3 837.35 483.4 794.15 488.05 773.85 522.65 749.45 564.05 773.85 606.55 781.45 619.8 785.9 623.95 790.25 628 804.3 634.55 832.45 648.5 862.45 639.65 892.45 630.8 908.75 604 919 587.65 920.4 567.65 920.65 563.25 920.55 558.7 919.8 532.8 905.4 515.2
L 902.05 512 847.6 563.05
Q 848.15 566.3 848.15 569.95 848.05 576.55 844.5 578.8 841 581 835 578.35 830.5 576.35 826.85 573 824.05 570.2 821.25 566 822.75 563.2 823.8 560.65 826.05 552.55 829.8 549.85 833.55 547.1 840.6 548.6
L 889.55 498.65
Q 879.25 488.4 868.6 485.25
M 833.55 533.3
Q 836 530.65 839.3 530.1 842.7 529.4 845.8 531.1 833.55 535.7 824.9 549.55 816.65 562.9 817.3 574.85 818.15 586.3 825 591.8 831.9 597.15 844 595.55 841.55 597.7 841.3 597.7 828 598.65 821.25 591.2 816.45 586.05 814.65 579.45 812.7 572.7 813.95 566 816.75 549.15 833.55 533.3
M 811.15 535.55
Q 824.45 525.2 824.9 524.8 828.8 520.85 834.4 522.65
L 820.1 532.5
Q 800.35 546.35 804.4 575.5 806.65 587.35 816.45 594.3 805.1 590.4 801.3 575.95 799.5 567.5 799.9 558.55 799.9 551.8 802.9 545.8 805.8 539.65 811.15 535.55
M 887.5 567.65
Q 889.65 559.35 890.1 550.4
L 891.9 550.3
Q 892.9 552.4 893 554.25 892.7 561.05 891.05 567.65 885.7 589.15 866.7 608.05 861.6 612.3 855.45 614.35 880.55 594.3 887.5 567.65
M 906.5 567.65
Q 906.75 566.45 907.05 565.25 907.5 566.4 907.65 567.65 908.3 571.9 906.25 578.05 903.55 585.75 895 601.05
L 898.25 603.55
Q 897.8 606.1 887.15 612.3 876.2 618.6 870.05 619.55 884.05 610 893.75 596 902.6 583 906.5 567.65
M 788.4 533
Q 792.2 528.85 792.5 528.7 794.9 526.85 797.85 528.1
L 785.35 544.65
Q 783.1 538.9 788.4 533
M 843.15 619.7
Q 843.8 617.75 844 617.9
L 850.6 620.4
Q 845.05 623.75 843.15 619.7
M 938.75 462.45
L 942.4 470.75
Q 945.9 470.45 972.95 467.55 1000.05 464.6 1014.05 464.15
L 1017.7 455.9
Q 1006.5 456.6 976.8 458.7 953.5 460.55 938.75 462.45
M 930.65 471.05
L 906.65 494.75
Q 905.8 495.55 904.4 497.55 905.95 499.95 907.5 499.5 908.45 499.4 910.05 497.55
L 930.9 475.4
Q 931.2 475.15 931 474 930.65 471.85 930.65 471.05
M 1161.75 393.5
Q 1158.5 391.15 1155.7 391.25 1152.9 391.55 1147.45 394.45 1155.05 396.45 1161.75 393.5
M 1106.6 330.8
Q 1104.8 329.4 1098.9 329.95 1093.9 330.7 1092.6 332.2 1091.1 333.9 1092.05 338.65 1092.9 344.4 1096.35 349.75 1116.6 375.55 1136.05 398.55 1138.05 400.95 1141.8 406 1144.55 409.25 1147.7 410.8
L 1146.2 418.15
Q 1136.05 421.65 1140.3 424.05
L 1151.95 422.95
Q 1157.15 421.3 1155.7 415.9
L 1161.35 420.85
Q 1167 421.05 1167.8 418.55 1168.6 416.1 1168.65 414.4 1168.65 412.6 1170.45 413.65 1172.25 414.65 1173.45 417.75 1182.15 416.2 1178.8 410.25 1175.35 404.3 1169.75 398.3 1160.9 399.25 1157.5 399.8 1152.9 400.95 1148.55 399.25 1144.2 397.55 1141.5 393.6
L 1138.3 389.45
Q 1131.9 380.6 1128.65 376.1 1122.9 368.3 1118.65 363.2 1109.7 352 1108.85 338.2 1108.3 332.2 1106.6 330.8
M 1050.1 380.6
Q 1043.7 383.25 1038.9 388.35 1034.1 393.35 1031.9 399.9
L 1051.2 406.95
Q 1052.8 413.45 1052.25 415.25 1051.65 417.3 1046.75 422.1
L 1042.4 426.35
Q 1030.5 438.8 1027.4 449.75 1023.05 464.35 1021.2 481 1020.1 499.5 1007.1 512.85
L 1003.4 516.8
Q 1001.45 519.15 1001 519.85 1000.05 521.8 1001.3 523.4 1004 526.6 1008.2 527.25 1014.65 528 1017.55 525.2 1020.35 522.35 1020.95 514.95
L 1012 523.2 1010.7 522.1 1014.35 517.6
Q 1026.3 503.55 1032.15 495.75 1041.55 483.25 1047.15 472.05 1062.05 443.15 1069.2 428.7 1071.55 422.65 1072.65 417.9 1074.9 411.3 1070.75 406.3 1069.05 404.05 1050.1 380.6
M 1047.35 295.6
Q 1032.3 292.95 1025.25 291.1 1023.2 290.55 1004.25 284.4 1010.4 291 1024.15 294.35 1037.2 297.55 1047.35 295.6
M 1172.55 234.05
Q 1169.35 230.8 1165.5 231.65 1161.9 232.4 1159.1 236.45
L 1158.05 237.95
Q 1156.55 241.2 1157.7 244.45 1158.8 247.8 1161.9 249.2 1165.5 251.3 1169.6 251.95 1172.8 252.55 1183.65 253.4
L 1184.3 250.45
Q 1184.2 245.4 1179.95 240.95 1174.8 236.25 1172.55 234.05
M 1180.4 246.95
L 1180.8 247.3 1162.4 242.2 1166.35 241.35
Q 1172.7 240.9 1180.4 246.95
M 1183.2 238.25
L 1182.2 223.55 1171 228.7 1183.2 238.25
M 1223.45 202.95
Q 1220.9 202.65 1218.55 205.85 1210.15 217.25 1209.4 231
L 1209.7 234.35
Q 1210.55 238.8 1212.9 239.65 1215.15 240.65 1218.55 237.65 1223.3 234.2 1226.4 228.7 1227 227.6 1227.45 226.6 1226.85 226.75 1226.25 226.75 1224.75 226.75 1223.65 225.65 1222.6 224.55 1222.6 223.05 1222.6 221.5 1223.65 220.4 1224.75 219.3 1226.25 219.3 1227.7 219.3 1228.8 220.4 1229.05 220.65 1229.3 221 1231.05 213.3 1227.95 206.8 1226.15 203.2 1223.45 202.95
M 1236.85 220.65
Q 1237.9 219.6 1239.4 219.6 1240.65 219.6 1241.6 220.4 1242.85 216 1242 214.55 1240.55 212 1233.85 212.1 1235.55 219 1231.25 228.4
L 1238.85 227.8
Q 1239.05 227.45 1239.2 227.05 1237.85 226.9 1236.85 225.9 1235.75 224.85 1235.75 223.3 1235.75 221.8 1236.85 220.65
M 1259.75 239.1
Q 1259.45 236.7 1257.85 235.05 1256.15 233.35 1253.7 232.95 1249.55 231.95 1246.3 231.95
L 1229.45 231.95
Q 1222.5 239.95 1220.5 241.5 1218.7 243.2 1214.3 244.55 1205.2 247.8 1202.7 247.65 1200.2 247.35 1196.8 243.4
L 1205.45 244.7
Q 1197.75 238.5 1195.7 234.05 1193.6 229.4 1196.5 224.5 1198.9 231.95 1199.75 233.6 1202.15 238.25 1207.35 240.1 1204.9 232.4 1206.5 223.65 1207.35 218.75 1211 207.25
L 1187.85 219.05
Q 1188.55 226.1 1190.35 247.9 1191.75 265.9 1193.15 276.95 1209.3 264.45 1218.7 270.1 1207.35 272.75 1205.2 273.75 1203.3 274.7 1202.25 278.1
L 1207.45 279.05
Q 1210.25 279.6 1210.7 279.9 1212.35 280.65 1212.35 282.7 1212.5 284.95 1210.7 285.9 1209.7 286.5 1207.05 286.95 1204.35 287.35 1201.85 286.5 1197.1 284.95 1194.7 284.25 1194 291.85 1195 299.65 1195.55 303.55 1196.4 306.4 1197.25 309.5 1198.5 311.5 1201.2 309.15 1203.85 306.4 1211.7 298.15 1218.8 286.2 1229.05 267.1 1234.15 257.6
L 1226.7 255.35
Q 1228.5 253.55 1231.05 253.55 1244.2 252.25 1255.3 245.55 1260.05 243.2 1259.75 239.1
M 1294.8 228
Q 1290.75 228.45 1287 232.4 1298.3 239.55 1304.55 231.55 1298.6 227.5 1294.8 228 Z"/>
</g>

<g id="Layer3_0_MEMBER_0_MEMBER_0_FILL">
<path fill="#000000" stroke="none" d="
M 1033.65 116.6
L 1027.55 116.2 1027.55 115.45 1011.45 116.95
Q 1001.75 117.85 995.4 118.85 964.25 123.8 944.95 128.05 924.65 132.4 911.85 136.4 894.15 141.75 880.2 149.1 868.6 155.2 863.5 165.8 858.25 176.6 861.4 188.95
L 864.85 201.9
Q 885.8 270.65 890.9 286.45 893.4 294.3 897.25 296.45 901.1 298.55 908.85 296.45 915.95 294.2 922.65 289.7 943.1 276.25 967 270.15 975.6 268.05 988.8 266.05 996.15 264.95 1010.85 262.7
L 1022.05 260.55
Q 1023.8 260.3 1027.4 259.45 1030.5 258.8 1032.65 258.7 1043.25 257.7 1064.3 256.2 1069.4 255.7 1071.5 253.85 1073.6 251.95 1074.75 247
L 1075.35 244.25
Q 1076.5 233.4 1076.85 228.05 1077.75 218.6 1077.6 211.85 1076.5 174.85 1063.9 140.1 1055.95 117.45 1033.65 116.6
M 1041.75 124.8
Q 1047.45 125.8 1051.95 129.8 1056.2 133.75 1057.95 139.5 1066.65 163.55 1068.5 188.95 1069.4 208.9 1068.75 238.15 1068.65 240.4 1067.15 243.75 1066.25 245.6 1064.55 249.35
L 1027.4 252.95 996.25 136.5
Q 995.4 131.65 995.15 126.55 998.15 125.45 1002.15 124.55 1021.8 121.45 1041.75 124.8
M 974.95 128.9
Q 982.95 127.9 986.2 130.05 989.4 132.05 991.65 139.65 994.65 149.6 1002.15 178.75
L 1021.7 253.7
Q 1011.2 255.6 1009.7 255.95
L 972.35 264.3
Q 939 271.9 909.1 290.85 906.95 292.1 905.45 292.7 903.6 293.7 901.6 293.2 899.6 292.7 898.6 290.95
L 898.5 290.6
Q 896.25 287.1 894.65 282.75 891.15 267.8 885.4 249 882.7 239.9 874.7 215.5 872.6 208.9 870.25 199.15 867.85 188.35 866.5 182.85 865 177.5 866.6 172.25 868.25 166.9 872.45 163.3 882.95 152.85 897.9 148.7 905.2 146.75 970.35 129.9
L 974.95 128.9 Z"/>
</g>

<g id="Layer3_0_MEMBER_0_MEMBER_1_FILL">
<path fill="#000000" stroke="none" d="
M 1343.15 141.6
Q 1320.5 164.3 1320.5 196.4 1320.5 228.5 1343.15 251.15 1365.85 273.85 1397.95 273.85 1430.05 273.85 1452.7 251.15 1475.4 228.5 1475.4 196.4 1475.4 164.3 1452.7 141.6 1430.05 118.95 1397.95 118.95 1365.85 118.95 1343.15 141.6
M 1328.3 190.05
Q 1332.8 160.4 1355.9 141.55 1379.05 122.75 1407.35 125.75 1435.65 128.7 1452.45 151.7 1469.3 174.75 1464.8 204.4 1460.35 234 1437.2 252.8 1414.1 271.65 1385.8 268.7 1357.5 265.7 1340.65 242.65 1323.85 219.65 1328.3 190.05 Z"/>
</g>

<g id="Layer3_0_MEMBER_0_MEMBER_2_FILL">
<path fill="#000000" stroke="none" d="
M 1343.15 141.6
Q 1320.5 164.3 1320.5 196.4 1320.5 228.5 1343.15 251.15 1365.85 273.85 1397.95 273.85 1430.05 273.85 1452.7 251.15 1475.4 228.5 1475.4 196.4 1475.4 164.3 1452.7 141.6 1430.05 118.95 1397.95 118.95 1365.85 118.95 1343.15 141.6
M 1328.3 190.05
Q 1332.8 160.4 1355.9 141.55 1379.05 122.75 1407.35 125.75 1435.65 128.7 1452.45 151.7 1469.3 174.75 1464.8 204.4 1460.35 234 1437.2 252.8 1414.1 271.65 1385.8 268.7 1357.5 265.7 1340.65 242.65 1323.85 219.65 1328.3 190.05 Z"/>
</g>

<g id="Layer3_0_MEMBER_0_MEMBER_3_FILL">
<path fill="#E95754" fill-opacity="0.4980392156862745" stroke="none" d="
M 1215.4 261.3
Q 1216.1 260.65 1216.75 259.85 1219.3 256.2 1218.65 251.85 1218.35 249.95 1217.4 248.6 1214.5 246.25 1211 246.3 1208 246.5 1205.1 247.15 1203.35 247.6 1201.6 247.85 1197.1 248.05 1194.65 251.85 1193.75 253.2 1193.2 254.8 1192.35 257.3 1193.45 260.1 1193.95 261.4 1194.9 262.05 1196.8 263.45 1199.35 263.95 1203.45 264.75 1207.75 264.25 1212.05 263.9 1215.4 261.3 Z"/>
</g>

<g id="Layer2_0_FILL">
<path fill="#FFFFFF" stroke="none" d="
M 864.05 507.65
Q 862 507.5 860 507.35 854 507 848 506.65 846 506.5 844 506.4 836 506 828 505.85 808.1 505.55 789 508.15 778.05 509.65 767.95 511.7 767 511.9 766.05 512.15 765.55 512.25 765.1 512.35 755.6 514.75 745.85 517.6 742.8 519.15 739.95 520.9 739 521.5 738.25 522.25 736.25 524.25 732.05 523.65 731 523.5 729.95 523.3 729 523.15 728.1 523 720.25 521.55 714.05 518.95 713 518.5 711.95 518.3 708.4 517.7 704.95 516.1 703.65 515.5 701.75 514.75
L 702 514
Q 692 508.45 682.05 505.8 681 505.5 680.1 504.85 678.75 503.8 676.05 503.55 675.5 503.5 675 503.5 674.5 503.5 674 504 671.65 506.15 670.55 509.85 669.75 512.4 668.1 513.2 667.5 513.5 667.15 514.1 664.95 518.1 662.35 521.25 657.8 526.8 654.75 531.85 650.85 538.25 647 547 645.25 550.9 643.8 554.9 642.7 557.85 641.5 559.4 641 560 640.7 560.9 640.5 561.5 640.25 562.1 636.55 570.45 632.95 578.95 629 588.2 625.9 596.95 625.5 598 625.1 599.05 621.8 607.4 618.8 615.9 615.7 624.6 612.35 633.15 611.2 636.1 610.05 639.1 616.4 647.7 622.9 652.1 623.5 652.5 623.95 653.05 629.1 659.35 638.9 662.3 639.5 662.5 640.1 662.85 644.25 665.55 648.9 667.25 652.65 668.55 656.1 670.9 657 671.5 658.05 671.9 667.25 675.2 675.1 678.85 676.5 679.5 678.05 679.9 686.4 682.05 694.1 685.8 695.5 686.5 697 686.95 714.6 692.05 733.1 696.7 752.4 701.55 769.95 707.1 788.15 712.8 806.95 715.25 809 715.5 811 716 818.75 717.85 827 718.4 829 718.5 831 718.9 845.45 721.6 859.95 723.3 861.5 723.5 863.05 723.8 874.45 726.2 885.9 729.35 891.4 730.85 896.9 732.3 907 734.95 917.15 738.65 919.25 739.45 921.2 740.7 922.5 741.5 924.05 741.6 926.75 741.75 928.25 742.6 929 743 929.95 743.25 934 744.4 938.15 745.55 942.9 746.85 948 746.9 953.2 746.9 958.05 747.6 961 748 964 748.05 972.8 748.25 980.95 746.7 983.45 746.25 986.05 745.1 992.1 742.5 998.85 741.3 1000.5 741 1002.1 740.25 1011.15 736.25 1019.2 732.4 1020 732 1020.8 731.6 1029.5 727.35 1037.8 721.7 1045.55 716.4 1053.9 711.8 1058.45 709.3 1063.8 706.6 1065 706 1066.2 705.3 1070.15 703 1074.85 701.5 1076.5 701 1078.15 700.45 1082.7 698.95 1087.05 697.1 1088.5 696.5 1090.05 696.15 1101.05 693.8 1111.25 689.55 1112.5 689 1113.95 688.7 1119.05 687.7 1124 686 1133.3 682.7 1142.1 679.3 1149.85 676.35 1156.85 671.75 1159.5 670 1161.1 669.2 1169.55 664.85 1175.05 656.05 1176.55 653.6 1178.65 652.45 1179.45 652 1180.2 651.25 1185.75 645.8 1192.75 640.75 1194.45 639.5 1196.15 638.25 1200.8 634.7 1204.35 630.35 1205.45 629 1206.6 627.7 1210.25 623.6 1214.65 619.65 1215.95 618.5 1217.25 617.3 1219.5 615.15 1221.7 613.6 1223.95 612 1226.15 610.3 1230.75 606.75 1235.85 603.85 1244.15 599.15 1251.75 593.7 1259.25 588.3 1267 585.1 1268.5 584.5 1269.95 583.95 1271 583.5 1272 583.45 1274.7 583.25 1276.2 582.4 1276.95 582 1277.85 581.7 1281.25 580.5 1285.05 578.2 1287 577 1288.1 575.1 1288.45 574.5 1289 574.1 1290.45 573 1291.15 571.1 1291.95 569 1292.75 566.9 1293.45 565 1293.45 563 1293.45 562.5 1293.25 561.9 1292 558.15 1287.9 556.05 1284.4 554.25 1279.8 552.35 1278.95 552 1278.05 551.7 1277.45 551.5 1276.85 551.4 1274.95 551 1273 550.75 1270.05 550.35 1267 549.85
L 1266.7 550.05
Q 1266.6 549.9 1266.5 549.8 1266.2 549.4 1265.85 549.1 1259.9 543.35 1249.95 541.05 1245.15 539.95 1239.95 539.9 1230.15 539.75 1221 541.3 1219.95 541.5 1218.9 541.6 1208.85 542.55 1199.85 545.7 1197.5 546.5 1195.1 547.45 1191.05 549.05 1188.2 551.3 1181.75 556.55 1173.1 562.15 1172.5 562.5 1171.9 562.75 1168.35 564.35 1166.25 566.3 1165.5 567 1164.7 567.55 1162.35 569.15 1160.3 571.3 1156.85 574.9 1151.2 577.45 1147.55 579.1 1144.1 581.15 1128.1 590.4 1109.05 593.3 1107.55 593.5 1105.95 593.7 1098.95 594.4 1092.05 593.35 1091.15 592.5 1090.2 591.75 1085.5 588.1 1081 584 1080.5 583.5 1079.9 583.2 1077.5 582 1075.25 580.6 1071.7 578.45 1067.15 576.65 1064.7 575.7 1062.95 575.35 1059.05 574.55 1055 573.05 1053.55 572.5 1052.2 571.7 1050.75 570.8 1048.05 570.5 1038.2 569.55 1028 570.1 1017.5 570.65 1007.95 569.3 1006 569 1004.1 568.6 994.35 566.5 985.95 564.2 976.45 561.65 969.8 555.2 967.35 552.75 966.1 550.95 963.55 547.2 960.1 544.9 959.5 544.5 959 544 954.7 539.45 950.15 536.7 949 536 947.8 535.6 946.05 534.95 944.9 534.15 938.65 529.7 933.1 526.8 932.5 526.5 931.9 526.35 930.5 526 929.25 525.45 924.6 523.35 921.05 521.9 920 521.5 918.95 521.25 909.05 518.75 900.95 515.15 893.05 511.65 883 509.95 873.75 508.45 864.05 507.65 Z"/>
</g>

<g id="Layer1_0_FILL">
<path fill="#FFFFFF" stroke="none" d="
M 1347.95 591.4
Q 1347.8 591.2 1347.7 591.1 1347.35 590.65 1347 590.3
L 1347.95 591.4 Z"/>

<path fill="#E7E7E7" stroke="none" d="
M 1317.8 579.95
Q 1306.8 579.8 1296.5 581.5 1295.3 581.75 1294.1 581.85 1282.8 582.95 1272.65 586.5 1270 587.4 1267.3 588.45 1262.75 590.25 1259.55 592.8 1252.3 598.7 1242.55 605 1241.85 605.4 1241.2 605.7 1237.2 607.5 1234.85 609.65 1234 610.45 1233.1 611.1 1230.45 612.9 1228.15 615.3 1224.25 619.35 1217.9 622.25 1213.8 624.1 1209.9 626.4 1191.9 636.8 1170.45 640.05 1168.75 640.3 1166.95 640.5 1159.05 641.3 1151.3 640.15 1150.3 639.15 1149.2 638.35 1143.9 634.2 1138.85 629.6 1138.3 629.05 1137.6 628.7 1134.9 627.35 1132.35 625.75 1128.4 623.35 1123.25 621.35 1120.5 620.25 1118.5 619.85 1114.15 618.95 1109.55 617.25 1107.95 616.65 1106.4 615.75 1104.8 614.75 1101.75 614.4 1090.65 613.35 1079.15 613.95 1067.35 614.55 1056.6 613.05 1054.4 612.7 1052.25 612.25 1041.3 609.9 1031.85 607.3 1021.15 604.45 1013.65 597.2 1010.9 594.4 1009.5 592.4 1006.6 588.15 1002.7 585.6 1002.05 585.15 1001.5 584.55 996.65 579.45 991.5 576.35 990.2 575.55 988.85 575.1 986.9 574.35 985.6 573.45 978.55 568.45 972.3 565.2 971.65 564.85 970.95 564.7 969.4 564.3 968 563.7 962.75 561.3 958.75 559.7 957.55 559.25 956.4 558.95 945.25 556.15 936.1 552.1 927.25 548.15 915.9 546.25 905.5 544.55 894.55 543.65 892.25 543.45 890 543.3 883.25 542.9 876.5 542.5 874.25 542.35 872 542.25 863 541.8 854 541.6 831.6 541.25 810.05 544.2 797.75 545.9 786.35 548.2 785.3 548.4 784.25 548.7 783.65 548.8 783.15 548.95 772.45 551.65 761.5 554.85 758.05 556.6 754.85 558.55 753.75 559.25 752.95 560.1 750.7 562.35 745.95 561.65 744.75 561.5 743.6 561.25 742.5 561.1 741.5 560.9 732.65 559.3 725.7 556.35 724.5 555.85 723.3 555.65 719.3 554.95 715.45 553.15 713.95 552.5 711.85 551.65
L 712.1 550.8
Q 700.85 544.55 689.65 541.55 688.45 541.2 687.45 540.5 685.95 539.3 682.9 539 682.3 538.95 681.7 538.95 681.15 538.95 680.6 539.55 677.95 541.95 676.7 546.1 675.8 549 673.95 549.9 673.25 550.2 672.85 550.9 670.4 555.4 667.45 558.95 662.35 565.2 658.9 570.9 654.5 578.1 650.2 587.95 648.2 592.35 646.6 596.85 645.35 600.15 644 601.9 643.45 602.6 643.1 603.6 642.85 604.25 642.6 604.95 638.4 614.35 634.35 623.9 629.9 634.35 626.45 644.2 626 645.35 625.55 646.55 621.8 655.95 618.45 665.5 614.95 675.3 611.15 684.95 609.9 688.25 608.6 691.65 615.75 701.35 623.05 706.3 623.75 706.75 624.25 707.35 630.05 714.45 641.05 717.75 641.75 718 642.4 718.4 647.1 721.4 652.35 723.35 656.55 724.8 660.45 727.45 661.45 728.1 662.65 728.55 673 732.3 681.85 736.4 683.4 737.15 685.15 737.6 694.55 740 703.2 744.2 704.8 745 706.5 745.5 726.3 751.25 747.15 756.5 768.85 761.95 788.6 768.2 809.1 774.6 830.3 777.4 832.6 777.65 834.85 778.25 843.55 780.3 852.85 780.95 855.1 781.05 857.35 781.5 873.65 784.55 889.95 786.45 891.7 786.65 893.45 787 906.3 789.7 919.2 793.25 925.35 794.95 931.55 796.6 942.95 799.55 954.35 803.75 956.75 804.65 958.9 806.05 960.4 806.95 962.15 807.05 965.15 807.2 966.85 808.2 967.7 808.65 968.75 808.9 973.35 810.2 978 811.5 983.35 812.95 989.1 813 994.95 813 1000.4 813.8 1003.75 814.25 1007.1 814.3 1017 814.55 1026.2 812.8 1029 812.3 1031.95 811 1038.75 808.05 1046.35 806.7 1048.2 806.4 1050 805.55 1060.2 801.05 1069.25 796.7 1070.15 796.25 1071.05 795.8 1080.85 791 1090.2 784.65 1098.95 778.7 1108.35 773.5 1113.45 770.7 1119.5 767.65 1120.85 766.95 1122.2 766.2 1126.65 763.6 1131.9 761.9 1133.8 761.35 1135.65 760.7 1140.75 759.05 1145.65 756.95 1147.3 756.25 1149.05 755.9 1161.4 753.25 1172.9 748.45 1174.3 747.85 1175.95 747.5 1181.7 746.35 1187.25 744.45 1197.75 740.75 1207.65 736.9 1216.35 733.6 1224.25 728.4 1227.25 726.45 1229.05 725.55 1238.55 720.65 1244.75 710.75 1246.45 707.95 1248.8 706.65 1249.7 706.15 1250.55 705.3 1256.8 699.2 1264.65 693.5 1266.6 692.1 1268.5 690.7 1273.75 686.7 1277.75 681.8 1278.95 680.25 1280.25 678.8 1284.4 674.2 1289.35 669.75 1290.8 668.45 1292.25 667.1 1294.8 664.7 1297.25 662.95 1299.8 661.15 1302.3 659.2 1307.45 655.2 1313.2 651.95 1322.55 646.65 1331.1 640.5 1339.55 634.45 1348.25 630.85 1349.95 630.15 1351.6 629.55 1352.8 629.05 1353.9 629 1356.95 628.75 1358.65 627.8 1359.5 627.35 1360.5 627 1364.3 625.65 1368.6 623.05 1370.8 621.7 1372.05 619.6 1372.45 618.9 1373.05 618.45 1374.7 617.2 1375.45 615.1 1376.35 612.7 1377.25 610.35 1378.05 608.2 1378.05 605.95 1378.05 605.4 1377.85 604.7 1376.4 600.5 1371.8 598.15 1367.85 596.1 1362.7 593.95 1361.75 593.55 1360.7 593.25 1360.05 593 1359.35 592.9 1357.2 592.45 1355.05 592.15 1351.7 591.7 1348.25 591.15
L 1347.95 591.4 1347 590.3
Q 1340.3 583.85 1329.1 581.25 1323.65 580 1317.8 579.95 Z"/>
</g>

<g id="Layer0_0_FILL">
<path fill="#000000" stroke="none" d="
M 885.35 504.85
Q 856.3 501.5 853.1 501.25 834.75 499.65 820.7 500.4 812 500.9 807.6 501 799.9 501.5 794.4 502 773.25 504 763.05 505.85 746.45 509 738.1 513.85
L 728.15 518.8
Q 720.7 514.95 704 509 688.3 503.4 680.45 498.9
L 684.3 489.45
Q 688.15 478.6 678.1 474.85 658.05 467.65 637.1 461.4 633 460.05 632.5 459.8 630.4 458.65 629.65 455.95 629.25 454.8 626 453.05 611.8 446.2 607.85 444.45 589.55 436.85 580.8 432.25 574.85 429.15 566 423.9 552.9 416.05 551.15 415.05 522.15 398.9 507.95 390.4 501.85 386.8 481.9 374.1 465.7 363.9 455.65 358.15 442.05 350.45 425.5 337.75 406.55 322.65 396.95 315.2 384.4 305.2 363.7 286.65 344.55 269.6 334.05 259 328.95 253.9 320.6 244.3 311.15 233.75 307.3 229.6 284.5 206.55 265.45 181.9 263.85 179.55 262.35 179.55 260.85 179.55 257.1 181.9 268.8 197.85 271.3 200.85 275.15 205.2 286.6 217.55 296.2 228 301.7 234.45 328.85 266.85 358.85 293.9 394.85 327.4 435.35 355.05 466.85 376.35 508.45 401.25 533.5 416.2 572.95 436.75 579.45 440.1 589.55 444.2 595.15 446.6 606.45 451.05 611.55 453.2 612.95 455.95 614.45 458.8 613.2 464.15 612.55 467.5 611.05 471.25 599.6 496.9 598.25 499.65 595.5 505.25 587.4 521.05 580.55 534.4 576.8 542.5 568 561.15 551.4 599.15
L 536.2 633.05
Q 534.95 635.9 532.25 642.75 529.75 649 528.1 652.35 526.15 656.6 524.65 657.1 523.15 657.45 518.8 655.35 502.45 647.25 496 643.75 460.6 624.3 439.55 612.25 435.2 609.85 428 605.4 419.65 600.3 416.55 598.4 387.4 581.6 372.95 572.9 361.95 566.15 340.8 551.95 298.2 523.3 286.75 515.2 268.2 502.25 243.65 482.85 236.65 477.35 224.7 467.15 211.5 455.8 205.9 451.3 182.1 431.9 148.85 400.85 145.65 397.75 142.75 397.75 139.9 397.75 135.65 400.85 139 404.6 139.75 405.25
L 203.65 462.55
Q 252.1 505.35 305.8 542.75 340.8 567.15 392.1 597.15 464.6 639.5 472.1 643.75 489.15 653.35 513.05 664.3 523 668.9 531.1 666.3 540.6 663.45 545.45 651.45 547.3 646.5 550.15 641 551.8 637.75 553.05 637.25 554.05 636.9 557.65 638 565.6 640.4 581.45 645.75 589.8 648.6 598.85 650.7 601.75 651.6 604.6 650.45 607.35 649.35 608.85 646.75 609.2 645.85 616.2 635.3 620.65 628.45 620.8 622.45 624.15 615.25 633 592.2 640.35 573.25 646.2 562.3 650.2 554.95 655.8 542.35 662.9 526.65 665 522.2 669.35 513.1 676.7 506.5
L 720.05 524.8
Q 706.25 537.5 703.75 556.2 706.25 553.7 708 550.2 710.1 545.85 713.85 541.25 715.95 538.75 721.2 533.4
L 721.8 532.65
Q 723.05 531.4 724.8 531.55 726.55 531.55 727.65 532.75
L 723.3 540.85
Q 729.9 536.9 735.5 531.05 739.6 526.15 745.95 525.45 748.7 524.95 750.45 524.2 773.75 515.2 799 513.35 842.85 509.6 901.9 519.95 918.1 522.45 932.65 529.9 947.25 537.25 958.8 548.7 979.35 569.75 1000.3 576.85 1012.25 581.1 1025.45 580.75 1032.05 580.5 1045 579 1067.8 577.6 1086.5 590.05 1095.1 595.3 1096.2 604.9 1096.6 611 1094.45 615 1091.95 619.1 1086.25 621.6 1079.5 624.45 1070.8 624.55 1066.2 624.7 1055.2 623.8 1051.6 611.35 1054.85 598.65 1063.2 594.9 1070.4 598.55 1075.4 601.05 1082.4 609 1083.75 605.65 1083.75 604.5 1083.6 603.65 1082 601.55 1079.75 598.8 1075.65 597.05 1070.8 595.4 1068.45 594.45 1063.7 592.45 1058.6 592.8 1053.5 593.2 1049.1 595.9 1047.15 602.15 1047.4 610.1 1047.4 614 1048.6 625.05 1043.5 625.2 1028.55 628.55 1016.35 631.3 1008.75 629.65
L 1010.5 614.85
Q 1008.15 617.6 1007.4 620.95 1006.3 625.3 1004.4 629.2 1002.9 631.3 1000.05 631.05 997.45 630.15 999.55 626.7 1006.15 614.6 1004.3 601.4 1003.55 598.55 1001.9 596.4
L 1000.65 596.8
Q 1002.05 615 995.05 631.65 982 635.05 978.5 622.2 973.75 605.15 981.25 592.05 982.5 589.55 983.75 585.85 978.85 588.8 977.15 590.95 975.4 593.05 974 597.8 968.9 615.1 980.1 631.05
L 974.75 630.65
Q 967.55 629.05 963.95 628.2 957.6 626.7 953.2 625.05 946.75 622.8 938.25 621.6 934.55 621.1 923.3 620.1 911 619.2 894.05 621.95 874.85 625.8 865.3 627.3 856.2 628.95 846.5 629.65 834.75 630.05 822.55 626.3 820.05 625.55 819.45 625.45 817.6 625.3 816.1 626.8 819.55 631.05 824.7 633.65 828.55 635.65 834.75 637 853.6 641.65 879.6 637.9 889.45 636.55 908.9 633.15 935.65 629.9 961.2 636.65 972.75 639.5 981.1 640.4 991.95 641.65 1001.3 640.15 1012.65 638.5 1021.95 636.65 1024.45 636.15 1034.05 633.55 1041.5 631.55 1046.25 630.9 1060.7 628.95 1073.8 629.3 1085.25 629.3 1095.35 624.45 1100.55 621.85 1102.7 616.35 1104.65 610.75 1102.55 605.25 1101.45 602 1100.7 599.9 1109.8 597.05 1110.65 596.9 1130.85 592.8 1143.15 583.2 1148 579.6 1153.85 576.5 1169.8 569 1176.9 564.05 1185.5 558.2 1198.7 552.7 1206.3 549.7 1221.65 543.85 1228.95 541.1 1237.05 539.75 1251 537.9 1263.25 544.35 1269.35 547.6 1269.85 550.2 1270.45 552.85 1265.6 557.55
L 1263.35 558.8
Q 1250.9 548.85 1237.8 555.05 1229.35 559.05 1221 564.65 1216 567.9 1217.75 575.85 1220.15 573.5 1222 570.9 1231.6 556.55 1250.5 555.95 1258.5 555.95 1260.5 561.8 1258.25 563.65 1254.75 565.55 1241.45 571.5 1235.6 573.75 1202.95 585.95 1175.8 608.4
L 1160.1 620.6 1157.85 616.6
Q 1157.75 616.2 1155.35 613 1156.75 621.35 1155.5 623.8 1154.25 626.3 1147.65 628.8
L 1146.15 617.6
Q 1145.4 611.75 1140.15 609 1136.95 607.25 1135.3 606.9 1132.45 606.25 1129.85 607.75 1137.8 610.5 1140.65 613 1145.15 616.95 1144.8 624.2 1144.55 629.9 1142.05 633.15 1139.4 636.4 1133.95 638
L 1127.2 621.95
Q 1125.95 625.7 1128.45 630.9 1131.2 636.75 1130.95 639.4
L 1128.7 641
Q 1124.95 644.25 1121.1 642 1117.25 639.75 1117.15 634.65 1117.65 630.65 1118.1 628.8 1118.35 626.55 1118.1 624.2
L 1116.5 623.95
Q 1115.4 626.8 1114.25 630.4 1113.4 634.15 1115 638.25 1115.9 640.75 1118.75 645.35
L 1109.9 649.85
Q 1092.2 659.7 1082.9 663.8 1049.85 678.25 1014.1 698.05 993.2 709.65 975.4 711.25 968.05 711.9 963.7 711.4 957.35 710.65 952.6 707.5 950.85 706.25 948.75 706.25 946.5 706.25 944.75 707.5 948 710.75 951.35 712.9 963.7 719.5 977.25 719.6 984 719.6 989.85 717.5 998.45 714.1 1005.55 710 1008.25 708.65 1020.25 702.4 1029.2 697.7 1034.9 694.95 1054.1 685.95 1092.6 668.55
L 1124.1 653.85
Q 1128.6 652.2 1132.55 651.35
L 1141.9 667.05 1127.95 673.4
Q 1082.15 693.45 1059.45 703.9 1051.1 707.75 1038.9 714 1032.2 717.5 1018.6 724.45 1017.6 724.95 1015.75 726.35 1012.65 728.05 1006.3 731.55 1000.65 734.55 996.7 736.3 984.1 741.4 971.8 741.4 959.7 741.75 943.9 738.55 925.7 734.3 916.6 732.2 910.85 730.95 897.65 727.2 885.6 723.85 878.75 722.45 868.4 720.2 853.2 717.75 836.15 714.85 827.55 713.35 807.25 709.75 797.05 707.9 779.1 704.65 766.65 701.9 757.8 699.9 744.1 695.8 725.9 690.2 721.8 689.1 700.4 683.25 686.55 678.6 667.5 672.25 652.45 664.9 631.65 654.2 621.4 649 620.9 652.7 621.8 654.7 622.8 656.6 626.25 658.95 633 663.45 636.25 665.9 640.2 669.4 642.45 670.9 670.35 685.95 698.9 694.8 752.05 711.25 780.6 718.1 814.7 726.1 849.6 730.45 863.9 732.45 882.35 736.65 885.35 737.3 914.75 744.65 919.7 745.9 929.7 748.85 948.5 753.35 966.3 754.25 991.1 755.2 1008.65 744.9 1023.45 735.55 1031.3 731.55 1052.25 720.7 1062.7 715.35 1080.9 706.25 1095.1 700.9 1102.45 698.2 1118.25 691.35 1133.3 684.85 1141.55 681.75 1159.85 674.65 1174.8 661.55 1195.35 643.6 1205.7 634.8 1223.75 619.6 1238.05 609.85 1239.45 609.1 1240.55 607.75 1244.55 603.25 1250.65 599.4 1254.4 597.05 1262.25 593.05 1274.45 586.6 1284.75 579.6 1293.1 574 1295.25 564.3 1296 561.3 1294.85 558.45 1291.15 552.2 1283.8 551.2 1286 553.95 1287.4 555.05 1289.5 557.95 1289.5 561.65 1289.5 565.3 1287.4 568.15 1284.25 571.75 1282.15 572.15 1279.9 572.65 1275.8 570.4 1273.45 568.65 1272.05 567.65
L 1274.2 563.8
Q 1277.65 557.8 1277.2 553.8 1276.7 549.7 1271.7 544.6 1262.75 536 1251.15 531.9 1241.8 528.3 1231.85 530.4 1212.3 534.65 1194.95 543.25 1164.35 558.05 1136.45 576.85 1127.95 582.45 1116.5 585.85 1109.3 587.95 1095.35 590.3 1090.7 583.85 1089.75 582.85 1084.85 577.35 1076.9 573.5 1073.15 571.75 1062.2 567.9 1054.25 565.05 1044 564.8 1036.9 564.55 1025.45 565.65 1010.4 567.4 996.3 562.65 976.25 555.8 961.2 541 942.5 523.7 926.7 516.6 906.65 507.5 885.35 504.85
M 670.6 483.7
Q 671 489.7 669.35 494.9 665.9 503 658.9 519.05 652.8 532.9 647.55 542.85 639.35 558.8 629.9 581.45 624.3 594.55 613.55 620.7 608.95 630.65 602 641.15 598.25 647.35 592.15 644.35 585.55 641.15 574.45 637.9 559.65 633.4 556.5 632.3 555.5 631.8 554.55 630.8
L 567 602.65
Q 568.6 599.3 575.1 597.55 581.55 595.8 584.4 597.65 586.05 598.65 586.55 600.65 586.9 602.5 585.9 604.25 583.8 609.25 579.55 612.85 575.45 616.45 570.1 617.85 565.25 619.2 562 620.7 564 621.95 567.75 624.45 570.95 626.2 574.85 625.05 584.9 622.6 591.4 614.5 594.25 610.85 595.15 608.5 596.4 605 594.75 601.55 590.5 592.05 581.8 590.95
L 573.1 590.3
Q 578.3 578.1 580.8 572.15 585.3 561.55 588.65 554.55 593.15 545.25 601.6 528.3 610.7 510 614.55 501.9 618.15 494.65 622.9 484.2 628.25 472 631.15 465.65 647.45 471 650.2 472 660.75 475.85 668.25 479.95 670.35 481.2 670.6 483.7
M 1228.25 587.6
Q 1231.85 586.1 1234.7 585.45 1233.85 595.4 1233.45 597.3 1232.95 599.65 1230.7 601.55 1218.75 610.6 1194.6 628.95 1189.35 632.8 1177.05 643.15
L 1162.45 632.8 1178.15 619.95
Q 1192.25 607.9 1207.05 599.3 1221 591.3 1228.25 587.6
M 1241.7 585.2
Q 1244.3 580.25 1249.65 577.85 1254.75 575.75 1259.25 573 1263.95 570 1268.35 570.5 1272.55 570.9 1277.2 574.75
L 1238.45 596.3
Q 1239.55 589.2 1241.7 585.2
M 1156.1 637.65
Q 1159.45 635.8 1164.85 637.9 1170.2 640.15 1171.3 643.75 1171.7 646.25 1169.8 648.35 1167.3 650.35 1163.2 653.1 1160.95 654.6 1156.25 657.7 1155 656.7 1151.65 652.1 1149 648.6 1146 647.75 1145.65 650.6 1148.5 654.35 1151.65 658.3 1151.75 660.8
L 1145.65 664.4
Q 1141.15 659.45 1139.8 657.35 1136.95 653.35 1136.2 649.1 1152.25 639.75 1156.1 637.65 Z"/>

<path fill="#FFFFFF" stroke="none" d="
M 669.35 494.9
Q 671 489.7 670.6 483.7 670.35 481.2 668.25 479.95 660.75 475.85 650.2 472 647.45 471 631.15 465.65 628.25 472 622.9 484.2 618.15 494.65 614.55 501.9 610.7 510 601.6 528.3 593.15 545.25 588.65 554.55 585.3 561.55 580.8 572.15 578.3 578.1 573.1 590.3
L 581.8 590.95
Q 590.5 592.05 594.75 601.55 596.4 605 595.15 608.5 594.25 610.85 591.4 614.5 584.9 622.6 574.85 625.05 570.95 626.2 567.75 624.45 564 621.95 562 620.7 565.25 619.2 570.1 617.85 575.45 616.45 579.55 612.85 583.8 609.25 585.9 604.25 586.9 602.5 586.55 600.65 586.05 598.65 584.4 597.65 581.55 595.8 575.1 597.55 568.6 599.3 567 602.65
L 554.55 630.8
Q 555.5 631.8 556.5 632.3 559.65 633.4 574.45 637.9 585.55 641.15 592.15 644.35 598.25 647.35 602 641.15 608.95 630.65 613.55 620.7 624.3 594.55 629.9 581.45 639.35 558.8 647.55 542.85 652.8 532.9 658.9 519.05 665.9 503 669.35 494.9 Z"/>
</g>

<g id="Layer0_1_FILL">
<path fill="#000000" stroke="none" d="
M 142.35 660.4
Q 143.15 658.15 142.65 655.85 141.4 650.1 133.75 648.05 129.8 647 126.2 649.8 122.65 652.6 122.2 656.8 122 658.55 122.05 659.4 122.15 660.75 122.8 661.8 126.25 667.15 131.5 666.8 136.65 666.8 139.7 664.1 141.55 662.6 142.35 660.4 Z"/>
</g>

<g id="Layer0_2_FILL">
<path fill="#000000" stroke="none" d="
M 157.9 665.25
L 157.85 664.6
Q 156 664.95 153.9 665.95 150.7 668.1 149.2 671.75 147.65 675.5 149.25 678.8 150.85 682.05 154.65 683 161.45 684.7 167.3 679.3 168 678.45 168.3 677.7 169.15 676.25 168.85 674.3 168.3 672.05 168.05 670.9 167.5 668 164.95 666.7 162.55 665.3 161.65 665 159.75 664.4 157.9 665.25 Z"/>
</g>

<g id="Layer0_3_FILL">
<path fill="#000000" stroke="none" d="
M 114.45 641.55
Q 114.05 638.15 111.7 635.95 109.1 633.55 105.6 634 101.6 634.65 98.95 637.65 96.25 640.7 96.15 644.75 95.5 648 99.1 650.7 100.85 652 102.85 652.3 104.6 652.5 107 651.95 110.25 651.2 112.55 648.05 114.85 644.9 114.45 641.55 Z"/>
</g>

<g id="Layer0_4_FILL">
<path fill="#000000" stroke="none" d="
M 358.8 677.85
Q 357.4 679.7 357.45 682.9 357.5 686.05 358.95 688.35
L 358.95 679.65 358.8 677.85 Z"/>
</g>

<g id="Layer0_5_FILL">
<path fill="#FFFFFF" stroke="none" d="
M 140.75 654.8
Q 139.75 651.45 135.05 651.15
L 134.5 651.1
Q 133.05 651 131.55 651.85 130 652.7 128.7 654.35 127.4 656.1 127.4 659.1 127.4 662.1 128.75 663.75 129.55 664.65 130.75 664.8 135.5 665.2 138.9 661.8 140.3 660.45 140.8 658.55 141.3 656.65 140.75 654.8 Z"/>
</g>

<g id="Layer0_6_FILL">
<path fill="#FFFFFF" stroke="none" d="
M 158.6 679.5
Q 160.85 679.4 161.3 679.3 166.3 678.45 166.55 673.45 166.65 670 164.2 668.1 161.7 666.25 158.45 667.35 156.45 668 154.6 669.25 153.2 670.4 152.6 672.05 152 673.7 152.35 675.45 153.15 678 154.45 678.9 155.8 679.75 158.6 679.5 Z"/>
</g>

<g id="Layer0_7_FILL">
<path fill="#FFFFFF" stroke="none" d="
M 112.15 638.7
Q 111.45 637.3 110 636.35 108.45 635.35 107.45 635.75 104.7 636.9 103.5 637.85 101.6 639.35 101.2 641.7 100.65 644.95 101.85 646.8 103.2 648.9 106.55 648.5 107.15 648.4 108.4 648.25 109.5 648.05 110.05 647.7 112.2 646.15 112.75 643.6 113.35 641.05 112.15 638.7 Z"/>
</g>

<path id="Layer6_0_1_STROKES" stroke="#E7E6E7" stroke-opacity="0.4980392156862745" stroke-width="3" stroke-linejoin="round" stroke-linecap="round" fill="none" d="
M 1022.25 148.1
L 1046.5 148.1 1046.5 206.9 955.25 206.9 955.25 242.5
M 1022.25 273.4
L 1046.5 273.4 1046.5 332.2
M 867.125 147.25
L 888.75 147.25
M 830.3 147.25
L 851.9 147.25
M 763.55 245.75
L 763.55 186.75
M 1046.5 334.1
L 1046.5 390.7 1206.45 390.625
M 1221.575 390.625
L 1258.15 390.6
M 763.65 246.25
L 731.45 246.25
M 716.3 246.25
L 672.4 246.25 672.4 277.55
M 672.55 415.45
L 672.55 356.45
M 672.4 277.55
L 672.4 280.95
M 955.25 332.2
L 955.25 367.8
M 511.85 71.65
L 536.1 71.65 536.1 96.1
M 536.1 111.325
L 536.1 130.45 444.85 130.45 444.85 166
M 511.85 196.95
L 536.1 196.95 536.1 219.7
M 536.1 234.925
L 536.1 255.75 444.85 255.75 444.85 292.9
M 444.85 166
L 444.85 167.85
M 511.85 325.4
L 536.1 325.4 536.1 348.05
M 536.1 363.275
L 536.1 384.15 444.85 384.15 444.85 419.75
M 511.85 450.65
L 581.4 450.65 581.4 415.95 619.4 415.95
M 672.7 415.95
L 634.625 415.95
M 581.4 450.65
L 581.4 451.55
M 444.85 419.75
L 444.85 421.6"/>
</defs>

<g transform="matrix( 1.226898193359375, 0, 0, 1.125946044921875, -196.1,-47.1) ">
<use xlink:href="#Layer7_0_FILL"/>
</g>

<g transform="matrix( 1, 0, 0, 1, 0,0) ">
<use xlink:href="#Layer6_0_FILL"/>

<use xlink:href="#Layer6_0_1_STROKES"/>
</g>

<g transform="matrix( 1.125946044921875, 0, 0, 1.125946044921875, -65.9,-33.6) ">
<use xlink:href="#Layer5_0_FILL"/>
</g>

<g transform="matrix( 1.125946044921875, 0, 0, 1.125946044921875, -79.45,-30.2) ">
<use xlink:href="#Layer5_1_FILL"/>
</g>

<g transform="matrix( 1.12591552734375, 0, 0, 1.12591552734375, -79.45,-30.2) ">
<use xlink:href="#Layer5_1_MEMBER_0_FILL"/>
</g>

<g transform="matrix( 1, 0, 0, 1, 0,0) ">
<use xlink:href="#Layer5_2_FILL"/>
</g>

<g transform="matrix( 1, 0, 0, 1, 0,0) ">
<use xlink:href="#Layer4_0_FILL"/>
</g>

<g transform="matrix( 1.125946044921875, 0, 0, 1.125946044921875, -72.7,-37) ">
<use xlink:href="#Layer4_1_FILL"/>
</g>

<g transform="matrix( 1, 0, 0, 1, 0,0) ">
<use xlink:href="#Layer3_0_MEMBER_0_FILL"/>
</g>

<g transform="matrix( 1.125946044921875, 0, 0, 1.125946044921875, -72.7,-37) ">
<use xlink:href="#Layer3_0_MEMBER_0_MEMBER_0_FILL"/>
</g>

<g transform="matrix( 1.0714111328125, 0, 0, 1.0714111328125, -349.4,352) ">
<use xlink:href="#Layer3_0_MEMBER_0_MEMBER_1_FILL"/>
</g>

<g transform="matrix( 1.125946044921875, 0, 0, 1.125946044921875, -731.05,339.85) ">
<use xlink:href="#Layer3_0_MEMBER_0_MEMBER_2_FILL"/>
</g>

<g transform="matrix( 1, 0, 0, 1, 0,0) ">
<use xlink:href="#Layer3_0_MEMBER_0_MEMBER_3_FILL"/>
</g>

<g transform="matrix( 1.125946044921875, 0, 0, 1.125946044921875, -72.7,-37) ">
<use xlink:href="#Layer2_0_FILL"/>
</g>

<g transform="matrix( 1, 0, 0, 1, 0,0) ">
<use xlink:href="#Layer1_0_FILL"/>
</g>

<g transform="matrix( 1.125946044921875, 0, 0, 1.125946044921875, -72.7,-37) ">
<use xlink:href="#Layer0_0_FILL"/>
</g>

<g transform="matrix( 2.80474853515625, 0, 0, 2.80474853515625, 36.85,-1266.25) ">
<use xlink:href="#Layer0_1_FILL"/>
</g>

<g transform="matrix( 2.80474853515625, 0, 0, 2.80474853515625, 36.85,-1266.25) ">
<use xlink:href="#Layer0_2_FILL"/>
</g>

<g transform="matrix( 2.80474853515625, 0, 0, 2.80474853515625, 36.85,-1266.25) ">
<use xlink:href="#Layer0_3_FILL"/>
</g>

<g transform="matrix( 2.80474853515625, 0, 0, 2.80474853515625, 36.85,-1266.25) ">
<use xlink:href="#Layer0_4_FILL"/>
</g>

<g transform="matrix( 2.80474853515625, 0, 0, 2.80474853515625, 36.85,-1266.25) ">
<use xlink:href="#Layer0_5_FILL"/>
</g>

<g transform="matrix( 2.80474853515625, 0, 0, 2.80474853515625, 36.85,-1266.25) ">
<use xlink:href="#Layer0_6_FILL"/>
</g>

<g transform="matrix( 2.80474853515625, 0, 0, 2.80474853515625, 36.85,-1266.25) ">
<use xlink:href="#Layer0_7_FILL"/>
</g>
</svg>
