<svg xmlns="http://www.w3.org/2000/svg" viewBox="0 0 637.49 159.49"><defs><style>.cls-1{fill:#fff;}.cls-2{fill:#9b9a9a;}.cls-3{fill:#696969;}</style></defs><g id="Layer_2" data-name="Layer 2"><g id="Layer_1-2" data-name="Layer 1"><path class="cls-1" d="M333.65,56.48v5H314.71V33.36h18.54v5H320v6.35H332v5H320v6.71Z"/><path class="cls-1" d="M356.85,50.61v10.9H351.5V51.82c0-.69.49-5.75-3.37-6-1.89-.12-5.27.92-5.27,6.19v9.45h-5.31V41.4h4.1l.69,2.46H343a7.67,7.67,0,0,1,6.11-2.66C354.32,41.2,356.85,45.06,356.85,50.61Z"/><path class="cls-1" d="M378.28,63.12c-.16,4.54-4.3,6.63-9.08,6.63-6.24,0-9.81-3.58-8.89-7.92L362.6,60a4.2,4.2,0,0,1-2.13-3.54A4.08,4.08,0,0,1,363,52.86a6.35,6.35,0,0,1-2-4.82c0-3.86,3-6.88,8-6.88a9.93,9.93,0,0,1,4.58,1A10.1,10.1,0,0,0,377,39.55l2.49,3.34a13.13,13.13,0,0,1-3.22,1.49A6,6,0,0,1,377.4,48c0,3.82-3.5,6.87-8.57,6.87a10.48,10.48,0,0,1-2.85-.36,1.16,1.16,0,0,0-.6,1c0,1.44,2.21,1.2,3.58,1.2h2.81C376.19,56.72,378.4,59.74,378.28,63.12ZM373.34,63c0-1.08-.89-1.93-3.14-1.93-1.12,0-2.69,0-3.86,0L365,62.43c-.25,1,.76,2.66,4.3,2.66C371.89,65.09,373.34,64.24,373.34,63Zm-7.6-15c0,1.52,1.08,2.65,3.42,2.65s3.41-1.13,3.41-2.65-1.12-2.54-3.41-2.54S365.74,46.43,365.74,48Z"/><path class="cls-1" d="M381.74,35.77a3.42,3.42,0,0,1,3.46-3.41,3.38,3.38,0,0,1,3.38,3.41,3.43,3.43,0,0,1-3.38,3.38A3.47,3.47,0,0,1,381.74,35.77Zm6,25.74h-5.15V41.4h5.15Z"/><path class="cls-1" d="M412.06,50.61v10.9h-5.35V51.82c0-.69.49-5.75-3.37-6-1.89-.12-5.27.92-5.27,6.19v9.45h-5.31V41.4h4.1l.69,2.46h.68a7.67,7.67,0,0,1,6.11-2.66C409.53,41.2,412.06,45.06,412.06,50.61Z"/><path class="cls-1" d="M435.26,53H420.59a5.08,5.08,0,0,0,5.27,4.18,4.74,4.74,0,0,0,3.89-1.68h5.07a9.58,9.58,0,0,1-9.13,6.23,10.09,10.09,0,0,1-10.17-10.42,9.78,9.78,0,0,1,10-10.09C430.68,41.2,435.91,44.78,435.26,53Zm-14.35-4.06h9a4.09,4.09,0,0,0-4.27-3.34A5,5,0,0,0,420.91,48.92Z"/><path class="cls-1" d="M457.82,53H443.15a5.07,5.07,0,0,0,5.26,4.18,4.75,4.75,0,0,0,3.9-1.68h5.07a9.58,9.58,0,0,1-9.13,6.23,10.09,10.09,0,0,1-10.17-10.42,9.78,9.78,0,0,1,10-10.09C453.24,41.2,458.47,44.78,457.82,53Zm-14.35-4.06h9a4.09,4.09,0,0,0-4.27-3.34A5,5,0,0,0,443.47,48.92Z"/><path class="cls-1" d="M474.15,41.2v5.15a9.93,9.93,0,0,0-1.77-.16c-2.81,0-5.75,1.45-5.75,5.14V61.51h-5.35V41.4h4.11l.72,2.21h.64a8.52,8.52,0,0,1,6.15-2.41Z"/><path class="cls-1" d="M476.77,35.77a3.41,3.41,0,0,1,3.45-3.41,3.38,3.38,0,0,1,3.38,3.41,3.43,3.43,0,0,1-3.38,3.38A3.46,3.46,0,0,1,476.77,35.77Zm6,25.74h-5.15V41.4h5.15Z"/><path class="cls-1" d="M507.08,50.61v10.9h-5.34V51.82c0-.69.48-5.75-3.38-6-1.89-.12-5.27.92-5.27,6.19v9.45h-5.31V41.4h4.11l.68,2.46h.68a7.7,7.7,0,0,1,6.11-2.66C504.55,41.2,507.08,45.06,507.08,50.61Z"/><path class="cls-1" d="M528.52,63.12c-.17,4.54-4.31,6.63-9.09,6.63-6.23,0-9.81-3.58-8.89-7.92L512.83,60a4.2,4.2,0,0,1-2.13-3.54,4.07,4.07,0,0,1,2.5-3.58A6.32,6.32,0,0,1,511.15,48c0-3.86,3-6.88,8-6.88a9.93,9.93,0,0,1,4.58,1,10.1,10.1,0,0,0,3.42-2.62l2.49,3.34a13.13,13.13,0,0,1-3.22,1.49A6,6,0,0,1,527.63,48c0,3.82-3.5,6.87-8.56,6.87a10.56,10.56,0,0,1-2.86-.36,1.16,1.16,0,0,0-.6,1c0,1.44,2.21,1.2,3.58,1.2H522C526.42,56.72,528.64,59.74,528.52,63.12ZM523.57,63c0-1.08-.88-1.93-3.14-1.93-1.12,0-2.69,0-3.86,0l-1.36,1.45c-.24,1,.76,2.66,4.3,2.66C522.12,65.09,523.57,64.24,523.57,63ZM516,48c0,1.52,1.09,2.65,3.42,2.65s3.42-1.13,3.42-2.65-1.13-2.54-3.42-2.54S516,46.43,516,48Z"/><path class="cls-1" d="M562.7,57.65v3.86h-1.21c-2.33,0-4-.85-4.66-2.58-1.21,1.65-3.22,2.78-6.36,2.78-4.54,0-7.44-2.33-7.44-6,0-6.28,8.57-6.84,12.43-7-.08-2.33-1.37-3.18-3.42-3.18-2.85,0-3,1.73-3,1.73h-5c.36-3.57,3.3-6.07,8.2-6.07s8.16,2.37,8.16,8.2v5.35C560.32,57.08,561.17,57.65,562.7,57.65Zm-7.32-4.59v-.4c-3.66.4-7.28.85-7.28,2.94C548.1,58.65,555.06,58.41,555.38,53.06Z"/><path class="cls-1" d="M585,50.61v10.9h-5.35V51.82c0-.69.49-5.75-3.37-6-1.89-.12-5.27.92-5.27,6.19v9.45h-5.31V41.4h4.1l.69,2.46h.68a7.69,7.69,0,0,1,6.11-2.66C582.44,41.2,585,45.06,585,50.61Z"/><path class="cls-1" d="M608,33V61.51h-3.94l-.56-1.93h-.6a6.64,6.64,0,0,1-5.11,2.13c-5.11,0-9.37-4.18-9.37-10.26s4.26-10.25,9.37-10.25A6.75,6.75,0,0,1,603,43.37V33Zm-5,18.49c0-3.33-1.81-5.3-4.43-5.3-2.45,0-4.9,1.77-4.9,5.3s2.45,5.31,4.9,5.31C601.18,56.76,603,54.79,603,51.45Z"/><path class="cls-1" d="M334.17,83.2a8.67,8.67,0,0,1-8.72,9h-5.63V102.7h-5.11V74.55h10.74C330.07,74.55,334.17,77.61,334.17,83.2Zm-5.31,0a3.49,3.49,0,0,0-3.81-3.7h-5.23v7.8h5.23A3.81,3.81,0,0,0,328.86,83.2Z"/><path class="cls-1" d="M357.29,91.8v10.9H351.9V93c0-2,.33-6-3.29-6-1.77,0-5.19.92-5.19,6.19v9.45H338V74.15h5.11V84.69h.68a7.8,7.8,0,0,1,5.79-2.3C354.8,82.39,357.29,86.25,357.29,91.8Z"/><path class="cls-1" d="M380.49,82.6l-7,20.86c-1.13,3.34-2.45,7.48-8.52,7.48-3.62,0-5.51-1.45-6.12-2.21l2.54-3.58a4.86,4.86,0,0,0,3.13,1.25c1.69,0,2.82-.68,3.26-2.05l.56-1.65h-2.69l-6.92-20.1h5.59l5.07,14.63h.8l4.91-14.63Z"/><path class="cls-1" d="M390.63,86.66c-1.69,0-2.41.84-2.41,1.69,0,1.36,1.81,1.76,3,2,3.58.76,7.2,1.85,7.2,6.11s-3.42,6.43-7.56,6.43c-4.62,0-8.2-2.81-8.44-7.08h4.94a3,3,0,0,0,3.38,2.78c2.05,0,2.53-1.09,2.53-1.93,0-1.49-1.4-1.93-2.77-2.25-2.37-.53-7.48-1.49-7.48-6.07,0-3.94,3.78-6,7.68-6,4.5,0,7.48,2.74,7.72,6.12h-4.94C393.32,87.82,392.68,86.66,390.63,86.66Z"/><path class="cls-1" d="M401,77a3.42,3.42,0,1,1,3.45,3.37A3.45,3.45,0,0,1,401,77Zm6,25.73h-5.15V82.6H407Z"/><path class="cls-1" d="M420.91,102.9a10,10,0,0,1-10.17-10.21,10.21,10.21,0,0,1,10.37-10.3A9.64,9.64,0,0,1,430.72,90h-5.47A4.67,4.67,0,0,0,421,87.26,5.4,5.4,0,0,0,421,98a4.63,4.63,0,0,0,4.1-2.42h5.51A9.77,9.77,0,0,1,420.91,102.9Z"/><path class="cls-1" d="M453.2,98.84v3.86H452c-2.33,0-4-.85-4.66-2.57-1.21,1.64-3.22,2.77-6.36,2.77-4.54,0-7.43-2.33-7.43-6,0-6.27,8.56-6.84,12.42-7-.08-2.33-1.37-3.17-3.42-3.17-2.85,0-3.05,1.73-3.05,1.73h-5c.36-3.58,3.3-6.08,8.2-6.08s8.17,2.38,8.17,8.21v5.34C450.83,98.28,451.67,98.84,453.2,98.84Zm-7.32-4.58v-.41c-3.66.41-7.28.85-7.28,2.94C438.6,99.85,445.56,99.6,445.88,94.26Z"/><path class="cls-1" d="M461,74.15V102.7h-5.23V74.15Z"/><path class="cls-1" d="M485.57,102.9c-6.15,0-10.42-4-10.42-9.29h5.23a4.88,4.88,0,0,0,5.15,4.31c1.37,0,4.1-.49,4.1-3.1,0-2.37-2.29-3.34-4.58-4.22-3.78-1.49-9.13-3.3-9.13-8.65,0-4.74,4.14-7.64,9.17-7.64,5.83,0,9.08,3.9,9.08,7.48H489c-.29-1.57-2-2.57-4-2.57s-3.54,1-3.54,2.73,1.56,2.42,4.3,3.66c2.93,1.33,9.21,2.9,9.21,9.25C495,100.13,490.67,102.9,485.57,102.9Z"/><path class="cls-1" d="M507.68,102.9a10,10,0,0,1-10.17-10.21,10.21,10.21,0,0,1,10.38-10.3,9.63,9.63,0,0,1,9.6,7.56H512a4.68,4.68,0,0,0-4.27-2.69,5.4,5.4,0,0,0,0,10.78,4.66,4.66,0,0,0,4.11-2.42h5.5A9.75,9.75,0,0,1,507.68,102.9Z"/><path class="cls-1" d="M520.59,77a3.43,3.43,0,0,1,3.46-3.42A3.38,3.38,0,0,1,527.43,77a3.42,3.42,0,0,1-3.38,3.37A3.46,3.46,0,0,1,520.59,77Zm6,25.73h-5.15V82.6h5.15Z"/><path class="cls-1" d="M550.11,94.18H535.43a5.09,5.09,0,0,0,5.27,4.18,4.76,4.76,0,0,0,3.9-1.69h5.06a9.56,9.56,0,0,1-9.12,6.23,10.08,10.08,0,0,1-10.17-10.41,9.78,9.78,0,0,1,10-10.1C545.52,82.39,550.75,86,550.11,94.18Zm-14.36-4.07h9a4.07,4.07,0,0,0-4.26-3.33A5,5,0,0,0,535.75,90.11Z"/><path class="cls-1" d="M572.87,91.8v10.9h-5.35V93c0-.68.48-5.75-3.38-6-1.89-.12-5.26.92-5.26,6.19v9.45h-5.31V82.6h4.1l.68,2.45H559a7.67,7.67,0,0,1,6.11-2.66C570.33,82.39,572.87,86.25,572.87,91.8Z"/><path class="cls-1" d="M586.5,102.9a10,10,0,0,1-10.17-10.21,10.21,10.21,0,0,1,10.37-10.3A9.64,9.64,0,0,1,596.31,90h-5.47a4.67,4.67,0,0,0-4.26-2.69,5.4,5.4,0,0,0,0,10.78,4.63,4.63,0,0,0,4.1-2.42h5.51A9.77,9.77,0,0,1,586.5,102.9Z"/><path class="cls-1" d="M618.71,94.18H604a5.1,5.1,0,0,0,5.27,4.18,4.76,4.76,0,0,0,3.9-1.69h5.07a9.58,9.58,0,0,1-9.13,6.23A10.08,10.08,0,0,1,599,92.49a9.78,9.78,0,0,1,10-10.1C614.12,82.39,619.35,86,618.71,94.18Zm-14.36-4.07h9a4.07,4.07,0,0,0-4.26-3.33A5,5,0,0,0,604.35,90.11Z"/><path class="cls-1" d="M629.69,86.66c-1.69,0-2.41.84-2.41,1.69,0,1.36,1.81,1.76,3,2,3.58.76,7.2,1.85,7.2,6.11s-3.42,6.43-7.56,6.43c-4.62,0-8.2-2.81-8.44-7.08h4.94a3,3,0,0,0,3.38,2.78c2.05,0,2.53-1.09,2.53-1.93,0-1.49-1.4-1.93-2.77-2.25-2.37-.53-7.48-1.49-7.48-6.07,0-3.94,3.78-6,7.68-6,4.5,0,7.48,2.74,7.72,6.12h-5C632.38,87.82,631.74,86.66,629.69,86.66Z"/><path class="cls-1" d="M329.15,143.89l-6-10.33h-3.34v10.33h-5.11V115.75h9.93c4.63,0,8.73,3.09,8.73,8.64a8.93,8.93,0,0,1-5.07,8.2l6.8,11.3Zm-9.33-15.32h4.42a3.82,3.82,0,0,0,3.82-4.1,3.52,3.52,0,0,0-3.82-3.7h-4.42Z"/><path class="cls-1" d="M355.65,135.37H341a5.09,5.09,0,0,0,5.27,4.18,4.76,4.76,0,0,0,3.9-1.69h5.06a9.56,9.56,0,0,1-9.12,6.23,10.09,10.09,0,0,1-10.18-10.41,9.78,9.78,0,0,1,10-10.09C351.06,123.59,356.29,127.17,355.65,135.37Zm-14.36-4.06h9a4.07,4.07,0,0,0-4.26-3.34A5,5,0,0,0,341.29,131.31Z"/><path class="cls-1" d="M366.62,127.85c-1.68,0-2.41.84-2.41,1.69,0,1.36,1.81,1.77,3,2,3.58.76,7.19,1.85,7.19,6.11s-3.41,6.43-7.56,6.43c-4.62,0-8.2-2.81-8.44-7.07h4.95a3,3,0,0,0,3.37,2.77c2.06,0,2.54-1.08,2.54-1.93,0-1.49-1.41-1.93-2.78-2.25-2.37-.52-7.47-1.49-7.47-6.07,0-3.94,3.77-5.95,7.67-5.95,4.51,0,7.48,2.73,7.72,6.11h-4.94C369.32,129,368.67,127.85,366.62,127.85Z"/><path class="cls-1" d="M396.66,135.37H382a5.08,5.08,0,0,0,5.26,4.18,4.74,4.74,0,0,0,3.9-1.69h5.07a9.58,9.58,0,0,1-9.13,6.23,10.08,10.08,0,0,1-10.17-10.41,9.78,9.78,0,0,1,10-10.09C392.08,123.59,397.31,127.17,396.66,135.37Zm-14.35-4.06h9a4.07,4.07,0,0,0-4.26-3.34A5,5,0,0,0,382.31,131.31Z"/><path class="cls-1" d="M419,140v3.86h-1.21c-2.33,0-4-.84-4.66-2.57-1.21,1.65-3.22,2.77-6.35,2.77-4.55,0-7.44-2.33-7.44-6,0-6.27,8.56-6.83,12.42-7-.08-2.34-1.36-3.18-3.42-3.18-2.85,0-3.05,1.73-3.05,1.73h-5c.37-3.58,3.3-6.07,8.21-6.07s8.16,2.37,8.16,8.2v5.35C416.61,139.47,417.45,140,419,140Zm-7.32-4.58v-.4c-3.66.4-7.28.84-7.28,2.93C404.38,141,411.34,140.8,411.66,135.45Z"/><path class="cls-1" d="M434.82,123.59v5.14a9.83,9.83,0,0,0-1.77-.16c-2.81,0-5.74,1.45-5.74,5.15v10.17H422v-20.1h4.1l.72,2.21h.65a8.48,8.48,0,0,1,6.15-2.41Z"/><path class="cls-1" d="M446.2,144.09A10,10,0,0,1,436,133.88a10.2,10.2,0,0,1,10.37-10.29,9.62,9.62,0,0,1,9.61,7.56h-5.46a4.68,4.68,0,0,0-4.27-2.7,5.4,5.4,0,0,0,0,10.78,4.67,4.67,0,0,0,4.11-2.41h5.5A9.75,9.75,0,0,1,446.2,144.09Z"/><path class="cls-1" d="M478.49,133v10.89h-5.38V134.2c0-2,.32-5.95-3.3-5.95-1.77,0-5.19.93-5.19,6.19v9.45h-5.38V115.35h5.1v10.53H465a7.77,7.77,0,0,1,5.79-2.29C476,123.59,478.49,127.45,478.49,133Z"/><path class="cls-1" d="M515.57,135.45A11.73,11.73,0,0,1,504,144.09c-7.36,0-12.71-6-12.71-14.27s5.31-14.27,12.67-14.27a11.81,11.81,0,0,1,11.58,8.64H509.5a5.57,5.57,0,0,0-5.43-3.34c-4.58,0-7.2,3.74-7.2,9s2.66,9,7.28,9a5.46,5.46,0,0,0,5.35-3.34Z"/><path class="cls-1" d="M517.78,133.88a10.07,10.07,0,0,1,10.37-10.29,9.9,9.9,0,0,1,10.18,10.21A10,10,0,0,1,528,144.09,9.91,9.91,0,0,1,517.78,133.88Zm15.28,0c0-3.14-1.85-5.59-4.91-5.59s-5.1,2.45-5.1,5.59,2.05,5.59,5.1,5.59S533.06,137,533.06,133.84Z"/><path class="cls-1" d="M561,123.79v20.1h-4l-.73-2.25h-.52a7.14,7.14,0,0,1-5.87,2.45c-5.35,0-8.08-3.78-8.08-9.41V123.79h5.47v9.69c0,2.49.2,6,3.66,6,1.77,0,4.66-.93,4.66-6.19v-9.45Z"/><path class="cls-1" d="M585.06,133v10.89h-5.35V134.2c0-.68.48-5.75-3.38-5.95-1.89-.12-5.27.93-5.27,6.19v9.45h-5.3v-20.1h4.1l.68,2.45h.68a7.74,7.74,0,0,1,6.12-2.65C582.52,123.59,585.06,127.45,585.06,133Z"/><path class="cls-1" d="M598.69,144.09a10,10,0,0,1-10.17-10.21,10.2,10.2,0,0,1,10.37-10.29,9.63,9.63,0,0,1,9.61,7.56H603a4.66,4.66,0,0,0-4.26-2.7,5.4,5.4,0,0,0,0,10.78,4.65,4.65,0,0,0,4.1-2.41h5.51A9.77,9.77,0,0,1,598.69,144.09Z"/><path class="cls-1" d="M611.6,118.16a3.42,3.42,0,1,1,3.45,3.38A3.46,3.46,0,0,1,611.6,118.16Zm6,25.73h-5.15v-20.1h5.15Z"/><path class="cls-1" d="M627.28,115.35v28.54h-5.23V115.35Z"/><path class="cls-1" d="M56,106c0,3.78-2.52,6.27-8.74,6.27H32.12V99.79H47.24C53.46,99.79,56,102.2,56,106Z"/><path class="cls-1" d="M47.24,88.63C58,87.54,67.87,81.76,70.87,71.72V97.36C67.35,91.42,59.26,88.66,47.24,88.63Z"/><path class="cls-1" d="M72,99.79H90.24v32.94H70.87v7.75L57.23,122.61C67.61,120.7,73,115.33,73,106A18.66,18.66,0,0,0,72,99.79Z"/><polygon class="cls-1" points="87.39 64.9 109.61 88.63 87.39 88.63 87.39 64.9"/><path class="cls-1" d="M0,17.76V159.49H141.73V17.76Zm126.13,19L102.45,61l23.68,24.25V99.79H106.76v32.94h19.37V143.9H54.61L39.34,123.41H32.12V143.9H15.6V88.63H40C27,87.31,15.6,79.18,15.6,65V33.36H32.12V64.77c0,6.72,5,10.62,11.59,10.62s11.58-3.9,11.58-10.62V33.36h32.1V57l22.22-23.66h16.52Z"/><rect class="cls-2" x="205.11" y="17.76" width="78.35" height="105.07"/><polygon class="cls-3" points="205.11 122.84 205.11 17.76 205.11 0 141.73 0 141.73 17.76 141.73 159.49 283.46 159.49 283.46 122.84 205.11 122.84"/></g></g></svg>