<svg xmlns="http://www.w3.org/2000/svg" viewBox="0 0 155.13 136.56"><defs><style>.cls-1{fill:#fff;}</style></defs><g id="Layer_2" data-name="Layer 2"><g id="Layer_1-2" data-name="Layer 1"><path class="cls-1" d="M11.3,103.63c0,1.78,0,3.88-2.26,5.17a6.58,6.58,0,0,1-3.39.81c-1,0-3.23-.17-4.36-1.62A5.59,5.59,0,0,1,0,103.79V93.14H3.07v10.49a4.15,4.15,0,0,0,.64,2.59A3.54,3.54,0,0,0,6,107a3,3,0,0,0,2.42-1,4.3,4.3,0,0,0,.49-2.42V93.14H11.3Zm18.56,5.81H27.12l-6.3-10.33c-.16-.32-.8-1.45-1-1.77v12.27H17.43V93.14h3.23l5.65,9.52c0,.17.49.81,1,1.94V93.14H29.7v16.3Z"/><path class="cls-1" d="M37.13,93.14H40v16.3h-2.9Zm13.4,16.3-5-16.3h3.23l3.71,12.59,3.72-12.59H58.6l-5,16.3Zm13.55,0V93.14h10.5v2.42H67v4.52h6.13v2.26H67V107h7.75v2.42Z"/><path class="cls-1" d="M90.4,109.44l-2.59-6.61H83.62v6.61H80.71V93.14h7.1c2.1,0,3.23.32,4.2,1.29A4.56,4.56,0,0,1,93.46,98a4.52,4.52,0,0,1-2.9,4.36l2.9,7.1Zm-6.62-9h3.71c1.45,0,3.07-.49,3.07-2.59,0-1.29-.81-2.42-2.91-2.42H83.78Zm17,4.51a2.66,2.66,0,0,0,1.93,2.1,5.05,5.05,0,0,0,2.1.33c2.75,0,3.23-1.46,3.23-2.1a2.09,2.09,0,0,0-1.94-2.1l-3.71-1a4.29,4.29,0,0,1-3.55-4.36c0-3.06,2.42-4.84,5.81-4.84a7.52,7.52,0,0,1,4.52,1.45,3.06,3.06,0,0,1,1.29,2.1l-2.74.65c-.16-.49-.65-1.78-3.07-1.78-2.26,0-2.74,1.13-2.74,2.1,0,1.29,1.45,1.78,2.26,1.94l2.74.64c1.45.33,4.2,1.13,4.2,4.68,0,3.23-2.75,5.17-6.46,5.17a7.45,7.45,0,0,1-5-1.62A4.26,4.26,0,0,1,98,105.73Z"/><path class="cls-1" d="M117,93.14h2.91v16.3H117Zm12.75,16.3V95.72h-4.35V93.14h11.78v2.58H133v13.72Zm16.95,0v-6.78l-5.48-9.52h3.55l3.87,6.78,3.71-6.78h2.75L150,102.66v6.78Zm-133.17,27c-5.17,0-6.78-4.68-6.78-8.39,0-4.36,2.42-8.4,6.94-8.4s6.78,4,6.78,8.4c0,4.84-2.58,8.39-6.94,8.39m3.07-12.75a3.13,3.13,0,0,0-2.91-1.78c-3.07,0-3.71,3.07-3.71,6,0,1.93.32,6,3.71,6a3.54,3.54,0,0,0,3.07-1.94,9.19,9.19,0,0,0,.81-4.19,15.65,15.65,0,0,0-1-4m8.87,12.43v-16.3H35.67v2.58H28.41v4.36h5.81v2.58H28.41v6.78Z"/><path class="cls-1" d="M49.23,131.56a2.71,2.71,0,0,0,1.94,2.1,5.17,5.17,0,0,0,2.1.32c2.74,0,3.23-1.45,3.23-2.1a2.11,2.11,0,0,0-1.94-2.1l-3.71-1a4.29,4.29,0,0,1-3.55-4.36c0-3.07,2.42-4.85,5.81-4.85a7.55,7.55,0,0,1,4.52,1.46,3,3,0,0,1,1.29,2.1l-2.74.64c-.17-.48-.65-1.77-3.07-1.77-2.26,0-2.75,1.13-2.75,2.09,0,1.3,1.46,1.78,2.26,1.94l2.75.65c1.45.32,4.2,1.13,4.2,4.68,0,3.23-2.75,5.16-6.46,5.16a7.49,7.49,0,0,1-5-1.61,4.24,4.24,0,0,1-1.61-2.58Zm27-1.29c0,1.77,0,3.87-2.26,5.16a6.56,6.56,0,0,1-3.39.81c-1,0-3.23-.16-4.36-1.61a5.62,5.62,0,0,1-1.29-4.2V119.78H68v10.49a4.1,4.1,0,0,0,.64,2.58,3.5,3.5,0,0,0,2.26.81,3.06,3.06,0,0,0,2.43-1,4.41,4.41,0,0,0,.48-2.42V119.78h2.42Zm6.94,1.29a2.69,2.69,0,0,0,1.94,2.1,5.17,5.17,0,0,0,2.1.32c2.74,0,3.23-1.45,3.23-2.1a2.11,2.11,0,0,0-1.94-2.1l-3.87-1A4.29,4.29,0,0,1,81,124.46c0-3.07,2.43-4.85,5.82-4.85a7.58,7.58,0,0,1,4.52,1.46,3.06,3.06,0,0,1,1.29,2.1l-2.75.64c-.16-.48-.64-1.77-3.06-1.77-2.26,0-2.75,1.13-2.75,2.09,0,1.3,1.45,1.78,2.26,1.94l2.75.65c1.45.32,4.19,1.13,4.19,4.68,0,3.23-2.74,5.16-6.45,5.16a7.47,7.47,0,0,1-5-1.61,4.24,4.24,0,0,1-1.61-2.58Zm16.63,0a2.67,2.67,0,0,0,1.94,2.1,5.13,5.13,0,0,0,2.09.32c2.75,0,3.23-1.45,3.23-2.1a2.11,2.11,0,0,0-1.93-2.1l-3.72-1a4.29,4.29,0,0,1-3.55-4.36c0-3.07,2.42-4.85,5.81-4.85a7.53,7.53,0,0,1,4.52,1.46,3,3,0,0,1,1.29,2.1l-2.74.64c-.16-.48-.65-1.77-3.07-1.77-2.26,0-2.74,1.13-2.74,2.09,0,1.3,1.45,1.78,2.26,1.94l2.74.65c1.46.32,4.2,1.13,4.2,4.68,0,3.23-2.74,5.16-6.46,5.16a7.46,7.46,0,0,1-5-1.61A4.24,4.24,0,0,1,97,132.37Z"/><path class="cls-1" d="M115.26,136.08v-16.3h10.49v2.42h-7.59v4.52h6.14V129h-6.14v4.52h7.75v2.58Zm25.34,0-3.71-6.46-3.72,6.46h-2.74l5.17-8.56-4.52-7.74h3.39l3.06,5.48,3.23-5.48h2.74L139,127.2l5,8.88ZM20.82,44.23c0,17.27,7.59,27,24.22,27,11.94,0,21.3-6.94,25.66-17.76a.16.16,0,0,1,.16-.16v.16c5.65,11,17.44,17.76,33.74,17.76,17.27,0,31-8.88,31-22.12,0-9.52-6-15.33-18.08-20.82-1.78-.81-5.49-2.58-7.11-3.39-6.29-3.07-10-5.81-10-11.46,0-6,5.32-10,12.42-10,11.14,0,15.5,8.23,18.57,17.27h2.74L132.69,1h-2.1l-.32.32c-1.45,1.78-3.23,1.78-6.14.81A36.34,36.34,0,0,0,112.51,0c-13.4,0-23.4,8.39-23.4,19.05,0,9,5.32,14.85,15.81,19.53,1.46.65,5,2.42,7,3.23C118,44.71,123,47.62,123,54.24c0,8.55-8.71,13.23-18.24,13.23C89.59,67.47,81,57.63,81,40.84V1.94H54.56V4.68h.81c10.17,1,11.46,2.75,11.46,13.24V40.68c0,16.14-6.62,25.66-17.6,25.66-10,0-13.72-7.74-13.72-21.14V1.94H9.36V4.68H10c9.52,1,11,2.1,11,12.92V44.23Z"/></g></g></svg>